<?xml version="1.0" encoding="utf-8"?>
<!-- Generator: Adobe Illustrator 16.0.4, SVG Export Plug-In . SVG Version: 6.00 Build 0)  -->
<!DOCTYPE svg PUBLIC "-//W3C//DTD SVG 1.1//EN" "http://www.w3.org/Graphics/SVG/1.1/DTD/svg11.dtd">
<svg version="1.1" id="Ebene_1" xmlns="http://www.w3.org/2000/svg" xmlns:xlink="http://www.w3.org/1999/xlink" x="0px" y="0px"
	 width="512px" height="512px" viewBox="0 0 512 512" enable-background="new 0 0 512 512" xml:space="preserve">
<g id="_x23_69a93fff">
	<path fill="#69A93F" d="M0,0h86.25C77.76,8.44,69.22,16.85,60.89,25.46l-0.37,0.38c-1.71-3.279-3.6-6.51-6.359-9.029
		c-1.71,6.01-2.641,12.2-3.25,18.399c-0.41,0.42-0.82,0.83-1.221,1.25c-7.279,7.44-14.77,14.681-22,22.181l-0.31,0.319
		c-1.47-2.939-3.07-5.819-4.86-8.569C14.92,38.46,7.84,26.21,0,14.43V0z"/>
	<path fill="#69A93F" d="M157.53,0h180.7c-5.49,5.221-10.62,10.79-16.19,15.931c-1.109-3.881-2.43-7.7-4.05-11.391
		c-1.939,1.92-3.819,3.9-5.529,6.021c-11.551,14.38-23.55,28.38-35.16,42.7c-2.24,2.789-4.6,5.479-7.11,8.029
		c1.61-18.39,4.061-36.7,5.7-55.09c-10.89,4.1-21.43,9.11-32.27,13.35c-2.32,1.141-5.641,1.811-6.181,4.78
		c-3.109,11.66-6.08,23.36-9.109,35.04c-1.48,5.29-2.42,10.76-4.641,15.811c-5.1-10.271-9.91-20.7-14.85-31.051
		c-2.17-4.22-3.34-9.75-8.13-11.81c-8.25-4-16.34-8.32-24.66-12.16c1.08,17.09,2.9,34.14,3.75,51.24
		c-5.2-3.82-9.26-8.88-13.94-13.28c-7.96-7.71-15.39-15.979-23.699-23.33c-1.5,11.34-1.99,22.79-3.07,34.181
		c-0.271,4.3-1.13,8.6-0.78,12.92c4.28,6.489,11.141,10.83,15.5,17.31c-6.1-3.38-11.689-7.55-17.729-11.01
		c-1.41,6.32-2.38,12.72-3.66,19.06c-5.75-1.729-13.391-0.989-17.01-6.68c-8.16-11.29-16.141-22.72-24.69-33.72l0.31-0.311
		C113.16,44.32,135.41,22.23,157.53,0z"/>
	<path fill="#69A93F" d="M409.49,0H512v12.36c-12.19,24.71-23.66,49.77-35.711,74.56c-0.89-3.13-2.97-5.6-4.699-8.26
		c-0.53-2.84-0.36-5.75-0.44-8.62c-0.21-13.99-0.64-27.979-1.31-41.95c-12.521-2.18-25.09-4.109-37.66-5.939
		c1.08,9.63,2.8,19.17,4.17,28.76c0.47,3.64,1.46,7.26,1.28,10.95c-1.19,2.85-3.45,5.06-5.271,7.51
		c-10.58,13.69-20.96,27.54-31.67,41.13c-1.84-2.02-4.52-4.27-3.37-7.359c2.48-9.92,5.79-19.641,8.16-29.601
		c0.59-1.689-0.74-3.109-1.57-4.439c-9-12.09-17.85-24.29-26.77-36.44l-0.23-0.33C388.039,21.84,398.6,10.75,409.49,0z"/>
</g>
<g id="_x23_7fb65cff">
	<path fill="#7FB65C" d="M86.25,0h71.279c-22.119,22.23-44.369,44.32-66.5,66.54C80.63,53.12,70.99,39.12,60.89,25.46
		C69.22,16.85,77.76,8.44,86.25,0z"/>
	<path fill="#7FB65C" d="M338.23,0h71.26c-10.89,10.75-21.45,21.84-32.58,32.33c-5-6.52-9.46-13.47-14.83-19.7
		c-2.17,6.29-3.56,12.811-5.319,19.23c-2.311,9.13-5.17,18.14-6.92,27.4c-0.25,0.399-0.74,1.18-0.99,1.569
		c-2.74,2.83-5.68,5.46-8.58,8.12c-6.11-17.47-11.99-35.03-18.07-52.52l-0.16-0.5C327.61,10.79,332.74,5.22,338.23,0z"/>
	<path fill="#7FB65C" d="M49.69,36.46C49.62,43.31,47.62,49.93,46.6,56.66c-1.63,8.17-2.59,16.47-4.72,24.54
		c-5.29-7.14-9.5-15.02-14.19-22.56C34.92,51.14,42.41,43.9,49.69,36.46z"/>
</g>
<g id="_x23_549832ff">
	<path fill="#549832" d="M312.46,10.56c1.71-2.12,3.59-4.101,5.529-6.021c1.62,3.69,2.94,7.51,4.05,11.391l0.16,0.5
		c-4.439,3.83-8.47,8.08-12.609,12.21c-9.71,9.89-19.811,19.409-29.23,29.58c-0.51,0.46-1.54,1.369-2.05,1.819
		c-14.27,4.03-28.06,9.58-42.2,14.021c-2.149,0.95-5.449,1.239-5.92,4.05c-2.68,10.27-4.81,20.68-7.55,30.939
		c-3.06-5.319-5.41-11.01-8.32-16.399c-1.21-2.62-4.21-3.33-6.609-4.42c-11.94-4.66-23.55-10.16-35.57-14.61
		c-1.36,11.79-1.54,23.68-2.979,35.46c-4.061-2.319-7.92-4.979-11.94-7.37c-1.14-0.84-2.28-1.68-3.41-2.51
		c-4.359-6.479-11.22-10.82-15.5-17.31c-0.35-4.32,0.51-8.62,0.78-12.92c1.08-11.391,1.57-22.841,3.07-34.181
		c8.31,7.351,15.739,15.62,23.699,23.33c4.681,4.4,8.74,9.46,13.94,13.28c-0.85-17.101-2.67-34.15-3.75-51.24
		c8.32,3.84,16.41,8.16,24.66,12.16c4.79,2.06,5.96,7.59,8.13,11.81c4.939,10.351,9.75,20.78,14.85,31.051
		c2.221-5.051,3.16-10.521,4.641-15.811c3.029-11.68,6-23.38,9.109-35.04c0.54-2.97,3.86-3.64,6.181-4.78
		C254.46,15.31,265,10.3,275.89,6.2c-1.64,18.39-4.09,36.7-5.7,55.09c2.511-2.55,4.87-5.24,7.11-8.029
		C288.91,38.94,300.909,24.94,312.46,10.56z"/>
	<path fill="#549832" d="M476.289,86.92C488.34,62.13,499.81,37.07,512,12.36V66.59c-8.23,13.75-16.41,27.53-24.771,41.19
		c-2.43,3.83-4.21,8.02-6.51,11.92c-0.561-0.52-1.101-1.05-1.641-1.57c0.08-9.88-2.35-19.6-3.479-29.399
		c-1.16,2.05-2.26,4.12-3.36,6.2c0.221-4.551,0.221-9.11-0.569-13.61c-14.94-1.08-29.91-1.93-44.87-2.5
		c-0.36,13.729-0.011,27.47-0.13,41.2c0.08,3.649-2.44,6.54-4.181,9.52c-4.859,7.5-8.93,15.51-14.21,22.74
		c0.681-9.04,3.13-17.91,3.34-26.96c-3.14-5.16-7.38-9.58-11.08-14.35c-2.479,2.6-4.68,5.449-6.68,8.43
		c-0.2-0.28-0.6-0.851-0.8-1.13c1.08-4.061,3.03-7.95,3.2-12.2c-2.01-3.92-5.221-7.03-7.84-10.53
		c-9.11-11.2-17.631-22.89-27.12-33.779c-5.45,19.119-10.38,38.39-15.83,57.51c-5.25-13.54-9.12-27.58-13.92-41.29l-0.15-0.47
		c3.03-2.521,5.92-5.221,8.8-7.921c1.33,3.101,2.521,6.261,3.561,9.471c2.33-5.891,3.58-12.101,5.09-18.23
		c0.25-0.39,0.74-1.17,0.99-1.569c9.479-8.471,17.92-18.03,27.3-26.601c8.92,12.15,17.77,24.351,26.77,36.44
		c0.83,1.33,2.16,2.75,1.57,4.439c-2.37,9.96-5.68,19.681-8.16,29.601c-1.149,3.09,1.53,5.34,3.37,7.359
		c10.71-13.59,21.09-27.439,31.67-41.13c1.82-2.45,4.08-4.66,5.271-7.51c0.18-3.69-0.811-7.311-1.28-10.95
		c-1.37-9.59-3.09-19.13-4.17-28.76c12.57,1.83,25.14,3.76,37.66,5.939c0.67,13.971,1.1,27.96,1.31,41.95
		c0.08,2.87-0.09,5.78,0.44,8.62C473.32,81.32,475.4,83.79,476.289,86.92z"/>
	<path fill="#549832" d="M0,14.43C7.84,26.21,14.92,38.46,22.52,50.39c1.79,2.75,3.391,5.63,4.86,8.569
		C21.45,64.78,15.54,70.64,9.74,76.59l-0.29-0.51C6.33,70.84,3.32,65.53,0,60.42V14.43z"/>
	<path fill="#549832" d="M54.16,16.81c2.76,2.52,4.649,5.75,6.359,9.029c-3.12,3.221-6.47,6.19-9.609,9.37
		C51.52,29.01,52.45,22.82,54.16,16.81z"/>
	<path fill="#549832" d="M69.31,88.21C76.49,81.14,83.54,73.93,90.72,66.85c8.55,11,16.53,22.43,24.69,33.72
		c3.619,5.69,11.26,4.95,17.01,6.68l-0.12,0.601c-2.74,15.069-5.3,30.18-8.41,45.18c-18.24-21.33-36.25-42.87-54.24-64.42
		L69.31,88.21z"/>
</g>
<g id="_x23_66a74aff">
	<path fill="#66A74A" d="M362.079,12.63c5.37,6.23,9.83,13.181,14.83,19.7l0.23,0.33c-9.38,8.57-17.82,18.13-27.3,26.601
		c1.75-9.261,4.609-18.271,6.92-27.4C358.52,25.44,359.909,18.92,362.079,12.63z"/>
	<path fill="#66A74A" d="M309.59,28.64c4.14-4.13,8.17-8.38,12.609-12.21c6.08,17.489,11.96,35.05,18.07,52.52
		c2.9-2.66,5.84-5.29,8.58-8.12c-1.51,6.13-2.76,12.34-5.09,18.23c-1.04-3.21-2.23-6.37-3.561-9.471c-2.88,2.7-5.77,5.4-8.8,7.921
		c-2.439-7.561-4.68-15.181-7.47-22.62c-13.9,14.22-27.08,29.14-41.07,43.27c-0.77-8.03-0.63-16.1-1.02-24.149
		c-0.311-5.28,0.35-10.721-1.48-15.79C289.78,48.05,299.88,38.53,309.59,28.64z"/>
	<path fill="#66A74A" d="M60.52,25.84l0.37-0.38C70.99,39.12,80.63,53.12,91.03,66.54l-0.31,0.311
		C83.54,73.93,76.49,81.14,69.31,88.21c-5.47-6.04-10.25-12.68-16-18.47c-4.74,15.76-9.439,31.53-13.76,47.41
		c-0.14,0.45-0.41,1.37-0.55,1.82c-0.971,0.85-1.99,1.659-2.98,2.479c-9-14.8-17.56-29.88-26.279-44.86
		c5.8-5.949,11.71-11.81,17.64-17.63l0.31-0.319c4.69,7.54,8.9,15.42,14.19,22.56c2.13-8.07,3.09-16.37,4.72-24.54
		c1.021-6.729,3.021-13.35,3.09-20.2c0.4-0.42,0.811-0.83,1.221-1.25C54.05,32.03,57.4,29.06,60.52,25.84z"/>
</g>
<g id="_x23_478d33ff">
	<path fill="#478D33" d="M282.86,98.16c13.99-14.13,27.17-29.05,41.07-43.27c2.79,7.439,5.03,15.06,7.47,22.62l0.15,0.47
		c-2.521,2.479-5.05,4.95-7.601,7.399c-1.979-5.72-3.859-11.47-5.979-17.13c-9.561,11.13-18.78,22.55-28.16,33.84
		c-6.62,7.931-13.16,15.94-19.79,23.87c0.47-4.989,1.11-9.97,1.59-14.949c1.4-13.631,3.021-27.23,4.29-40.87
		c-3.58,1.439-7.16,2.899-10.71,4.409c2.88-5.96,8.78-9.67,13.12-14.51c0.51-0.45,1.54-1.359,2.05-1.819
		c1.83,5.069,1.17,10.51,1.48,15.79C282.23,82.06,282.09,90.13,282.86,98.16z"/>
	<path fill="#478D33" d="M53.31,69.74c5.75,5.79,10.53,12.43,16,18.47l0.34,0.4c-1.989,1.57-3.949,3.18-5.909,4.79
		c-3.24-4.43-6.421-8.9-9.711-13.29c-1.93,9.88-3.579,19.82-5.479,29.71c-3.03,2.41-5.96,4.94-9,7.33
		C43.87,101.27,48.57,85.5,53.31,69.74z"/>
	<path fill="#478D33" d="M9.45,76.08l0.29,0.51c8.72,14.98,17.279,30.061,26.279,44.86c0.99-0.82,2.01-1.63,2.98-2.479
		c-0.391,1.34-0.811,2.67-1.17,4.02c-3.4-1.07-5.4,2.13-7.44,4.21c-5.34-8.64-10.68-17.28-16.01-25.92
		C10.74,95.43,7.15,89.55,3.5,83.71C5.44,81.13,7.42,78.59,9.45,76.08z"/>
	<path fill="#478D33" d="M487.23,107.78c6.57-2.25,9.11-9.97,15.57-12.49c-10.311,21.431-20.221,43.061-30.73,64.391
		c-0.7-11.471-0.64-22.971-1.069-34.45c2.64-2.431,5.279-4.86,8.079-7.101c0.54,0.521,1.08,1.051,1.641,1.57
		C483.02,115.8,484.8,111.61,487.23,107.78z"/>
	<path fill="#478D33" d="M227.1,111.06c1.51-1.66,3.36-2.971,5.41-3.891c-2.3,8.99-4.7,17.95-6.94,26.95
		c-0.489,1.84-1.079,3.66-1.649,5.48c-0.37-0.73-1.12-2.2-1.5-2.931c-2.29-4.71-4.49-9.46-6.76-14.18
		C219.55,118.76,223.4,114.98,227.1,111.06z"/>
	<path fill="#478D33" d="M160.56,177.83c1.141-1.399,2.3-2.79,3.45-4.17c1.96,2.05,3.91,4.12,5.82,6.21
		C166.73,179.24,163.64,178.55,160.56,177.83z"/>
</g>
<g id="_x23_3a7923ff">
	<path fill="#3A7923" d="M236.11,74.06c14.141-4.44,27.931-9.99,42.2-14.021c-4.34,4.84-10.24,8.55-13.12,14.51
		c-9.02,3.94-18.21,7.48-27.17,11.561c-1.96,6.99-3.609,14.06-5.51,21.06c-2.05,0.92-3.9,2.23-5.41,3.891
		c-3.7,3.92-7.55,7.7-11.439,11.43c-3.61-7.49-7.11-15.04-10.73-22.53c-0.84-2.12-3.04-3.04-4.93-4.01
		c-8.04-3.88-15.96-8-23.98-11.91c1.24,17.271,2.75,34.53,3.9,51.8c-7.71-7.54-15.28-15.22-22.9-22.85
		c4.04,1.17,8.17,1.93,12.311,2.65c-3.511-5.11-8.87-8.61-12.11-13.931c4.021,2.391,7.88,5.051,11.94,7.37
		c1.439-11.78,1.619-23.67,2.979-35.46c12.021,4.45,23.63,9.95,35.57,14.61c2.399,1.09,5.399,1.8,6.609,4.42
		c2.91,5.39,5.261,11.08,8.32,16.399c2.74-10.26,4.87-20.67,7.55-30.939C230.66,75.3,233.96,75.01,236.11,74.06z"/>
	<path fill="#3A7923" d="M0,60.42c3.319,5.11,6.33,10.42,9.45,15.66c-2.03,2.51-4.011,5.05-5.95,7.63c-1.16-1.85-2.38-3.66-3.5-5.54
		V60.42z"/>
	<path fill="#3A7923" d="M361.3,61.76c9.489,10.89,18.01,22.579,27.12,33.779c2.619,3.5,5.83,6.61,7.84,10.53
		c-0.17,4.25-2.12,8.14-3.2,12.2c-0.88-1.181-1.771-2.34-2.65-3.51c-9.43-12.83-18.76-25.74-28.359-38.44
		c-4.2,15.15-8.16,30.37-12.19,45.57c-2,7.189-3.66,14.479-5.89,21.609c-2.49-6.439-4.54-13.029-6.83-19.54
		c-3.22-9.399-6.42-18.81-9.66-28.21c-1.19-3.46-2.35-6.92-3.53-10.37c2.551-2.449,5.08-4.92,7.601-7.399
		c4.8,13.71,8.67,27.75,13.92,41.29C350.92,100.15,355.85,80.88,361.3,61.76z"/>
	<path fill="#3A7923" d="M487.23,107.78c8.36-13.66,16.54-27.44,24.771-41.19v9.4c-3.07,6.43-6.07,12.9-9.2,19.3
		C496.34,97.81,493.8,105.53,487.23,107.78z"/>
	<path fill="#3A7923" d="M426.8,78.82c14.96,0.57,29.93,1.42,44.87,2.5c0.79,4.5,0.79,9.06,0.569,13.61
		c1.101-2.08,2.2-4.15,3.36-6.2c1.13,9.8,3.56,19.52,3.479,29.399c-2.8,2.24-5.439,4.67-8.079,7.101
		c-0.101-3.83-0.271-7.66-0.381-11.49c-0.199-7.229-0.359-14.46-0.649-21.69c-12.62-2.119-25.28-3.97-37.91-5.989
		c1.96,13.29,3.94,26.58,5.93,39.87c-3.069,4.229-6.34,8.31-9.489,12.479c-9.23,12-18.431,24.04-27.631,36.061
		c-2.659,3.489-5.229,7.05-8.26,10.239c0.86-4.35,2.12-8.609,3.34-12.859c2.73-9.63,5.4-19.28,8.11-28.92
		c0.66-2.28,1.29-4.58,1.92-6.87c-3.96-5.61-8.13-11.07-12.12-16.66c2-2.98,4.2-5.83,6.68-8.43c3.7,4.77,7.94,9.189,11.08,14.35
		c-0.21,9.05-2.659,17.92-3.34,26.96c5.28-7.23,9.351-15.24,14.21-22.74c1.74-2.979,4.261-5.87,4.181-9.52
		C426.789,106.29,426.44,92.55,426.8,78.82z"/>
	<path fill="#3A7923" d="M63.74,93.4c1.96-1.61,3.92-3.22,5.909-4.79c17.99,21.55,36,43.09,54.24,64.42
		c3.11-15,5.67-30.11,8.41-45.18c2.93,0.359,5.85,0.77,8.78,1.199c-0.99,12.311-2.12,24.601-3.04,36.91
		c5.62,6.17,11.41,12.17,17.1,18.28c2.97,3.12,5.89,6.29,8.87,9.42c-1.15,1.38-2.31,2.771-3.45,4.17
		c-8.68-2.04-17.38-3.96-26.04-6.01c-5.529-1.31-11.06-2.59-16.59-3.84c-1.21-1.79-2.53-3.51-3.8-5.26
		C97.37,139.59,80.53,116.51,63.74,93.4z"/>
	<path fill="#3A7923" d="M39.55,117.15c3.04-2.39,5.97-4.92,9-7.33c-1.771,10.64-3.94,21.21-5.66,31.86L42.7,142.83
		c-0.37,0.811-0.761,1.62-1.15,2.431c-3.76-6-7.42-12.051-11.16-18.061c2.04-2.08,4.04-5.28,7.44-4.21
		c0.359-1.35,0.779-2.68,1.17-4.02C39.14,118.52,39.41,117.6,39.55,117.15z"/>
</g>
<g id="_x23_498f2cff">
	<path fill="#498F2C" d="M136.08,88.19c6.04,3.46,11.63,7.63,17.729,11.01c1.13,0.83,2.271,1.67,3.41,2.51
		c3.24,5.32,8.6,8.82,12.11,13.931c-4.141-0.721-8.271-1.48-12.311-2.65c-5.05-4.91-9.939-10-14.99-14.91
		c-0.34,3.65-0.659,7.311-0.949,10.97c-2.931-0.43-5.851-0.84-8.78-1.199l0.12-0.601C133.7,100.91,134.67,94.51,136.08,88.19z"/>
</g>
</svg>
