<?xml version="1.0" encoding="UTF-8" ?>
<!DOCTYPE svg PUBLIC "-//W3C//DTD SVG 1.1//EN" "http://www.w3.org/Graphics/SVG/1.1/DTD/svg11.dtd">
<svg width="512pt" height="512pt" viewBox="0 0 512 512" version="1.1" xmlns="http://www.w3.org/2000/svg">
<g id="#69a93fff">
<path fill="#69a93f" opacity="1.00" d=" M 0.00 0.00 L 86.25 0.00 C 77.76 8.44 69.22 16.85 60.89 25.46 L 60.52 25.84 C 58.81 22.56 56.92 19.33 54.16 16.81 C 52.45 22.82 51.52 29.01 50.91 35.21 C 50.50 35.63 50.09 36.04 49.69 36.46 C 42.41 43.90 34.92 51.14 27.69 58.64 L 27.38 58.96 C 25.91 56.02 24.31 53.14 22.52 50.39 C 14.92 38.46 7.84 26.21 0.00 14.43 L 0.00 0.00 Z" />
<path fill="#69a93f" opacity="1.00" d=" M 157.53 0.00 L 338.23 0.00 C 332.74 5.22 327.61 10.79 322.04 15.93 C 320.93 12.05 319.61 8.23 317.99 4.54 C 316.05 6.46 314.17 8.44 312.46 10.56 C 300.91 24.94 288.91 38.94 277.30 53.26 C 275.06 56.05 272.70 58.74 270.19 61.29 C 271.80 42.90 274.25 24.59 275.89 6.20 C 265.00 10.30 254.46 15.31 243.62 19.55 C 241.30 20.69 237.98 21.36 237.44 24.33 C 234.33 35.99 231.36 47.69 228.33 59.37 C 226.85 64.66 225.91 70.13 223.69 75.18 C 218.59 64.91 213.78 54.48 208.84 44.13 C 206.67 39.91 205.50 34.38 200.71 32.32 C 192.46 28.32 184.37 24.00 176.05 20.16 C 177.13 37.25 178.95 54.30 179.80 71.40 C 174.60 67.58 170.54 62.52 165.86 58.12 C 157.90 50.41 150.47 42.14 142.16 34.79 C 140.66 46.13 140.17 57.58 139.09 68.97 C 138.82 73.27 137.96 77.57 138.31 81.89 C 142.59 88.38 149.45 92.72 153.81 99.20 C 147.71 95.82 142.12 91.65 136.08 88.19 C 134.67 94.51 133.70 100.91 132.42 107.25 C 126.67 105.52 119.03 106.26 115.41 100.57 C 107.25 89.28 99.27 77.85 90.72 66.85 L 91.03 66.54 C 113.16 44.32 135.41 22.23 157.53 0.00 Z" />
<path fill="#69a93f" opacity="1.00" d=" M 409.49 0.00 L 512.00 0.00 L 512.00 12.36 C 499.81 37.07 488.34 62.13 476.29 86.92 C 475.40 83.79 473.32 81.32 471.59 78.66 C 471.06 75.82 471.23 72.91 471.15 70.04 C 470.94 56.05 470.51 42.06 469.84 28.09 C 457.32 25.91 444.75 23.98 432.18 22.15 C 433.26 31.78 434.98 41.32 436.35 50.91 C 436.82 54.55 437.81 58.17 437.63 61.86 C 436.44 64.71 434.18 66.92 432.36 69.37 C 421.78 83.06 411.40 96.91 400.69 110.50 C 398.85 108.48 396.17 106.23 397.32 103.14 C 399.80 93.22 403.11 83.50 405.48 73.54 C 406.07 71.85 404.74 70.43 403.91 69.10 C 394.91 57.01 386.06 44.81 377.14 32.66 L 376.91 32.33 C 388.04 21.84 398.60 10.75 409.49 0.00 Z" />
</g>
<g id="#7fb65cff">
<path fill="#7fb65c" opacity="1.00" d=" M 86.25 0.00 L 157.53 0.00 C 135.41 22.23 113.16 44.32 91.03 66.54 C 80.63 53.12 70.99 39.12 60.89 25.46 C 69.22 16.85 77.76 8.44 86.25 0.00 Z" />
<path fill="#7fb65c" opacity="1.00" d=" M 338.23 0.00 L 409.49 0.00 C 398.60 10.75 388.04 21.84 376.91 32.33 C 371.91 25.81 367.45 18.86 362.08 12.63 C 359.91 18.92 358.52 25.44 356.76 31.86 C 354.45 40.99 351.59 50.00 349.84 59.26 C 349.59 59.66 349.10 60.44 348.85 60.83 C 346.11 63.66 343.17 66.29 340.27 68.95 C 334.16 51.48 328.28 33.92 322.20 16.43 L 322.04 15.93 C 327.61 10.79 332.74 5.22 338.23 0.00 Z" />
<path fill="#7fb65c" opacity="1.00" d=" M 49.69 36.46 C 49.62 43.31 47.62 49.93 46.60 56.66 C 44.97 64.83 44.01 73.13 41.88 81.20 C 36.59 74.06 32.38 66.18 27.69 58.64 C 34.92 51.14 42.41 43.90 49.69 36.46 Z" />
</g>
<g id="#549832ff">
<path fill="#549832" opacity="1.00" d=" M 312.46 10.56 C 314.17 8.44 316.05 6.46 317.99 4.54 C 319.61 8.23 320.93 12.05 322.04 15.93 L 322.20 16.43 C 317.76 20.26 313.73 24.51 309.59 28.64 C 299.88 38.53 289.78 48.05 280.36 58.22 C 279.85 58.68 278.82 59.59 278.31 60.04 C 264.04 64.07 250.25 69.62 236.11 74.06 C 233.96 75.01 230.66 75.30 230.19 78.11 C 227.51 88.38 225.38 98.79 222.64 109.05 C 219.58 103.73 217.23 98.04 214.32 92.65 C 213.11 90.03 210.11 89.32 207.71 88.23 C 195.77 83.57 184.16 78.07 172.14 73.62 C 170.78 85.41 170.60 97.30 169.16 109.08 C 165.10 106.76 161.24 104.10 157.22 101.71 C 156.08 100.87 154.94 100.03 153.81 99.20 C 149.45 92.72 142.59 88.38 138.31 81.89 C 137.96 77.57 138.82 73.27 139.09 68.97 C 140.17 57.58 140.66 46.13 142.16 34.79 C 150.47 42.14 157.90 50.41 165.86 58.12 C 170.54 62.52 174.60 67.58 179.80 71.40 C 178.95 54.30 177.13 37.25 176.05 20.16 C 184.37 24.00 192.46 28.32 200.71 32.32 C 205.50 34.38 206.67 39.91 208.84 44.13 C 213.78 54.48 218.59 64.91 223.69 75.18 C 225.91 70.13 226.85 64.66 228.33 59.37 C 231.36 47.69 234.33 35.99 237.44 24.33 C 237.98 21.36 241.30 20.69 243.62 19.55 C 254.46 15.31 265.00 10.30 275.89 6.20 C 274.25 24.59 271.80 42.90 270.19 61.29 C 272.70 58.74 275.06 56.05 277.30 53.26 C 288.91 38.94 300.91 24.94 312.46 10.56 Z" />
<path fill="#549832" opacity="1.00" d=" M 476.29 86.92 C 488.34 62.13 499.81 37.07 512.00 12.36 L 512.00 66.59 C 503.77 80.34 495.59 94.12 487.23 107.78 C 484.80 111.61 483.02 115.80 480.72 119.70 C 480.16 119.18 479.62 118.65 479.08 118.13 C 479.16 108.25 476.73 98.53 475.60 88.73 C 474.44 90.78 473.34 92.85 472.24 94.93 C 472.46 90.38 472.46 85.82 471.67 81.32 C 456.73 80.24 441.76 79.39 426.80 78.82 C 426.44 92.55 426.79 106.29 426.67 120.02 C 426.75 123.67 424.23 126.56 422.49 129.54 C 417.63 137.04 413.56 145.05 408.28 152.28 C 408.96 143.24 411.41 134.37 411.62 125.32 C 408.48 120.16 404.24 115.74 400.54 110.97 C 398.06 113.57 395.86 116.42 393.86 119.40 C 393.66 119.12 393.26 118.55 393.06 118.27 C 394.14 114.21 396.09 110.32 396.26 106.07 C 394.25 102.15 391.04 99.04 388.42 95.54 C 379.31 84.34 370.79 72.65 361.30 61.76 C 355.85 80.88 350.92 100.15 345.47 119.27 C 340.22 105.73 336.35 91.69 331.55 77.98 L 331.40 77.51 C 334.43 74.99 337.32 72.29 340.20 69.59 C 341.53 72.69 342.72 75.85 343.76 79.06 C 346.09 73.17 347.34 66.96 348.85 60.83 C 349.10 60.44 349.59 59.66 349.84 59.26 C 359.32 50.79 367.76 41.23 377.14 32.66 C 386.06 44.81 394.91 57.01 403.91 69.10 C 404.74 70.43 406.07 71.85 405.48 73.54 C 403.11 83.50 399.80 93.22 397.32 103.14 C 396.17 106.23 398.85 108.48 400.69 110.50 C 411.40 96.91 421.78 83.06 432.36 69.37 C 434.18 66.92 436.44 64.71 437.63 61.86 C 437.81 58.17 436.82 54.55 436.35 50.91 C 434.98 41.32 433.26 31.78 432.18 22.15 C 444.75 23.98 457.32 25.91 469.84 28.09 C 470.51 42.06 470.94 56.05 471.15 70.04 C 471.23 72.91 471.06 75.82 471.59 78.66 C 473.32 81.32 475.40 83.79 476.29 86.92 Z" />
<path fill="#549832" opacity="1.00" d=" M 0.00 14.43 C 7.84 26.21 14.92 38.46 22.52 50.39 C 24.31 53.14 25.91 56.02 27.38 58.96 C 21.45 64.78 15.54 70.64 9.74 76.59 L 9.45 76.08 C 6.33 70.84 3.32 65.53 0.00 60.42 L 0.00 14.43 Z" />
<path fill="#549832" opacity="1.00" d=" M 54.16 16.81 C 56.92 19.33 58.81 22.56 60.52 25.84 C 57.40 29.06 54.05 32.03 50.91 35.21 C 51.52 29.01 52.45 22.82 54.16 16.81 Z" />
<path fill="#549832" opacity="1.00" d=" M 69.31 88.21 C 76.49 81.14 83.54 73.93 90.72 66.85 C 99.27 77.85 107.25 89.28 115.41 100.57 C 119.03 106.26 126.67 105.52 132.42 107.25 L 132.30 107.85 C 129.56 122.92 127.00 138.03 123.89 153.03 C 105.65 131.70 87.64 110.16 69.65 88.61 L 69.31 88.21 Z" />
</g>
<g id="#66a74aff">
<path fill="#66a74a" opacity="1.00" d=" M 362.08 12.63 C 367.45 18.86 371.91 25.81 376.91 32.33 L 377.14 32.66 C 367.76 41.23 359.32 50.79 349.84 59.26 C 351.59 50.00 354.45 40.99 356.76 31.86 C 358.52 25.44 359.91 18.92 362.08 12.63 Z" />
<path fill="#66a74a" opacity="1.00" d=" M 309.59 28.64 C 313.73 24.51 317.76 20.26 322.20 16.43 C 328.28 33.92 334.16 51.48 340.27 68.95 C 343.17 66.29 346.11 63.66 348.85 60.83 C 347.34 66.96 346.09 73.17 343.76 79.06 C 342.72 75.85 341.53 72.69 340.20 69.59 C 337.32 72.29 334.43 74.99 331.40 77.51 C 328.96 69.95 326.72 62.33 323.93 54.89 C 310.03 69.11 296.85 84.03 282.86 98.16 C 282.09 90.13 282.23 82.06 281.84 74.01 C 281.53 68.73 282.19 63.29 280.36 58.22 C 289.78 48.05 299.88 38.53 309.59 28.64 Z" />
<path fill="#66a74a" opacity="1.00" d=" M 60.52 25.84 L 60.89 25.46 C 70.99 39.12 80.63 53.12 91.03 66.54 L 90.72 66.85 C 83.54 73.93 76.49 81.14 69.31 88.21 C 63.84 82.17 59.06 75.53 53.31 69.74 C 48.57 85.50 43.87 101.27 39.55 117.15 C 39.41 117.60 39.14 118.52 39.00 118.97 C 38.03 119.82 37.01 120.63 36.02 121.45 C 27.02 106.65 18.46 91.57 9.74 76.59 C 15.54 70.64 21.45 64.78 27.38 58.96 L 27.69 58.64 C 32.38 66.18 36.59 74.06 41.88 81.20 C 44.01 73.13 44.97 64.83 46.60 56.66 C 47.62 49.93 49.62 43.31 49.69 36.46 C 50.09 36.04 50.50 35.63 50.91 35.21 C 54.05 32.03 57.40 29.06 60.52 25.84 Z" />
</g>
<g id="#478d33ff">
<path fill="#478d33" opacity="1.00" d=" M 282.86 98.16 C 296.85 84.03 310.03 69.11 323.93 54.89 C 326.72 62.33 328.96 69.95 331.40 77.51 L 331.55 77.98 C 329.03 80.46 326.50 82.93 323.95 85.38 C 321.97 79.66 320.09 73.91 317.97 68.25 C 308.41 79.38 299.19 90.80 289.81 102.09 C 283.19 110.02 276.65 118.03 270.02 125.96 C 270.49 120.97 271.13 115.99 271.61 111.01 C 273.01 97.38 274.63 83.78 275.90 70.14 C 272.32 71.58 268.74 73.04 265.19 74.55 C 268.07 68.59 273.97 64.88 278.31 60.04 C 278.82 59.59 279.85 58.68 280.36 58.22 C 282.19 63.29 281.53 68.73 281.84 74.01 C 282.23 82.06 282.09 90.13 282.86 98.16 Z" />
<path fill="#478d33" opacity="1.00" d=" M 53.31 69.74 C 59.06 75.53 63.84 82.17 69.31 88.21 L 69.65 88.61 C 67.66 90.18 65.70 91.79 63.74 93.40 C 60.50 88.97 57.32 84.50 54.03 80.11 C 52.10 89.99 50.45 99.93 48.55 109.82 C 45.52 112.23 42.59 114.76 39.55 117.15 C 43.87 101.27 48.57 85.50 53.31 69.74 Z" />
<path fill="#478d33" opacity="1.00" d=" M 9.45 76.08 L 9.74 76.59 C 18.46 91.57 27.02 106.65 36.02 121.45 C 37.01 120.63 38.03 119.82 39.00 118.97 C 38.61 120.31 38.19 121.64 37.83 122.99 C 34.43 121.92 32.43 125.12 30.39 127.20 C 25.05 118.56 19.71 109.92 14.38 101.28 C 10.74 95.43 7.15 89.55 3.50 83.71 C 5.44 81.13 7.42 78.59 9.45 76.08 Z" />
<path fill="#478d33" opacity="1.00" d=" M 487.23 107.78 C 493.80 105.53 496.34 97.81 502.80 95.29 C 492.49 116.72 482.58 138.35 472.07 159.68 C 471.37 148.21 471.43 136.71 471.00 125.23 C 473.64 122.80 476.28 120.37 479.08 118.13 C 479.62 118.65 480.16 119.18 480.72 119.70 C 483.02 115.80 484.80 111.61 487.23 107.78 Z" />
<path fill="#478d33" opacity="1.00" d=" M 227.10 111.06 C 228.61 109.40 230.46 108.09 232.51 107.17 C 230.21 116.16 227.81 125.12 225.57 134.12 C 225.08 135.96 224.49 137.78 223.92 139.60 C 223.55 138.87 222.80 137.40 222.42 136.67 C 220.13 131.96 217.93 127.21 215.66 122.49 C 219.55 118.76 223.40 114.98 227.10 111.06 Z" />
<path fill="#478d33" opacity="1.00" d=" M 160.56 177.83 C 161.70 176.43 162.86 175.04 164.01 173.66 C 165.97 175.71 167.92 177.78 169.83 179.87 C 166.73 179.24 163.64 178.55 160.56 177.83 Z" />
</g>
<g id="#3a7923ff">
<path fill="#3a7923" opacity="1.00" d=" M 236.11 74.06 C 250.25 69.62 264.04 64.07 278.31 60.04 C 273.97 64.88 268.07 68.59 265.19 74.55 C 256.17 78.49 246.98 82.03 238.02 86.11 C 236.06 93.10 234.41 100.17 232.51 107.17 C 230.46 108.09 228.61 109.40 227.10 111.06 C 223.40 114.98 219.55 118.76 215.66 122.49 C 212.05 115.00 208.55 107.45 204.93 99.96 C 204.09 97.84 201.89 96.92 200.00 95.95 C 191.96 92.07 184.04 87.95 176.02 84.04 C 177.26 101.31 178.77 118.57 179.92 135.84 C 172.21 128.30 164.64 120.62 157.02 112.99 C 161.06 114.16 165.19 114.92 169.33 115.64 C 165.82 110.53 160.46 107.03 157.22 101.71 C 161.24 104.10 165.10 106.76 169.16 109.08 C 170.60 97.30 170.78 85.41 172.14 73.62 C 184.16 78.07 195.77 83.57 207.71 88.23 C 210.11 89.32 213.11 90.03 214.32 92.65 C 217.23 98.04 219.58 103.73 222.64 109.05 C 225.38 98.79 227.51 88.38 230.19 78.11 C 230.66 75.30 233.96 75.01 236.11 74.06 Z" />
<path fill="#3a7923" opacity="1.00" d=" M 0.00 60.42 C 3.32 65.53 6.33 70.84 9.45 76.08 C 7.42 78.59 5.44 81.13 3.50 83.71 C 2.34 81.86 1.12 80.05 0.00 78.17 L 0.00 60.42 Z" />
<path fill="#3a7923" opacity="1.00" d=" M 361.30 61.76 C 370.79 72.65 379.31 84.34 388.42 95.54 C 391.04 99.04 394.25 102.15 396.26 106.07 C 396.09 110.32 394.14 114.21 393.06 118.27 C 392.18 117.09 391.29 115.93 390.41 114.76 C 380.98 101.93 371.65 89.02 362.05 76.32 C 357.85 91.47 353.89 106.69 349.86 121.89 C 347.86 129.08 346.20 136.37 343.97 143.50 C 341.48 137.06 339.43 130.47 337.14 123.96 C 333.92 114.56 330.72 105.15 327.48 95.75 C 326.29 92.29 325.13 88.83 323.95 85.38 C 326.50 82.93 329.03 80.46 331.55 77.98 C 336.35 91.69 340.22 105.73 345.47 119.27 C 350.92 100.15 355.85 80.88 361.30 61.76 Z" />
<path fill="#3a7923" opacity="1.00" d=" M 487.23 107.78 C 495.59 94.12 503.77 80.34 512.00 66.59 L 512.00 75.99 C 508.93 82.42 505.93 88.89 502.80 95.29 C 496.34 97.81 493.80 105.53 487.23 107.78 Z" />
<path fill="#3a7923" opacity="1.00" d=" M 426.80 78.82 C 441.76 79.39 456.73 80.24 471.67 81.32 C 472.46 85.82 472.46 90.38 472.24 94.93 C 473.34 92.85 474.44 90.78 475.60 88.73 C 476.73 98.53 479.16 108.25 479.08 118.13 C 476.28 120.37 473.64 122.80 471.00 125.23 C 470.90 121.40 470.73 117.57 470.62 113.74 C 470.42 106.51 470.26 99.28 469.97 92.05 C 457.35 89.93 444.69 88.08 432.06 86.06 C 434.02 99.35 436.00 112.64 437.99 125.93 C 434.92 130.16 431.65 134.24 428.50 138.41 C 419.27 150.41 410.07 162.45 400.87 174.47 C 398.21 177.96 395.64 181.52 392.61 184.71 C 393.47 180.36 394.73 176.10 395.95 171.85 C 398.68 162.22 401.35 152.57 404.06 142.93 C 404.72 140.65 405.35 138.35 405.98 136.06 C 402.02 130.45 397.85 124.99 393.86 119.40 C 395.86 116.42 398.06 113.57 400.54 110.97 C 404.24 115.74 408.48 120.16 411.62 125.32 C 411.41 134.37 408.96 143.24 408.28 152.28 C 413.56 145.05 417.63 137.04 422.49 129.54 C 424.23 126.56 426.75 123.67 426.67 120.02 C 426.79 106.29 426.44 92.55 426.80 78.82 Z" />
<path fill="#3a7923" opacity="1.00" d=" M 63.74 93.40 C 65.70 91.79 67.66 90.18 69.65 88.61 C 87.64 110.16 105.65 131.70 123.89 153.03 C 127.00 138.03 129.56 122.92 132.30 107.85 C 135.23 108.21 138.15 108.62 141.08 109.05 C 140.09 121.36 138.96 133.65 138.04 145.96 C 143.66 152.13 149.45 158.13 155.14 164.24 C 158.11 167.36 161.03 170.53 164.01 173.66 C 162.86 175.04 161.70 176.43 160.56 177.83 C 151.88 175.79 143.18 173.87 134.52 171.82 C 128.99 170.51 123.46 169.23 117.93 167.98 C 116.72 166.19 115.40 164.47 114.13 162.72 C 97.37 139.59 80.53 116.51 63.74 93.40 Z" />
<path fill="#3a7923" opacity="1.00" d=" M 39.55 117.15 C 42.59 114.76 45.52 112.23 48.55 109.82 C 46.78 120.46 44.61 131.03 42.89 141.68 L 42.70 142.83 C 42.33 143.64 41.94 144.45 41.55 145.26 C 37.79 139.26 34.13 133.21 30.39 127.20 C 32.43 125.12 34.43 121.92 37.83 122.99 C 38.19 121.64 38.61 120.31 39.00 118.97 C 39.14 118.52 39.41 117.60 39.55 117.15 Z" />
</g>
<g id="#3a281bff">
<path fill="#3a281b" opacity="1.00" d=" M 289.81 102.09 C 299.19 90.80 308.41 79.38 317.97 68.25 C 320.09 73.91 321.97 79.66 323.95 85.38 C 325.13 88.83 326.29 92.29 327.48 95.75 C 319.51 97.99 311.25 98.78 303.14 100.34 C 298.74 101.19 294.29 101.79 289.81 102.09 Z" />
<path fill="#3a281b" opacity="1.00" d=" M 265.19 74.55 C 268.74 73.04 272.32 71.58 275.90 70.14 C 274.63 83.78 273.01 97.38 271.61 111.01 C 271.36 110.65 270.85 109.92 270.60 109.56 C 259.57 115.47 248.75 121.78 237.79 127.83 C 233.86 130.18 229.90 132.54 225.57 134.12 C 227.81 125.12 230.21 116.16 232.51 107.17 C 234.41 100.17 236.06 93.10 238.02 86.11 C 246.98 82.03 256.17 78.49 265.19 74.55 Z" />
<path fill="#3a281b" opacity="1.00" d=" M 176.02 84.04 C 184.04 87.95 191.96 92.07 200.00 95.95 C 201.89 96.92 204.09 97.84 204.93 99.96 C 208.55 107.45 212.05 115.00 215.66 122.49 C 217.93 127.21 220.13 131.96 222.42 136.67 C 215.18 140.35 208.11 144.37 201.18 148.60 C 202.91 148.89 204.63 149.17 206.38 149.41 C 201.47 150.29 196.36 148.80 191.58 150.49 C 186.27 152.25 181.31 154.87 176.03 156.71 C 169.12 159.38 162.26 162.19 155.14 164.24 C 149.45 158.13 143.66 152.13 138.04 145.96 C 138.96 133.65 140.09 121.36 141.08 109.05 C 141.37 105.39 141.69 101.73 142.03 98.08 C 147.08 102.99 151.97 108.08 157.02 112.99 C 164.64 120.62 172.21 128.30 179.92 135.84 C 178.77 118.57 177.26 101.31 176.02 84.04 Z" />
</g>
<g id="#322217ff">
<path fill="#322217" opacity="1.00" d=" M 362.05 76.32 C 371.65 89.02 380.98 101.93 390.41 114.76 C 377.02 117.80 363.35 119.38 349.86 121.89 C 353.89 106.69 357.85 91.47 362.05 76.32 Z" />
<path fill="#322217" opacity="1.00" d=" M 54.03 80.11 C 57.32 84.50 60.50 88.97 63.74 93.40 C 80.53 116.51 97.37 139.59 114.13 162.72 C 107.06 163.78 99.99 164.89 92.86 165.56 C 89.36 165.87 85.91 166.60 82.56 167.66 C 78.38 160.74 75.39 153.04 70.50 146.59 C 63.16 145.81 55.77 149.10 48.32 148.73 C 46.00 146.83 44.64 144.06 42.89 141.68 C 44.61 131.03 46.78 120.46 48.55 109.82 C 50.45 99.93 52.10 89.99 54.03 80.11 Z" />
<path fill="#322217" opacity="1.00" d=" M 303.14 100.34 C 311.25 98.78 319.51 97.99 327.48 95.75 C 330.72 105.15 333.92 114.56 337.14 123.96 C 331.88 125.18 326.55 126.10 321.31 127.37 C 314.69 128.98 309.26 133.28 303.24 136.23 C 299.71 137.95 296.32 139.99 293.45 142.69 C 287.68 143.10 281.92 143.72 276.13 143.83 C 273.49 143.96 270.87 144.34 268.29 144.88 C 255.31 145.24 242.38 146.67 229.42 147.46 C 221.74 148.08 214.02 148.36 206.38 149.41 C 204.63 149.17 202.91 148.89 201.18 148.60 C 208.11 144.37 215.18 140.35 222.42 136.67 C 222.80 137.40 223.55 138.87 223.92 139.60 C 224.49 137.78 225.08 135.96 225.57 134.12 C 229.90 132.54 233.86 130.18 237.79 127.83 C 248.75 121.78 259.57 115.47 270.60 109.56 C 270.85 109.92 271.36 110.65 271.61 111.01 C 271.13 115.99 270.49 120.97 270.02 125.96 C 276.65 118.03 283.19 110.02 289.81 102.09 C 294.29 101.79 298.74 101.19 303.14 100.34 Z" />
</g>
<g id="#422f21ff">
<path fill="#422f21" opacity="1.00" d=" M 502.80 95.29 C 505.93 88.89 508.93 82.42 512.00 75.99 L 512.00 133.76 C 498.10 143.83 483.88 153.48 469.87 163.38 C 469.57 163.56 468.97 163.90 468.67 164.07 C 457.30 161.78 445.17 158.24 433.84 162.64 C 432.30 163.60 433.03 165.46 433.13 166.90 C 434.25 173.55 435.34 180.20 436.21 186.88 L 436.34 187.66 C 434.35 188.30 432.25 190.16 430.13 188.90 C 420.33 184.19 410.76 178.99 400.87 174.47 C 410.07 162.45 419.27 150.41 428.50 138.41 C 433.15 137.90 437.83 137.47 442.39 136.37 C 446.49 135.38 449.24 131.93 452.35 129.34 C 458.42 124.12 464.34 118.72 470.62 113.74 C 470.73 117.57 470.90 121.40 471.00 125.23 C 471.43 136.71 471.37 148.21 472.07 159.68 C 482.58 138.35 492.49 116.72 502.80 95.29 Z" />
<path fill="#422f21" opacity="1.00" d=" M 363.83 149.81 C 377.20 147.33 390.65 145.23 404.06 142.93 C 401.35 152.57 398.68 162.22 395.95 171.85 C 387.51 168.03 379.42 163.52 370.92 159.84 C 370.25 159.32 369.58 158.80 368.92 158.29 C 367.15 155.51 365.56 152.62 363.83 149.81 Z" />
</g>
<g id="#3c2b1eff">
<path fill="#3c2b1e" opacity="1.00" d=" M 0.00 78.17 C 1.12 80.05 2.34 81.86 3.50 83.71 C 7.15 89.55 10.74 95.43 14.38 101.28 C 9.51 104.83 4.45 108.17 0.00 112.27 L 0.00 78.17 Z" />
<path fill="#3c2b1e" opacity="1.00" d=" M 42.89 141.68 C 44.64 144.06 46.00 146.83 48.32 148.73 C 55.77 149.10 63.16 145.81 70.50 146.59 C 75.39 153.04 78.38 160.74 82.56 167.66 C 86.23 173.95 89.63 180.40 93.24 186.73 C 89.78 188.20 86.37 189.79 82.85 191.14 L 82.31 191.33 C 77.18 183.37 71.26 175.94 65.77 168.22 C 61.87 163.10 58.55 157.54 54.15 152.82 C 53.61 155.17 53.11 157.53 52.70 159.92 C 50.02 158.22 49.00 155.09 47.62 152.40 C 46.07 149.16 44.26 146.06 42.70 142.83 L 42.89 141.68 Z" />
</g>
<g id="#2a1e14ff">
<path fill="#2a1e14" opacity="1.00" d=" M 432.06 86.06 C 444.69 88.08 457.35 89.93 469.97 92.05 C 470.26 99.28 470.42 106.51 470.62 113.74 C 464.34 118.72 458.42 124.12 452.35 129.34 C 449.24 131.93 446.49 135.38 442.39 136.37 C 437.83 137.47 433.15 137.90 428.50 138.41 C 431.65 134.24 434.92 130.16 437.99 125.93 C 436.00 112.64 434.02 99.35 432.06 86.06 Z" />
<path fill="#2a1e14" opacity="1.00" d=" M 349.86 121.89 C 363.35 119.38 377.02 117.80 390.41 114.76 C 391.29 115.93 392.18 117.09 393.06 118.27 C 393.26 118.55 393.66 119.12 393.86 119.40 C 397.85 124.99 402.02 130.45 405.98 136.06 C 405.35 138.35 404.72 140.65 404.06 142.93 C 390.65 145.23 377.20 147.33 363.83 149.81 C 360.47 150.52 357.09 151.04 353.69 151.43 C 347.89 147.57 341.44 144.86 335.30 141.62 C 329.99 138.71 323.83 140.96 318.16 141.04 L 317.15 141.14 C 309.25 141.69 301.36 142.35 293.45 142.69 C 296.32 139.99 299.71 137.95 303.24 136.23 C 309.26 133.28 314.69 128.98 321.31 127.37 C 326.55 126.10 331.88 125.18 337.14 123.96 C 339.43 130.47 341.48 137.06 343.97 143.50 C 346.20 136.37 347.86 129.08 349.86 121.89 Z" />
<path fill="#2a1e14" opacity="1.00" d=" M 92.86 165.56 C 99.99 164.89 107.06 163.78 114.13 162.72 C 115.40 164.47 116.72 166.19 117.93 167.98 C 119.51 170.48 120.67 173.21 121.80 175.93 C 112.93 180.94 102.75 182.94 93.57 187.31 L 93.24 186.73 C 89.63 180.40 86.23 173.95 82.56 167.66 C 85.91 166.60 89.36 165.87 92.86 165.56 Z" />
</g>
<g id="#498f2cff">
<path fill="#498f2c" opacity="1.00" d=" M 136.08 88.19 C 142.12 91.65 147.71 95.82 153.81 99.20 C 154.94 100.03 156.08 100.87 157.22 101.71 C 160.46 107.03 165.82 110.53 169.33 115.64 C 165.19 114.92 161.06 114.16 157.02 112.99 C 151.97 108.08 147.08 102.99 142.03 98.08 C 141.69 101.73 141.37 105.39 141.08 109.05 C 138.15 108.62 135.23 108.21 132.30 107.85 L 132.42 107.25 C 133.70 100.91 134.67 94.51 136.08 88.19 Z" />
</g>
<g id="#473222ff">
<path fill="#473222" opacity="1.00" d=" M 14.38 101.28 C 19.71 109.92 25.05 118.56 30.39 127.20 C 34.13 133.21 37.79 139.26 41.55 145.26 C 41.94 144.45 42.33 143.64 42.70 142.83 C 44.26 146.06 46.07 149.16 47.62 152.40 C 49.00 155.09 50.02 158.22 52.70 159.92 C 52.59 160.58 52.48 161.26 52.37 161.93 C 51.88 164.73 51.12 167.47 50.27 170.18 C 33.37 158.31 16.68 146.12 0.00 133.94 L 0.00 112.27 C 4.45 108.17 9.51 104.83 14.38 101.28 Z" />
</g>
<g id="#593f2bff">
<path fill="#593f2b" opacity="1.00" d=" M 0.00 133.94 C 16.68 146.12 33.37 158.31 50.27 170.18 C 51.12 167.47 51.88 164.73 52.37 161.93 C 55.52 166.72 58.20 171.80 60.07 177.23 C 57.00 174.94 53.75 172.92 50.48 170.93 C 47.62 186.36 45.34 201.92 41.80 217.21 C 27.44 195.18 14.22 172.40 0.00 150.26 L 0.00 133.94 Z" />
<path fill="#593f2b" opacity="1.00" d=" M 370.92 159.84 C 379.42 163.52 387.51 168.03 395.95 171.85 C 394.73 176.10 393.47 180.36 392.61 184.71 C 395.64 181.52 398.21 177.96 400.87 174.47 C 410.76 178.99 420.33 184.19 430.13 188.90 C 432.25 190.16 434.35 188.30 436.34 187.66 C 436.67 191.98 439.25 197.12 435.80 200.82 C 424.19 216.16 412.37 231.36 400.73 246.68 C 398.28 249.99 395.77 253.26 392.93 256.25 C 393.96 249.64 396.15 243.31 397.91 236.88 C 400.19 229.08 402.18 221.19 404.55 213.41 C 405.02 211.68 405.58 209.93 405.64 208.12 C 404.55 205.50 402.58 203.38 400.94 201.10 C 394.73 192.61 388.42 184.19 382.34 175.61 C 378.36 170.48 374.26 165.42 370.92 159.84 Z" />
<path fill="#593f2b" opacity="1.00" d=" M 433.84 162.64 C 445.17 158.24 457.30 161.78 468.67 164.07 C 458.04 171.93 447.13 179.42 436.21 186.88 C 435.34 180.20 434.25 173.55 433.13 166.90 C 433.03 165.46 432.30 163.60 433.84 162.64 Z" />
<path fill="#593f2b" opacity="1.00" d=" M 332.86 182.93 C 339.19 178.65 346.94 178.11 354.28 177.02 C 350.64 189.68 348.19 202.72 343.75 215.14 C 340.42 205.91 337.24 196.62 334.45 187.21 C 334.02 186.01 333.58 184.81 333.13 183.62 L 332.86 182.93 Z" />
</g>
<g id="#5a412cff">
<path fill="#5a412c" opacity="1.00" d=" M 469.87 163.38 C 483.88 153.48 498.10 143.83 512.00 133.76 L 512.00 148.45 C 498.15 175.74 486.02 203.92 472.19 231.22 C 470.83 208.63 471.08 185.98 469.87 163.38 Z" />
</g>
<g id="#36261aff">
<path fill="#36261a" opacity="1.00" d=" M 318.16 141.04 C 323.83 140.96 329.99 138.71 335.30 141.62 C 341.44 144.86 347.89 147.57 353.69 151.43 C 343.93 153.52 333.40 153.37 324.52 158.41 C 322.30 152.65 320.50 146.75 318.16 141.04 Z" />
<path fill="#36261a" opacity="1.00" d=" M 293.45 142.69 C 301.36 142.35 309.25 141.69 317.15 141.14 C 307.50 152.51 298.22 164.20 288.64 175.64 C 287.24 177.38 286.00 179.24 284.68 181.04 C 280.60 184.05 276.19 186.58 271.61 188.73 C 271.44 185.83 271.35 182.90 271.76 180.02 C 273.03 170.70 273.80 161.31 275.06 151.99 C 275.41 149.27 275.77 146.55 276.13 143.83 C 281.92 143.72 287.68 143.10 293.45 142.69 Z" />
<path fill="#36261a" opacity="1.00" d=" M 117.93 167.98 C 123.46 169.23 128.99 170.51 134.52 171.82 C 130.61 173.54 126.61 175.05 122.80 176.96 C 124.39 180.82 125.78 185.13 129.14 187.85 C 132.75 187.97 136.34 187.35 139.94 187.05 C 140.16 197.17 138.97 207.30 137.88 217.35 C 133.20 217.98 128.52 218.60 123.82 219.11 C 119.94 219.67 116.06 220.24 112.15 220.64 C 105.70 209.69 99.86 198.37 93.57 187.31 C 102.75 182.94 112.93 180.94 121.80 175.93 C 120.67 173.21 119.51 170.48 117.93 167.98 Z" />
</g>
<g id="#432f20ff">
<path fill="#432f20" opacity="1.00" d=" M 317.15 141.14 L 318.16 141.04 C 320.50 146.75 322.30 152.65 324.52 158.41 L 324.71 158.92 C 311.14 165.87 298.18 173.96 284.68 181.04 C 286.00 179.24 287.24 177.38 288.64 175.64 C 298.22 164.20 307.50 152.51 317.15 141.14 Z" />
</g>
<g id="#4f3725ff">
<path fill="#4f3725" opacity="1.00" d=" M 268.29 144.88 C 270.87 144.34 273.49 143.96 276.13 143.83 C 275.77 146.55 275.41 149.27 275.06 151.99 C 267.25 157.03 258.97 161.26 250.94 165.91 C 245.36 169.16 239.65 172.20 233.87 175.08 C 235.31 169.52 235.85 163.63 238.38 158.41 C 240.89 156.31 244.16 155.44 247.10 154.11 C 254.17 151.05 261.49 148.55 268.29 144.88 Z" />
<path fill="#4f3725" opacity="1.00" d=" M 176.03 156.71 C 182.16 158.53 187.58 161.98 193.34 164.67 C 196.45 166.22 199.70 167.52 202.60 169.45 C 205.30 171.31 206.31 174.64 207.61 177.48 C 205.36 178.69 202.89 179.35 200.36 179.57 C 193.01 180.31 185.75 181.96 178.34 181.96 C 177.10 173.58 177.20 165.09 176.03 156.71 Z" />
</g>
<g id="#3f2c1eff">
<path fill="#3f2c1e" opacity="1.00" d=" M 229.42 147.46 C 242.38 146.67 255.31 145.24 268.29 144.88 C 261.49 148.55 254.17 151.05 247.10 154.11 C 244.16 155.44 240.89 156.31 238.38 158.41 C 235.85 163.63 235.31 169.52 233.87 175.08 C 233.76 175.50 233.54 176.34 233.42 176.76 C 231.32 174.18 227.67 176.09 224.93 176.12 C 219.46 177.31 213.33 176.33 208.48 179.56 C 208.18 178.87 207.89 178.17 207.61 177.48 C 206.31 174.64 205.30 171.31 202.60 169.45 C 199.70 167.52 196.45 166.22 193.34 164.67 C 187.58 161.98 182.16 158.53 176.03 156.71 C 181.31 154.87 186.27 152.25 191.58 150.49 C 196.36 148.80 201.47 150.29 206.38 149.41 C 214.02 148.36 221.74 148.08 229.42 147.46 Z" />
</g>
<g id="#6f4f36ff">
<path fill="#6f4f36" opacity="1.00" d=" M 472.19 231.22 C 486.02 203.92 498.15 175.74 512.00 148.45 L 512.00 293.47 C 493.41 288.39 474.62 284.09 456.02 279.02 C 448.43 276.94 440.72 275.25 432.89 274.32 C 372.92 265.35 312.95 256.30 252.99 247.25 C 247.81 246.74 242.75 248.28 237.61 248.59 C 204.67 250.79 171.76 253.35 138.82 255.55 C 131.29 256.03 124.25 258.94 117.11 261.14 C 84.67 271.32 52.28 281.63 19.82 291.72 C 16.58 292.52 13.91 294.60 10.88 295.84 C 7.18 295.57 3.60 294.54 0.00 293.73 L 0.00 150.26 C 14.22 172.40 27.44 195.18 41.80 217.21 C 45.34 201.92 47.62 186.36 50.48 170.93 C 53.75 172.92 57.00 174.94 60.07 177.23 C 61.00 178.08 61.92 178.94 62.85 179.80 C 67.70 191.34 74.20 202.06 79.75 213.27 C 85.16 222.12 88.35 232.71 96.56 239.55 C 100.88 243.36 106.59 244.84 112.10 245.94 C 119.30 247.60 126.55 245.31 133.62 244.12 C 145.72 245.54 157.33 249.45 169.29 251.61 C 166.48 248.23 163.43 245.07 160.38 241.92 C 166.51 240.57 172.74 239.70 178.98 239.04 C 184.72 238.48 190.29 236.69 196.10 236.79 C 196.03 236.23 195.97 235.67 195.91 235.11 C 198.65 235.44 201.39 235.78 204.14 236.11 C 204.05 235.50 203.95 234.90 203.84 234.31 C 210.59 234.13 217.13 232.26 223.85 231.65 C 231.78 230.78 239.62 229.20 247.55 228.38 C 253.11 229.37 258.68 228.16 264.17 227.31 C 270.03 226.44 274.68 222.51 279.78 219.83 C 296.78 210.58 313.47 200.78 330.46 191.52 C 332.31 190.62 333.45 188.92 334.45 187.21 C 337.24 196.62 340.42 205.91 343.75 215.14 C 348.19 202.72 350.64 189.68 354.28 177.02 C 356.76 169.61 358.19 161.92 360.32 154.42 C 363.20 155.69 366.11 156.88 368.92 158.29 C 369.58 158.80 370.25 159.32 370.92 159.84 C 374.26 165.42 378.36 170.48 382.34 175.61 C 388.42 184.19 394.73 192.61 400.94 201.10 C 402.58 203.38 404.55 205.50 405.64 208.12 C 405.58 209.93 405.02 211.68 404.55 213.41 C 402.18 221.19 400.19 229.08 397.91 236.88 C 396.15 243.31 393.96 249.64 392.93 256.25 C 395.77 253.26 398.28 249.99 400.73 246.68 C 412.37 231.36 424.19 216.16 435.80 200.82 C 439.25 197.12 436.67 191.98 436.34 187.66 L 436.21 186.88 C 447.13 179.42 458.04 171.93 468.67 164.07 C 468.97 163.90 469.57 163.56 469.87 163.38 C 471.08 185.98 470.83 208.63 472.19 231.22 Z" />
</g>
<g id="#533b29ff">
<path fill="#533b29" opacity="1.00" d=" M 353.69 151.43 C 357.09 151.04 360.47 150.52 363.83 149.81 C 365.56 152.62 367.15 155.51 368.92 158.29 C 366.11 156.88 363.20 155.69 360.32 154.42 C 358.19 161.92 356.76 169.61 354.28 177.02 C 346.94 178.11 339.19 178.65 332.86 182.93 C 329.82 175.04 327.11 167.02 324.71 158.92 L 324.52 158.41 C 333.40 153.37 343.93 153.52 353.69 151.43 Z" />
<path fill="#533b29" opacity="1.00" d=" M 123.82 219.11 C 128.52 218.60 133.20 217.98 137.88 217.35 L 138.13 217.32 C 140.48 221.64 144.38 224.72 147.70 228.24 C 152.06 232.68 156.07 237.44 160.38 241.92 C 163.43 245.07 166.48 248.23 169.29 251.61 C 157.33 249.45 145.72 245.54 133.62 244.12 C 133.17 243.98 132.26 243.70 131.81 243.57 C 132.34 243.29 133.39 242.75 133.92 242.47 C 131.05 234.74 125.81 228.20 122.54 220.66 C 122.86 220.27 123.50 219.50 123.82 219.11 Z" />
</g>
<g id="#422e1fff">
<path fill="#422e1f" opacity="1.00" d=" M 250.94 165.91 C 258.97 161.26 267.25 157.03 275.06 151.99 C 273.80 161.31 273.03 170.70 271.76 180.02 C 271.35 182.90 271.44 185.83 271.61 188.73 C 263.10 193.01 254.96 197.97 246.61 202.56 C 240.33 205.76 232.97 204.57 226.34 206.47 C 225.38 207.24 224.55 208.15 223.71 209.04 C 222.27 208.09 220.88 206.65 219.00 207.19 C 192.03 210.48 165.10 214.04 138.13 217.32 L 137.88 217.35 C 138.97 207.30 140.16 197.17 139.94 187.05 C 136.34 187.35 132.75 187.97 129.14 187.85 C 125.78 185.13 124.39 180.82 122.80 176.96 C 126.61 175.05 130.61 173.54 134.52 171.82 C 143.18 173.87 151.88 175.79 160.56 177.83 C 163.64 178.55 166.73 179.24 169.83 179.87 C 167.92 177.78 165.97 175.71 164.01 173.66 C 161.03 170.53 158.11 167.36 155.14 164.24 C 162.26 162.19 169.12 159.38 176.03 156.71 C 177.20 165.09 177.10 173.58 178.34 181.96 C 185.75 181.96 193.01 180.31 200.36 179.57 C 202.89 179.35 205.36 178.69 207.61 177.48 C 207.89 178.17 208.18 178.87 208.48 179.56 C 212.23 187.78 216.46 195.77 220.18 204.00 C 220.81 206.91 225.34 206.77 225.90 203.95 C 228.98 195.06 230.37 185.67 233.42 176.76 C 233.54 176.34 233.76 175.50 233.87 175.08 C 239.65 172.20 245.36 169.16 250.94 165.91 M 160.93 184.15 C 159.93 184.44 157.95 184.02 158.38 185.67 C 164.96 193.22 171.69 200.71 179.25 207.31 C 180.23 205.46 179.69 203.35 179.55 201.35 C 178.74 195.04 179.16 188.58 177.42 182.40 C 171.90 182.72 166.44 183.69 160.93 184.15 Z" />
<path fill="#422e1f" opacity="1.00" d=" M 332.34 419.49 C 346.91 416.17 361.15 411.60 375.69 408.18 C 376.59 412.92 377.51 417.66 378.30 422.43 C 378.97 430.31 379.81 438.18 380.92 446.02 C 384.27 467.97 386.90 490.01 389.98 512.00 L 358.46 512.00 C 358.94 508.40 359.23 504.75 358.68 501.14 C 356.60 487.12 355.03 473.03 352.92 459.02 C 352.18 454.40 352.45 449.47 350.10 445.27 C 345.94 446.51 341.75 447.74 337.40 448.07 C 336.04 440.07 335.09 432.02 334.08 423.98 C 333.99 422.32 333.22 420.85 332.34 419.49 Z" />
</g>
<g id="#4b3625ff">
<path fill="#4b3625" opacity="1.00" d=" M 54.15 152.82 C 58.55 157.54 61.87 163.10 65.77 168.22 C 71.26 175.94 77.18 183.37 82.31 191.33 C 79.09 191.97 76.61 189.58 74.22 187.85 C 70.58 184.96 66.72 182.36 62.85 179.80 C 61.92 178.94 61.00 178.08 60.07 177.23 C 58.20 171.80 55.52 166.72 52.37 161.93 C 52.48 161.26 52.59 160.58 52.70 159.92 C 53.11 157.53 53.61 155.17 54.15 152.82 Z" />
<path fill="#4b3625" opacity="1.00" d=" M 82.85 191.14 C 86.37 189.79 89.78 188.20 93.24 186.73 L 93.57 187.31 C 99.86 198.37 105.70 209.69 112.15 220.64 C 116.06 220.24 119.94 219.67 123.82 219.11 C 123.50 219.50 122.86 220.27 122.54 220.66 C 125.81 228.20 131.05 234.74 133.92 242.47 C 133.39 242.75 132.34 243.29 131.81 243.57 C 126.40 241.18 118.91 242.22 115.46 236.57 C 104.64 221.39 93.39 206.51 82.85 191.14 Z" />
</g>
<g id="#684a33ff">
<path fill="#684a33" opacity="1.00" d=" M 284.68 181.04 C 298.18 173.96 311.14 165.87 324.71 158.92 C 327.11 167.02 329.82 175.04 332.86 182.93 L 333.13 183.62 C 326.48 186.52 320.36 190.46 313.97 193.87 C 295.54 204.16 276.95 214.17 258.59 224.60 C 255.17 226.50 251.36 227.56 247.55 228.38 C 239.62 229.20 231.78 230.78 223.85 231.65 C 217.13 232.26 210.59 234.13 203.84 234.31 C 203.95 234.90 204.05 235.50 204.14 236.11 C 201.39 235.78 198.65 235.44 195.91 235.11 C 195.97 235.67 196.03 236.23 196.10 236.79 C 190.29 236.69 184.72 238.48 178.98 239.04 C 172.74 239.70 166.51 240.57 160.38 241.92 C 156.07 237.44 152.06 232.68 147.70 228.24 C 144.38 224.72 140.48 221.64 138.13 217.32 C 165.10 214.04 192.03 210.48 219.00 207.19 C 220.88 206.65 222.27 208.09 223.71 209.04 C 224.55 208.15 225.38 207.24 226.34 206.47 C 232.97 204.57 240.33 205.76 246.61 202.56 C 254.96 197.97 263.10 193.01 271.61 188.73 C 276.19 186.58 280.60 184.05 284.68 181.04 Z" />
</g>
<g id="#352519ff">
<path fill="#352519" opacity="1.00" d=" M 224.93 176.12 C 227.67 176.09 231.32 174.18 233.42 176.76 C 230.37 185.67 228.98 195.06 225.90 203.95 C 225.34 206.77 220.81 206.91 220.18 204.00 C 216.46 195.77 212.23 187.78 208.48 179.56 C 213.33 176.33 219.46 177.31 224.93 176.12 Z" />
<path fill="#352519" opacity="1.00" d=" M 160.93 184.15 C 166.44 183.69 171.90 182.72 177.42 182.40 C 179.16 188.58 178.74 195.04 179.55 201.35 C 179.69 203.35 180.23 205.46 179.25 207.31 C 171.69 200.71 164.96 193.22 158.38 185.67 C 157.95 184.02 159.93 184.44 160.93 184.15 Z" />
</g>
<g id="#5e432eff">
<path fill="#5e432e" opacity="1.00" d=" M 62.85 179.80 C 66.72 182.36 70.58 184.96 74.22 187.85 C 76.61 189.58 79.09 191.97 82.31 191.33 L 82.85 191.14 C 93.39 206.51 104.64 221.39 115.46 236.57 C 118.91 242.22 126.40 241.18 131.81 243.57 C 132.26 243.70 133.17 243.98 133.62 244.12 C 126.55 245.31 119.30 247.60 112.10 245.94 C 106.59 244.84 100.88 243.36 96.56 239.55 C 88.35 232.71 85.16 222.12 79.75 213.27 C 74.20 202.06 67.70 191.34 62.85 179.80 Z" />
<path fill="#5e432e" opacity="1.00" d=" M 237.61 248.59 C 242.75 248.28 247.81 246.74 252.99 247.25 C 312.95 256.30 372.92 265.35 432.89 274.32 C 440.72 275.25 448.43 276.94 456.02 279.02 C 474.62 284.09 493.41 288.39 512.00 293.47 L 512.00 314.29 C 448.00 304.44 383.92 295.00 319.90 285.29 C 314.88 284.75 310.05 286.53 305.08 286.81 C 273.61 288.98 242.14 291.26 210.67 293.50 C 197.20 294.01 184.30 298.39 171.62 302.59 C 142.68 311.56 113.81 320.77 84.91 329.84 C 80.41 331.24 75.71 333.59 70.92 332.13 C 55.36 327.82 39.58 324.37 24.03 320.02 C 16.08 317.82 7.96 316.30 0.00 314.12 L 0.00 293.73 C 3.60 294.54 7.18 295.57 10.88 295.84 C 13.91 294.60 16.58 292.52 19.82 291.72 C 52.28 281.63 84.67 271.32 117.11 261.14 C 124.25 258.94 131.29 256.03 138.82 255.55 C 171.76 253.35 204.67 250.79 237.61 248.59 Z" />
</g>
<g id="#7a573cff">
<path fill="#7a573c" opacity="1.00" d=" M 313.97 193.87 C 320.36 190.46 326.48 186.52 333.13 183.62 C 333.58 184.81 334.02 186.01 334.45 187.21 C 333.45 188.92 332.31 190.62 330.46 191.52 C 313.47 200.78 296.78 210.58 279.78 219.83 C 274.68 222.51 270.03 226.44 264.17 227.31 C 258.68 228.16 253.11 229.37 247.55 228.38 C 251.36 227.56 255.17 226.50 258.59 224.60 C 276.95 214.17 295.54 204.16 313.97 193.87 Z" />
</g>
<g id="#503927ff">
<path fill="#503927" opacity="1.00" d=" M 305.08 286.81 C 310.05 286.53 314.88 284.75 319.90 285.29 C 383.92 295.00 448.00 304.44 512.00 314.29 L 512.00 338.21 C 509.25 339.62 506.16 340.48 503.08 339.76 C 443.44 328.98 383.77 318.37 324.13 307.60 C 320.12 306.84 316.00 306.75 311.95 307.20 C 293.50 309.03 275.00 310.40 256.54 312.24 C 238.35 313.78 220.18 315.46 201.99 317.01 C 196.33 317.44 191.26 320.15 185.99 322.00 C 156.66 332.64 127.36 343.35 98.02 353.99 C 91.90 356.27 85.84 358.79 79.51 360.46 C 53.06 353.68 26.51 347.25 0.00 340.70 L 0.00 314.12 C 7.96 316.30 16.08 317.82 24.03 320.02 C 39.58 324.37 55.36 327.82 70.92 332.13 C 75.71 333.59 80.41 331.24 84.91 329.84 C 113.81 320.77 142.68 311.56 171.62 302.59 C 184.30 298.39 197.20 294.01 210.67 293.50 C 242.14 291.26 273.61 288.98 305.08 286.81 Z" />
</g>
<g id="#3e2b1dff">
<path fill="#3e2b1d" opacity="1.00" d=" M 256.54 312.24 C 275.00 310.40 293.50 309.03 311.95 307.20 C 316.00 306.75 320.12 306.84 324.13 307.60 C 383.77 318.37 443.44 328.98 503.08 339.76 C 506.16 340.48 509.25 339.62 512.00 338.21 L 512.00 371.55 C 507.36 373.75 502.80 376.14 498.03 378.04 C 498.75 372.60 500.87 367.50 501.93 362.14 C 497.06 360.35 492.09 358.70 486.95 357.97 C 485.55 357.71 484.23 358.39 483.02 358.97 C 448.07 380.04 413.38 401.57 378.30 422.43 C 377.51 417.66 376.59 412.92 375.69 408.18 C 361.15 411.60 346.91 416.17 332.34 419.49 C 313.35 425.05 294.10 429.72 275.06 435.12 C 269.87 436.80 264.39 436.26 259.04 436.74 C 239.28 438.60 219.49 440.13 199.72 441.99 C 192.47 442.43 185.26 443.40 178.01 443.79 C 174.76 444.09 172.61 441.13 170.22 439.45 C 171.76 438.82 173.31 438.16 174.96 437.86 C 206.99 433.78 238.99 429.39 271.02 425.23 C 275.16 424.68 279.56 424.41 283.22 422.18 C 294.09 415.35 305.12 408.77 316.10 402.12 L 316.78 401.82 C 328.89 400.57 340.92 398.73 353.00 397.22 C 358.76 396.36 364.98 396.32 370.00 392.95 C 383.57 384.47 397.39 376.38 410.97 367.91 C 416.85 364.24 423.11 361.12 428.59 356.82 C 419.63 353.66 409.93 353.67 400.82 351.01 C 405.35 347.49 410.60 345.04 415.07 341.43 C 404.08 338.84 392.88 337.29 381.80 335.22 C 348.51 329.21 315.20 323.28 281.91 317.26 C 273.46 315.53 264.81 314.78 256.54 312.24 Z" />
<path fill="#3e2b1d" opacity="1.00" d=" M 0.00 340.70 C 26.51 347.25 53.06 353.68 79.51 360.46 C 76.63 361.55 73.86 362.93 71.08 364.25 C 73.69 366.59 76.33 368.91 79.04 371.15 C 65.11 418.11 51.21 465.08 37.13 512.00 L 13.85 512.00 C 24.77 472.91 35.82 433.87 46.71 394.77 C 47.95 390.92 49.05 387.03 49.86 383.07 C 37.89 379.25 25.46 377.03 13.37 373.60 C 9.05 372.24 4.43 371.70 0.00 372.87 L 0.00 340.70 Z" />
</g>
<g id="#493322ff">
<path fill="#493322" opacity="1.00" d=" M 201.99 317.01 C 220.18 315.46 238.35 313.78 256.54 312.24 C 264.81 314.78 273.46 315.53 281.91 317.26 C 315.20 323.28 348.51 329.21 381.80 335.22 C 392.88 337.29 404.08 338.84 415.07 341.43 C 410.60 345.04 405.35 347.49 400.82 351.01 C 409.93 353.67 419.63 353.66 428.59 356.82 C 423.11 361.12 416.85 364.24 410.97 367.91 C 397.39 376.38 383.57 384.47 370.00 392.95 C 364.98 396.32 358.76 396.36 353.00 397.22 C 340.92 398.73 328.89 400.57 316.78 401.82 C 333.22 391.52 349.93 381.64 366.44 371.46 C 377.37 364.77 388.57 358.49 399.15 351.26 C 391.02 348.99 382.58 348.17 374.31 346.54 C 357.95 343.39 341.50 340.74 325.13 337.62 C 320.48 336.78 315.72 336.69 311.03 337.15 C 280.68 339.96 250.31 342.55 219.97 345.35 C 213.61 346.00 207.03 345.68 200.96 347.96 C 180.47 355.56 159.93 363.00 139.41 370.51 C 136.13 371.54 132.90 372.73 129.96 374.53 C 144.45 387.24 159.56 399.27 174.29 411.71 C 177.48 414.14 180.12 417.54 183.96 418.96 C 189.45 419.43 194.88 417.96 200.32 417.37 C 238.92 412.35 277.50 407.11 316.10 402.12 C 305.12 408.77 294.09 415.35 283.22 422.18 C 279.56 424.41 275.16 424.68 271.02 425.23 C 238.99 429.39 206.99 433.78 174.96 437.86 C 173.31 438.16 171.76 438.82 170.22 439.45 C 140.21 415.78 110.39 391.84 80.24 368.34 C 79.82 369.27 79.42 370.20 79.04 371.15 C 76.33 368.91 73.69 366.59 71.08 364.25 C 73.86 362.93 76.63 361.55 79.51 360.46 C 85.84 358.79 91.90 356.27 98.02 353.99 C 127.36 343.35 156.66 332.64 185.99 322.00 C 191.26 320.15 196.33 317.44 201.99 317.01 Z" />
<path fill="#493322" opacity="1.00" d=" M 0.00 372.87 C 4.43 371.70 9.05 372.24 13.37 373.60 C 25.46 377.03 37.89 379.25 49.86 383.07 C 49.05 387.03 47.95 390.92 46.71 394.77 C 35.82 433.87 24.77 472.91 13.85 512.00 L 0.00 512.00 L 0.00 372.87 Z" />
<path fill="#493322" opacity="1.00" d=" M 495.09 388.29 C 500.96 385.40 506.38 381.74 512.00 378.40 L 512.00 512.00 L 459.86 512.00 C 466.61 488.05 473.30 464.07 480.11 440.13 C 484.57 423.26 489.86 406.61 493.99 389.64 C 494.26 389.30 494.81 388.62 495.09 388.29 Z" />
</g>
<g id="#563c28ff">
<path fill="#563c28" opacity="1.00" d=" M 219.97 345.35 C 250.31 342.55 280.68 339.96 311.03 337.15 C 315.72 336.69 320.48 336.78 325.13 337.62 C 341.50 340.74 357.95 343.39 374.31 346.54 C 382.58 348.17 391.02 348.99 399.15 351.26 C 388.57 358.49 377.37 364.77 366.44 371.46 C 349.93 381.64 333.22 391.52 316.78 401.82 L 316.10 402.12 C 277.50 407.11 238.92 412.35 200.32 417.37 C 194.88 417.96 189.45 419.43 183.96 418.96 C 180.12 417.54 177.48 414.14 174.29 411.71 C 159.56 399.27 144.45 387.24 129.96 374.53 C 132.90 372.73 136.13 371.54 139.41 370.51 C 159.93 363.00 180.47 355.56 200.96 347.96 C 207.03 345.68 213.61 346.00 219.97 345.35 Z" />
<path fill="#563c28" opacity="1.00" d=" M 450.00 416.06 C 464.73 407.37 479.08 398.03 493.99 389.64 C 489.86 406.61 484.57 423.26 480.11 440.13 C 473.30 464.07 466.61 488.05 459.86 512.00 L 409.17 512.00 C 411.29 503.72 408.87 495.33 409.01 486.98 C 409.05 480.98 408.02 475.03 408.04 469.04 C 408.11 463.28 406.93 457.64 406.43 451.93 C 405.91 444.78 404.09 437.68 405.14 430.48 C 405.95 434.29 406.36 438.18 406.46 442.09 C 412.03 439.77 416.80 436.01 422.03 433.07 C 431.48 427.62 440.60 421.61 450.00 416.06 Z" />
</g>
<g id="#503825ff">
<path fill="#503825" opacity="1.00" d=" M 483.02 358.97 C 484.23 358.39 485.55 357.71 486.95 357.97 C 492.09 358.70 497.06 360.35 501.93 362.14 C 500.87 367.50 498.75 372.60 498.03 378.04 C 502.80 376.14 507.36 373.75 512.00 371.55 L 512.00 378.40 C 506.38 381.74 500.96 385.40 495.09 388.29 C 495.84 385.28 496.37 382.23 496.92 379.19 C 490.36 382.06 484.11 385.58 477.68 388.72 C 467.09 394.11 456.31 399.11 445.98 404.97 C 436.28 409.95 426.46 414.69 416.75 419.65 C 413.05 421.61 408.94 422.97 405.73 425.74 C 405.27 427.27 405.23 428.88 405.14 430.48 C 404.09 437.68 405.91 444.78 406.43 451.93 C 406.93 457.64 408.11 463.28 408.04 469.04 C 408.02 475.03 409.05 480.98 409.01 486.98 C 408.87 495.33 411.29 503.72 409.17 512.00 L 389.98 512.00 C 386.90 490.01 384.27 467.97 380.92 446.02 C 379.81 438.18 378.97 430.31 378.30 422.43 C 413.38 401.57 448.07 380.04 483.02 358.97 Z" />
</g>
<g id="#5a3e29ff">
<path fill="#5a3e29" opacity="1.00" d=" M 80.24 368.34 C 110.39 391.84 140.21 415.78 170.22 439.45 C 172.61 441.13 174.76 444.09 178.01 443.79 C 185.26 443.40 192.47 442.43 199.72 441.99 C 201.48 450.15 204.66 457.90 207.01 465.89 C 207.84 467.81 208.37 471.00 211.13 470.69 C 220.05 470.64 228.89 468.64 237.84 469.05 C 238.36 483.35 238.07 497.68 238.02 512.00 L 125.41 512.00 C 129.56 511.21 133.76 510.88 137.98 510.81 C 162.54 509.42 187.09 507.80 211.65 506.55 C 214.41 506.36 217.15 506.05 219.90 505.75 C 216.36 494.21 212.43 482.79 208.71 471.31 C 198.12 471.29 187.65 473.39 177.08 473.59 C 169.87 472.82 162.34 471.10 156.59 466.42 C 141.46 454.57 126.47 442.55 111.35 430.68 C 106.21 426.80 101.56 422.26 96.02 418.92 C 94.37 422.52 93.16 426.29 92.16 430.12 C 84.10 457.42 75.91 484.69 67.87 512.00 L 37.13 512.00 C 51.21 465.08 65.11 418.11 79.04 371.15 C 79.42 370.20 79.82 369.27 80.24 368.34 Z" />
</g>
<g id="#5f422cff">
<path fill="#5f422c" opacity="1.00" d=" M 477.68 388.72 C 484.11 385.58 490.36 382.06 496.92 379.19 C 496.37 382.23 495.84 385.28 495.09 388.29 C 494.81 388.62 494.26 389.30 493.99 389.64 C 479.08 398.03 464.73 407.37 450.00 416.06 C 440.60 421.61 431.48 427.62 422.03 433.07 C 416.80 436.01 412.03 439.77 406.46 442.09 C 406.36 438.18 405.95 434.29 405.14 430.48 C 405.23 428.88 405.27 427.27 405.73 425.74 C 408.94 422.97 413.05 421.61 416.75 419.65 C 426.46 414.69 436.28 409.95 445.98 404.97 C 456.31 399.11 467.09 394.11 477.68 388.72 Z" />
</g>
<g id="#6a4930ff">
<path fill="#6a4930" opacity="1.00" d=" M 96.02 418.92 C 101.56 422.26 106.21 426.80 111.35 430.68 C 126.47 442.55 141.46 454.57 156.59 466.42 C 162.34 471.10 169.87 472.82 177.08 473.59 C 187.65 473.39 198.12 471.29 208.71 471.31 C 212.43 482.79 216.36 494.21 219.90 505.75 C 217.15 506.05 214.41 506.36 211.65 506.55 C 187.09 507.80 162.54 509.42 137.98 510.81 C 133.76 510.88 129.56 511.21 125.41 512.00 L 67.87 512.00 C 75.91 484.69 84.10 457.42 92.16 430.12 C 93.16 426.29 94.37 422.52 96.02 418.92 Z" />
</g>
<g id="#4d3624ff">
<path fill="#4d3624" opacity="1.00" d=" M 275.06 435.12 C 294.10 429.72 313.35 425.05 332.34 419.49 C 333.22 420.85 333.99 422.32 334.08 423.98 C 335.09 432.02 336.04 440.07 337.40 448.07 C 341.75 447.74 345.94 446.51 350.10 445.27 C 352.45 449.47 352.18 454.40 352.92 459.02 C 355.03 473.03 356.60 487.12 358.68 501.14 C 359.23 504.75 358.94 508.40 358.46 512.00 L 319.58 512.00 C 325.36 495.88 331.75 479.97 338.00 464.03 C 339.74 459.21 338.10 454.10 337.31 449.27 C 330.03 449.73 323.21 452.58 316.15 454.22 C 308.36 456.62 300.23 457.79 292.57 460.61 C 292.20 465.15 292.02 469.71 291.53 474.25 C 290.71 469.28 290.80 464.24 290.75 459.22 C 283.25 459.74 275.73 460.22 268.29 461.35 C 267.98 478.23 268.24 495.12 268.22 512.00 L 238.02 512.00 C 238.07 497.68 238.36 483.35 237.84 469.05 C 228.89 468.64 220.05 470.64 211.13 470.69 C 208.37 471.00 207.84 467.81 207.01 465.89 C 204.66 457.90 201.48 450.15 199.72 441.99 C 219.49 440.13 239.28 438.60 259.04 436.74 C 264.39 436.26 269.87 436.80 275.06 435.12 Z" />
</g>
<g id="#5b3f2aff">
<path fill="#5b3f2a" opacity="1.00" d=" M 316.15 454.22 C 323.21 452.58 330.03 449.73 337.31 449.27 C 338.10 454.10 339.74 459.21 338.00 464.03 C 331.75 479.97 325.36 495.88 319.58 512.00 L 268.22 512.00 C 268.24 495.12 267.98 478.23 268.29 461.35 C 275.73 460.22 283.25 459.74 290.75 459.22 C 290.80 464.24 290.71 469.28 291.53 474.25 C 292.02 469.71 292.20 465.15 292.57 460.61 C 300.23 457.79 308.36 456.62 316.15 454.22 Z" />
</g>
</svg>
