<?xml version="1.0" encoding="UTF-8" ?>
<!DOCTYPE svg PUBLIC "-//W3C//DTD SVG 1.1//EN" "http://www.w3.org/Graphics/SVG/1.1/DTD/svg11.dtd">
<svg width="512pt" height="512pt" viewBox="0 0 512 512" version="1.1" xmlns="http://www.w3.org/2000/svg">
<g id="#1f3700ff">
<path fill="#1f3700" opacity="1.00" d=" M 119.26 12.31 C 120.49 10.83 122.51 9.68 124.43 10.56 C 144.67 16.39 164.98 21.97 185.23 27.74 C 207.31 32.19 229.52 36.00 251.61 40.37 C 255.16 42.82 257.27 46.72 260.19 49.80 C 266.43 57.55 273.11 64.92 279.36 72.67 C 281.96 75.47 284.38 78.47 286.04 81.95 C 285.30 84.14 284.47 86.32 282.80 87.99 C 281.52 87.97 280.25 87.95 278.99 87.91 C 279.98 85.97 280.81 83.96 281.73 81.98 C 272.41 70.14 262.31 58.91 252.79 47.24 C 250.42 43.86 246.22 43.11 242.43 42.51 C 225.84 39.58 209.32 36.31 192.74 33.29 C 181.94 31.42 171.59 27.75 161.01 24.98 C 148.04 21.50 135.21 17.55 122.23 14.11 C 131.53 32.19 141.21 50.09 150.90 67.97 C 152.63 71.42 154.66 74.81 157.66 77.33 C 171.38 89.26 184.91 101.40 198.56 113.41 C 201.51 115.85 203.98 119.49 208.04 120.03 C 212.98 120.82 218.01 120.82 222.99 121.26 C 234.77 122.36 246.60 122.89 258.36 124.19 C 258.12 125.40 257.89 126.61 257.67 127.83 C 255.57 128.03 253.45 128.11 251.40 127.59 C 247.41 126.57 243.26 127.34 239.24 126.72 C 233.86 125.46 228.27 126.52 222.90 125.16 C 216.70 125.15 210.56 124.44 204.43 123.63 C 199.36 120.45 195.68 115.61 190.87 112.10 C 180.31 102.67 169.69 93.33 159.13 83.89 C 155.80 81.29 152.39 78.58 150.04 75.02 C 146.44 67.67 142.09 60.74 138.64 53.32 C 134.65 47.13 132.03 40.19 128.08 33.97 C 125.39 29.26 123.43 24.15 120.43 19.61 C 119.28 17.45 117.39 14.59 119.26 12.31 Z" />
</g>
<g id="#548416ff">
<path fill="#548416" opacity="1.00" d=" M 122.23 14.11 C 135.21 17.55 148.04 21.50 161.01 24.98 C 171.59 27.75 181.94 31.42 192.74 33.29 C 209.32 36.31 225.84 39.58 242.43 42.51 C 246.22 43.11 250.42 43.86 252.79 47.24 C 262.31 58.91 272.41 70.14 281.73 81.98 C 280.81 83.96 279.98 85.97 278.99 87.91 C 275.26 88.03 271.33 87.47 267.77 88.80 C 266.24 90.23 265.92 92.44 265.36 94.36 C 263.11 104.32 261.08 114.34 258.36 124.19 C 246.60 122.89 234.77 122.36 222.99 121.26 C 224.21 118.96 225.73 116.70 226.09 114.07 C 225.28 111.75 223.69 109.82 222.16 107.94 L 221.66 107.35 C 229.12 107.76 236.55 108.54 244.00 109.09 C 246.68 109.08 250.32 109.66 251.81 106.80 C 255.30 101.51 258.06 95.78 261.43 90.40 C 262.75 87.81 265.12 84.66 263.31 81.73 C 261.39 78.42 258.58 75.76 256.18 72.82 C 252.46 68.52 249.01 64.00 245.29 59.71 C 241.40 54.85 234.60 55.30 229.09 53.95 C 208.96 49.89 188.47 47.29 168.79 41.28 C 162.86 39.78 157.09 37.49 150.94 37.04 C 152.17 43.58 156.79 48.67 159.34 54.67 C 162.01 60.92 166.19 66.33 171.00 71.08 C 164.21 70.58 157.61 68.91 150.90 67.97 C 141.21 50.09 131.53 32.19 122.23 14.11 Z" />
</g>
<g id="#5e9418ff">
<path fill="#5e9418" opacity="1.00" d=" M 150.94 37.04 C 157.09 37.49 162.86 39.78 168.79 41.28 C 188.47 47.29 208.96 49.89 229.09 53.95 C 234.60 55.30 241.40 54.85 245.29 59.71 C 249.01 64.00 252.46 68.52 256.18 72.82 C 258.58 75.76 261.39 78.42 263.31 81.73 C 265.12 84.66 262.75 87.81 261.43 90.40 C 258.06 95.78 255.30 101.51 251.81 106.80 C 250.32 109.66 246.68 109.08 244.00 109.09 C 236.55 108.54 229.12 107.76 221.66 107.35 C 214.74 99.89 208.51 91.84 201.88 84.13 C 199.06 81.00 196.73 76.81 192.39 75.64 C 186.04 73.94 179.49 73.15 173.02 72.00 C 172.51 71.77 171.50 71.31 171.00 71.08 C 166.19 66.33 162.01 60.92 159.34 54.67 C 156.79 48.67 152.17 43.58 150.94 37.04 Z" />
</g>
<g id="#466e12ff">
<path fill="#466e12" opacity="1.00" d=" M 150.90 67.97 C 157.61 68.91 164.21 70.58 171.00 71.08 C 171.50 71.31 172.51 71.77 173.02 72.00 C 182.56 80.80 192.39 89.29 202.13 97.88 C 205.16 100.50 207.81 103.65 211.37 105.59 C 214.75 107.13 218.53 107.36 222.16 107.94 C 223.69 109.82 225.28 111.75 226.09 114.07 C 225.73 116.70 224.21 118.96 222.99 121.26 C 218.01 120.82 212.98 120.82 208.04 120.03 C 203.98 119.49 201.51 115.85 198.56 113.41 C 184.91 101.40 171.38 89.26 157.66 77.33 C 154.66 74.81 152.63 71.42 150.90 67.97 Z" />
</g>
<g id="#4e7b14ff">
<path fill="#4e7b14" opacity="1.00" d=" M 173.02 72.00 C 179.49 73.15 186.04 73.94 192.39 75.64 C 196.73 76.81 199.06 81.00 201.88 84.13 C 208.51 91.84 214.74 99.89 221.66 107.35 L 222.16 107.94 C 218.53 107.36 214.75 107.13 211.37 105.59 C 207.81 103.65 205.16 100.50 202.13 97.88 C 192.39 89.29 182.56 80.80 173.02 72.00 Z" />
</g>
<g id="#2a1204ff">
<path fill="#2a1204" opacity="1.00" d=" M 267.77 88.80 C 271.33 87.47 275.26 88.03 278.99 87.91 C 280.25 87.95 281.52 87.97 282.80 87.99 C 289.51 88.08 296.23 87.89 302.95 88.03 C 305.60 87.88 308.23 90.15 307.93 92.86 C 306.36 97.03 303.96 100.83 301.72 104.67 C 297.61 112.28 294.29 120.31 289.72 127.67 C 287.24 132.69 283.99 137.53 283.25 143.20 C 282.59 148.96 282.08 154.75 281.14 160.47 C 277.54 162.68 274.30 165.80 270.08 166.78 C 266.35 165.75 263.37 163.11 260.09 161.18 C 259.64 152.98 257.43 145.00 256.09 136.92 C 256.21 133.84 257.23 130.87 257.67 127.83 C 257.89 126.61 258.12 125.40 258.36 124.19 C 261.08 114.34 263.11 104.32 265.36 94.36 C 265.92 92.44 266.24 90.23 267.77 88.80 M 270.18 92.21 C 266.79 105.39 264.15 118.77 260.94 132.00 C 259.43 137.37 261.33 142.85 262.64 148.06 C 263.30 143.28 263.55 138.27 265.98 133.98 C 269.18 128.15 272.41 122.33 275.31 116.34 C 279.25 108.17 284.11 100.47 287.79 92.17 C 281.92 92.02 276.04 91.89 270.18 92.21 Z" />
</g>
<g id="#542409ff">
<path fill="#542409" opacity="1.00" d=" M 270.18 92.21 C 276.04 91.89 281.92 92.02 287.79 92.17 C 284.11 100.47 279.25 108.17 275.31 116.34 C 272.41 122.33 269.18 128.15 265.98 133.98 C 263.55 138.27 263.30 143.28 262.64 148.06 C 261.33 142.85 259.43 137.37 260.94 132.00 C 264.15 118.77 266.79 105.39 270.18 92.21 Z" />
</g>
<g id="#4f0000ff">
<path fill="#4f0000" opacity="1.00" d=" M 172.98 146.96 C 176.55 144.40 179.98 141.44 184.20 140.02 C 197.14 141.70 210.16 143.01 223.10 144.80 C 228.35 145.45 234.21 145.02 238.70 148.28 C 245.88 152.49 252.83 157.09 260.09 161.18 C 263.37 163.11 266.35 165.75 270.08 166.78 C 274.30 165.80 277.54 162.68 281.14 160.47 C 292.59 155.09 302.58 147.01 314.22 142.04 C 332.67 144.20 351.19 146.11 369.66 148.29 C 371.85 149.82 373.12 152.25 374.63 154.39 C 389.89 175.79 405.22 197.14 420.45 218.57 C 423.12 221.65 421.40 225.96 422.43 229.59 C 423.66 234.79 422.33 240.21 423.58 245.41 C 424.55 250.08 423.45 254.91 424.42 259.59 C 425.74 265.12 424.26 270.88 425.58 276.41 C 426.55 281.08 425.45 285.91 426.42 290.59 C 427.69 296.07 426.27 301.78 427.73 307.23 C 429.43 314.40 425.46 320.94 423.66 327.64 C 421.15 337.18 417.35 346.33 414.87 355.88 C 410.80 367.36 407.67 379.14 403.61 390.62 C 401.72 395.74 401.27 401.48 398.04 406.03 C 387.28 421.28 376.58 436.56 365.80 451.80 C 363.84 454.46 362.48 457.79 359.61 459.65 C 344.74 462.54 329.78 464.99 314.92 467.91 C 308.52 467.34 302.39 465.05 296.08 463.92 C 286.06 461.58 276.03 459.27 266.01 456.96 C 264.17 456.59 262.29 455.68 260.41 456.35 C 245.50 460.18 230.54 463.83 215.61 467.62 C 210.82 468.34 205.91 468.09 201.09 467.84 C 189.82 465.63 178.18 468.37 166.91 466.16 C 162.08 465.59 157.18 466.48 152.38 465.74 C 148.34 462.39 145.03 458.31 141.73 454.27 C 136.53 449.42 132.55 443.47 127.24 438.72 C 122.68 432.39 116.10 427.62 112.22 420.82 C 100.13 379.50 88.23 338.12 76.16 296.79 C 75.82 294.65 77.09 292.63 77.54 290.57 C 86.51 259.19 95.51 227.82 104.42 196.42 C 105.52 194.24 107.90 193.16 109.79 191.77 C 130.93 176.95 151.87 161.83 172.98 146.96 M 178.14 148.10 C 155.63 164.29 132.94 180.21 110.38 196.32 C 108.72 197.45 107.57 199.14 107.09 201.09 C 98.92 229.88 90.68 258.65 82.43 287.43 C 81.45 291.21 79.46 295.17 80.85 299.12 C 85.84 315.85 90.61 332.65 95.50 349.42 C 96.20 351.59 96.82 353.86 98.19 355.74 C 98.18 360.84 100.27 365.56 101.61 370.39 C 104.54 379.64 106.58 389.18 110.03 398.25 C 111.00 404.64 113.45 410.67 115.14 416.89 C 116.39 421.71 120.51 424.76 123.62 428.36 C 127.88 433.74 133.07 438.29 137.31 443.69 C 143.24 449.43 147.82 456.54 154.44 461.55 C 158.49 462.57 162.77 461.68 166.90 462.27 C 174.55 463.38 182.29 462.94 190.00 462.97 C 196.70 462.83 203.31 464.40 210.02 464.06 C 215.51 464.11 220.73 462.28 225.99 460.99 C 236.93 458.26 247.88 455.58 258.79 452.74 C 261.16 452.03 263.65 452.30 266.01 452.91 C 280.62 456.42 295.30 459.61 309.90 463.17 C 312.35 463.76 314.92 464.00 317.42 463.46 C 329.51 461.08 341.67 459.01 353.79 456.79 C 356.29 456.40 358.70 455.27 360.07 453.05 C 371.31 437.28 382.28 421.31 393.58 405.58 C 395.41 403.14 396.54 400.28 397.43 397.39 C 405.06 373.65 412.59 349.89 420.11 326.11 C 421.83 320.56 424.79 315.02 423.88 309.02 C 422.77 302.35 423.22 295.57 422.28 288.89 C 421.20 269.38 419.74 249.91 418.58 230.40 C 418.00 226.82 418.61 222.74 416.33 219.67 C 400.67 197.97 385.21 176.13 369.63 154.38 C 367.94 151.75 364.54 151.72 361.79 151.29 C 346.18 149.75 330.61 147.80 315.03 146.18 C 310.70 146.96 306.98 149.90 303.74 152.76 C 298.56 154.42 294.31 157.96 289.56 160.50 C 282.94 164.13 276.71 168.43 269.98 171.85 C 258.65 165.36 247.67 158.25 236.47 151.51 C 233.25 149.58 229.40 149.40 225.75 149.31 C 212.85 147.06 199.74 146.12 186.77 144.32 C 183.31 143.55 180.73 146.34 178.14 148.10 Z" />
</g>
<g id="#a41818ff">
<path fill="#a41818" opacity="1.00" d=" M 178.14 148.10 C 180.73 146.34 183.31 143.55 186.77 144.32 C 199.74 146.12 212.85 147.06 225.75 149.31 C 234.55 158.51 244.21 166.94 252.08 177.00 C 244.92 174.76 239.14 169.86 232.70 166.23 C 228.28 163.62 223.06 163.26 218.08 162.67 C 210.36 161.75 202.63 160.85 194.91 159.86 C 191.90 159.54 188.57 159.01 185.84 160.71 C 181.25 163.37 177.21 166.84 172.84 169.82 C 159.49 179.09 146.34 188.64 133.09 198.05 C 129.60 200.56 125.81 202.70 122.64 205.65 C 118.99 209.15 118.37 214.47 116.95 219.09 C 110.09 243.22 103.23 267.35 96.24 291.44 C 94.99 295.23 95.77 299.23 96.92 302.93 C 102.84 322.78 108.50 342.71 114.32 362.59 C 116.75 371.51 119.73 380.30 121.61 389.37 C 116.01 381.00 110.05 372.87 104.64 364.37 C 102.71 361.33 100.44 358.54 98.19 355.74 C 96.82 353.86 96.20 351.59 95.50 349.42 C 90.61 332.65 85.84 315.85 80.85 299.12 C 79.46 295.17 81.45 291.21 82.43 287.43 C 90.68 258.65 98.92 229.88 107.09 201.09 C 107.57 199.14 108.72 197.45 110.38 196.32 C 132.94 180.21 155.63 164.29 178.14 148.10 Z" />
</g>
<g id="#4c0909ff">
<path fill="#4c0909" opacity="1.00" d=" M 303.74 152.76 C 306.98 149.90 310.70 146.96 315.03 146.18 C 330.61 147.80 346.18 149.75 361.79 151.29 C 364.54 151.72 367.94 151.75 369.63 154.38 C 385.21 176.13 400.67 197.97 416.33 219.67 C 418.61 222.74 418.00 226.82 418.58 230.40 C 419.74 249.91 421.20 269.38 422.28 288.89 C 423.22 295.57 422.77 302.35 423.88 309.02 C 424.79 315.02 421.83 320.56 420.11 326.11 C 412.59 349.89 405.06 373.65 397.43 397.39 C 396.54 400.28 395.41 403.14 393.58 405.58 C 382.28 421.31 371.31 437.28 360.07 453.05 C 358.70 455.27 356.29 456.40 353.79 456.79 C 341.67 459.01 329.51 461.08 317.42 463.46 C 314.92 464.00 312.35 463.76 309.90 463.17 C 295.30 459.61 280.62 456.42 266.01 452.91 C 263.65 452.30 261.16 452.03 258.79 452.74 C 247.88 455.58 236.93 458.26 225.99 460.99 C 220.73 462.28 215.51 464.11 210.02 464.06 C 203.31 464.40 196.70 462.83 190.00 462.97 C 182.29 462.94 174.55 463.38 166.90 462.27 C 162.77 461.68 158.49 462.57 154.44 461.55 C 147.82 456.54 143.24 449.43 137.31 443.69 C 133.07 438.29 127.88 433.74 123.62 428.36 C 120.51 424.76 116.39 421.71 115.14 416.89 C 113.45 410.67 111.00 404.64 110.03 398.25 C 114.45 397.15 118.87 396.03 123.19 394.59 L 123.83 395.06 C 125.99 401.96 126.40 409.90 131.59 415.42 C 138.79 423.52 146.11 431.51 153.39 439.53 C 156.43 442.86 159.14 447.50 164.04 448.08 C 170.35 448.79 176.71 448.03 183.04 448.39 C 194.20 449.15 205.49 450.16 216.63 448.76 C 229.72 445.64 242.74 442.23 255.80 438.97 C 260.40 437.79 265.22 438.15 269.79 439.30 C 280.63 441.91 291.51 444.33 302.36 446.88 C 307.40 448.04 312.52 449.91 317.77 448.96 C 324.24 447.86 330.66 446.41 337.16 445.41 C 340.52 444.81 343.96 444.41 347.21 443.28 C 350.06 442.35 351.85 439.78 353.56 437.49 C 361.48 426.11 369.37 414.69 377.49 403.44 C 380.05 399.86 382.75 396.26 384.16 392.03 C 391.07 370.57 397.80 349.05 404.71 327.60 C 406.39 321.11 409.70 314.87 409.37 308.01 C 407.51 284.93 406.35 261.79 404.68 238.70 C 404.33 234.93 404.61 231.07 403.64 227.39 C 402.23 223.78 399.52 220.89 397.34 217.74 C 387.60 204.14 377.88 190.52 368.17 176.90 C 365.77 173.62 363.67 170.07 360.80 167.17 C 358.82 165.02 355.72 164.94 353.02 164.59 C 342.51 163.67 332.05 162.32 321.57 161.15 C 316.50 160.36 312.29 163.77 308.20 166.18 C 307.57 161.47 306.16 156.87 303.74 152.76 Z" />
</g>
<g id="#7f0f0fff">
<path fill="#7f0f0f" opacity="1.00" d=" M 225.75 149.31 C 229.40 149.40 233.25 149.58 236.47 151.51 C 247.67 158.25 258.65 165.36 269.98 171.85 C 276.71 168.43 282.94 164.13 289.56 160.50 C 294.31 157.96 298.56 154.42 303.74 152.76 C 306.16 156.87 307.57 161.47 308.20 166.18 C 308.26 167.54 308.22 168.90 308.19 170.27 C 307.42 169.20 306.68 168.12 305.95 167.04 C 300.39 170.04 295.09 173.49 289.56 176.56 C 283.72 179.83 278.28 184.41 271.46 185.39 C 265.77 186.03 260.77 182.56 256.07 179.87 C 254.75 178.89 253.42 177.94 252.08 177.00 C 244.21 166.94 234.55 158.51 225.75 149.31 Z" />
<path fill="#7f0f0f" opacity="1.00" d=" M 98.19 355.74 C 100.44 358.54 102.71 361.33 104.64 364.37 C 110.05 372.87 116.01 381.00 121.61 389.37 C 121.73 389.75 121.97 390.52 122.09 390.90 C 122.47 392.12 122.84 393.35 123.19 394.59 C 118.87 396.03 114.45 397.15 110.03 398.25 C 106.58 389.18 104.54 379.64 101.61 370.39 C 100.27 365.56 98.18 360.84 98.19 355.74 Z" />
</g>
<g id="#b92323ff">
<path fill="#b92323" opacity="1.00" d=" M 185.84 160.71 C 188.57 159.01 191.90 159.54 194.91 159.86 C 202.63 160.85 210.36 161.75 218.08 162.67 C 223.06 163.26 228.28 163.62 232.70 166.23 C 239.14 169.86 244.92 174.76 252.08 177.00 C 253.42 177.94 254.75 178.89 256.07 179.87 C 259.70 184.14 263.58 188.40 268.41 191.33 C 270.95 191.53 273.39 190.51 275.81 189.87 C 284.06 187.24 292.50 185.30 300.76 182.70 C 303.25 181.91 305.83 181.52 308.43 181.28 C 310.11 202.84 311.24 224.44 312.82 246.01 C 313.30 251.93 310.60 257.37 308.89 262.88 C 302.91 282.16 296.60 301.34 290.60 320.62 C 288.07 327.16 287.08 334.35 283.38 340.39 C 273.10 355.09 262.63 369.66 252.45 384.43 C 250.14 387.64 248.13 391.98 243.77 392.65 C 232.20 394.85 220.56 396.72 209.01 399.05 C 205.12 399.89 201.08 399.81 197.23 398.79 C 184.00 395.51 170.66 392.71 157.44 389.43 C 154.56 388.75 151.58 388.10 148.62 388.65 C 140.77 390.09 133.27 393.19 125.30 394.02 C 124.21 392.99 123.15 391.94 122.09 390.90 C 121.97 390.52 121.73 389.75 121.61 389.37 C 119.73 380.30 116.75 371.51 114.32 362.59 C 108.50 342.71 102.84 322.78 96.92 302.93 C 95.77 299.23 94.99 295.23 96.24 291.44 C 103.23 267.35 110.09 243.22 116.95 219.09 C 118.37 214.47 118.99 209.15 122.64 205.65 C 125.81 202.70 129.60 200.56 133.09 198.05 C 146.34 188.64 159.49 179.09 172.84 169.82 C 177.21 166.84 181.25 163.37 185.84 160.71 M 201.88 192.87 C 186.14 198.05 170.62 203.83 154.85 208.90 C 151.20 209.73 151.00 214.06 149.96 216.98 C 144.96 234.93 139.95 252.89 134.80 270.81 C 133.52 274.38 135.54 277.84 136.91 281.04 C 141.44 291.29 145.55 301.72 150.08 311.97 C 152.04 316.16 153.10 320.82 155.99 324.52 C 158.89 321.28 160.37 317.14 162.33 313.33 C 168.35 301.34 174.30 289.33 180.36 277.36 C 183.11 271.93 183.56 265.76 184.92 259.91 C 187.14 250.04 189.01 240.08 191.11 230.18 C 192.36 223.71 197.00 218.76 200.14 213.16 C 204.93 205.02 210.82 197.50 214.86 188.94 C 210.40 189.76 206.16 191.42 201.88 192.87 Z" />
</g>
<g id="#760d0dff">
<path fill="#760d0d" opacity="1.00" d=" M 308.20 166.18 C 312.29 163.77 316.50 160.36 321.57 161.15 C 332.05 162.32 342.51 163.67 353.02 164.59 C 355.72 164.94 358.82 165.02 360.80 167.17 C 363.67 170.07 365.77 173.62 368.17 176.90 C 377.88 190.52 387.60 204.14 397.34 217.74 C 399.52 220.89 402.23 223.78 403.64 227.39 C 404.61 231.07 404.33 234.93 404.68 238.70 C 406.35 261.79 407.51 284.93 409.37 308.01 C 409.70 314.87 406.39 321.11 404.71 327.60 C 397.80 349.05 391.07 370.57 384.16 392.03 C 382.75 396.26 380.05 399.86 377.49 403.44 C 369.37 414.69 361.48 426.11 353.56 437.49 C 351.85 439.78 350.06 442.35 347.21 443.28 C 343.96 444.41 340.52 444.81 337.16 445.41 C 330.66 446.41 324.24 447.86 317.77 448.96 C 312.52 449.91 307.40 448.04 302.36 446.88 C 291.51 444.33 280.63 441.91 269.79 439.30 C 265.22 438.15 260.40 437.79 255.80 438.97 C 242.74 442.23 229.72 445.64 216.63 448.76 C 205.49 450.16 194.20 449.15 183.04 448.39 C 176.71 448.03 170.35 448.79 164.04 448.08 C 159.14 447.50 156.43 442.86 153.39 439.53 C 146.11 431.51 138.79 423.52 131.59 415.42 C 126.40 409.90 125.99 401.96 123.83 395.06 C 126.09 396.45 128.08 398.26 129.44 400.56 C 134.74 408.86 140.45 416.88 145.98 425.02 C 148.33 429.02 153.43 428.81 157.42 429.60 C 173.56 432.04 189.65 434.75 205.75 437.38 C 208.12 437.75 210.58 437.68 212.89 436.95 C 225.86 432.69 238.67 427.94 251.62 423.60 C 256.43 421.94 261.32 419.69 266.55 420.38 C 276.85 421.51 287.17 422.48 297.46 423.62 C 299.22 423.60 301.42 424.27 302.72 422.70 C 305.43 420.02 307.41 416.73 309.71 413.72 C 318.71 401.71 327.71 389.71 336.71 377.72 C 339.90 373.44 343.79 369.39 345.04 364.04 C 350.88 340.27 356.88 316.55 362.80 292.80 C 364.04 287.48 366.25 282.15 365.48 276.59 C 361.92 254.76 358.29 232.94 354.90 211.08 C 354.53 208.05 353.26 205.10 350.69 203.31 C 341.47 196.20 332.22 189.13 323.14 181.85 C 321.44 180.62 319.79 179.11 317.71 178.61 C 314.60 178.90 311.56 179.66 308.44 179.81 C 308.16 176.63 308.06 173.45 308.19 170.27 C 308.22 168.90 308.26 167.54 308.20 166.18 Z" />
</g>
<g id="#9d1515ff">
<path fill="#9d1515" opacity="1.00" d=" M 289.56 176.56 C 295.09 173.49 300.39 170.04 305.95 167.04 C 306.68 168.12 307.42 169.20 308.19 170.27 C 308.06 173.45 308.16 176.63 308.44 179.81 C 311.56 179.66 314.60 178.90 317.71 178.61 C 319.79 179.11 321.44 180.62 323.14 181.85 C 332.22 189.13 341.47 196.20 350.69 203.31 C 353.26 205.10 354.53 208.05 354.90 211.08 C 358.29 232.94 361.92 254.76 365.48 276.59 C 366.25 282.15 364.04 287.48 362.80 292.80 C 356.88 316.55 350.88 340.27 345.04 364.04 C 343.79 369.39 339.90 373.44 336.71 377.72 C 327.71 389.71 318.71 401.71 309.71 413.72 C 307.41 416.73 305.43 420.02 302.72 422.70 C 301.42 424.27 299.22 423.60 297.46 423.62 C 287.17 422.48 276.85 421.51 266.55 420.38 C 261.32 419.69 256.43 421.94 251.62 423.60 C 238.67 427.94 225.86 432.69 212.89 436.95 C 210.58 437.68 208.12 437.75 205.75 437.38 C 189.65 434.75 173.56 432.04 157.42 429.60 C 153.43 428.81 148.33 429.02 145.98 425.02 C 140.45 416.88 134.74 408.86 129.44 400.56 C 128.08 398.26 126.09 396.45 123.83 395.06 L 123.19 394.59 C 122.84 393.35 122.47 392.12 122.09 390.90 C 123.15 391.94 124.21 392.99 125.30 394.02 C 133.27 393.19 140.77 390.09 148.62 388.65 C 151.58 388.10 154.56 388.75 157.44 389.43 C 170.66 392.71 184.00 395.51 197.23 398.79 C 201.08 399.81 205.12 399.89 209.01 399.05 C 220.56 396.72 232.20 394.85 243.77 392.65 C 248.13 391.98 250.14 387.64 252.45 384.43 C 262.63 369.66 273.10 355.09 283.38 340.39 C 287.08 334.35 288.07 327.16 290.60 320.62 C 296.60 301.34 302.91 282.16 308.89 262.88 C 310.60 257.37 313.30 251.93 312.82 246.01 C 311.24 224.44 310.11 202.84 308.43 181.28 C 305.83 181.52 303.25 181.91 300.76 182.70 C 292.50 185.30 284.06 187.24 275.81 189.87 C 273.39 190.51 270.95 191.53 268.41 191.33 C 263.58 188.40 259.70 184.14 256.07 179.87 C 260.77 182.56 265.77 186.03 271.46 185.39 C 278.28 184.41 283.72 179.83 289.56 176.56 Z" />
</g>
<g id="#d53131ff">
<path fill="#d53131" opacity="1.00" d=" M 201.88 192.87 C 206.16 191.42 210.40 189.76 214.86 188.94 C 210.82 197.50 204.93 205.02 200.14 213.16 C 197.00 218.76 192.36 223.71 191.11 230.18 C 189.01 240.08 187.14 250.04 184.92 259.91 C 183.56 265.76 183.11 271.93 180.36 277.36 C 174.30 289.33 168.35 301.34 162.33 313.33 C 160.37 317.14 158.89 321.28 155.99 324.52 C 153.10 320.82 152.04 316.16 150.08 311.97 C 145.55 301.72 141.44 291.29 136.91 281.04 C 135.54 277.84 133.52 274.38 134.80 270.81 C 139.95 252.89 144.96 234.93 149.96 216.98 C 151.00 214.06 151.20 209.73 154.85 208.90 C 170.62 203.83 186.14 198.05 201.88 192.87 Z" />
</g>
</svg>
