<?xml version="1.0" encoding="UTF-8" ?>
<!DOCTYPE svg PUBLIC "-//W3C//DTD SVG 1.1//EN" "http://www.w3.org/Graphics/SVG/1.1/DTD/svg11.dtd">
<svg width="512pt" height="512pt" viewBox="0 0 512 512" version="1.1" xmlns="http://www.w3.org/2000/svg">
<g id="#1f3700ff">
<path fill="#1f3700" opacity="1.00" d=" M 118.19 14.16 C 119.27 11.89 121.66 9.41 124.41 10.56 C 141.53 15.52 158.74 20.20 175.88 25.11 C 188.75 29.23 202.23 30.74 215.41 33.57 C 227.49 35.73 239.56 38.01 251.61 40.37 C 255.15 42.83 257.27 46.71 260.19 49.80 C 266.60 57.71 273.40 65.29 279.82 73.19 C 282.30 75.79 284.41 78.73 286.06 81.93 C 285.30 84.12 284.46 86.31 282.80 87.99 C 281.53 87.97 280.27 87.95 279.00 87.93 C 280.00 85.99 280.77 83.94 281.72 81.99 C 275.98 74.24 269.27 67.27 263.26 59.73 C 259.16 55.13 255.54 50.12 251.26 45.69 C 247.71 42.60 242.61 42.81 238.25 41.77 C 220.63 38.43 202.93 35.40 185.38 31.71 C 164.26 26.07 143.30 19.83 122.21 14.10 C 131.53 32.18 141.23 50.08 150.89 67.99 C 152.57 71.19 154.38 74.41 157.14 76.82 C 170.82 88.81 184.43 100.88 198.04 112.95 C 201.16 115.53 203.78 119.35 208.04 120.02 C 213.01 120.86 218.06 120.81 223.07 121.25 C 234.83 122.35 246.64 122.91 258.38 124.19 C 258.12 125.40 257.88 126.62 257.66 127.85 C 253.39 128.52 249.28 126.74 245.01 127.00 C 240.29 127.29 235.71 125.71 230.98 126.00 C 227.29 126.21 223.72 124.97 220.04 125.02 C 214.80 125.16 209.63 124.16 204.44 123.62 C 199.55 120.59 195.99 115.98 191.43 112.55 C 180.44 102.89 169.57 93.11 158.57 83.45 C 155.58 81.15 152.68 78.65 150.41 75.61 C 148.49 72.44 147.18 68.94 145.19 65.80 C 142.01 60.81 139.98 55.19 136.81 50.19 C 133.84 45.36 131.86 39.99 128.82 35.20 C 125.83 30.37 123.89 24.98 120.79 20.22 C 119.53 18.38 118.88 16.25 118.19 14.16 Z" />
</g>
<g id="#548416ff">
<path fill="#548416" opacity="1.00" d=" M 122.21 14.10 C 143.30 19.83 164.26 26.07 185.38 31.71 C 202.93 35.40 220.63 38.43 238.25 41.77 C 242.61 42.81 247.71 42.60 251.26 45.69 C 255.54 50.12 259.16 55.13 263.26 59.73 C 269.27 67.27 275.98 74.24 281.72 81.99 C 280.77 83.94 280.00 85.99 279.00 87.93 C 275.49 87.96 271.90 87.64 268.45 88.50 C 266.58 89.01 266.37 91.32 265.78 92.86 C 263.24 103.29 261.28 113.85 258.38 124.19 C 246.64 122.91 234.83 122.35 223.07 121.25 C 224.24 118.95 225.66 116.67 226.06 114.08 C 225.31 111.74 223.62 109.87 222.09 108.00 C 221.74 107.59 221.04 106.79 220.69 106.38 C 229.46 107.02 238.23 108.40 247.03 108.18 C 250.99 108.28 252.50 104.02 254.29 101.24 C 257.05 95.77 260.72 90.78 263.11 85.13 C 264.09 83.16 262.22 81.37 261.21 79.86 C 256.70 74.37 251.80 69.21 247.46 63.58 C 245.20 60.83 242.97 57.53 239.27 56.70 C 213.97 51.35 188.08 48.42 163.37 40.56 C 159.66 39.35 155.87 38.39 152.00 37.93 C 153.47 43.56 157.04 48.22 159.58 53.36 C 161.37 56.86 162.89 60.55 165.38 63.64 C 167.75 66.57 170.47 69.19 173.03 71.96 C 165.66 70.55 158.31 69.04 150.89 67.99 C 141.23 50.08 131.53 32.18 122.21 14.10 Z" />
</g>
<g id="#5e9418ff">
<path fill="#5e9418" opacity="1.00" d=" M 152.00 37.93 C 155.87 38.39 159.66 39.35 163.37 40.56 C 188.08 48.42 213.97 51.35 239.27 56.70 C 242.97 57.53 245.20 60.83 247.46 63.58 C 251.80 69.21 256.70 74.37 261.21 79.86 C 262.22 81.37 264.09 83.16 263.11 85.13 C 260.72 90.78 257.05 95.77 254.29 101.24 C 252.50 104.02 250.99 108.28 247.03 108.18 C 238.23 108.40 229.46 107.02 220.69 106.38 C 214.24 99.11 208.19 91.51 201.88 84.13 C 198.95 80.75 196.33 76.38 191.61 75.42 C 185.49 73.90 179.22 73.09 173.03 71.96 C 170.47 69.19 167.75 66.57 165.38 63.64 C 162.89 60.55 161.37 56.86 159.58 53.36 C 157.04 48.22 153.47 43.56 152.00 37.93 Z" />
</g>
<g id="#466e12ff">
<path fill="#466e12" opacity="1.00" d=" M 150.89 67.99 C 158.31 69.04 165.66 70.55 173.03 71.96 C 184.21 82.47 196.02 92.31 207.34 102.68 C 211.20 106.67 216.90 107.23 222.09 108.00 C 223.62 109.87 225.31 111.74 226.06 114.08 C 225.66 116.67 224.24 118.95 223.07 121.25 C 218.06 120.81 213.01 120.86 208.04 120.02 C 203.78 119.35 201.16 115.53 198.04 112.95 C 184.43 100.88 170.82 88.81 157.14 76.82 C 154.38 74.41 152.57 71.19 150.89 67.99 Z" />
</g>
<g id="#4e7b14ff">
<path fill="#4e7b14" opacity="1.00" d=" M 173.03 71.96 C 179.22 73.09 185.49 73.90 191.61 75.42 C 196.33 76.38 198.95 80.75 201.88 84.13 C 208.19 91.51 214.24 99.11 220.69 106.38 C 221.04 106.79 221.74 107.59 222.09 108.00 C 216.90 107.23 211.20 106.67 207.34 102.68 C 196.02 92.31 184.21 82.47 173.03 71.96 Z" />
</g>
<g id="#2a1204ff">
<path fill="#2a1204" opacity="1.00" d=" M 268.45 88.50 C 271.90 87.64 275.49 87.96 279.00 87.93 C 280.27 87.95 281.53 87.97 282.80 87.99 C 289.52 88.08 296.24 87.88 302.96 88.03 C 305.60 87.89 308.26 90.17 307.91 92.87 C 306.28 97.29 303.66 101.25 301.36 105.34 C 298.36 111.07 295.64 116.93 292.64 122.66 C 289.53 128.00 286.40 133.40 284.17 139.18 C 282.40 146.16 282.43 153.44 281.19 160.52 C 277.60 162.81 274.28 165.91 269.99 166.77 C 266.20 165.98 263.29 163.19 260.07 161.23 C 259.69 153.01 257.40 145.02 256.10 136.92 C 256.22 133.85 257.20 130.88 257.66 127.85 C 257.88 126.62 258.12 125.40 258.38 124.19 C 261.28 113.85 263.24 103.29 265.78 92.86 C 266.37 91.32 266.58 89.01 268.45 88.50 M 270.17 92.23 C 266.71 105.37 264.20 118.74 260.90 131.92 C 259.45 137.35 261.32 142.84 262.64 148.08 C 263.28 143.05 263.72 137.81 266.32 133.33 C 269.71 127.29 272.94 121.18 276.01 114.98 C 279.78 107.29 284.31 99.99 287.79 92.16 C 281.92 92.00 276.04 91.88 270.17 92.23 Z" />
</g>
<g id="#542409ff">
<path fill="#542409" opacity="1.00" d=" M 270.17 92.23 C 276.04 91.88 281.92 92.00 287.79 92.16 C 284.31 99.99 279.78 107.29 276.01 114.98 C 272.94 121.18 269.71 127.29 266.32 133.33 C 263.72 137.81 263.28 143.05 262.64 148.08 C 261.32 142.84 259.45 137.35 260.90 131.92 C 264.20 118.74 266.71 105.37 270.17 92.23 Z" />
</g>
<g id="#462c00ff">
<path fill="#462c00" opacity="1.00" d=" M 172.98 146.97 C 176.54 144.41 179.96 141.46 184.18 140.03 C 197.44 141.68 210.76 143.14 224.02 144.88 C 228.99 145.45 234.49 145.19 238.71 148.29 C 245.87 152.52 252.88 157.03 260.07 161.23 C 263.29 163.19 266.20 165.98 269.99 166.77 C 274.28 165.91 277.60 162.81 281.19 160.52 C 292.03 155.18 301.77 147.86 312.68 142.64 C 314.72 141.41 317.08 142.41 319.23 142.67 C 336.05 144.50 352.86 146.33 369.67 148.29 C 372.02 150.00 373.37 152.66 375.04 154.98 C 388.96 174.40 402.80 193.87 416.72 213.28 C 418.49 215.85 420.61 218.28 421.85 221.17 C 422.13 223.97 421.88 226.82 422.44 229.59 C 423.62 234.80 422.37 240.20 423.57 245.41 C 424.52 250.09 423.48 254.91 424.43 259.60 C 425.70 265.13 424.30 270.87 425.57 276.41 C 426.52 281.08 425.48 285.91 426.43 290.59 C 427.66 296.07 426.30 301.77 427.72 307.22 C 429.42 314.39 425.47 320.94 423.66 327.63 C 421.68 335.36 418.71 342.78 416.44 350.41 C 414.51 357.87 411.61 365.03 409.44 372.41 C 407.07 381.44 403.39 390.07 401.14 399.14 C 399.55 405.69 394.43 410.42 391.00 416.00 C 382.54 428.18 373.88 440.23 365.40 452.40 C 363.62 454.91 362.27 457.90 359.63 459.65 C 345.03 462.51 330.33 464.85 315.75 467.80 C 313.77 468.20 311.83 467.46 309.91 467.13 C 293.95 463.41 277.98 459.66 261.99 456.09 C 248.10 459.34 234.27 462.99 220.41 466.42 C 212.52 468.89 204.05 468.32 196.00 467.08 C 186.01 466.53 175.89 467.92 166.00 466.07 C 161.47 465.69 156.89 466.43 152.39 465.75 C 146.50 460.90 142.40 454.36 136.80 449.21 C 132.95 443.78 127.53 439.73 123.66 434.32 C 119.69 429.98 115.10 425.97 112.23 420.81 C 100.12 379.22 87.95 337.63 76.04 296.00 C 85.42 262.79 95.04 229.62 104.42 196.40 C 105.72 194.06 108.31 192.90 110.38 191.36 C 131.31 176.66 152.07 161.70 172.98 146.97 M 182.22 145.28 C 158.26 162.28 134.33 179.33 110.36 196.31 C 108.63 197.38 107.55 199.13 107.09 201.09 C 99.09 229.37 90.96 257.62 82.90 285.89 C 82.02 289.25 80.67 292.53 80.25 296.00 C 80.55 298.95 81.71 301.73 82.48 304.58 C 86.97 320.06 91.51 335.53 95.94 351.02 C 96.49 352.70 96.91 354.49 98.00 355.93 C 98.36 360.66 100.11 365.10 101.39 369.63 C 104.33 379.17 106.65 388.91 109.93 398.34 C 111.05 403.57 112.78 408.64 114.17 413.81 C 115.00 416.72 115.74 419.82 117.86 422.11 C 129.15 434.51 140.42 446.93 151.60 459.43 C 152.64 460.35 153.57 461.73 155.07 461.87 C 160.35 462.45 165.68 462.45 170.98 462.63 C 184.67 462.82 198.35 463.76 212.04 463.89 C 216.01 463.85 219.79 462.53 223.60 461.61 C 235.33 458.65 247.07 455.75 258.79 452.77 C 261.22 452.06 263.76 452.27 266.19 452.89 C 279.42 456.08 292.73 459.00 305.98 462.16 C 309.70 463.02 313.54 464.28 317.40 463.43 C 330.07 461.04 342.77 458.81 355.45 456.48 C 358.10 456.25 359.53 453.84 360.95 451.90 C 372.01 436.01 383.19 420.20 394.36 404.39 C 396.54 401.14 397.48 397.31 398.67 393.64 C 406.88 367.89 415.00 342.11 423.29 316.38 C 424.28 312.93 423.69 309.31 423.47 305.80 C 421.83 279.85 420.06 253.90 418.42 227.95 C 418.17 225.34 418.32 222.46 416.72 220.22 C 401.33 198.65 385.85 177.13 370.55 155.50 C 369.31 153.98 368.18 151.86 365.96 151.83 C 351.66 150.12 337.31 148.70 323.01 147.00 C 320.10 146.71 317.19 146.11 314.27 146.35 C 310.22 147.70 306.75 150.32 303.15 152.54 C 291.97 158.73 281.24 165.72 270.02 171.83 C 258.44 165.27 247.31 157.93 235.85 151.17 C 232.82 149.37 229.19 149.42 225.78 149.16 C 213.75 147.31 201.59 146.31 189.53 144.61 C 187.09 144.44 184.30 143.50 182.22 145.28 Z" />
</g>
<g id="#e1b61fff">
<path fill="#e1b61f" opacity="1.00" d=" M 182.22 145.28 C 184.30 143.50 187.09 144.44 189.53 144.61 C 201.59 146.31 213.75 147.31 225.78 149.16 C 234.68 158.97 245.00 167.45 253.18 177.90 C 244.32 174.63 237.23 168.00 228.53 164.47 C 219.57 162.17 210.20 162.21 201.09 160.69 C 195.42 160.12 188.94 158.18 183.91 161.87 C 164.13 176.12 144.11 190.05 124.35 204.32 C 121.46 206.34 119.60 209.45 118.72 212.83 C 112.32 235.69 105.71 258.49 99.21 281.33 C 97.77 286.77 95.27 292.19 95.87 297.94 C 96.62 303.35 98.74 308.43 100.19 313.67 C 106.51 335.66 112.91 357.63 119.31 379.60 C 120.23 382.83 120.85 386.13 121.55 389.42 C 119.17 385.54 116.35 381.97 113.85 378.18 C 108.67 370.69 104.02 362.80 98.00 355.93 C 96.91 354.49 96.49 352.70 95.94 351.02 C 91.51 335.53 86.97 320.06 82.48 304.58 C 81.71 301.73 80.55 298.95 80.25 296.00 C 80.67 292.53 82.02 289.25 82.90 285.89 C 90.96 257.62 99.09 229.37 107.09 201.09 C 107.55 199.13 108.63 197.38 110.36 196.31 C 134.33 179.33 158.26 162.28 182.22 145.28 Z" />
</g>
<g id="#c4700bff">
<path fill="#c4700b" opacity="1.00" d=" M 303.15 152.54 C 306.75 150.32 310.22 147.70 314.27 146.35 C 317.19 146.11 320.10 146.71 323.01 147.00 C 337.31 148.70 351.66 150.12 365.96 151.83 C 368.18 151.86 369.31 153.98 370.55 155.50 C 385.85 177.13 401.33 198.65 416.72 220.22 C 418.32 222.46 418.17 225.34 418.42 227.95 C 420.06 253.90 421.83 279.85 423.47 305.80 C 423.69 309.31 424.28 312.93 423.29 316.38 C 415.00 342.11 406.88 367.89 398.67 393.64 C 397.48 397.31 396.54 401.14 394.36 404.39 C 383.19 420.20 372.01 436.01 360.95 451.90 C 359.53 453.84 358.10 456.25 355.45 456.48 C 342.77 458.81 330.07 461.04 317.40 463.43 C 313.54 464.28 309.70 463.02 305.98 462.16 C 292.73 459.00 279.42 456.08 266.19 452.89 C 263.76 452.27 261.22 452.06 258.79 452.77 C 247.07 455.75 235.33 458.65 223.60 461.61 C 219.79 462.53 216.01 463.85 212.04 463.89 C 198.35 463.76 184.67 462.82 170.98 462.63 C 165.68 462.45 160.35 462.45 155.07 461.87 C 153.57 461.73 152.64 460.35 151.60 459.43 C 140.42 446.93 129.15 434.51 117.86 422.11 C 115.74 419.82 115.00 416.72 114.17 413.81 C 112.78 408.64 111.05 403.57 109.93 398.34 C 113.68 397.38 117.43 396.41 121.09 395.15 C 124.48 398.90 125.07 404.00 126.48 408.64 C 128.24 414.78 133.36 418.96 137.38 423.62 C 143.48 430.52 149.87 437.16 155.82 444.19 C 157.57 446.06 159.49 448.22 162.21 448.48 C 167.65 449.03 173.16 448.68 178.61 449.27 C 187.70 450.16 196.86 449.20 205.96 450.13 C 209.84 450.52 213.80 450.57 217.59 449.52 C 230.10 446.21 242.68 443.21 255.21 440.00 C 259.13 438.95 263.28 438.53 267.26 439.58 C 278.28 442.32 289.39 444.72 300.44 447.36 C 306.40 448.84 312.54 450.48 318.74 449.53 C 327.82 448.06 336.84 446.22 345.93 444.71 C 348.40 444.41 350.49 442.92 351.84 440.86 C 358.89 430.89 365.88 420.88 372.88 410.87 C 376.96 405.02 382.52 400.01 384.87 393.10 C 391.95 370.84 398.96 348.55 406.14 326.32 C 407.56 321.62 409.42 316.98 409.76 312.03 C 410.14 306.22 409.65 300.40 409.24 294.61 C 407.74 273.38 406.47 252.13 405.08 230.90 C 405.09 224.50 399.79 220.38 396.44 215.56 C 386.78 201.91 376.97 188.35 367.32 174.69 C 365.07 171.65 363.24 168.13 360.13 165.88 C 357.02 164.30 353.41 164.30 350.02 163.86 C 340.66 163.07 331.36 161.67 322.01 160.84 C 316.85 160.17 312.30 163.00 307.81 165.04 C 307.43 160.52 306.24 156.00 303.15 152.54 Z" />
</g>
<g id="#d59913ff">
<path fill="#d59913" opacity="1.00" d=" M 225.78 149.16 C 229.19 149.42 232.82 149.37 235.85 151.17 C 247.31 157.93 258.44 165.27 270.02 171.83 C 281.24 165.72 291.97 158.73 303.15 152.54 C 306.24 156.00 307.43 160.52 307.81 165.04 C 307.97 166.77 308.10 168.50 308.14 170.24 C 307.35 169.20 306.62 168.14 305.92 167.06 C 296.36 171.88 287.66 178.22 278.17 183.17 C 274.04 185.31 269.03 185.92 264.62 184.32 C 261.60 183.21 258.84 181.54 256.12 179.87 C 255.14 179.20 254.16 178.55 253.18 177.90 C 245.00 167.45 234.68 158.97 225.78 149.16 Z" />
<path fill="#d59913" opacity="1.00" d=" M 98.00 355.93 C 104.02 362.80 108.67 370.69 113.85 378.18 C 116.35 381.97 119.17 385.54 121.55 389.42 C 121.70 389.80 121.98 390.55 122.13 390.93 C 122.55 392.06 122.97 393.20 123.40 394.35 C 122.82 394.55 121.66 394.95 121.09 395.15 C 117.43 396.41 113.68 397.38 109.93 398.34 C 106.65 388.91 104.33 379.17 101.39 369.63 C 100.11 365.10 98.36 360.66 98.00 355.93 Z" />
</g>
<g id="#e8c72dff">
<path fill="#e8c72d" opacity="1.00" d=" M 183.91 161.87 C 188.94 158.18 195.42 160.12 201.09 160.69 C 210.20 162.21 219.57 162.17 228.53 164.47 C 237.23 168.00 244.32 174.63 253.18 177.90 C 254.16 178.55 255.14 179.20 256.12 179.87 C 259.54 183.74 262.62 188.10 267.07 190.89 C 268.25 191.79 269.77 191.37 271.10 191.14 C 283.46 188.08 295.50 183.70 307.99 181.17 C 308.98 185.67 309.21 190.28 309.39 194.87 C 310.30 209.27 311.30 223.66 312.21 238.06 C 312.50 243.07 313.44 248.21 312.09 253.15 C 303.38 279.85 295.03 306.67 286.46 333.41 C 284.36 340.55 279.11 346.00 275.06 352.04 C 266.62 364.25 257.94 376.29 249.52 388.50 C 247.85 391.12 244.98 392.55 241.97 392.99 C 230.95 394.95 219.90 396.83 208.93 399.02 C 205.11 399.84 201.15 399.75 197.37 398.77 C 183.87 395.43 170.26 392.56 156.76 389.21 C 146.01 386.29 136.02 393.72 125.40 393.72 C 124.15 392.99 123.12 391.96 122.13 390.93 C 121.98 390.55 121.70 389.80 121.55 389.42 C 120.85 386.13 120.23 382.83 119.31 379.60 C 112.91 357.63 106.51 335.66 100.19 313.67 C 98.74 308.43 96.62 303.35 95.87 297.94 C 95.27 292.19 97.77 286.77 99.21 281.33 C 105.71 258.49 112.32 235.69 118.72 212.83 C 119.60 209.45 121.46 206.34 124.35 204.32 C 144.11 190.05 164.13 176.12 183.91 161.87 M 198.13 194.14 C 184.89 198.43 171.89 203.45 158.60 207.60 C 155.59 208.57 151.69 209.34 151.13 213.09 C 145.56 232.29 140.37 251.61 134.79 270.81 C 133.40 274.92 136.08 278.74 137.51 282.44 C 142.45 294.45 147.82 306.28 152.59 318.36 C 153.43 320.56 154.63 322.59 155.99 324.50 C 159.00 321.04 160.61 316.70 162.66 312.67 C 168.57 300.90 174.42 289.11 180.36 277.36 C 182.87 272.45 183.45 266.90 184.63 261.60 C 186.98 250.88 189.01 240.10 191.35 229.39 C 191.93 226.63 193.16 224.07 194.70 221.73 C 198.79 215.46 202.65 209.04 206.74 202.76 C 209.54 198.21 212.77 193.89 214.86 188.94 C 209.10 190.04 203.69 192.35 198.13 194.14 Z" />
</g>
<g id="#d29210ff">
<path fill="#d29210" opacity="1.00" d=" M 307.81 165.04 C 312.30 163.00 316.85 160.17 322.01 160.84 C 331.36 161.67 340.66 163.07 350.02 163.86 C 353.41 164.30 357.02 164.30 360.13 165.88 C 363.24 168.13 365.07 171.65 367.32 174.69 C 376.97 188.35 386.78 201.91 396.44 215.56 C 399.79 220.38 405.09 224.50 405.08 230.90 C 406.47 252.13 407.74 273.38 409.24 294.61 C 409.65 300.40 410.14 306.22 409.76 312.03 C 409.42 316.98 407.56 321.62 406.14 326.32 C 398.96 348.55 391.95 370.84 384.87 393.10 C 382.52 400.01 376.96 405.02 372.88 410.87 C 365.88 420.88 358.89 430.89 351.84 440.86 C 350.49 442.92 348.40 444.41 345.93 444.71 C 336.84 446.22 327.82 448.06 318.74 449.53 C 312.54 450.48 306.40 448.84 300.44 447.36 C 289.39 444.72 278.28 442.32 267.26 439.58 C 263.28 438.53 259.13 438.95 255.21 440.00 C 242.68 443.21 230.10 446.21 217.59 449.52 C 213.80 450.57 209.84 450.52 205.96 450.13 C 196.86 449.20 187.70 450.16 178.61 449.27 C 173.16 448.68 167.65 449.03 162.21 448.48 C 159.49 448.22 157.57 446.06 155.82 444.19 C 149.87 437.16 143.48 430.52 137.38 423.62 C 133.36 418.96 128.24 414.78 126.48 408.64 C 125.07 404.00 124.48 398.90 121.09 395.15 C 121.66 394.95 122.82 394.55 123.40 394.35 C 126.11 396.39 128.51 398.84 130.25 401.76 C 134.68 408.91 139.83 415.56 144.31 422.66 C 145.99 425.27 148.01 428.17 151.38 428.55 C 169.20 431.47 187.07 434.18 204.87 437.25 C 207.79 437.78 210.83 437.68 213.65 436.72 C 225.61 432.75 237.40 428.29 249.38 424.38 C 254.96 422.56 260.48 419.53 266.55 420.36 C 276.28 421.47 286.04 422.32 295.77 423.48 C 298.51 423.69 301.95 424.46 303.70 421.67 C 315.07 406.71 326.21 391.55 337.59 376.58 C 340.57 372.74 343.85 368.88 345.03 364.04 C 350.89 340.28 356.88 316.55 362.81 292.80 C 364.07 287.49 366.23 282.15 365.47 276.59 C 361.95 254.76 358.26 232.94 354.91 211.08 C 354.53 208.05 353.17 205.16 350.63 203.36 C 341.43 196.23 332.16 189.18 323.08 181.90 C 321.39 180.69 319.76 179.20 317.71 178.71 C 314.59 178.88 311.53 179.56 308.42 179.81 C 308.25 176.62 308.15 173.43 308.14 170.24 C 308.10 168.50 307.97 166.77 307.81 165.04 Z" />
</g>
<g id="#dfb11bff">
<path fill="#dfb11b" opacity="1.00" d=" M 278.17 183.17 C 287.66 178.22 296.36 171.88 305.92 167.06 C 306.62 168.14 307.35 169.20 308.14 170.24 C 308.15 173.43 308.25 176.62 308.42 179.81 C 311.53 179.56 314.59 178.88 317.71 178.71 C 319.76 179.20 321.39 180.69 323.08 181.90 C 332.16 189.18 341.43 196.23 350.63 203.36 C 353.17 205.16 354.53 208.05 354.91 211.08 C 358.26 232.94 361.95 254.76 365.47 276.59 C 366.23 282.15 364.07 287.49 362.81 292.80 C 356.88 316.55 350.89 340.28 345.03 364.04 C 343.85 368.88 340.57 372.74 337.59 376.58 C 326.21 391.55 315.07 406.71 303.70 421.67 C 301.95 424.46 298.51 423.69 295.77 423.48 C 286.04 422.32 276.28 421.47 266.55 420.36 C 260.48 419.53 254.96 422.56 249.38 424.38 C 237.40 428.29 225.61 432.75 213.65 436.72 C 210.83 437.68 207.79 437.78 204.87 437.25 C 187.07 434.18 169.20 431.47 151.38 428.55 C 148.01 428.17 145.99 425.27 144.31 422.66 C 139.83 415.56 134.68 408.91 130.25 401.76 C 128.51 398.84 126.11 396.39 123.40 394.35 C 122.97 393.20 122.55 392.06 122.13 390.93 C 123.12 391.96 124.15 392.99 125.40 393.72 C 136.02 393.72 146.01 386.29 156.76 389.21 C 170.26 392.56 183.87 395.43 197.37 398.77 C 201.15 399.75 205.11 399.84 208.93 399.02 C 219.90 396.83 230.95 394.95 241.97 392.99 C 244.98 392.55 247.85 391.12 249.52 388.50 C 257.94 376.29 266.62 364.25 275.06 352.04 C 279.11 346.00 284.36 340.55 286.46 333.41 C 295.03 306.67 303.38 279.85 312.09 253.15 C 313.44 248.21 312.50 243.07 312.21 238.06 C 311.30 223.66 310.30 209.27 309.39 194.87 C 309.21 190.28 308.98 185.67 307.99 181.17 C 295.50 183.70 283.46 188.08 271.10 191.14 C 269.77 191.37 268.25 191.79 267.07 190.89 C 262.62 188.10 259.54 183.74 256.12 179.87 C 258.84 181.54 261.60 183.21 264.62 184.32 C 269.03 185.92 274.04 185.31 278.17 183.17 Z" />
</g>
<g id="#f1dd3fff">
<path fill="#f1dd3f" opacity="1.00" d=" M 198.13 194.14 C 203.69 192.35 209.10 190.04 214.86 188.94 C 212.77 193.89 209.54 198.21 206.74 202.76 C 202.65 209.04 198.79 215.46 194.70 221.73 C 193.16 224.07 191.93 226.63 191.35 229.39 C 189.01 240.10 186.98 250.88 184.63 261.60 C 183.45 266.90 182.87 272.45 180.36 277.36 C 174.42 289.11 168.57 300.90 162.66 312.67 C 160.61 316.70 159.00 321.04 155.99 324.50 C 154.63 322.59 153.43 320.56 152.59 318.36 C 147.82 306.28 142.45 294.45 137.51 282.44 C 136.08 278.74 133.40 274.92 134.79 270.81 C 140.37 251.61 145.56 232.29 151.13 213.09 C 151.69 209.34 155.59 208.57 158.60 207.60 C 171.89 203.45 184.89 198.43 198.13 194.14 Z" />
</g>
</svg>
