<?xml version="1.0" encoding="UTF-8" standalone="no"?>
<svg
   xmlns:dc="http://purl.org/dc/elements/1.1/"
   xmlns:cc="http://creativecommons.org/ns#"
   xmlns:rdf="http://www.w3.org/1999/02/22-rdf-syntax-ns#"
   xmlns:svg="http://www.w3.org/2000/svg"
   xmlns="http://www.w3.org/2000/svg"
   xmlns:sodipodi="http://sodipodi.sourceforge.net/DTD/sodipodi-0.dtd"
   xmlns:inkscape="http://www.inkscape.org/namespaces/inkscape"
   width="512pt"
   height="512pt"
   viewBox="0 0 512 512"
   version="1.1"
   id="svg2"
   inkscape:version="0.48.2 r9819"
   sodipodi:docname="dirt.svg">
  <metadata
     id="metadata118">
    <rdf:RDF>
      <cc:Work
         rdf:about="">
        <dc:format>image/svg+xml</dc:format>
        <dc:type
           rdf:resource="http://purl.org/dc/dcmitype/StillImage" />
        <dc:title></dc:title>
      </cc:Work>
    </rdf:RDF>
  </metadata>
  <defs
     id="defs116" />
  <sodipodi:namedview
     pagecolor="#ffffff"
     bordercolor="#666666"
     borderopacity="1"
     objecttolerance="10"
     gridtolerance="10"
     guidetolerance="10"
     inkscape:pageopacity="0"
     inkscape:pageshadow="2"
     inkscape:window-width="1920"
     inkscape:window-height="1152"
     id="namedview114"
     showgrid="false"
     inkscape:zoom="0.53961056"
     inkscape:cx="768.12969"
     inkscape:cy="420.67375"
     inkscape:window-x="0"
     inkscape:window-y="0"
     inkscape:window-maximized="1"
     inkscape:current-layer="svg2" />
  <rect
     style="fill:#6a4930;fill-opacity:1;fill-rule:evenodd;stroke:none"
     id="rect3095"
     width="512"
     height="512"
     x="-0.98484671"
     y="0.89561844"
     inkscape:export-xdpi="9"
     inkscape:export-ydpi="9" />
  <g
     id="#493322ff">
    <path
       fill="#493322"
       opacity="1.00"
       d=" M 0.00 0.00 L 13.39 0.00 C 9.03 15.56 5.01 31.24 0.00 46.61 L 0.00 0.00 Z"
       id="path5" />
    <path
       fill="#493322"
       opacity="1.00"
       d=" M 459.98 0.00 L 512.00 0.00 L 512.00 49.41 C 510.75 53.50 509.65 58.31 505.65 60.61 C 481.46 75.41 457.20 90.10 433.17 105.15 C 426.38 109.27 420.29 115.26 418.10 123.10 C 411.34 147.02 404.31 170.85 397.77 194.83 C 394.98 203.84 392.87 213.05 389.77 221.96 C 381.09 214.10 373.20 205.43 364.75 197.34 C 362.78 195.30 360.51 193.36 359.43 190.68 C 359.19 188.25 360.02 185.88 360.61 183.55 C 365.55 166.65 369.76 149.56 374.52 132.61 C 376.10 126.70 377.82 120.81 379.02 114.80 C 371.76 117.94 365.54 122.92 358.62 126.67 C 354.76 128.94 349.97 131.06 348.86 135.89 C 342.37 158.01 336.65 180.37 329.84 202.40 C 328.66 201.12 327.51 199.80 326.36 198.50 C 334.43 169.39 342.05 140.15 350.04 111.01 C 352.66 101.97 354.56 92.73 357.73 83.85 C 367.49 84.36 377.24 85.40 387.04 84.96 C 385.48 94.55 381.55 103.56 380.26 113.19 C 397.88 103.00 414.95 91.89 432.48 81.53 C 434.88 80.05 437.63 78.51 438.58 75.65 C 440.58 70.30 441.64 64.65 443.27 59.19 C 448.89 39.47 454.25 19.68 459.98 0.00 Z"
       id="path7" />
    <path
       fill="#493322"
       opacity="1.00"
       d=" M 379.47 336.22 C 389.90 335.92 400.29 337.51 410.73 336.90 C 416.64 336.59 422.57 336.83 428.42 337.78 C 421.68 338.35 414.79 337.37 408.19 339.17 C 412.72 341.27 417.81 341.19 422.60 342.31 C 448.93 348.96 475.41 355.01 501.62 362.13 C 501.13 364.64 500.66 367.16 500.19 369.68 C 504.12 370.07 508.06 370.44 512.00 370.75 L 512.00 512.00 L 459.81 512.00 C 471.36 471.68 482.50 431.23 493.92 390.87 C 495.82 384.05 498.14 377.31 499.09 370.26 C 485.73 369.60 472.37 369.13 459.00 368.91 C 446.31 367.88 433.56 368.33 420.86 367.43 C 415.09 367.02 409.30 366.92 403.53 367.42 C 403.45 369.19 403.37 370.97 403.33 372.76 C 402.96 388.51 404.79 404.24 404.90 420.00 C 405.21 427.02 406.28 434.04 405.51 441.09 C 403.57 418.40 401.86 395.69 399.95 373.00 C 398.88 361.59 406.04 351.89 408.83 341.26 C 398.62 339.15 388.14 340.36 377.80 339.92 C 378.40 338.70 378.96 337.47 379.47 336.22 Z"
       id="path9" />
    <path
       fill="#493322"
       opacity="1.00"
       d=" M 329.87 344.11 C 338.44 343.73 347.01 344.04 355.58 344.29 C 362.55 345.55 369.63 345.06 376.66 345.30 C 377.24 352.52 377.63 359.76 378.23 366.98 C 367.84 367.11 357.46 366.87 347.07 366.93 C 341.84 367.03 336.56 365.95 331.39 367.20 C 331.17 366.98 330.72 366.54 330.50 366.32 C 331.28 358.90 329.53 351.53 329.87 344.11 Z"
       id="path11" />
    <path
       fill="#493322"
       opacity="1.00"
       d=" M 0.00 370.63 C 10.66 373.60 21.48 375.97 32.17 378.80 C 37.69 380.39 43.70 380.52 48.83 383.27 C 48.86 388.51 46.60 393.38 45.30 398.37 C 34.90 436.30 23.92 474.06 13.58 512.00 L 0.00 512.00 L 0.00 370.63 Z"
       id="path13" />
  </g>
  <g
     id="#3e2b1dff">
    <path
       fill="#3e2b1d"
       opacity="1.00"
       d=" M 13.39 0.00 L 39.81 0.00 C 33.70 23.50 26.58 46.74 20.05 70.13 C 18.96 72.94 20.98 75.47 22.33 77.75 C 19.15 79.75 15.97 81.73 12.77 83.69 C 8.53 86.35 4.13 88.76 0.00 91.60 L 0.00 46.61 C 5.01 31.24 9.03 15.56 13.39 0.00 Z"
       id="path16" />
    <path
       fill="#3e2b1d"
       opacity="1.00"
       d=" M 505.65 60.61 C 509.65 58.31 510.75 53.50 512.00 49.41 L 512.00 91.45 C 493.37 103.04 474.60 114.40 455.92 125.92 C 452.71 128.02 449.03 129.54 446.32 132.32 C 444.51 135.58 443.98 139.36 442.90 142.89 C 430.54 186.53 418.13 230.15 405.77 273.80 C 405.12 275.56 404.38 277.30 403.67 279.05 C 399.04 271.61 392.14 266.09 386.25 259.72 C 374.21 247.68 362.76 235.05 350.51 223.21 C 343.37 216.53 336.62 209.44 329.84 202.40 C 336.65 180.37 342.37 158.01 348.86 135.89 C 349.97 131.06 354.76 128.94 358.62 126.67 C 365.54 122.92 371.76 117.94 379.02 114.80 C 377.82 120.81 376.10 126.70 374.52 132.61 C 369.76 149.56 365.55 166.65 360.61 183.55 C 360.02 185.88 359.19 188.25 359.43 190.68 C 360.51 193.36 362.78 195.30 364.75 197.34 C 373.20 205.43 381.09 214.10 389.77 221.96 C 392.87 213.05 394.98 203.84 397.77 194.83 C 404.31 170.85 411.34 147.02 418.10 123.10 C 420.29 115.26 426.38 109.27 433.17 105.15 C 457.20 90.10 481.46 75.41 505.65 60.61 Z"
       id="path18" />
    <path
       fill="#3e2b1d"
       opacity="1.00"
       d=" M 408.19 339.17 C 414.79 337.37 421.68 338.35 428.42 337.78 C 456.27 339.03 484.15 339.60 512.00 340.76 L 512.00 370.75 C 508.06 370.44 504.12 370.07 500.19 369.68 C 500.66 367.16 501.13 364.64 501.62 362.13 C 475.41 355.01 448.93 348.96 422.60 342.31 C 417.81 341.19 412.72 341.27 408.19 339.17 Z"
       id="path20" />
    <path
       fill="#3e2b1d"
       opacity="1.00"
       d=" M 0.00 340.70 C 26.02 347.06 52.01 353.60 78.04 359.96 C 80.67 360.64 83.27 361.42 85.88 362.22 C 85.06 365.01 84.20 367.80 83.31 370.58 C 82.29 369.78 81.28 368.98 80.26 368.19 C 77.99 374.20 76.37 380.43 74.57 386.60 C 62.31 428.39 50.34 470.27 37.88 512.00 L 13.58 512.00 C 23.92 474.06 34.90 436.30 45.30 398.37 C 46.60 393.38 48.86 388.51 48.83 383.27 C 43.70 380.52 37.69 380.39 32.17 378.80 C 21.48 375.97 10.66 373.60 0.00 370.63 L 0.00 340.70 Z"
       id="path22" />
  </g>
  <g
     id="#674831ff">
    <path
       fill="#674831"
       opacity="1.00"
       d=" M 39.81 0.00 L 40.36 0.00 C 42.10 1.50 43.73 3.12 45.41 4.69 C 56.50 14.85 67.96 24.59 79.01 34.80 C 79.94 49.65 82.55 64.32 84.10 79.11 C 77.20 72.60 69.92 66.52 62.97 60.06 C 60.58 57.85 57.97 55.90 55.31 54.02 C 53.90 58.27 52.12 62.51 51.97 67.04 C 52.07 69.65 53.65 71.89 54.89 74.09 C 66.24 92.22 77.05 110.67 88.40 128.78 C 88.77 128.35 89.50 127.48 89.87 127.04 C 87.75 137.73 85.00 148.30 82.98 159.02 C 82.22 163.32 81.19 167.57 79.66 171.67 C 66.04 149.43 52.52 127.13 38.96 104.85 C 33.32 95.87 28.11 86.63 22.33 77.75 C 20.98 75.47 18.96 72.94 20.05 70.13 C 26.58 46.74 33.70 23.50 39.81 0.00 Z"
       id="path25" />
    <path
       fill="#674831"
       opacity="1.00"
       d=" M 311.97 205.99 C 316.64 203.27 321.28 200.43 326.36 198.50 C 327.51 199.80 328.66 201.12 329.84 202.40 C 336.62 209.44 343.37 216.53 350.51 223.21 C 349.64 231.78 345.09 239.33 342.39 247.38 C 341.47 250.45 338.98 254.33 341.84 257.09 C 349.93 266.08 359.21 273.97 367.12 283.14 C 366.16 286.72 365.08 290.27 363.66 293.69 C 360.87 300.35 358.75 307.27 355.67 313.80 C 350.13 314.35 344.55 314.36 338.99 314.12 C 321.93 313.42 304.79 314.43 287.79 312.56 C 285.65 306.13 284.21 299.48 281.76 293.15 C 271.52 292.63 261.27 292.75 251.03 292.05 C 246.75 277.41 242.26 262.82 238.15 248.13 C 243.66 244.53 249.53 241.52 255.22 238.21 C 274.17 227.53 293.02 216.67 311.97 205.99 M 314.04 238.98 C 304.95 244.29 295.74 249.38 286.64 254.67 C 282.08 257.39 277.10 259.50 273.12 263.09 C 275.00 270.05 277.33 276.87 279.20 283.84 C 280.02 286.62 280.61 289.53 282.03 292.10 C 283.78 293.23 286.04 292.89 288.03 293.06 C 300.28 293.01 312.53 293.41 324.78 293.71 C 328.98 284.01 332.30 273.95 336.22 264.13 C 337.36 261.14 338.74 258.18 339.13 254.97 C 337.71 251.37 334.26 249.11 331.70 246.34 C 328.00 243.02 325.08 238.79 320.85 236.12 C 318.36 236.41 316.19 237.80 314.04 238.98 Z"
       id="path27" />
  </g>
  <g
     id="#5a3e29ff">
    <path
       fill="#5a3e29"
       opacity="1.00"
       d=" M 40.36 0.00 L 238.11 0.00 C 239.36 4.49 240.14 9.10 241.46 13.58 C 243.31 20.55 246.73 27.17 246.92 34.52 C 208.94 36.74 170.95 38.94 132.97 41.15 C 129.02 41.35 125.07 41.92 121.11 41.64 C 118.88 41.48 117.46 39.49 115.99 38.05 C 108.11 28.96 99.04 20.99 90.92 12.12 C 88.19 9.18 85.85 5.82 82.67 3.32 C 80.86 1.80 78.35 2.30 76.18 2.31 C 65.93 3.24 55.60 3.10 45.41 4.69 C 43.73 3.12 42.10 1.50 40.36 0.00 Z"
       id="path30" />
    <path
       fill="#5a3e29"
       opacity="1.00"
       d=" M 280.80 85.76 C 292.44 88.46 304.25 85.77 315.99 86.19 C 321.52 86.34 327.19 85.42 332.54 87.26 C 324.83 113.53 317.87 140.02 310.37 166.35 C 309.07 170.78 308.27 175.37 306.55 179.66 C 305.29 182.93 301.86 184.41 299.06 186.09 C 280.16 196.76 261.47 207.80 242.66 218.62 C 236.71 222.15 230.43 225.53 225.80 230.81 C 221.04 236.06 219.24 243.31 218.70 250.20 C 219.15 257.50 221.76 264.44 223.62 271.45 C 229.60 292.08 235.57 312.72 241.54 333.36 C 243.04 338.32 244.69 343.36 244.58 348.61 C 244.46 359.75 243.38 370.86 243.07 381.99 C 242.12 393.61 242.26 405.31 240.81 416.89 C 234.98 418.27 228.98 418.27 223.04 418.54 C 210.36 419.41 197.66 420.10 184.98 420.92 C 180.38 421.58 177.22 417.65 174.01 415.06 C 159.00 402.35 143.75 389.92 128.75 377.19 C 155.02 374.66 181.47 374.18 207.75 371.80 C 208.90 362.64 208.78 353.39 209.42 344.19 C 210.75 321.14 211.74 298.06 213.10 275.02 C 213.48 267.27 210.22 260.09 208.24 252.78 C 201.00 227.21 193.30 201.77 186.12 176.19 C 189.59 173.88 193.17 171.76 196.81 169.77 C 217.47 157.76 238.12 145.77 258.82 133.83 C 262.10 131.86 265.84 130.42 268.51 127.59 C 270.65 124.15 271.14 120.00 272.29 116.18 C 275.05 106.35 277.64 96.48 280.54 86.69 C 280.60 86.46 280.74 86.00 280.80 85.76 Z"
       id="path32" />
    <path
       fill="#5a3e29"
       opacity="1.00"
       d=" M 113.00 212.48 C 118.90 220.35 123.27 229.19 128.70 237.37 C 132.02 242.08 130.38 248.09 130.11 253.39 C 127.42 263.69 125.80 274.23 123.55 284.63 C 118.73 307.87 114.14 331.15 109.39 354.40 C 109.11 356.21 108.83 358.05 109.05 359.88 C 110.31 362.23 112.52 363.85 114.53 365.53 C 119.16 369.16 123.55 373.07 128.16 376.72 C 122.77 376.99 117.41 377.91 112.01 377.86 C 109.92 377.94 108.23 376.56 106.69 375.36 C 97.94 367.89 89.16 360.46 80.13 353.35 C 80.71 350.19 81.01 346.99 81.67 343.84 C 87.21 317.54 91.99 291.08 97.77 264.83 C 100.91 249.07 103.82 233.27 107.37 217.60 C 108.32 219.13 109.36 220.60 110.39 222.08 C 111.41 218.92 112.34 215.74 113.00 212.48 Z"
       id="path34" />
    <path
       fill="#5a3e29"
       opacity="1.00"
       d=" M 74.57 386.60 C 76.37 380.43 77.99 374.20 80.26 368.19 C 81.28 368.98 82.29 369.78 83.31 370.58 C 87.45 373.83 91.41 377.31 95.70 380.37 C 99.29 382.97 103.67 383.98 107.84 385.26 C 108.27 387.80 108.21 390.84 110.66 392.41 C 131.82 408.86 152.72 425.66 173.77 442.24 C 176.14 444.34 179.45 443.76 182.34 443.55 C 188.03 442.88 193.74 442.22 199.49 442.14 C 201.70 449.60 204.13 457.00 206.54 464.41 C 207.21 466.39 207.90 468.40 209.05 470.17 C 211.62 471.05 214.39 470.61 217.04 470.45 C 223.97 469.74 230.89 468.76 237.88 469.03 C 238.44 483.34 238.08 497.68 238.03 512.00 L 125.31 512.00 C 136.14 510.41 147.12 510.50 158.01 509.63 C 178.62 508.16 199.31 507.69 219.88 505.74 C 216.37 494.18 212.44 482.76 208.68 471.29 C 198.37 471.36 188.19 473.30 177.90 473.56 C 170.61 473.14 163.06 471.33 157.14 466.86 C 141.77 454.92 126.67 442.63 111.30 430.70 C 106.24 426.74 101.48 422.40 96.07 418.91 C 93.79 424.67 92.31 430.70 90.58 436.64 C 84.59 457.22 78.55 477.80 72.49 498.37 C 72.17 500.34 71.20 502.63 72.49 504.46 C 74.33 507.35 76.99 509.59 79.40 512.00 L 37.88 512.00 C 50.34 470.27 62.31 428.39 74.57 386.60 Z"
       id="path36" />
  </g>
  <g
     id="#4d3523ff">
    <path
       fill="#4d3523"
       opacity="1.00"
       d=" M 238.11 0.00 L 267.97 0.00 C 269.27 3.16 270.34 6.40 271.54 9.59 C 277.87 9.95 284.20 9.95 290.53 9.68 C 290.78 6.75 291.01 3.81 291.25 0.88 C 292.37 3.68 293.31 6.59 294.91 9.17 C 295.38 10.48 296.81 10.50 297.97 10.68 C 303.59 11.27 309.24 10.98 314.88 10.87 C 316.57 7.33 317.92 3.64 319.36 0.00 L 358.28 0.00 C 353.56 10.32 350.64 21.41 345.44 31.52 C 333.29 31.07 321.13 30.98 308.97 30.95 C 306.68 30.73 303.51 31.20 302.44 28.59 C 299.40 22.96 298.26 16.50 294.93 10.99 C 293.65 11.00 292.38 10.97 291.12 10.90 C 290.63 16.50 290.46 22.27 292.29 27.67 C 295.85 38.54 299.87 49.27 302.72 60.36 C 297.49 60.54 291.25 58.35 286.74 61.85 C 280.17 62.73 273.53 62.75 266.93 63.24 C 217.50 66.21 168.04 68.83 118.62 72.05 C 118.23 72.02 117.43 71.95 117.03 71.92 C 113.13 67.79 110.63 62.50 106.29 58.77 C 97.08 50.91 88.20 42.68 79.01 34.80 C 67.96 24.59 56.50 14.85 45.41 4.69 C 55.60 3.10 65.93 3.24 76.18 2.31 C 78.35 2.30 80.86 1.80 82.67 3.32 C 85.85 5.82 88.19 9.18 90.92 12.12 C 99.04 20.99 108.11 28.96 115.99 38.05 C 117.46 39.49 118.88 41.48 121.11 41.64 C 125.07 41.92 129.02 41.35 132.97 41.15 C 170.95 38.94 208.94 36.74 246.92 34.52 C 246.73 27.17 243.31 20.55 241.46 13.58 C 240.14 9.10 239.36 4.49 238.11 0.00 Z"
       id="path39" />
    <path
       fill="#4d3523"
       opacity="1.00"
       d=" M 310.18 83.97 C 318.01 81.85 326.04 83.97 333.97 83.94 C 341.89 83.96 349.81 84.16 357.73 83.85 C 354.56 92.73 352.66 101.97 350.04 111.01 C 342.05 140.15 334.43 169.39 326.36 198.50 C 321.28 200.43 316.64 203.27 311.97 205.99 C 293.02 216.67 274.17 227.53 255.22 238.21 C 249.53 241.52 243.66 244.53 238.15 248.13 C 242.26 262.82 246.75 277.41 251.03 292.05 C 254.10 302.30 257.02 312.60 260.16 322.83 C 262.25 329.46 263.74 336.28 266.25 342.78 C 271.64 342.83 277.02 342.94 282.39 343.44 C 284.91 350.77 286.43 358.41 289.29 365.63 C 303.01 366.38 316.78 365.38 330.50 366.32 C 330.72 366.54 331.17 366.98 331.39 367.20 C 334.58 370.15 339.15 368.61 343.02 368.71 C 344.80 368.83 347.82 367.92 348.39 370.36 C 349.52 374.78 349.39 379.40 349.80 383.93 C 352.71 420.35 355.69 456.78 358.58 493.21 C 359.01 499.45 360.35 505.88 358.36 512.00 L 318.99 512.00 C 325.17 497.83 330.17 483.16 336.04 468.86 C 337.62 465.11 339.09 461.16 338.75 457.02 C 336.44 429.36 334.21 401.68 332.06 374.00 C 331.67 372.25 331.95 369.89 330.31 368.74 C 326.09 367.71 321.69 368.33 317.41 368.55 C 309.96 369.28 302.47 369.07 294.99 369.29 C 294.34 373.15 294.03 377.08 294.16 381.00 C 294.45 389.67 293.13 398.29 293.22 406.96 C 293.27 412.84 293.15 418.72 292.66 424.59 C 291.70 435.98 292.97 447.50 290.86 458.80 C 283.40 460.18 275.78 460.11 268.30 461.37 C 268.04 478.25 268.25 495.12 268.23 512.00 L 238.03 512.00 C 238.08 497.68 238.44 483.34 237.88 469.03 C 230.89 468.76 223.97 469.74 217.04 470.45 C 214.39 470.61 211.62 471.05 209.05 470.17 C 207.90 468.40 207.21 466.39 206.54 464.41 C 204.13 457.00 201.70 449.60 199.49 442.14 C 193.74 442.22 188.03 442.88 182.34 443.55 C 179.45 443.76 176.14 444.34 173.77 442.24 C 152.72 425.66 131.82 408.86 110.66 392.41 C 108.21 390.84 108.27 387.80 107.84 385.26 C 103.67 383.98 99.29 382.97 95.70 380.37 C 91.41 377.31 87.45 373.83 83.31 370.58 C 84.20 367.80 85.06 365.01 85.88 362.22 C 83.27 361.42 80.67 360.64 78.04 359.96 C 78.78 357.77 79.57 355.59 80.13 353.35 C 89.16 360.46 97.94 367.89 106.69 375.36 C 108.23 376.56 109.92 377.94 112.01 377.86 C 117.41 377.91 122.77 376.99 128.16 376.72 L 128.75 377.19 C 143.75 389.92 159.00 402.35 174.01 415.06 C 177.22 417.65 180.38 421.58 184.98 420.92 C 197.66 420.10 210.36 419.41 223.04 418.54 C 228.98 418.27 234.98 418.27 240.81 416.89 C 242.26 405.31 242.12 393.61 243.07 381.99 C 243.38 370.86 244.46 359.75 244.58 348.61 C 244.69 343.36 243.04 338.32 241.54 333.36 C 235.57 312.72 229.60 292.08 223.62 271.45 C 221.76 264.44 219.15 257.50 218.70 250.20 C 219.24 243.31 221.04 236.06 225.80 230.81 C 230.43 225.53 236.71 222.15 242.66 218.62 C 261.47 207.80 280.16 196.76 299.06 186.09 C 301.86 184.41 305.29 182.93 306.55 179.66 C 308.27 175.37 309.07 170.78 310.37 166.35 C 317.87 140.02 324.83 113.53 332.54 87.26 C 332.73 86.52 332.93 85.78 333.13 85.04 C 325.49 84.24 317.72 85.77 310.18 83.97 Z"
       id="path41" />
  </g>
  <g
     id="#5b3f2aff">
    <path
       fill="#5b3f2a"
       opacity="1.00"
       d=" M 267.97 0.00 L 319.36 0.00 C 317.92 3.64 316.57 7.33 314.88 10.87 C 309.24 10.98 303.59 11.27 297.97 10.68 C 296.81 10.50 295.38 10.48 294.91 9.17 C 293.31 6.59 292.37 3.68 291.25 0.88 C 291.01 3.81 290.78 6.75 290.53 9.68 C 284.20 9.95 277.87 9.95 271.54 9.59 C 270.34 6.40 269.27 3.16 267.97 0.00 Z"
       id="path44" />
    <path
       fill="#5b3f2a"
       opacity="1.00"
       d=" M 317.41 368.55 C 321.69 368.33 326.09 367.71 330.31 368.74 C 331.95 369.89 331.67 372.25 332.06 374.00 C 334.21 401.68 336.44 429.36 338.75 457.02 C 339.09 461.16 337.62 465.11 336.04 468.86 C 330.17 483.16 325.17 497.83 318.99 512.00 L 268.23 512.00 C 268.25 495.12 268.04 478.25 268.30 461.37 C 275.78 460.11 283.40 460.18 290.86 458.80 C 292.97 447.50 291.70 435.98 292.66 424.59 C 293.15 418.72 293.27 412.84 293.22 406.96 C 293.13 398.29 294.45 389.67 294.16 381.00 C 294.03 377.08 294.34 373.15 294.99 369.29 C 302.47 369.07 309.96 369.28 317.41 368.55 Z"
       id="path46" />
  </g>
  <g
     id="#422e1fff">
    <path
       fill="#422e1f"
       opacity="1.00"
       d=" M 358.28 0.00 L 390.06 0.00 C 383.16 17.79 376.16 35.55 369.42 53.40 C 368.05 56.71 367.35 61.21 363.35 62.35 C 343.17 60.82 322.91 61.47 302.72 60.36 C 299.87 49.27 295.85 38.54 292.29 27.67 C 290.46 22.27 290.63 16.50 291.12 10.90 C 292.38 10.97 293.65 11.00 294.93 10.99 C 298.26 16.50 299.40 22.96 302.44 28.59 C 303.51 31.20 306.68 30.73 308.97 30.95 C 321.13 30.98 333.29 31.07 345.44 31.52 C 350.64 21.41 353.56 10.32 358.28 0.00 Z"
       id="path49" />
    <path
       fill="#422e1f"
       opacity="1.00"
       d=" M 331.39 367.20 C 336.56 365.95 341.84 367.03 347.07 366.93 C 357.46 366.87 367.84 367.11 378.23 366.98 C 382.43 415.30 385.95 463.68 390.10 512.00 L 358.36 512.00 C 360.35 505.88 359.01 499.45 358.58 493.21 C 355.69 456.78 352.71 420.35 349.80 383.93 C 349.39 379.40 349.52 374.78 348.39 370.36 C 347.82 367.92 344.80 368.83 343.02 368.71 C 339.15 368.61 334.58 370.15 331.39 367.20 Z"
       id="path51" />
  </g>
  <g
     id="#503825ff">
    <path
       fill="#503825"
       opacity="1.00"
       d=" M 390.06 0.00 L 409.46 0.00 C 403.02 28.58 394.56 56.66 387.04 84.96 C 377.24 85.40 367.49 84.36 357.73 83.85 C 359.33 76.61 361.28 69.46 363.35 62.35 C 367.35 61.21 368.05 56.71 369.42 53.40 C 376.16 35.55 383.16 17.79 390.06 0.00 Z"
       id="path54" />
    <path
       fill="#503825"
       opacity="1.00"
       d=" M 377.80 339.92 C 388.14 340.36 398.62 339.15 408.83 341.26 C 406.04 351.89 398.88 361.59 399.95 373.00 C 401.86 395.69 403.57 418.40 405.51 441.09 C 406.28 434.04 405.21 427.02 404.90 420.00 C 404.79 404.24 402.96 388.51 403.33 372.76 C 406.00 383.65 404.69 394.92 405.89 405.98 C 406.30 414.33 406.24 422.70 407.11 431.02 C 407.14 446.05 408.66 461.06 408.35 476.08 C 406.93 488.07 409.64 500.00 409.00 512.00 L 390.10 512.00 C 385.95 463.68 382.43 415.30 378.23 366.98 C 377.63 359.76 377.24 352.52 376.66 345.30 C 369.63 345.06 362.55 345.55 355.58 344.29 C 362.31 343.70 369.06 343.94 375.80 343.81 C 376.56 342.56 377.16 341.22 377.80 339.92 Z"
       id="path56" />
  </g>
  <g
     id="#563c28ff">
    <path
       fill="#563c28"
       opacity="1.00"
       d=" M 409.46 0.00 L 459.98 0.00 C 454.25 19.68 448.89 39.47 443.27 59.19 C 441.64 64.65 440.58 70.30 438.58 75.65 C 437.63 78.51 434.88 80.05 432.48 81.53 C 414.95 91.89 397.88 103.00 380.26 113.19 C 381.55 103.56 385.48 94.55 387.04 84.96 C 394.56 56.66 403.02 28.58 409.46 0.00 Z"
       id="path59" />
    <path
       fill="#563c28"
       opacity="1.00"
       d=" M 403.53 367.42 C 409.30 366.92 415.09 367.02 420.86 367.43 C 433.56 368.33 446.31 367.88 459.00 368.91 C 472.37 369.13 485.73 369.60 499.09 370.26 C 498.14 377.31 495.82 384.05 493.92 390.87 C 482.50 431.23 471.36 471.68 459.81 512.00 L 409.00 512.00 C 409.64 500.00 406.93 488.07 408.35 476.08 C 408.66 461.06 407.14 446.05 407.11 431.02 C 406.24 422.70 406.30 414.33 405.89 405.98 C 404.69 394.92 406.00 383.65 403.33 372.76 C 403.37 370.97 403.45 369.19 403.53 367.42 Z"
       id="path61" />
  </g>
  <g
     id="#583d2aff">
    <path
       fill="#583d2a"
       opacity="1.00"
       d=" M 79.01 34.80 C 88.20 42.68 97.08 50.91 106.29 58.77 C 110.63 62.50 113.13 67.79 117.03 71.92 C 115.70 72.02 114.36 72.12 113.02 72.24 C 113.29 74.40 113.56 76.56 113.84 78.73 C 117.08 104.37 120.18 130.03 123.52 155.66 C 123.80 158.46 123.70 161.29 123.20 164.05 C 119.79 180.19 116.05 196.27 113.00 212.48 C 112.34 215.74 111.41 218.92 110.39 222.08 C 109.36 220.60 108.32 219.13 107.37 217.60 C 98.50 202.07 88.84 187.02 79.66 171.67 C 81.19 167.57 82.22 163.32 82.98 159.02 C 85.00 148.30 87.75 137.73 89.87 127.04 C 88.39 111.02 85.87 95.10 84.10 79.11 C 82.55 64.32 79.94 49.65 79.01 34.80 Z"
       id="path64" />
    <path
       fill="#583d2a"
       opacity="1.00"
       d=" M 350.51 223.21 C 362.76 235.05 374.21 247.68 386.25 259.72 C 392.14 266.09 399.04 271.61 403.67 279.05 C 404.38 277.30 405.12 275.56 405.77 273.80 C 405.88 274.50 406.09 275.91 406.20 276.62 C 411.83 276.37 417.47 276.17 423.11 276.31 C 422.20 283.84 418.34 290.51 416.69 297.85 C 415.31 303.86 412.00 309.42 412.11 315.73 C 414.39 315.57 416.66 315.34 418.94 315.16 C 430.95 314.17 443.01 315.30 455.02 314.12 C 474.00 313.63 493.01 313.80 512.00 313.82 L 512.00 315.04 C 492.32 315.51 472.60 314.55 452.96 316.01 C 441.47 316.52 429.97 315.69 418.50 316.40 C 415.60 323.12 413.25 330.04 410.73 336.90 C 400.29 337.51 389.90 335.92 379.47 336.22 C 378.96 337.47 378.40 338.70 377.80 339.92 C 377.16 341.22 376.56 342.56 375.80 343.81 C 369.06 343.94 362.31 343.70 355.58 344.29 C 347.01 344.04 338.44 343.73 329.87 344.11 C 329.53 351.53 331.28 358.90 330.50 366.32 C 316.78 365.38 303.01 366.38 289.29 365.63 C 286.43 358.41 284.91 350.77 282.39 343.44 C 277.02 342.94 271.64 342.83 266.25 342.78 C 263.74 336.28 262.25 329.46 260.16 322.83 C 257.02 312.60 254.10 302.30 251.03 292.05 C 261.27 292.75 271.52 292.63 281.76 293.15 C 284.21 299.48 285.65 306.13 287.79 312.56 C 304.79 314.43 321.93 313.42 338.99 314.12 C 344.55 314.36 350.13 314.35 355.67 313.80 C 358.75 307.27 360.87 300.35 363.66 293.69 C 365.08 290.27 366.16 286.72 367.12 283.14 C 359.21 273.97 349.93 266.08 341.84 257.09 C 338.98 254.33 341.47 250.45 342.39 247.38 C 345.09 239.33 349.64 231.78 350.51 223.21 Z"
       id="path66" />
  </g>
  <g
     id="#79553aff">
    <path
       fill="#79553a"
       opacity="1.00"
       d=" M 55.31 54.02 C 57.97 55.90 60.58 57.85 62.97 60.06 C 69.92 66.52 77.20 72.60 84.10 79.11 C 85.87 95.10 88.39 111.02 89.87 127.04 C 89.50 127.48 88.77 128.35 88.40 128.78 C 77.05 110.67 66.24 92.22 54.89 74.09 C 53.65 71.89 52.07 69.65 51.97 67.04 C 52.12 62.51 53.90 58.27 55.31 54.02 Z"
       id="path69" />
    <path
       fill="#79553a"
       opacity="1.00"
       d=" M 314.04 238.98 C 316.19 237.80 318.36 236.41 320.85 236.12 C 325.08 238.79 328.00 243.02 331.70 246.34 C 334.26 249.11 337.71 251.37 339.13 254.97 C 338.74 258.18 337.36 261.14 336.22 264.13 C 332.30 273.95 328.98 284.01 324.78 293.71 C 312.53 293.41 300.28 293.01 288.03 293.06 C 286.04 292.89 283.78 293.23 282.03 292.10 C 280.61 289.53 280.02 286.62 279.20 283.84 C 277.33 276.87 275.00 270.05 273.12 263.09 C 277.10 259.50 282.08 257.39 286.64 254.67 C 295.74 249.38 304.95 244.29 314.04 238.98 Z"
       id="path71" />
  </g>
  <g
     id="#553a27ff">
    <path
       fill="#553a27"
       opacity="1.00"
       d=" M 286.74 61.85 C 291.25 58.35 297.49 60.54 302.72 60.36 C 322.91 61.47 343.17 60.82 363.35 62.35 C 361.28 69.46 359.33 76.61 357.73 83.85 C 349.81 84.16 341.89 83.96 333.97 83.94 C 326.04 83.97 318.01 81.85 310.18 83.97 C 317.72 85.77 325.49 84.24 333.13 85.04 C 332.93 85.78 332.73 86.52 332.54 87.26 C 327.19 85.42 321.52 86.34 315.99 86.19 C 304.25 85.77 292.44 88.46 280.80 85.76 C 282.67 77.76 285.61 70.01 286.74 61.85 Z"
       id="path74" />
  </g>
  <g
     id="#63442dff">
    <path
       fill="#63442d"
       opacity="1.00"
       d=" M 266.93 63.24 C 273.53 62.75 280.17 62.73 286.74 61.85 C 285.61 70.01 282.67 77.76 280.80 85.76 C 280.74 86.00 280.60 86.46 280.54 86.69 C 271.05 84.78 261.51 87.11 251.98 87.01 C 244.71 87.03 237.43 86.67 230.19 87.40 C 222.68 88.13 215.11 87.76 207.60 88.41 C 195.72 89.40 183.79 88.36 171.92 89.54 C 160.12 90.12 148.28 90.12 136.46 89.84 C 131.64 82.84 124.54 78.02 118.62 72.05 C 168.04 68.83 217.50 66.21 266.93 63.24 Z"
       id="path77" />
    <path
       fill="#63442d"
       opacity="1.00"
       d=" M 113.84 78.73 C 118.69 83.00 123.18 87.67 127.65 92.34 C 129.91 94.95 133.31 95.86 136.51 96.76 C 136.33 98.84 136.23 100.92 136.05 103.01 C 136.68 102.99 137.31 102.97 137.95 102.95 C 137.59 105.68 137.22 108.41 136.86 111.14 C 137.57 111.05 138.27 110.97 138.98 110.88 C 138.62 113.57 138.25 116.27 137.89 118.96 C 138.55 118.99 139.22 119.03 139.89 119.07 C 139.54 121.72 139.36 124.39 139.01 127.04 C 139.67 127.01 140.33 126.98 140.99 126.94 C 140.61 129.63 140.22 132.32 139.84 135.01 C 140.54 135.02 141.24 135.03 141.93 135.04 C 141.60 137.71 141.24 140.37 140.91 143.04 C 141.59 142.99 142.28 142.94 142.96 142.88 C 142.63 145.56 142.27 148.23 141.94 150.90 C 142.60 150.96 143.27 151.01 143.94 151.07 C 143.60 153.70 143.25 156.32 142.92 158.95 C 143.58 158.96 144.25 158.96 144.92 158.97 C 144.60 161.58 144.28 164.19 143.96 166.81 C 144.61 166.93 145.26 167.06 145.92 167.19 C 145.18 174.43 144.27 181.66 142.65 188.77 C 139.78 203.16 136.94 217.57 133.79 231.91 C 132.08 239.00 132.71 246.49 130.11 253.39 C 130.38 248.09 132.02 242.08 128.70 237.37 C 123.27 229.19 118.90 220.35 113.00 212.48 C 116.05 196.27 119.79 180.19 123.20 164.05 C 123.70 161.29 123.80 158.46 123.52 155.66 C 120.18 130.03 117.08 104.37 113.84 78.73 Z"
       id="path79" />
  </g>
  <g
     id="#6a4930ff">
    <path
       fill="#6a4930"
       opacity="1.00"
       d=" M 113.02 72.24 C 114.36 72.12 115.70 72.02 117.03 71.92 C 117.43 71.95 118.23 72.02 118.62 72.05 C 124.54 78.02 131.64 82.84 136.46 89.84 C 148.28 90.12 160.12 90.12 171.92 89.54 C 183.79 88.36 195.72 89.40 207.60 88.41 C 215.11 87.76 222.68 88.13 230.19 87.40 C 237.43 86.67 244.71 87.03 251.98 87.01 C 261.51 87.11 271.05 84.78 280.54 86.69 C 277.64 96.48 275.05 106.35 272.29 116.18 C 271.14 120.00 270.65 124.15 268.51 127.59 C 265.84 130.42 262.10 131.86 258.82 133.83 C 238.12 145.77 217.47 157.76 196.81 169.77 C 193.17 171.76 189.59 173.88 186.12 176.19 C 193.30 201.77 201.00 227.21 208.24 252.78 C 210.22 260.09 213.48 267.27 213.10 275.02 C 211.74 298.06 210.75 321.14 209.42 344.19 C 208.78 353.39 208.90 362.64 207.75 371.80 C 181.47 374.18 155.02 374.66 128.75 377.19 L 128.16 376.72 C 123.55 373.07 119.16 369.16 114.53 365.53 C 112.52 363.85 110.31 362.23 109.05 359.88 C 108.83 358.05 109.11 356.21 109.39 354.40 C 114.14 331.15 118.73 307.87 123.55 284.63 C 125.80 274.23 127.42 263.69 130.11 253.39 C 132.71 246.49 132.08 239.00 133.79 231.91 C 136.94 217.57 139.78 203.16 142.65 188.77 C 144.27 181.66 145.18 174.43 145.92 167.19 C 145.26 167.06 144.61 166.93 143.96 166.81 C 144.28 164.19 144.60 161.58 144.92 158.97 C 144.25 158.96 143.58 158.96 142.92 158.95 C 143.25 156.32 143.60 153.70 143.94 151.07 C 143.27 151.01 142.60 150.96 141.94 150.90 C 142.27 148.23 142.63 145.56 142.96 142.88 C 142.28 142.94 141.59 142.99 140.91 143.04 C 141.24 140.37 141.60 137.71 141.93 135.04 C 141.24 135.03 140.54 135.02 139.84 135.01 C 140.22 132.32 140.61 129.63 140.99 126.94 C 140.33 126.98 139.67 127.01 139.01 127.04 C 139.36 124.39 139.54 121.72 139.89 119.07 C 139.22 119.03 138.55 118.99 137.89 118.96 C 138.25 116.27 138.62 113.57 138.98 110.88 C 138.27 110.97 137.57 111.05 136.86 111.14 C 137.22 108.41 137.59 105.68 137.95 102.95 C 137.31 102.97 136.68 102.99 136.05 103.01 C 136.23 100.92 136.33 98.84 136.51 96.76 C 133.31 95.86 129.91 94.95 127.65 92.34 C 123.18 87.67 118.69 83.00 113.84 78.73 C 113.56 76.56 113.29 74.40 113.02 72.24 Z"
       id="path82" />
    <path
       fill="#6a4930"
       opacity="1.00"
       d=" M 96.07 418.91 C 101.48 422.40 106.24 426.74 111.30 430.70 C 126.67 442.63 141.77 454.92 157.14 466.86 C 163.06 471.33 170.61 473.14 177.90 473.56 C 188.19 473.30 198.37 471.36 208.68 471.29 C 212.44 482.76 216.37 494.18 219.88 505.74 C 199.31 507.69 178.62 508.16 158.01 509.63 C 147.12 510.50 136.14 510.41 125.31 512.00 L 79.40 512.00 C 76.99 509.59 74.33 507.35 72.49 504.46 C 71.20 502.63 72.17 500.34 72.49 498.37 C 78.55 477.80 84.59 457.22 90.58 436.64 C 92.31 430.70 93.79 424.67 96.07 418.91 Z"
       id="path84" />
  </g>
  <g
     id="#583f2bff">
    <path
       fill="#583f2b"
       opacity="1.00"
       d=" M 12.77 83.69 C 15.97 81.73 19.15 79.75 22.33 77.75 C 28.11 86.63 33.32 95.87 38.96 104.85 C 35.09 107.03 31.28 109.29 27.49 111.61 L 26.88 110.62 C 25.38 107.66 23.86 104.70 22.34 101.76 C 19.38 95.61 16.34 89.50 12.77 83.69 Z"
       id="path87" />
  </g>
  <g
     id="#684a33ff">
    <path
       fill="#684a33"
       opacity="1.00"
       d=" M 0.00 91.60 C 4.13 88.76 8.53 86.35 12.77 83.69 C 16.34 89.50 19.38 95.61 22.34 101.76 L 21.01 101.75 C 17.08 101.99 12.83 102.09 9.50 104.47 C 6.11 106.82 2.97 109.51 0.00 112.36 L 0.00 91.60 Z"
       id="path90" />
    <path
       fill="#684a33"
       opacity="1.00"
       d=" M 455.92 125.92 C 474.60 114.40 493.37 103.04 512.00 91.45 L 512.00 111.78 C 497.70 124.29 482.30 135.51 467.81 147.80 C 464.66 150.49 463.53 154.60 462.32 158.39 C 454.72 182.28 446.85 206.09 438.99 229.90 C 434.38 245.35 428.70 260.46 424.12 275.91 C 427.67 276.10 431.23 276.16 434.79 276.01 C 432.47 283.14 430.76 290.45 428.57 297.61 C 427.70 300.79 424.11 301.96 422.81 304.88 C 421.23 308.18 420.23 311.73 418.94 315.16 C 416.66 315.34 414.39 315.57 412.11 315.73 C 412.00 309.42 415.31 303.86 416.69 297.85 C 418.34 290.51 422.20 283.84 423.11 276.31 C 417.47 276.17 411.83 276.37 406.20 276.62 C 406.09 275.91 405.88 274.50 405.77 273.80 C 418.13 230.15 430.54 186.53 442.90 142.89 C 443.98 139.36 444.51 135.58 446.32 132.32 C 449.03 129.54 452.71 128.02 455.92 125.92 Z"
       id="path92" />
  </g>
  <g
     id="#7a573cff">
    <path
       fill="#7a573c"
       opacity="1.00"
       d=" M 9.50 104.47 C 12.83 102.09 17.08 101.99 21.01 101.75 C 22.82 105.28 24.43 108.91 25.86 112.62 C 17.45 118.26 8.63 123.27 0.00 128.57 L 0.00 112.36 C 2.97 109.51 6.11 106.82 9.50 104.47 Z"
       id="path95" />
    <path
       fill="#7a573c"
       opacity="1.00"
       d=" M 467.81 147.80 C 482.30 135.51 497.70 124.29 512.00 111.78 L 512.00 128.61 C 498.84 136.96 485.36 144.80 472.16 153.09 C 467.65 155.76 467.39 161.48 465.95 165.98 C 455.51 202.64 445.10 239.31 434.79 276.01 C 431.23 276.16 427.67 276.10 424.12 275.91 C 428.70 260.46 434.38 245.35 438.99 229.90 C 446.85 206.09 454.72 182.28 462.32 158.39 C 463.53 154.60 464.66 150.49 467.81 147.80 Z"
       id="path97" />
  </g>
  <g
     id="#6f4f36ff">
    <path
       fill="#6f4f36"
       opacity="1.00"
       d=" M 21.01 101.75 L 22.34 101.76 C 23.86 104.70 25.38 107.66 26.88 110.62 C 28.51 117.96 33.14 124.01 36.33 130.68 C 38.51 135.10 40.79 139.46 43.26 143.73 C 44.99 146.93 47.07 150.26 46.89 154.04 C 46.62 159.47 44.87 164.67 43.93 169.99 C 36.89 205.46 29.53 240.88 22.42 276.34 C 20.91 283.51 19.77 290.75 17.90 297.84 C 11.91 296.57 6.01 294.88 0.00 293.71 L 0.00 128.57 C 8.63 123.27 17.45 118.26 25.86 112.62 C 24.43 108.91 22.82 105.28 21.01 101.75 Z"
       id="path100" />
    <path
       fill="#6f4f36"
       opacity="1.00"
       d=" M 472.16 153.09 C 485.36 144.80 498.84 136.96 512.00 128.61 L 512.00 293.48 C 491.80 288.02 471.40 283.27 451.21 277.76 C 445.88 276.20 440.31 275.71 434.79 276.01 C 445.10 239.31 455.51 202.64 465.95 165.98 C 467.39 161.48 467.65 155.76 472.16 153.09 Z"
       id="path102" />
  </g>
  <g
     id="#503927ff">
    <path
       fill="#503927"
       opacity="1.00"
       d=" M 27.49 111.61 C 31.28 109.29 35.09 107.03 38.96 104.85 C 52.52 127.13 66.04 149.43 79.66 171.67 C 88.84 187.02 98.50 202.07 107.37 217.60 C 103.82 233.27 100.91 249.07 97.77 264.83 C 91.99 291.08 87.21 317.54 81.67 343.84 C 81.01 346.99 80.71 350.19 80.13 353.35 C 79.57 355.59 78.78 357.77 78.04 359.96 C 52.01 353.60 26.02 347.06 0.00 340.70 L 0.00 314.11 C 21.09 319.01 41.92 325.03 63.02 329.89 C 65.54 322.47 66.37 314.64 68.08 307.02 C 73.30 282.71 77.91 258.27 82.95 233.93 C 83.64 230.15 85.07 226.32 84.38 222.44 C 83.32 218.63 80.95 215.38 79.12 211.91 C 69.48 193.56 59.74 175.25 50.15 156.87 C 48.00 152.21 46.91 147.10 44.28 142.65 C 38.40 132.46 33.62 121.67 27.49 111.61 Z"
       id="path105" />
    <path
       fill="#503927"
       opacity="1.00"
       d=" M 452.96 316.01 C 472.60 314.55 492.32 315.51 512.00 315.04 L 512.00 340.76 C 484.15 339.60 456.27 339.03 428.42 337.78 C 422.57 336.83 416.64 336.59 410.73 336.90 C 413.25 330.04 415.60 323.12 418.50 316.40 C 429.97 315.69 441.47 316.52 452.96 316.01 Z"
       id="path107" />
  </g>
  <g
     id="#5e432eff">
    <path
       fill="#5e432e"
       opacity="1.00"
       d=" M 26.88 110.62 L 27.49 111.61 C 33.62 121.67 38.40 132.46 44.28 142.65 C 46.91 147.10 48.00 152.21 50.15 156.87 C 59.74 175.25 69.48 193.56 79.12 211.91 C 80.95 215.38 83.32 218.63 84.38 222.44 C 85.07 226.32 83.64 230.15 82.95 233.93 C 77.91 258.27 73.30 282.71 68.08 307.02 C 66.37 314.64 65.54 322.47 63.02 329.89 C 41.92 325.03 21.09 319.01 0.00 314.11 L 0.00 293.71 C 6.01 294.88 11.91 296.57 17.90 297.84 C 19.77 290.75 20.91 283.51 22.42 276.34 C 29.53 240.88 36.89 205.46 43.93 169.99 C 44.87 164.67 46.62 159.47 46.89 154.04 C 47.07 150.26 44.99 146.93 43.26 143.73 C 40.79 139.46 38.51 135.10 36.33 130.68 C 33.14 124.01 28.51 117.96 26.88 110.62 Z"
       id="path110" />
    <path
       fill="#5e432e"
       opacity="1.00"
       d=" M 434.79 276.01 C 440.31 275.71 445.88 276.20 451.21 277.76 C 471.40 283.27 491.80 288.02 512.00 293.48 L 512.00 313.82 C 493.01 313.80 474.00 313.63 455.02 314.12 C 443.01 315.30 430.95 314.17 418.94 315.16 C 420.23 311.73 421.23 308.18 422.81 304.88 C 424.11 301.96 427.70 300.79 428.57 297.61 C 430.76 290.45 432.47 283.14 434.79 276.01 Z"
       id="path112" />
  </g>
</svg>
