<?xml version="1.0" encoding="utf-8"?>
<!-- Generator: Adobe Illustrator 16.0.4, SVG Export Plug-In . SVG Version: 6.00 Build 0)  -->
<!DOCTYPE svg PUBLIC "-//W3C//DTD SVG 1.1//EN" "http://www.w3.org/Graphics/SVG/1.1/DTD/svg11.dtd">
<svg version="1.1" id="Layer_1" xmlns="http://www.w3.org/2000/svg" xmlns:xlink="http://www.w3.org/1999/xlink" x="0px" y="0px"
	 width="512px" height="512px" viewBox="0 0 512 512" enable-background="new 0 0 512 512" xml:space="preserve">
<g>
	<path fill="#7A0709" d="M301.99,254.94c5.32-0.66,10.66-1.2,16.04-0.98c2.5,6.67,4.88,13.37,7.35,20.05
		c-2.71,0.47-5.41,0.94-8.12,1.4c-0.06,0.61-0.17,1.84-0.23,2.45c-0.39-0.97-0.75-1.94-1.08-2.91c-1.21-3.81-2.41-7.62-3.78-11.37
		c-9.9-0.27-19.82,0.02-29.67,1.02c-2.18,6.59-4.16,13.26-6.04,19.94c-0.63,2.58-1.45,5.25-0.99,7.92
		c3.01,4.09,7.92,6.14,12.05,8.89c1.41,0.85,2.81,1.73,4.22,2.59c-4.23-1.55-5.23,3.7-6.93,6.37c-1.51-1.04-3.04-2.05-4.55-3.07
		c-5.39-3.66-10.76-7.35-16.29-10.8c4.17-13.31,7.93-26.76,11.36-40.28C284.14,254.59,293.08,255.1,301.99,254.94z"/>
	<path fill="#7A0709" d="M407.52,269.63c16.15,4.87,32.45,9.29,48.48,14.57c0.01,4.6-0.04,9.21-0.03,13.82
		c-2.89-0.76-5.78-1.49-8.68-2.19l-0.08-0.8c-0.17-1.54-0.37-3.06-0.57-4.58c-8.92-2.96-18-5.41-26.95-8.29
		c-2.61-0.7-5.29-1.76-8.02-1.36c-3.85,2.87-5.91,7.4-8.65,11.22c-3.58,5.71-8.23,10.75-11.2,16.83c-1.27,2.07,0.2,4.22,1.33,5.96
		c2.74,3.98,5.91,7.64,8.89,11.45l0.41,0.51c-0.99,1.45-1.97,2.9-2.94,4.36c4.44,6.3,9.29,12.3,13.61,18.69
		c-1.14,0.39-2.27,0.8-3.39,1.23c-5.23-7.13-10.85-13.96-16.04-21.13c-2.35-3.04-4.74-6.05-7.06-9.1c-2.08-2.82-4.36-5.49-6.29-8.4
		c-0.98-1.35,0.01-3,0.78-4.17C389.98,295.42,399.01,282.7,407.52,269.63z"/>
	<path fill="#7A0709" d="M104.14,293.68c15.62-3.82,31.08-8.34,46.79-11.79c5.28,6.44,9.1,13.93,13.65,20.89
		c-2.56,0.96-5.13,1.9-7.71,2.83c0.39,1.43,0.78,2.87,1.24,4.3c-0.89-1.4-1.78-2.81-2.6-4.25c-2.06-3.66-3.7-7.59-6.33-10.9
		c-0.97-1.21-2.3-2.48-4-2.21c-4.1,0.26-8.01,1.66-11.98,2.63c-5.3,1.49-10.76,2.4-16.02,4.07c-1.5,0.63-3.58,1.03-4.01,2.88
		c-1.31,4.5-1.14,9.27-1.49,13.91c-0.13,5.36-0.98,10.67-1.03,16.03c0.09,1.61-0.02,3.66,1.62,4.57c3.14,2.15,6.95,2.92,10.56,3.93
		c5.55,1.26,10.58,4.02,15.99,5.68c2.98,1.09,6.03-0.27,8.62-1.72c-1.83,1.76-3.8,4.9-6.75,3.75c-6.18-1.81-11.93-4.87-18.14-6.63
		c-0.26,2.77-0.5,5.55-0.86,8.32c-0.76-0.23-1.51-0.45-2.26-0.69c-6.24-2.47-12.43-5.11-18.64-7.68c1.49-7.83,0.88-15.82,2.05-23.68
		C102.9,309.81,104.38,301.8,104.14,293.68z"/>
	<path fill="#7A0709" d="M305.1,366.35c3.62-0.36,7.23-0.76,10.82-1.31c3.48,6.68,6.13,13.74,9.38,20.53l0.28,0.6
		c-2.75,0.42-5.5,0.83-8.24,1.26c-0.06,0.59-0.17,1.77-0.22,2.36c-0.37-0.88-0.73-1.75-1.08-2.62c-1.6-4.07-3.28-8.09-5.1-12.05
		c-8.19,0.52-16.76-0.04-24.43,3.39c-0.72-3.35-1.32-6.71-1.96-10.07c4.1-0.41,8.2-0.84,12.3-1.28
		C299.6,366.88,302.35,366.62,305.1,366.35z"/>
	<path fill="#7A0709" d="M184.61,378.25c5.1-1.69,10.25-3.24,15.35-4.92c5.05,6.8,10.05,13.64,15.12,20.43l0.4,0.58
		c-3.01,1.2-6.02,2.38-9.04,3.53c-2.82-4.88-6.15-9.46-9.69-13.84c-6.1,1.19-12.28,2.83-17.33,6.62c-1.66-3.06-3.3-6.13-4.97-9.18
		C177.88,380.54,181.25,379.42,184.61,378.25z"/>
	<path fill="#7A0709" d="M424.76,414.27c1.04-0.37,2.08-0.75,3.13-1.12c2.15,2.94,4.29,5.91,6.83,8.54
		c2.75,4.24,5.5,8.48,8.53,12.54c-2.92,1.26-5.86,2.48-8.81,3.66c-2.82-4.9-6.14-9.48-9.69-13.87c-5.09,1.27-10.4,2.17-15.04,4.73
		c-1.94,0.9-1.81,3.34-2.11,5.14c-0.23,4.15-0.51,8.51,0.95,12.49c2.92,2.5,6.9,3.15,10.54,3.96l0.99,0.11
		c-6.59,1.44-13.14,3.07-19.85,3.87c2.97-11.84,6.24-23.6,9.52-35.35C414.8,417.56,419.81,416,424.76,414.27z"/>
	<path fill="#7A0709" d="M42.09,422.93c6.29,1.21,12.68,1.81,19.06,2.39c6.67,1,13.35,1.94,20.06,2.65c1.45,0.16,2.9,0.33,4.35,0.5
		c0.58,2.37,1.16,4.74,1.67,7.13c0.68,3.45,1.19,6.93,1.83,10.39c-3.02-0.04-6.04-0.07-9.05-0.1l-0.16-0.85
		c-0.5-2.76-1.05-5.51-1.61-8.25c-10.29-1.75-20.65-3.22-31.09-3.73c-4.82,8.88-8.78,18.17-12.86,27.39
		c-0.28,0.28-0.84,0.84-1.11,1.11c3.66,2.33,7.23,4.81,10.75,7.36c5.53,4.04,11.06,8.08,16.53,12.21
		c-5.51,0.52-9.54-3.47-13.22-6.93c-1.19,2.64-2.38,5.29-3.57,7.93c-7.27-6.04-13.86-12.8-20.57-19.44
		c2.14-4.12,4.31-8.24,6.05-12.55c2.26-5.57,5.44-10.72,7.7-16.28C38.35,430.1,40.21,426.5,42.09,422.93z"/>
</g>
<g>
	<path fill="#EA2029" d="M282.5,264.6c9.85-1,19.77-1.29,29.67-1.02c1.37,3.75,2.57,7.56,3.78,11.37c-3.26,0.16-6.51,0.35-9.76,0.4
		c-4.66,0.01-9.26-1.24-13.91-0.95c-3.02,0.95-4.95,3.78-7.23,5.82c1.95,3.81,3.99,7.57,6.2,11.24c-0.99,3.39-2.27,6.68-3.73,9.89
		c-4.13-2.75-9.04-4.8-12.05-8.89c-0.46-2.67,0.36-5.34,0.99-7.92C278.34,277.86,280.32,271.19,282.5,264.6z"/>
	<path fill="#EA2029" d="M411.67,280.8c2.73-0.4,5.41,0.66,8.02,1.36c8.95,2.88,18.03,5.33,26.95,8.29c0.2,1.52,0.4,3.04,0.57,4.58
		c-6.42-1.21-12.47-4.12-19-4.7c-1.97,1.38-3.14,3.54-4.43,5.5l-0.84,0.01c-2.87,0.05-5.73,0.21-8.59,0.37
		c-1.88,5.05-4.39,10.47-2.42,15.91c-3.03,4.89-6.13,9.76-9.89,14.14c-2.98-3.81-6.15-7.47-8.89-11.45
		c-1.13-1.74-2.6-3.89-1.33-5.96c2.97-6.08,7.62-11.12,11.2-16.83C405.76,288.2,407.82,283.67,411.67,280.8z"/>
	<path fill="#EA2029" d="M133.2,295.18c3.97-0.97,7.88-2.37,11.98-2.63c1.7-0.27,3.03,1,4,2.21c2.63,3.31,4.27,7.24,6.33,10.9
		c-3.2,0.91-6.39,1.8-9.58,2.73l-0.41-0.55c-1.26-1.69-2.54-3.37-3.82-5.04c-4.48,1.26-8.91,2.7-13.28,4.33
		c-0.22,1.85-0.45,3.71-0.68,5.57c-1.1,0.3-2.2,0.6-3.3,0.91c-0.67,8.98-1.48,17.95-1.61,26.96c-3.61-1.01-7.42-1.78-10.56-3.93
		c-1.64-0.91-1.53-2.96-1.62-4.57c0.05-5.36,0.9-10.67,1.03-16.03c0.35-4.64,0.18-9.41,1.49-13.91c0.43-1.85,2.51-2.25,4.01-2.88
		C122.44,297.58,127.9,296.67,133.2,295.18z"/>
	<path fill="#EA2029" d="M286.51,378.51c7.67-3.43,16.24-2.87,24.43-3.39c1.82,3.96,3.5,7.98,5.1,12.05
		c-4.52,0.52-9.05,0.86-13.57,1.23c-2.36-1.75-4.74-3.47-7.12-5.18c-2.25,1.71-4.51,3.4-6.65,5.23
		C288.02,385.12,287.23,381.82,286.51,378.51z"/>
	<path fill="#EA2029" d="M179.42,390.65c5.05-3.79,11.23-5.43,17.33-6.62c3.54,4.38,6.87,8.96,9.69,13.84
		c-4.86,1.51-10.12,2.29-14.46,5.09c-1.25,2.22-1.48,4.84-1.82,7.32C186.64,403.7,182.95,397.22,179.42,390.65z"/>
	<path fill="#EA2029" d="M409.71,428.75c4.64-2.56,9.95-3.46,15.04-4.73c3.55,4.39,6.87,8.97,9.69,13.87
		c-5.1,1.46-10.16,3.05-15.25,4.56c-0.05,2.63-0.08,5.26-0.1,7.89c-3.64-0.81-7.62-1.46-10.54-3.96c-1.46-3.98-1.18-8.34-0.95-12.49
		C407.9,432.09,407.77,429.65,409.71,428.75z"/>
</g>
<g>
	<path fill="#CA0A0C" d="M292.28,274.4c4.65-0.29,9.25,0.96,13.91,0.95c-2.23,0.07-4.45,0.18-6.66,0.31
		c-1.42,0.08-2.82,0.17-4.23,0.26c-1.18,4.68-2.41,9.35-3.62,14.02c-0.11,0.38-0.32,1.14-0.43,1.52c-2.21-3.67-4.25-7.43-6.2-11.24
		C287.33,278.18,289.26,275.35,292.28,274.4z"/>
	<path fill="#CA0A0C" d="M414.35,296.21c2.86-0.16,5.72-0.32,8.59-0.37c-3.09,5.48-6.89,10.51-10.55,15.61l-0.46,0.67
		C409.96,306.68,412.47,301.26,414.35,296.21z"/>
	<path fill="#CA0A0C" d="M128.42,307.13c4.37-1.63,8.8-3.07,13.28-4.33c1.28,1.67,2.56,3.35,3.82,5.04
		c-5.88,1.8-11.86,3.19-17.78,4.86C127.97,310.84,128.2,308.98,128.42,307.13z"/>
	<path fill="#CA0A0C" d="M295.35,383.22c2.38,1.71,4.76,3.43,7.12,5.18c-0.65,0.06-1.95,0.18-2.6,0.24
		c-3.65,0.29-7.27,0.84-10.88,1.42c-0.07-0.4-0.22-1.21-0.29-1.61C290.84,386.62,293.1,384.93,295.35,383.22z"/>
	<path fill="#CA0A0C" d="M46.17,445.17c4.88-1.97,10.15-4.36,15.5-2.73l-0.2,0.86c-2.34,5.74-4.88,11.45-8.09,16.76
		c-2.37-0.16-4.73-0.33-7.09-0.49C46.2,454.77,46.17,449.97,46.17,445.17z"/>
</g>
<g>
	<path fill="#440405" d="M325.38,274.01c2.5,6.62,4.91,13.29,7.54,19.86c-7.69,5.49-14.93,11.56-22.27,17.5
		c-0.64,0.48-1.28,0.97-1.92,1.46c-2.97,2.2-5.81,4.58-8.44,7.19c-3.29-1.61-6.33-3.66-9.43-5.6c-2.04-1.34-4.03-2.75-6.05-4.11
		c1.7-2.67,2.7-7.92,6.93-6.37c2.34,1.32,4.55,3.06,7.22,3.68c4.62-1.33,7.95-5.14,11.73-7.92c3.4-2.93,7.62-5.19,9.98-9.12
		c0.56-4.53-2.19-8.6-3.64-12.72c0.06-0.61,0.17-1.84,0.23-2.45C319.97,274.95,322.67,274.48,325.38,274.01z"/>
	<path fill="#440405" d="M447.29,295.83c2.9,0.7,5.79,1.43,8.68,2.19c-0.08,4.67,1.14,9.25,1.05,13.93c0,7.57-0.04,15.13-0.02,22.7
		c-7.72,2.04-15.01,5.35-22.62,7.73c-7.17,2.24-14.1,5.16-21.26,7.44c-4.32-6.39-9.17-12.39-13.61-18.69
		c0.97-1.46,1.95-2.91,2.94-4.36c3.5,4.07,6.11,8.99,10.34,12.37c2.71,0.75,5.49-0.56,8.08-1.29c8.86-3.24,17.74-6.4,26.63-9.52
		C447.72,317.5,447.92,306.65,447.29,295.83z"/>
	<path fill="#440405" d="M164.58,302.78c4.28,6.73,8.48,13.51,12.67,20.3c-7.56,7.83-13.58,17.03-21.45,24.56
		c-1.23-2.26-2.44-4.53-3.66-6.79c-0.09,3.99-0.14,7.98-0.13,11.98c-1.94,2.47-4.07,4.78-6.21,7.07
		c-5.32-2.08-10.59-4.28-15.95-6.26c-2.74-1.04-5.49-2.02-8.27-2.93l0.11-0.74c0.36-2.77,0.6-5.55,0.86-8.32
		c6.21,1.76,11.96,4.82,18.14,6.63c2.95,1.15,4.92-1.99,6.75-3.75c4.37-5.64,8.9-11.14,13.64-16.47c1.57-2.2,4.09-4.61,3.39-7.55
		c-1.31-3.97-4.24-7.08-6.36-10.6c-0.46-1.43-0.85-2.87-1.24-4.3C159.45,304.68,162.02,303.74,164.58,302.78z"/>
	<path fill="#440405" d="M317.34,387.43c2.74-0.43,5.49-0.84,8.24-1.26c1.11,2.39,2.25,4.76,3.42,7.11
		c-2.17,9.24-4.22,18.51-6.59,27.7c-8.49,5.42-14.85,13.5-23.32,18.96c-0.11-0.53-0.32-1.58-0.43-2.1c-0.59-3.07-1.13-6.14-1.74-9.2
		c7.74-3.77,13.37-10.42,19.95-15.76c2.36-2.16,5.16-4.14,6.45-7.16c-0.55-5.75-4.21-10.61-6.2-15.93
		C317.17,389.2,317.28,388.02,317.34,387.43z"/>
	<path fill="#440405" d="M215.48,394.34c0.95,1.43,1.85,2.89,2.76,4.36c-0.17,0.3-0.52,0.92-0.69,1.22
		c-4.26,4.68-8.27,9.6-11.62,14.97c-2.12,3.49-5.06,6.48-8.88,8.05c-1.53-2.76-3.05-5.52-4.57-8.28c-0.53-0.97-1.06-1.94-1.57-2.91
		c2.54-0.44,5.59-0.22,7.52-2.26c3.25-3.44,5.48-7.67,8.01-11.62C209.46,396.72,212.47,395.54,215.48,394.34z"/>
	<path fill="#440405" d="M443.25,434.23c0.87,1.21,1.75,2.41,2.63,3.62c-1.74,2.68-3.46,5.36-5.15,8.08
		c-4.56,1.02-9.1,2.11-13.67,3.1c2.48-3.7,4.95-7.41,7.38-11.14C437.39,436.71,440.33,435.49,443.25,434.23z"/>
	<path fill="#440405" d="M80.01,445.89c3.01,0.03,6.03,0.06,9.05,0.1c0.9,4.85,1.81,9.69,2.51,14.58c-2.91-0.04-5.82-0.1-8.73-0.09
		C81.78,455.64,80.87,450.77,80.01,445.89z"/>
	<path fill="#440405" d="M47.24,474.2c3.68,3.46,7.71,7.45,13.22,6.93c2.58,1.8,5.21,3.56,7.8,5.35c-4.59,1.96-8.85,4.58-13.19,7.03
		c-3.86-3.74-7.61-7.58-11.4-11.38C44.86,479.49,46.05,476.84,47.24,474.2z"/>
</g>
<g>
	<path fill="#971217" d="M306.19,275.35c3.25-0.05,6.5-0.24,9.76-0.4c0.33,0.97,0.69,1.94,1.08,2.91c1.45,4.12,4.2,8.19,3.64,12.72
		c-2.36,3.93-6.58,6.19-9.98,9.12c-3.78,2.78-7.11,6.59-11.73,7.92c-2.67-0.62-4.88-2.36-7.22-3.68c-1.41-0.86-2.81-1.74-4.22-2.59
		c1.46-3.21,2.74-6.5,3.73-9.89c0.11-0.38,0.32-1.14,0.43-1.52c2.77-0.58,5.65-0.91,8.26-2.1c2.25-3.77,2.04-8.56-0.41-12.18
		C301.74,275.53,303.96,275.42,306.19,275.35z"/>
	<path fill="#971217" d="M423.78,295.83c1.29-1.96,2.46-4.12,4.43-5.5c6.53,0.58,12.58,3.49,19,4.7l0.08,0.8
		c0.63,10.82,0.43,21.67,0.21,32.5c-8.89,3.12-17.77,6.28-26.63,9.52c-2.59,0.73-5.37,2.04-8.08,1.29
		c-4.23-3.38-6.84-8.3-10.34-12.37l-0.41-0.51c3.76-4.38,6.86-9.25,9.89-14.14l0.46-0.67c3.14,2.41,6.32,4.78,9.54,7.09
		c4.09-2.75,8.09-5.63,12.02-8.62c-1.45-4.61-2.89-9.23-4.23-13.88C427.73,295.95,425.75,295.86,423.78,295.83z"/>
	<path fill="#971217" d="M145.93,308.39c3.19-0.93,6.38-1.82,9.58-2.73c0.82,1.44,1.71,2.85,2.6,4.25c2.12,3.52,5.05,6.63,6.36,10.6
		c0.7,2.94-1.82,5.35-3.39,7.55c-4.74,5.33-9.27,10.83-13.64,16.47c-2.59,1.45-5.64,2.81-8.62,1.72
		c-5.41-1.66-10.44-4.42-15.99-5.68c0.13-9.01,0.94-17.98,1.61-26.96c1.1-0.31,2.2-0.61,3.3-0.91c0.28,2.89,0.56,5.78,0.84,8.66
		c4.4,1.3,8.79,2.62,13.21,3.87c2.77-3.71,5.5-7.46,8.18-11.24C148.63,312.12,147.3,310.24,145.93,308.39z"/>
	<path fill="#971217" d="M302.47,388.4c4.52-0.37,9.05-0.71,13.57-1.23c0.35,0.87,0.71,1.74,1.08,2.62
		c1.99,5.32,5.65,10.18,6.2,15.93c-1.29,3.02-4.09,5-6.45,7.16c-6.58,5.34-12.21,11.99-19.95,15.76
		c-1.52-7.23-3.08-14.44-4.51-21.68c3.85-0.49,7.71-0.86,11.58-1.19c1.46-4.97,2.81-9.97,4.08-14.98c-2.7-0.84-5.41-1.64-8.2-2.15
		C300.52,388.58,301.82,388.46,302.47,388.4z"/>
	<path fill="#971217" d="M61.67,442.44c5.95,1.48,12.05,2.33,18.18,2.6l0.16,0.85c0.86,4.88,1.77,9.75,2.83,14.59
		c-6.7,0.1-13.4,0.01-20.09-0.15c1.61-2.89,3.33-5.71,5.1-8.5c-2.14-2.84-4.36-5.61-6.38-8.53L61.67,442.44z"/>
</g>
<g>
	<path fill="#3B0507" d="M295.3,275.92c1.41-0.09,2.81-0.18,4.23-0.26c2.45,3.62,2.66,8.41,0.41,12.18
		c-2.61,1.19-5.49,1.52-8.26,2.1C292.89,285.27,294.12,280.6,295.3,275.92z"/>
</g>
<g>
	<path fill="#3A0507" d="M422.94,295.84l0.84-0.01c1.97,0.03,3.95,0.12,5.94,0.21c1.34,4.65,2.78,9.27,4.23,13.88
		c-3.93,2.99-7.93,5.87-12.02,8.62c-3.22-2.31-6.4-4.68-9.54-7.09C416.05,306.35,419.85,301.32,422.94,295.84z"/>
	<path fill="#3A0507" d="M127.74,312.7c5.92-1.67,11.9-3.06,17.78-4.86l0.41,0.55c1.37,1.85,2.7,3.73,4.04,5.6
		c-2.68,3.78-5.41,7.53-8.18,11.24c-4.42-1.25-8.81-2.57-13.21-3.87C128.3,318.48,128.02,315.59,127.74,312.7z"/>
	<path fill="#3A0507" d="M288.99,390.06c3.61-0.58,7.23-1.13,10.88-1.42c2.79,0.51,5.5,1.31,8.2,2.15
		c-1.27,5.01-2.62,10.01-4.08,14.98c-3.87,0.33-7.73,0.7-11.58,1.19C291.27,401.32,290.09,395.7,288.99,390.06z"/>
	<path fill="#3A0507" d="M61.47,443.3c2.02,2.92,4.24,5.69,6.38,8.53c-1.77,2.79-3.49,5.61-5.1,8.5c-3.31,0.01-6.61,0.15-9.91,0.25
		l0.54-0.52C56.59,454.75,59.13,449.04,61.47,443.3z"/>
</g>
<g>
	<path fill="#15260C" d="M213.08,332.48c7.5-12.11,15.19-24.1,22.77-36.16c0.22,4.5-0.04,9.01,0.38,13.5c1.69,10.93,0.13,22.02,1,33
		c1.47,9.72,0.53,19.59,0.7,29.39c-0.6-2.79-1.39-5.52-2.15-8.26c-6.01,11.5-11.17,23.43-17.54,34.75
		c-0.91-1.47-1.81-2.93-2.76-4.36l-0.4-0.58c0.54-5.91,0.25-11.84,0.01-17.75C214.88,361.49,214.73,346.92,213.08,332.48z"/>
	<path fill="#15260C" d="M353.07,332.56c6.2-12.16,12.42-24.28,19.01-36.23c-1.58,10.61-3.23,21.23-4.27,31.91
		c-4.2,1.89-4.53,6.8-4.86,10.79c-0.84,11.91-2.43,23.76-3.22,35.67c-0.3,4.7-1.37,9.3-2.81,13.77c-0.96-0.83-1.91-1.66-2.86-2.48
		C354.42,368.16,353.06,350.37,353.07,332.56z"/>
	<path fill="#15260C" d="M280.26,307.24c1.51,1.02,3.04,2.03,4.55,3.07c2.02,1.36,4.01,2.77,6.05,4.11
		c3.47,11.14,7.83,21.99,11.56,33.05c-2.13,6.48-4.08,13.03-5.57,19.69c-4.1,0.44-8.2,0.87-12.3,1.28
		c-1.3-6.96-2.67-13.93-4.84-20.69c-0.23,0.83-0.69,2.49-0.91,3.32c-2.57-5.41-4.85-10.96-7.54-16.3
		C274.22,325.58,277.52,316.5,280.26,307.24z"/>
	<path fill="#15260C" d="M308.73,312.83c0.64-0.49,1.28-0.98,1.92-1.46c4.88,7.77,10.25,15.21,15.55,22.69
		c-3.49,10.31-7.02,20.6-10.28,30.98c-3.59,0.55-7.2,0.95-10.82,1.31c3.08-11.32,7.09-22.35,10.89-33.43
		c0.81-2.76,1.96-5.85,0.69-8.65C314.74,320.01,311.55,316.51,308.73,312.83z"/>
	<path fill="#15260C" d="M386.63,320.82c2.32,3.05,4.71,6.06,7.06,9.1c-4.17,3.82-9.73,6.08-13.29,10.51
		c-1.83,8.11-1,16.47-2.23,24.65c-0.16,5.03-0.28,10.08-1.32,15.03c22.32-5.67,44.87-10.48,67.16-16.25
		c-6.25,16.86-12.95,33.56-19.25,50.41c-4.95,1.73-9.96,3.29-15.01,4.7c2.76-12.47,7.5-24.52,9.01-37.24
		c0.31-2.96,0.59-5.93,0.88-8.89c-9.69,1.25-19.03,4.17-28.56,6.23c-4.56,1.02-9.09,2.2-13.61,3.41
		c-1.48,10.45-1.73,21.02-2.67,31.52c-0.43,5.12-0.56,10.26-0.54,15.4c-2.81,3.06-5.62,6.13-8.47,9.16
		c-1.43-9.61,0.27-19.24,0.81-28.84c1.46-23.17,3.4-46.3,4.66-69.47c0.35-3.4,0.43-7.35,3.18-9.8c3.4-3.14,7.24-5.76,10.83-8.67
		C385.61,321.54,386.29,321.06,386.63,320.82z"/>
	<path fill="#15260C" d="M118.66,371.39c-0.82-7.05,1.74-13.83,2.92-20.68c2.78,0.91,5.53,1.89,8.27,2.93
		c0.13,1.93,0.08,3.9,0.55,5.8c6.98,8.76,14.55,17.07,21.6,25.78c0.02,2.14,0.06,4.29,0.13,6.43c0,3.4-0.13,6.79-0.16,10.19
		c-2.38,3.17-4.71,6.37-7.06,9.56c-4.94-5.27-9.29-11.1-14.77-15.85c0.34,11.44,4.12,22.43,4.62,33.87
		c-1.68-1.61-3.37-3.21-5.04-4.82c-1.03-1-2.05-2-3.09-2.99c-0.27-10.1-2.85-19.92-4.41-29.86
		C121.16,384.94,119.45,378.24,118.66,371.39z"/>
	<path fill="#15260C" d="M30.68,369.78c7.1-3.07,14.02-6.53,21.1-9.63c10.16,10.4,19.01,22,29.25,32.33
		c3.81,8.71,7.04,17.65,10.68,26.43c0.14,0.4,0.42,1.19,0.56,1.59c-0.76,5.29-2.52,10.39-5.04,15.1c-0.51-2.39-1.09-4.76-1.67-7.13
		c-1.45-0.17-2.9-0.34-4.35-0.5c-5.28-7.35-11.64-13.8-17.55-20.64C52.71,394.78,41.52,382.43,30.68,369.78z"/>
	<path fill="#15260C" d="M434.72,421.69c12.39,5.39,24.14,12.13,36.43,17.71c-10.07,2.47-20.24,4.53-30.42,6.53
		c1.69-2.72,3.41-5.4,5.15-8.08c-0.88-1.21-1.76-2.41-2.63-3.62C440.22,430.17,437.47,425.93,434.72,421.69z"/>
	<path fill="#15260C" d="M466.5,466.05c3.79-7.74,7.13-15.69,11.14-23.32c11.21,5.83,22.6,11.3,33.85,17.04
		c-9.73,1.94-19.62,2.88-29.43,4.29C476.88,464.78,471.72,465.73,466.5,466.05z"/>
	<path fill="#15260C" d="M453.06,492.93c9.05,6.22,17.86,12.77,26.85,19.07H443.7C447.48,505.98,450.02,499.32,453.06,492.93z"/>
</g>
<g>
	<path fill="#325E1D" d="M343.6,330.6c3.02-11.4,4.91-23.09,8.32-34.38c0.33,5.78-0.35,11.6,0.52,17.35
		c1.01,6.28,0.4,12.66,0.63,18.99c-0.01,17.81,1.35,35.6,0.99,53.43c0.68,16.66,0.96,33.34,1.8,50c-0.33-0.48-1-1.44-1.33-1.92
		c-7.06,7.41-13.69,15.24-21.33,22.08c-0.59-15.05-1.3-30.1-1.29-45.16c0.08-7.78-0.74-15.51-1.51-23.23
		c1.41-5.96,2.51-11.98,3.39-18.03C338.28,357.03,340.24,343.61,343.6,330.6z"/>
	<path fill="#325E1D" d="M152.14,340.85c1.22,2.26,2.43,4.53,3.66,6.79c6.27,11.25,12.47,22.53,18.65,33.83
		c1.67,3.05,3.31,6.12,4.97,9.18c3.53,6.57,7.22,13.05,10.74,19.63c0.19,0.37,0.56,1.1,0.75,1.47c0.51,0.97,1.04,1.94,1.57,2.91
		c-5.51,7.66-8.64,16.64-13.48,24.7c-9.51-15.58-17.21-32.21-26.87-47.71c-0.07-2.14-0.11-4.29-0.13-6.43
		c-0.01-10.8,0-21.59,0.01-32.39C152,348.83,152.05,344.84,152.14,340.85z"/>
	<path fill="#325E1D" d="M279.71,347.75c2.17,6.76,3.54,13.73,4.84,20.69c0.64,3.36,1.24,6.72,1.96,10.07
		c0.72,3.31,1.51,6.61,2.19,9.94c0.07,0.4,0.22,1.21,0.29,1.61c1.1,5.64,2.28,11.26,3.42,16.9c1.43,7.24,2.99,14.45,4.51,21.68
		c0.61,3.06,1.15,6.13,1.74,9.2c-3.86,7.5-4.69,16-6.75,24.08c-2.27,9.11-4.04,18.34-6.66,27.37c-3.07-8.85-4.21-18.18-6.24-27.29
		c-4.29-20.01-7.85-40.17-12.57-60.09c2.42-10.72,5.24-21.36,7.75-32.06c1.59-6.25,2.99-12.54,4.61-18.78
		C279.02,350.24,279.48,348.58,279.71,347.75z"/>
	<path fill="#325E1D" d="M218.24,398.7c6.37-11.32,11.53-23.25,17.54-34.75c0.76,2.74,1.55,5.47,2.15,8.26
		c1.38,12.64,3.61,25.15,5.73,37.69c-5.27,18.67-9.09,37.73-14.41,56.39c-2.71-9.54-3.64-19.43-5.41-29.15
		c-2.14-12.17-3.62-24.47-6.6-36.48l0.31-0.74C217.72,399.62,218.07,399,218.24,398.7z"/>
	<path fill="#325E1D" d="M72.74,370.19c4.97,3.29,8.73,7.98,13.01,12.06c5.08,4.92,9.82,10.2,15.14,14.85
		c4.43,3.37,8.17,7.52,12.15,11.37c4.38,4.54,8.96,8.87,13.59,13.14c1.04,0.99,2.06,1.99,3.09,2.99c-1.27,9.78-0.5,19.65-0.84,29.48
		c-12.3-11.81-24.42-23.83-37.17-35.17c-3.64-8.78-6.87-17.72-10.68-26.43C78.34,385.02,75.14,377.75,72.74,370.19z"/>
	<path fill="#325E1D" d="M418.76,381.73c-1.51,12.72-6.25,24.77-9.01,37.24c-3.28,11.75-6.55,23.51-9.52,35.35
		c6.71-0.8,13.26-2.43,19.85-3.87c2.33-0.43,4.66-0.92,6.98-1.42c4.57-0.99,9.11-2.08,13.67-3.1c10.18-2,20.35-4.06,30.42-6.53
		c2.99-0.58,5.98-1.15,9-1.63c-0.85,1.64-1.68,3.3-2.51,4.96c-4.01,7.63-7.35,15.58-11.14,23.32c-4.5,8.95-9.01,17.89-13.44,26.88
		c-3.04,6.39-5.58,13.05-9.36,19.07h-18.71c10.4-22.12,21.33-43.99,31.82-66.07c-26.67,5.23-53.14,11.43-79.78,16.81
		c3.18-12.03,6.4-24.06,9.77-36.05c1.23-4.29,2.02-8.7,2.47-13.14C399.07,402.91,409.02,392.42,418.76,381.73z"/>
	<path fill="#325E1D" d="M52.84,460.58c3.3-0.1,6.6-0.24,9.91-0.25c6.69,0.16,13.39,0.25,20.09,0.15c2.91-0.01,5.82,0.05,8.73,0.09
		h0.82c-3.27,0.05-6.53,0.22-9.8,0.38c0.46,2.53,0.9,5.05,1.34,7.58c-13.33,0.45-26.67-0.17-40,0.39
		c-3.52-2.55-7.09-5.03-10.75-7.36c0.27-0.27,0.83-0.83,1.11-1.11C40.47,460.5,46.66,460.78,52.84,460.58z"/>
</g>
<g>
	<path fill="#234114" d="M300.29,320.02c2.63-2.61,5.47-4.99,8.44-7.19c2.82,3.68,6.01,7.18,7.95,11.44
		c1.27,2.8,0.12,5.89-0.69,8.65c-3.8,11.08-7.81,22.11-10.89,33.43c-2.75,0.27-5.5,0.53-8.25,0.81c1.49-6.66,3.44-13.21,5.57-19.69
		c1.04-4.7,4.62-9.45,2.52-14.32C303.49,328.74,302.01,324.33,300.29,320.02z"/>
	<path fill="#234114" d="M367.81,328.24c5.82-2.15,11.68-4.19,17.46-6.46c-3.59,2.91-7.43,5.53-10.83,8.67
		c-2.75,2.45-2.83,6.4-3.18,9.8c-1.26,23.17-3.2,46.3-4.66,69.47c-0.54,9.6-2.24,19.23-0.81,28.84c-3.24,3.48-6.47,6.97-9.72,10.44
		c-0.07-4.34-0.12-8.68-0.21-13.01c-0.84-16.66-1.12-33.34-1.8-50c0.95,0.82,1.9,1.65,2.86,2.48c1.44-4.47,2.51-9.07,2.81-13.77
		c0.79-11.91,2.38-23.76,3.22-35.67C363.28,335.04,363.61,330.13,367.81,328.24z"/>
	<path fill="#234114" d="M119.43,349.28c0.75,0.24,1.5,0.46,2.26,0.69l-0.11,0.74c-1.18,6.85-3.74,13.63-2.92,20.68
		c0.79,6.85,2.5,13.55,3.56,20.36c1.56,9.94,4.14,19.76,4.41,29.86c-4.63-4.27-9.21-8.6-13.59-13.14
		c-1.58-11.43-3.55-22.84-4.8-34.31C111.4,365.63,116.06,357.73,119.43,349.28z"/>
</g>
<g>
	<path fill="#1E3711" d="M188.06,372.04c8.5-13.08,16.58-26.44,25.02-39.56c1.65,14.44,1.8,29.01,2.01,43.53
		c0.24,5.91,0.53,11.84-0.01,17.75c-5.07-6.79-10.07-13.63-15.12-20.43c-5.1,1.68-10.25,3.23-15.35,4.92
		C185.68,376.13,186.84,374.07,188.06,372.04z"/>
	<path fill="#1E3711" d="M271.26,334.77c2.69,5.34,4.97,10.89,7.54,16.3c-1.62,6.24-3.02,12.53-4.61,18.78
		c-1.68,0.1-3.35,0.21-5.02,0.33c-3.18,15.19-6.66,30.33-9.83,45.53c0.97,0.9,1.95,1.81,2.92,2.72
		c-3.38,13.43-6.15,27.04-10.23,40.29c-3.06-14.61-5.06-29.41-7.54-44.12C253.66,388.08,262.28,361.36,271.26,334.77z"/>
	<path fill="#1E3711" d="M0.33,383.82c10.13-4.66,20.28-9.25,30.35-14.04c10.84,12.65,22.03,25,32.98,37.55
		c5.91,6.84,12.27,13.29,17.55,20.64c-6.71-0.71-13.39-1.65-20.06-2.65c-3.23-9.74-5.97-19.62-9.34-29.3
		C34.68,391.82,17.34,388.45,0.33,383.82z"/>
	<path fill="#1E3711" d="M325.3,385.57c3.25-5.05,5.58-10.6,8.49-15.84c-0.88,6.05-1.98,12.07-3.39,18.03
		c-0.45,1.84-0.94,3.68-1.4,5.52c-1.17-2.35-2.31-4.72-3.42-7.11L325.3,385.57z"/>
	<path fill="#1E3711" d="M391.08,379.07c9.53-2.06,18.87-4.98,28.56-6.23c-0.29,2.96-0.57,5.93-0.88,8.89
		c-9.74,10.69-19.69,21.18-29.49,31.82c-4.97,5.31-10,10.57-15.01,15.85c-0.02-5.14,0.11-10.28,0.54-15.4
		c0.94-10.5,1.19-21.07,2.67-31.52C381.99,381.27,386.52,380.09,391.08,379.07z"/>
	<path fill="#1E3711" d="M130.14,395.55c5.48,4.75,9.83,10.58,14.77,15.85c2.35-3.19,4.68-6.39,7.06-9.56
		c-0.03,14.76,0.17,29.52-0.07,44.28c-5.88-5.4-11.4-11.17-17.14-16.7C134.26,417.98,130.48,406.99,130.14,395.55z"/>
	<path fill="#1E3711" d="M205.93,414.89c3.35-5.37,7.36-10.29,11.62-14.97l-0.31,0.74c-4.73,10.44-9.86,20.7-15.24,30.82
		c-1.71-2.82-3.37-5.66-4.95-8.54C200.87,421.37,203.81,418.38,205.93,414.89z"/>
	<path fill="#1E3711" d="M92.27,420.5c5.15,13.42,10.63,26.72,15.68,40.18c-5.18-0.01-10.37-0.09-15.56-0.11h-0.82
		c-0.7-4.89-1.61-9.73-2.51-14.58c-0.64-3.46-1.15-6.94-1.83-10.39C89.75,430.89,91.51,425.79,92.27,420.5z"/>
	<path fill="#1E3711" d="M299.09,439.94c8.47-5.46,14.83-13.54,23.32-18.96c-2.58,12.11-5.5,24.14-8.29,36.2
		c-1.94,8.19-3.56,16.48-6.11,24.52C304.45,467.91,302.17,453.84,299.09,439.94z"/>
	<path fill="#1E3711" d="M83.77,497.89c6.91,4.4,13.45,9.34,20.1,14.11H88.36C86.45,507.43,84.95,502.7,83.77,497.89z"/>
</g>
<g>
	<path fill="#790709" d="M269.17,370.18c1.67-0.12,3.34-0.23,5.02-0.33c-2.51,10.7-5.33,21.34-7.75,32.06
		c-1.33,5.52-2.86,10.99-4.18,16.52c-0.97-0.91-1.95-1.82-2.92-2.72C262.51,400.51,265.99,385.37,269.17,370.18z"/>
</g>
<g>
	<path fill="#488329" d="M330.4,387.76c0.77,7.72,1.59,15.45,1.51,23.23c-0.01,15.06,0.7,30.11,1.29,45.16
		c7.64-6.84,14.27-14.67,21.33-22.08c0.33,0.48,1,1.44,1.33,1.92c0.09,4.33,0.14,8.67,0.21,13.01c3.25-3.47,6.48-6.96,9.72-10.44
		c2.85-3.03,5.66-6.1,8.47-9.16c5.01-5.28,10.04-10.54,15.01-15.85c-0.45,4.44-1.24,8.85-2.47,13.14
		c-3.37,11.99-6.59,24.02-9.77,36.05c26.64-5.38,53.11-11.58,79.78-16.81c-10.49,22.08-21.42,43.95-31.82,66.07H103.87
		c-6.65-4.77-13.19-9.71-20.1-14.11c-4.91-4.15-10.23-7.76-15.51-11.41c-2.59-1.79-5.22-3.55-7.8-5.35
		c-5.47-4.13-11-8.17-16.53-12.21c13.33-0.56,26.67,0.06,40-0.39c-0.44-2.53-0.88-5.05-1.34-7.58c3.27-0.16,6.53-0.33,9.8-0.38
		c5.19,0.02,10.38,0.1,15.56,0.11c-5.05-13.46-10.53-26.76-15.68-40.18c-0.14-0.4-0.42-1.19-0.56-1.59
		c12.75,11.34,24.87,23.36,37.17,35.17c0.34-9.83-0.43-19.7,0.84-29.48c1.67,1.61,3.36,3.21,5.04,4.82
		c5.74,5.53,11.26,11.3,17.14,16.7c0.24-14.76,0.04-29.52,0.07-44.28c0.03-3.4,0.16-6.79,0.16-10.19
		c9.66,15.5,17.36,32.13,26.87,47.71c4.84-8.06,7.97-17.04,13.48-24.7c1.52,2.76,3.04,5.52,4.57,8.28c1.58,2.88,3.24,5.72,4.95,8.54
		c5.38-10.12,10.51-20.38,15.24-30.82c2.98,12.01,4.46,24.31,6.6,36.48c1.77,9.72,2.7,19.61,5.41,29.15
		c5.32-18.66,9.14-37.72,14.41-56.39c0.27,1.56,0.55,3.13,0.83,4.7c2.48,14.71,4.48,29.51,7.54,44.12
		c4.08-13.25,6.85-26.86,10.23-40.29c1.32-5.53,2.85-11,4.18-16.52c4.72,19.92,8.28,40.08,12.57,60.09
		c2.03,9.11,3.17,18.44,6.24,27.29c2.62-9.03,4.39-18.26,6.66-27.37c2.06-8.08,2.89-16.58,6.75-24.08c0.11,0.52,0.32,1.57,0.43,2.1
		c3.08,13.9,5.36,27.97,8.92,41.76c2.55-8.04,4.17-16.33,6.11-24.52c2.79-12.06,5.71-24.09,8.29-36.2
		c2.37-9.19,4.42-18.46,6.59-27.7C329.46,391.44,329.95,389.6,330.4,387.76z"/>
</g>
<g>
	<path fill="#961217" d="M191.98,402.96c4.34-2.8,9.6-3.58,14.46-5.09c-2.53,3.95-4.76,8.18-8.01,11.62
		c-1.93,2.04-4.98,1.82-7.52,2.26c-0.19-0.37-0.56-1.1-0.75-1.47C190.5,407.8,190.73,405.18,191.98,402.96z"/>
	<path fill="#961217" d="M419.19,442.45c5.09-1.51,10.15-3.1,15.25-4.56c-2.43,3.73-4.9,7.44-7.38,11.14
		c-2.32,0.5-4.65,0.99-6.98,1.42l-0.99-0.11C419.11,447.71,419.14,445.08,419.19,442.45z"/>
</g>
<g>
	<path fill="#EA2028" d="M47.15,433.06c10.44,0.51,20.8,1.98,31.09,3.73c0.56,2.74,1.11,5.49,1.61,8.25
		c-6.13-0.27-12.23-1.12-18.18-2.6c-5.35-1.63-10.62,0.76-15.5,2.73c0,4.8,0.03,9.6,0.12,14.4c2.36,0.16,4.72,0.33,7.09,0.49
		l-0.54,0.52c-6.18,0.2-12.37-0.08-18.55-0.13C38.37,451.23,42.33,441.94,47.15,433.06z"/>
</g>
</svg>
