<?xml version="1.0" encoding="utf-8"?>
<!-- Generator: Adobe Illustrator 16.0.4, SVG Export Plug-In . SVG Version: 6.00 Build 0)  -->
<!DOCTYPE svg PUBLIC "-//W3C//DTD SVG 1.1//EN" "http://www.w3.org/Graphics/SVG/1.1/DTD/svg11.dtd">
<svg version="1.1" id="Layer_1" xmlns="http://www.w3.org/2000/svg" xmlns:xlink="http://www.w3.org/1999/xlink" x="0px" y="0px"
	 width="512px" height="512px" viewBox="0 0 512 512" enable-background="new 0 0 512 512" xml:space="preserve">
<g>
	<path fill="#15260C" d="M209.18,185.61c1.69,2.75,2.49,5.88,3.28,8.96c7.63,24.36,15.33,48.69,22.92,73.05
		c0.77,3.19,3.16,6.42,2.04,9.76c-6.53,16.99-13.36,33.87-20,50.82c-5.37,1.9-9.31,6.14-13.84,9.38c-4.1,2.91-7.79,6.51-12.48,8.5
		c1.16-5.38,3.75-10.28,5.55-15.45c3.89-10.65,8.66-20.97,12.32-31.7c6.73-1.84,13.7-2.64,20.35-4.76
		c-4.62-3.28-9.66-5.91-14.38-9.05c-1.16-7.02-4.24-13.49-6.03-20.34C209.24,238.39,208.7,211.99,209.18,185.61z"/>
	<path fill="#15260C" d="M69.63,240.17c16.19,2.1,32.37,4.41,48.52,6.8c2.89,3.62,5.65,7.34,8.44,11.04
		c-1.75,0.37-3.51,0.89-5.31,0.7c-9.48-1.15-18.85-3.32-28.42-3.6c-4.05-2.17-7.84-4.76-11.68-7.27
		C77.24,245.42,73.2,243.12,69.63,240.17z"/>
	<path fill="#15260C" d="M439.86,277.27c4.73,0.83,9.21,2.62,13.77,4.1c10.31,3.63,20.88,6.42,31.21,9.99c0,0.33,0,0.98,0,1.31
		c-13.32,5.42-26.48,11.27-39.92,16.39c2.6-3.45,5.43-6.72,8.08-10.13c-3.89-7.12-8.73-13.66-12.6-20.78L439.86,277.27z"/>
	<path fill="#15260C" d="M336.88,324.35c6.61-3.52,12.51-8.27,19.22-11.66c-1.11,4.65-3.09,9.01-4.52,13.56
		C346.67,325.69,341.76,325.15,336.88,324.35z"/>
	<path fill="#15260C" d="M389,357c1.8-3.29,2.9-7.18,5.62-9.79c0.18,0.45,0.55,1.36,0.73,1.81c-0.52,1.63-1.1,3.27-1.24,5
		c-0.5,10.97,0.97,21.91,0.82,32.88c-6.99,0.47-13.99,1.65-21,0.83c0.87-4.73,4.03-8.49,6.09-12.72C383.01,369,386.01,363,389,357z"
		/>
	<path fill="#15260C" d="M441.74,420c0.21-0.29,0.63-0.88,0.84-1.18c2.52,0.55,5.05,1.11,7.6,1.56c-1.52,2.85-3.13,5.69-5.28,8.13
		C443.84,425.67,442.7,422.87,441.74,420z"/>
</g>
<g>
	<path fill="#15270C" d="M288.19,193.64c1.31,2.92,1.42,6.19,1.88,9.32c2.32,16.51,5.11,32.96,7.3,49.5
		c-2.19,0.68-4.28,1.64-6.37,2.55c-0.09,10.01-0.06,20.02-0.01,30.03c6.27,2.59,12.87,4.29,19.24,6.62
		c-2.98,9.12-4.1,18.67-6.65,27.9c-1.27,9.23-2.89,18.42-3.73,27.71c-4.08,24.52-7.13,49.2-10.8,73.79
		c-2.41,15.36-3.95,30.87-6.96,46.13c-2.82-0.93-5.57-2.09-8.43-2.88c7.14-49.14,14.08-98.31,21.11-147.47
		c0.63-6.37,2.45-12.54,3.17-18.89c-2.38,2.41-4.11,5.32-5.81,8.22c-2.64,4.46-6.27,8.67-6.79,14.04
		c-1.32,11.2-3.02,22.35-4.3,33.55c-0.46,0.34-1.39,1.03-1.85,1.37c-7.59,3.39-14.2,8.5-21.24,12.84c-1.55,0.91-3.27,1.46-4.97,2.04
		c0.65-1.93,1.34-3.87,2.43-5.59c8.49-13.23,16.64-26.69,25.11-39.93c1.35-2.2,2.82-4.62,2.34-7.32c-1.16-9.07-3.01-18.04-4-27.14
		c0.87-0.89,1.93-1.76,2.12-3.07c1.55-5.34,0.59-10.96,1.58-16.38C284.28,244.92,286.52,219.31,288.19,193.64z"/>
	<path fill="#15270C" d="M135.45,269.6c3.59,4.38,6.7,9.13,10.52,13.33c1.08-0.38,2.16-0.75,3.24-1.12c2.7-0.9,5.39-1.84,8.07-2.79
		c0.93,4.07,0.77,8.27,1.02,12.41c-1.85,6.19-4.41,12.12-6.72,18.14c-7.88,20.27-15.88,40.5-23.75,60.77
		c-2.6-12.42-1.22-25.19-2.34-37.75c-0.7-7.81-0.25-15.66-0.82-23.47c-0.28-5.62-1.18-11.3-0.32-16.91
		c1.42-5.13,4.5-9.58,6.96-14.24C132.84,275.25,134.17,272.43,135.45,269.6z"/>
	<g>
		<path fill="#15270C" d="M404.32,328.96c4.96,1.9,9.87,3.93,14.82,5.88c-3.22,6.53-6.82,12.9-9.66,19.6
			c-3.15,7.98,0.15,16.3-0.41,24.5c7.39-0.03,14.85,0.6,22.18-0.62c7.08-0.96,14.27,0.37,21.34-0.76c4.75-0.86,9.6-0.56,14.41-0.52
			c6.14,0.22,12.16-1.69,18.32-1c-3.18,1.95-6.42,3.78-9.67,5.59c-19.26,9.89-38.86,19.13-57.98,29.28
			c-4.54,0.1-9.08,0.28-13.62,0.4c0.3-8.67-0.93-17.27-1.53-25.9c-0.69-8.33-1.21-16.67-2.06-24.99c-1.21-8.9,1.77-17.58,2.76-26.36
			C403.55,332.35,403.93,330.65,404.32,328.96z M452.4,384.44c-7.56,1.22-15.24-0.06-22.8,1.12c-6.35,0.97-12.8-0.13-19.14,0.9
			c-1.07,4.16,0.47,8.33,0.5,12.51c0.22,3.23-0.18,6.71,1.45,9.66c1.07,0.97,2.46-0.39,3.59-0.63
			c12.67-6.34,25.32-12.71,38.01-18.99c2.27-1.11,4.38-2.51,6.32-4.13C457.93,383.39,455.02,384.22,452.4,384.44z"/>
	</g>
	<path fill="#15270C" d="M369.57,399.78c0.95,0.24,2.09-0.04,2.75,0.9c2.63,2.74,6.09,5.95,5.48,10.14
		c-1.49,12.75-3.76,25.42-4.85,38.22c-3.06,1.81-6.06,3.7-9.16,5.42c-0.28-1.72-0.6-3.44-0.48-5.18
		C365.24,432.77,368.35,416.37,369.57,399.78z"/>
	<path fill="#15270C" d="M410.2,480.15c-0.65-3.46-0.95-7-0.41-10.49c3.16,1.91,6.03,4.31,9.38,5.9c3.28-1.1,5.67-4,8.48-5.96
		c6.35,1.05,12.7,2.31,18.81,4.37C434.46,476.49,422.3,478.2,410.2,480.15z"/>
</g>
<g>
	<path fill="#F3D407" d="M143.33,201.87c1.62,0.2,3.26,0.39,4.81,0.97c14.5,4.82,29.41,8.33,43.83,13.4c0.08,4.6,0.04,9.2-0.01,13.8
		c-2.66-0.81-5.36-1.49-7.96-2.45c-0.23-0.15-0.71-0.46-0.94-0.61c-0.73-1.81-0.92-4.41-3.24-4.87c-8.38-2.83-17.03-4.84-25.42-7.67
		c-1.99-0.49-4.04-1.46-6.12-1.05c-2.89,1.74-4.55,4.84-6.42,7.54c-3.95,6.29-8.64,12.09-12.58,18.39
		c-0.81,1.55-2.31,3.49-0.93,5.18c3.06,4.68,6.66,9.03,10.69,12.91c-0.24,0.35-0.71,1.06-0.95,1.41c-0.93,1.43-1.83,2.88-2.75,4.33
		c4.41,6.38,9.69,12.12,13.87,18.66c-1.08,0.37-2.16,0.74-3.24,1.12c-3.82-4.2-6.93-8.95-10.52-13.33
		c-2.89-3.92-5.83-7.79-8.86-11.59c-2.79-3.7-5.55-7.42-8.44-11.04c-1-1.44-2.76-2.81-2.16-4.78c2.42-4.48,5.84-8.32,8.62-12.58
		C130.66,220.23,137.45,211.36,143.33,201.87z"/>
	<path fill="#F3D407" d="M297.37,252.46c7.62-2.04,15.01-4.86,22.52-7.28c5.26,7.08,10.49,14.19,15.53,21.43
		c-3.03,1.07-6.05,2.14-9.05,3.26c-1.89-4.27-4.69-8.03-7.68-11.56c-0.96-1.03-2.06-2.43-3.66-2.05
		c-5.16,0.81-10.09,2.77-14.76,5.07c-0.73,5.75-0.72,11.58-0.02,17.34c3.24,1.95,6.91,2.87,10.6,3.57l0.07,0.91
		c0.15,2.92,0.1,5.84,0.11,8.77l-0.8-0.26c-6.37-2.33-12.97-4.03-19.24-6.62c-0.05-10.01-0.08-20.02,0.01-30.03
		C293.09,254.1,295.18,253.14,297.37,252.46z"/>
	<path fill="#F3D407" d="M381.4,269.36c15.15-3.74,30.17-8.07,45.41-11.44c5.17,5.66,8.42,13.12,13.05,19.35l0.54,0.88
		c-1.88,2.24-4.89,2.59-7.56,3.25c-0.46,0.11-1.37,0.33-1.83,0.44c-2.58-4.52-4.6-10.01-9.12-12.92c-6.31,0.69-12.31,3.02-18.51,4.3
		c-4.16,1.13-8.55,1.68-12.42,3.67c-1.86,0.96-1.94,3.28-2.12,5.1c-0.49,8.7-1.26,17.38-1.67,26.08c-0.1,1.52,0.23,3.27,1.65,4.12
		c2.94,1.86,6.33,2.84,9.53,4.18c-0.12,1.19-0.22,2.39-0.29,3.59c-0.12,2.08-0.19,4.15-0.26,6.24c-4.48-1.74-8.93-3.53-13.36-5.4
		c-2.53-0.98-5.01-2.06-7.49-3.15c0.06-2.03,0.13-4.08,0.61-6.06c1-4.67-0.11-9.5,0.86-14.18c1.18-4.87-0.02-9.95,1.16-14.82
		c0.82-4.06,0.14-8.22,0.53-12.32C380.43,270.04,381.08,269.59,381.4,269.36z"/>
	<path fill="#F3D407" d="M62.18,306.94c10.59,1.8,21.31,2.74,31.94,4.21c0.16,2.95,0.16,5.91,0.1,8.87
		c-8.99-0.83-17.88-2.85-26.93-2.9c-3.48,4.98-5.21,10.85-7.97,16.21c-1.53,3.21-3.52,6.27-4.31,9.77
		c-0.58,1.68,0.79,2.99,1.74,4.18c3.26,3.63,6.83,6.97,10.68,9.97l0.51,0.43c-1.71,2.66-3.12,5.5-4.26,8.44
		c-0.97-0.96-1.94-1.92-2.99-2.79c-6.49-4.82-11.63-11.13-17.54-16.61c3.91-7.16,6.69-14.85,10.52-22.05
		C56.75,318.87,58.69,312.53,62.18,306.94z"/>
	<path fill="#F3D407" d="M326.18,322.93c3.5,0.89,7.11,1.05,10.7,1.42c4.88,0.8,9.79,1.34,14.7,1.9c5.68,0.88,11.39,1.61,17.12,1.95
		c1.98,2.08,1.7,5.46,2.54,8.11c0.59,3.26,1.16,6.53,1.82,9.78c-1.97-0.13-3.94-0.27-5.9-0.41c-1.3-0.2-2.58-0.44-3.86-0.62
		c-0.71-2.53-0.69-5.75-2.99-7.44c-3.4-1.72-7.33-1.7-11.02-2.21c-5.11-0.42-10.13-1.71-15.27-1.7c-2-0.09-3.2,1.77-4.13,3.25
		c-2.94,4.98-4.8,10.49-7.43,15.63c-1.11,2.94-4.35,6.64-1.75,9.61c3.29,3.9,6.97,7.54,11.26,10.34c-0.16,0.34-0.49,1.03-0.65,1.38
		c-1.27,2.75-2.48,5.54-3.73,8.3c-6.75-6.46-13.85-12.58-20.35-19.3c4.02-9.42,8.94-18.43,12.8-27.93
		C322.04,330.95,323.93,326.85,326.18,322.93z"/>
	<path fill="#F3D407" d="M216.85,360c9.08-0.82,18.14-2.01,27.25-2.54c3.55,6.63,6.09,13.73,9.26,20.53
		c-2.82,0.6-5.68,0.95-8.55,1.17l-0.82,0.08c-1.29-4.22-2.73-8.44-5.23-12.11c-7.48-0.33-14.85,1.41-22.32,1.52
		C216.6,365.77,216.71,362.88,216.85,360z"/>
	<path fill="#F3D407" d="M197.28,362.16c3.74-0.52,7.49-1,11.25-1.32c-2.95,5.65-7.91,9.98-11.84,14.96
		c-0.62-0.89-1.23-1.77-1.85-2.63C195.48,369.46,196.33,365.79,197.28,362.16z"/>
	<path fill="#F3D407" d="M78.17,391.08c2.54-0.84,5.1-1.64,7.65-2.46c2.42,2.15,4.9,4.24,7.28,6.44l-0.01,0.86
		c-5.55,1.53-11.65,2.4-16.42,5.78c-1.4,4.26-0.86,8.9-0.74,13.32c-0.24,5.79,6.96,5.86,11.01,7.13l0.04,0.99
		c0.26,2.77-0.24,5.51-0.66,8.24c-3.65-0.9-7.17-2.22-10.8-3.21c-1.67-2.23-3.61-4.24-5.24-6.49c-1.18-1.72-2.24-3.52-3.45-5.22
		c0.35-7.13,0.09-14.26,0.16-21.39C70.59,393.4,74.44,392.4,78.17,391.08z"/>
	<path fill="#F3D407" d="M417.67,410.91c7.23,0.85,14.75-2.92,21.74,0.24c-5.44,3.28-11.11,6.17-16.38,9.72
		c-6.39,3.19-12.49,6.93-18.75,10.37c0.29-4.03,1.13-8.04,3.15-11.58c-2.07,0.63-5.07,0.3-6.01,2.72c-1.82,3.72-2.69,7.88-2.6,12.02
		c-3.49,2.18-7.16,4.05-10.83,5.91c1.68-9.65,5.62-18.76,7.19-28.42c2.94-0.32,5.91-0.49,8.87-0.58
		C408.59,411.19,413.13,411.01,417.67,410.91z"/>
	<path fill="#F3D407" d="M433.83,430.85c2.56-3.67,5.19-7.29,7.91-10.85c0.96,2.87,2.1,5.67,3.16,8.51c0.29,0.79,0.59,1.59,0.89,2.4
		c-3.04-0.11-6.08-0.07-9.11-0.04C435.97,430.86,434.54,430.86,433.83,430.85z"/>
</g>
<g>
	<path fill="#F9F026" d="M148.28,213.39c2.08-0.41,4.13,0.56,6.12,1.05c8.39,2.83,17.04,4.84,25.42,7.67
		c2.32,0.46,2.51,3.06,3.24,4.87c-6.48-1.2-12.62-3.63-19.05-5.01c-2.24,2.58-4.4,5.23-6.29,8.08c-1.32-1.23-2.63-2.47-3.93-3.73
		c-3.81,1.53-7.62,3.18-10.99,5.57c-1.43,0.8-0.93,2.73-0.98,4.07c0.44,4.05,0.58,8.72,3.9,11.61c-2.1,3.36-4.32,6.65-6.68,9.84
		c-4.03-3.88-7.63-8.23-10.69-12.91c-1.38-1.69,0.12-3.63,0.93-5.18c3.94-6.3,8.63-12.1,12.58-18.39
		C143.73,218.23,145.39,215.13,148.28,213.39z"/>
	<path fill="#F9F026" d="M403.38,273.22c6.2-1.28,12.2-3.61,18.51-4.3c4.52,2.91,6.54,8.4,9.12,12.92
		c-4.36,1.07-8.63,2.46-13.04,3.27l-0.63,0.11c-1.12-1.41-2.21-2.84-3.37-4.21c-4.57,1.28-9.19,2.51-13.54,4.43
		c-1.58,0.44-1.39,2.27-1.54,3.54c-0.17,2.56-0.07,5.12,0.22,7.67c0.21,6.58,0.18,13.18-0.76,19.72c-3.2-1.34-6.59-2.32-9.53-4.18
		c-1.42-0.85-1.75-2.6-1.65-4.12c0.41-8.7,1.18-17.38,1.67-26.08c0.18-1.82,0.26-4.14,2.12-5.1
		C394.83,274.9,399.22,274.35,403.38,273.22z"/>
	<path fill="#F9F026" d="M67.29,317.12c9.05,0.05,17.94,2.07,26.93,2.9c-0.05,2.91-0.06,5.82-0.1,8.74c-3.1-0.58-6.26-0.8-9.41-0.71
		c-0.44-0.41-1.32-1.23-1.76-1.65c-0.89-0.4-1.72-1.36-2.78-1.07c-3.59,0.66-7.13,1.78-10.37,3.47c-1.69,0.66-1.43,2.7-1.67,4.17
		c-0.14,3.1-0.29,6.3,0.56,9.32c0.98,1.33,2.91,1.37,4.31,2.08c-0.88,4.66-3.21,8.83-5.57,12.88c-3.85-3-7.42-6.34-10.68-9.97
		c-0.95-1.19-2.32-2.5-1.74-4.18c0.79-3.5,2.78-6.56,4.31-9.77C62.08,327.97,63.81,322.1,67.29,317.12z"/>
	<path fill="#F9F026" d="M329.89,336.96c0.93-1.48,2.13-3.34,4.13-3.25c5.14-0.01,10.16,1.28,15.27,1.7
		c3.69,0.51,7.62,0.49,11.02,2.21c2.3,1.69,2.28,4.91,2.99,7.44c-5.18-0.37-10.32-1.06-15.47-1.62c-3.07-0.67-3.16,3.33-4.31,5.22
		c-0.52,1.27-1.07,2.53-1.67,3.77c-3.64,6.53-6.48,13.45-9.88,20.11c-4.29-2.8-7.97-6.44-11.26-10.34c-2.6-2.97,0.64-6.67,1.75-9.61
		C325.09,347.45,326.95,341.94,329.89,336.96z"/>
	<path fill="#F9F026" d="M76.67,401.7c4.77-3.38,10.87-4.25,16.42-5.78c-0.03,5.63-0.04,11.25-0.16,16.87
		c-2.02,0.57-3.92,1.46-5.85,2.26c-0.15,2.36-0.23,4.73-0.14,7.1c-4.05-1.27-11.25-1.34-11.01-7.13
		C75.81,410.6,75.27,405.96,76.67,401.7z"/>
</g>
<g>
	<path fill="#DFB315" d="M157.72,230.05c1.89-2.85,4.05-5.5,6.29-8.08c6.43,1.38,12.57,3.81,19.05,5.01
		c0.23,0.15,0.71,0.46,0.94,0.61c-1.09,10.03,0.24,20.17-0.34,30.22c-0.22,2.91-3.78,3.41-5.83,4.67c-2.05-1.36-4.27-2.41-6.5-3.41
		c-1.04,2.34-2.13,4.66-3.02,7.06c-6.56,0.91-12.38,4.72-18.91,5.46c-4.56-3.48-7.05-8.95-11.31-12.77
		c0.24-0.35,0.71-1.06,0.95-1.41c2.36-3.19,4.58-6.48,6.68-9.84c0.22-0.3,0.64-0.92,0.85-1.23c3.49,1.54,7.25,2.22,11.05,2.2
		c2.28-4.02,4.38-8.15,6.13-12.44c-1.7-2.3-3.91-4.12-6.41-5.47L157.72,230.05z"/>
	<path fill="#DFB315" d="M431.01,281.84c0.46-0.11,1.37-0.33,1.83-0.44c1.11,5.99,6.29,10.02,8.04,15.71
		c0.15,3.06-2.67,5.17-4.32,7.44c-6.04,6.65-11.07,14.23-17.78,20.24c-6.44-1.8-12.29-5.17-18.71-7.05
		c-0.67,0.73-1.34,1.48-2.01,2.22c0.07-1.2,0.17-2.4,0.29-3.59c0.94-6.54,0.97-13.14,0.76-19.72l0.45,0.77
		c0.28,1.73,0.46,3.47,0.52,5.23c4.78,1.58,9.49,3.52,14.51,4.24c3.19-4.2,6.38-8.4,9.18-12.88c-1.92-2.98-3.95-5.88-5.8-8.9
		C422.38,284.3,426.65,282.91,431.01,281.84z"/>
	<path fill="#DFB315" d="M84.71,328.05c3.15-0.09,6.31,0.13,9.41,0.71c0.06,9.02-0.71,18.07-0.03,27.08
		c-5.06,4.32-11.25,7.02-17.14,9.99c-3.34-2.33-6-5.43-9.01-8.15l-0.51-0.43c2.36-4.05,4.69-8.22,5.57-12.88l0.67,0.24
		c2.63,1.03,5.29,1.96,8.07,2.49c2.93-3.49,5.67-7.14,7.98-11.08C88,333.4,86.47,330.65,84.71,328.05z"/>
	<path fill="#DFB315" d="M343.52,348.66c1.15-1.89,1.24-5.89,4.31-5.22c5.15,0.56,10.29,1.25,15.47,1.62
		c1.28,0.18,2.56,0.42,3.86,0.62c-0.73,0.11-2.17,0.32-2.9,0.43c0.46,6.92,3.02,13.55,3.24,20.47c-1.46,2.22-4.17,3.19-6.38,4.52
		c-6.81,3.42-13.26,7.55-20.19,10.75c-3.32-2.51-6.03-5.76-9.61-7.93c0.16-0.35,0.49-1.04,0.65-1.38c3.4-6.66,6.24-13.58,9.88-20.11
		c0.62,2.6,1.35,5.19,2.08,7.77c3.22,0.84,6.52,1.39,9.85,1.62c2.13-2.86,3.84-6,4.77-9.45c-2.17-2.43-4.45-4.76-6.88-6.92
		C348.91,346.42,346.18,347.47,343.52,348.66z"/>
	<path fill="#DFB315" d="M234.09,380.49c3.31-0.37,6.58-0.99,9.9-1.25l0.82-0.08c1.27,6.09,4.81,11.34,6.59,17.24
		c0.81,2.5-1.89,4.09-3.38,5.62c-6.88,5.67-13.09,12.13-20.16,17.57c-4.03-5.5-8.12-10.95-11.94-16.58
		c-1.93-2.68-0.98-6.13-0.97-9.17c2.25,1.61,4.61,3.05,7,4.45c4.21-2.41,8.12-5.29,11.85-8.38c-0.77-3.1-1.66-6.16-2.75-9.15
		C232.06,380.68,233.07,380.59,234.09,380.49z"/>
	<path fill="#DFB315" d="M412.73,460.13c7-9.79,14.06-19.53,21.1-29.28c0.71,0.01,2.14,0.01,2.85,0.02
		c1.09,5.45,3.77,10.39,5.02,15.79c-4.59,4.13-9.66,7.68-14.38,11.67c-2.44,1.9-4.71,4.15-7.59,5.38
		C416.8,464.42,414.68,461.84,412.73,460.13z"/>
</g>
<g>
	<path fill="#F0D90B" d="M142.8,231.89c3.37-2.39,7.18-4.04,10.99-5.57c1.3,1.26,2.61,2.5,3.93,3.73l-0.38,0.58
		c-3.4,5.36-7.09,10.53-10.77,15.71c-0.21,0.31-0.63,0.93-0.85,1.23c-3.32-2.89-3.46-7.56-3.9-11.61
		C141.87,234.62,141.37,232.69,142.8,231.89z"/>
	<path fill="#F0D90B" d="M304.62,273.29c-2.12-4.49,3.77-6.91,6.44-9.44c3.88,1.39,9.25,2.84,9.14,7.94l-0.85,0.25
		c-2.69,0.73-5.34,1.56-7.99,2.37c-0.21,1.63-0.43,3.26-0.61,4.91l-0.09,1.16C307.4,279.39,305.61,276.4,304.62,273.29z"/>
	<path fill="#F0D90B" d="M400.43,285.44c4.35-1.92,8.97-3.15,13.54-4.43c1.16,1.37,2.25,2.8,3.37,4.21
		c-5.64,1.34-11.26,2.71-16.84,4.28c-0.3,2.64-0.61,5.28-0.94,7.92l-0.45-0.77c-0.29-2.55-0.39-5.11-0.22-7.67
		C399.04,287.71,398.85,285.88,400.43,285.44z"/>
	<path fill="#F0D90B" d="M69.8,328.8c3.24-1.69,6.78-2.81,10.37-3.47c1.06-0.29,1.89,0.67,2.78,1.07
		c-4.11,5.5-6.25,12.11-9.28,18.21L73,344.37c-1.4-0.71-3.33-0.75-4.31-2.08c-0.85-3.02-0.7-6.22-0.56-9.32
		C68.37,331.5,68.11,329.46,69.8,328.8z"/>
	<path fill="#F0D90B" d="M215.91,376.02c3.95-0.04,7.94-0.48,11.86,0.11c2.19,1.34,3.42,4.18,6.32,4.36
		c-1.02,0.1-2.03,0.19-3.04,0.27c-4.6,0.27-9.21,0.44-13.71,1.45c-0.75,2.66-1.58,5.29-2.13,8
		C215.38,385.47,215.54,380.74,215.91,376.02z"/>
</g>
<g>
	<path fill="#C57604" d="M183.66,257.81c0.58-10.05-0.75-20.19,0.34-30.22c2.6,0.96,5.3,1.64,7.96,2.45
		c-0.22,4.36,1.15,8.58,1.07,12.93c-0.08,7.9,0.06,15.79-0.08,23.68c-1.81,0.54-3.59,1.15-5.36,1.81c-3.3-1.93-6.58-3.87-9.76-5.98
		C179.88,261.22,183.44,260.72,183.66,257.81z"/>
	<path fill="#C57604" d="M138.09,258.82c4.26,3.82,6.75,9.29,11.31,12.77c6.53-0.74,12.35-4.55,18.91-5.46
		c-1.16,3.27-2.24,6.57-3.72,9.71c-0.1,0.26-0.32,0.78-0.42,1.04c-2.38,0.41-4.63,1.3-6.89,2.14c-2.68,0.95-5.37,1.89-8.07,2.79
		c-4.18-6.54-9.46-12.28-13.87-18.66C136.26,261.7,137.16,260.25,138.09,258.82z"/>
	<path fill="#C57604" d="M326.37,269.87c3-1.12,6.02-2.19,9.05-3.26c0.85,1.16,1.8,2.25,2.74,3.34
		c-6.28,8.14-12.03,16.68-18.27,24.85c-2.94-1.01-5.91-1.92-8.86-2.88c-0.01-2.93,0.04-5.85-0.11-8.77
		c1.92,0.14,3.83,0.31,5.75,0.49C320.53,279.52,323.76,274.86,326.37,269.87z"/>
	<path fill="#C57604" d="M440.4,278.15c3.87,7.12,8.71,13.66,12.6,20.78c-2.65,3.41-5.48,6.68-8.08,10.13
		c-8.02,8.61-15.02,18.13-23.09,26.67c-0.91-0.29-1.8-0.59-2.69-0.89c-4.95-1.95-9.86-3.98-14.82-5.88
		c-2.18-0.91-4.33-1.88-6.52-2.76c0.07-2.09,0.14-4.16,0.26-6.24c0.67-0.74,1.34-1.49,2.01-2.22c6.42,1.88,12.27,5.25,18.71,7.05
		c6.71-6.01,11.74-13.59,17.78-20.24c1.65-2.27,4.47-4.38,4.32-7.44c-1.75-5.69-6.93-9.72-8.04-15.71
		C435.51,280.74,438.52,280.39,440.4,278.15z"/>
	<path fill="#C57604" d="M364.26,346.11c0.73-0.11,2.17-0.32,2.9-0.43c1.96,0.14,3.93,0.28,5.9,0.41c1.6,8.57,3.4,17.12,4.81,25.73
		c-6.79,4.47-14.25,7.82-21.23,11.99c-2.89,1.59-5.82,3.12-8.69,4.75c-2.86,1.48-5.55,3.54-8.77,4.17c-1.51-0.82-2.85-1.9-4.24-2.9
		c-0.24-1.58-0.55-3.15-0.87-4.72c-0.5,0.31-1.5,0.91-2,1.21c-0.4-0.34-1.19-1.03-1.59-1.37c-0.35-0.25-1.04-0.74-1.39-0.98
		c-0.38-0.44-1.12-1.31-1.5-1.75c1.25-2.76,2.46-5.55,3.73-8.3c3.58,2.17,6.29,5.42,9.61,7.93c6.93-3.2,13.38-7.33,20.19-10.75
		c2.21-1.33,4.92-2.3,6.38-4.52C367.28,359.66,364.72,353.03,364.26,346.11z"/>
	<path fill="#C57604" d="M76.95,365.83c5.89-2.97,12.08-5.67,17.14-9.99c-0.32,4.01-0.57,8.02-0.79,12.03
		c-6.5,2.42-12.18,6.5-18.4,9.49c-3.78-3.71-7.52-7.46-11.22-11.24c1.14-2.94,2.55-5.78,4.26-8.44
		C70.95,360.4,73.61,363.5,76.95,365.83z"/>
	<path fill="#C57604" d="M244.81,379.16c2.87-0.22,5.73-0.57,8.55-1.17c3.13,7.6,7.05,14.89,9.62,22.71
		c-9.78,9.01-19.73,17.86-29.84,26.5c-1.03-1.33-1.98-2.71-2.9-4.11c-0.79-1.18-1.57-2.36-2.38-3.5
		c7.07-5.44,13.28-11.9,20.16-17.57c1.49-1.53,4.19-3.12,3.38-5.62C249.62,390.5,246.08,385.25,244.81,379.16z"/>
	<path fill="#C57604" d="M91.45,423.43c0.36-0.34,1.08-1.02,1.44-1.36c-0.05,3.72-0.38,7.43-0.44,11.15
		c-2.04-0.41-4.07-0.83-6.11-1.22l-0.02-0.62c0.42-2.73,0.92-5.47,0.66-8.24C88.47,423.2,89.96,423.3,91.45,423.43z"/>
	<path fill="#C57604" d="M436.68,430.87c3.03-0.03,6.07-0.07,9.11,0.04c2.19,6.38,4.74,12.63,7.06,18.96
		c-8.63,6.28-16.76,13.21-25.2,19.73c-2.81,1.96-5.2,4.86-8.48,5.96c-3.35-1.59-6.22-3.99-9.38-5.9c-0.9-0.59-1.8-1.17-2.69-1.73
		c1.89-2.59,3.76-5.2,5.63-7.8c1.95,1.71,4.07,4.29,7,3.58c2.88-1.23,5.15-3.48,7.59-5.38c4.72-3.99,9.79-7.54,14.38-11.67
		C440.45,441.26,437.77,436.32,436.68,430.87z"/>
</g>
<g>
	<path fill="#AE5206" d="M157.34,230.63c2.5,1.35,4.71,3.17,6.41,5.47c-1.75,4.29-3.85,8.42-6.13,12.44
		c-3.8,0.02-7.56-0.66-11.05-2.2C150.25,241.16,153.94,235.99,157.34,230.63z"/>
	<path fill="#AE5206" d="M400.5,289.5c5.58-1.57,11.2-2.94,16.84-4.28l0.63-0.11c1.85,3.02,3.88,5.92,5.8,8.9
		c-2.8,4.48-5.99,8.68-9.18,12.88c-5.02-0.72-9.73-2.66-14.51-4.24c-0.06-1.76-0.24-3.5-0.52-5.23
		C399.89,294.78,400.2,292.14,400.5,289.5z"/>
	<path fill="#AE5206" d="M73.67,344.61c3.03-6.1,5.17-12.71,9.28-18.21c0.44,0.42,1.32,1.24,1.76,1.65c1.76,2.6,3.29,5.35,5.01,7.97
		c-2.31,3.94-5.05,7.59-7.98,11.08C78.96,346.57,76.3,345.64,73.67,344.61z"/>
	<path fill="#AE5206" d="M343.52,348.66c2.66-1.19,5.39-2.24,8.15-3.21c2.43,2.16,4.71,4.49,6.88,6.92
		c-0.93,3.45-2.64,6.59-4.77,9.45c-3.33-0.23-6.63-0.78-9.85-1.62c-0.73-2.58-1.46-5.17-2.08-7.77
		C342.45,351.19,343,349.93,343.52,348.66z"/>
	<path fill="#AE5206" d="M217.34,382.21c4.5-1.01,9.11-1.18,13.71-1.45c1.09,2.99,1.98,6.05,2.75,9.15
		c-3.73,3.09-7.64,5.97-11.85,8.38c-2.39-1.4-4.75-2.84-7-4.45c0.08-1.22,0.17-2.43,0.26-3.63
		C215.76,387.5,216.59,384.87,217.34,382.21z"/>
</g>
<g>
	<path fill="#1E3711" d="M92.86,255.11c9.57,0.28,18.94,2.45,28.42,3.6c1.8,0.19,3.56-0.33,5.31-0.7c3.03,3.8,5.97,7.67,8.86,11.59
		c-1.28,2.83-2.61,5.65-4.14,8.37c-0.33-0.5-0.98-1.48-1.31-1.97c-3.31,3.65-6.39,7.51-9.67,11.2c-0.95-4.94-1.49-9.95-1.45-14.98
		C110.65,265.89,101.37,261.06,92.86,255.11z"/>
	<path fill="#1E3711" d="M200.94,276.58c3.11-3.63,5.21-7.94,7.97-11.8c1.79,6.85,4.87,13.32,6.03,20.34
		C210.18,282.44,205.57,279.5,200.94,276.58z"/>
	<path fill="#1E3711" d="M254.43,308.43c8.13-6.16,16.05-12.59,24.43-18.4c0.99,9.1,2.84,18.07,4,27.14
		c0.48,2.7-0.99,5.12-2.34,7.32c-8.47,13.24-16.62,26.7-25.11,39.93c-1.09,1.72-1.78,3.66-2.43,5.59c1.7-0.58,3.42-1.13,4.97-2.04
		c7.04-4.34,13.65-9.45,21.24-12.84c-1.5,2.59-2.88,5.25-4.24,7.91c1.49-0.62,2.99-1.24,4.51-1.8c-0.97,12.35-3.74,24.52-4.26,36.9
		c-7.53,7.2-16.44,12.75-24.27,19.62c-5.42,3.77-10.35,8.19-15.77,11.95c-0.68-0.84-1.36-1.67-2.02-2.51
		c10.11-8.64,20.06-17.49,29.84-26.5c-2.57-7.82-6.49-15.11-9.62-22.71c-3.17-6.8-5.71-13.9-9.26-20.53
		c-9.11,0.53-18.17,1.72-27.25,2.54c0.1-2.62,0.11-5.25,0.09-7.88c-2.61,3.09-5.5,5.92-8.41,8.72c-3.76,0.32-7.51,0.8-11.25,1.32
		c-0.95,3.63-1.8,7.3-2.44,11.01c-1.14-1.57-2.41-3.02-3.72-4.43c0.66,3.99,1.68,7.94,1.81,12c-9.14,9.72-16.92,20.63-26.1,30.31
		c-0.05-5.33,0.83-10.59,1.52-15.85c3.27-26.95,6.12-53.94,9.66-80.85c2.34-3.32,4.46-6.78,6.29-10.4
		c6.01-1.31,12.04-2.52,18.05-3.85c2.2-0.41,4.42-0.73,6.62-1.17c-3.66,10.73-8.43,21.05-12.32,31.7
		c-1.8,5.17-4.39,10.07-5.55,15.45c4.69-1.99,8.38-5.59,12.48-8.5c4.53-3.24,8.47-7.48,13.84-9.38c-1.44,3.74-2.91,7.47-4.3,11.23
		C227.25,329.59,240.52,318.57,254.43,308.43z"/>
	<path fill="#1E3711" d="M384.44,320.8c4.43,1.87,8.88,3.66,13.36,5.4c2.19,0.88,4.34,1.85,6.52,2.76c-0.39,1.69-0.77,3.39-1.1,5.1
		c-4.56,3.74-4.97,10.11-7.87,14.96c-0.18-0.45-0.55-1.36-0.73-1.81c-2.72,2.61-3.82,6.5-5.62,9.79c-2.99,6-5.99,12-8.98,18.01
		c-2.06,4.23-5.22,7.99-6.09,12.72c7.01,0.82,14.01-0.36,21-0.83c0.15,8.33-0.02,16.66,0.25,24.99c-1.57,9.66-5.51,18.77-7.19,28.42
		c-4.8,3.27-9.93,6-15.04,8.73c1.09-12.8,3.36-25.47,4.85-38.22c0.61-4.19-2.85-7.4-5.48-10.14c-0.66-0.94-1.8-0.66-2.75-0.9
		c-4.75-4.95-8.75-10.55-12.93-15.97c6.98-4.17,14.44-7.52,21.23-11.99c-1.41-8.61-3.21-17.16-4.81-25.73
		c-0.66-3.25-1.23-6.52-1.82-9.78C375.86,331.33,379.87,325.82,384.44,320.8z"/>
	<path fill="#1E3711" d="M299.85,347.27c7.02-3.58,13.58-8.01,20.19-12.28c-3.86,9.5-8.78,18.51-12.8,27.93
		c6.5,6.72,13.6,12.84,20.35,19.3c0.38,0.44,1.12,1.31,1.5,1.75c-0.32,1.73,0.14,2.06,1.39,0.98c0.4,0.34,1.19,1.03,1.59,1.37
		c-5.37,12.26-12.78,23.48-18.78,35.43c-8.65,15.6-17.15,31.28-25.75,46.9c-1.82-0.48-3.66-0.9-5.45-1.46
		c3.01-15.26,4.55-30.77,6.96-46.13C292.72,396.47,295.77,371.79,299.85,347.27z"/>
	<path fill="#1E3711" d="M452.4,384.44c2.62-0.22,5.53-1.05,7.93,0.44c-1.94,1.62-4.05,3.02-6.32,4.13
		c-12.69,6.28-25.34,12.65-38.01,18.99c-1.13,0.24-2.52,1.6-3.59,0.63c-1.63-2.95-1.23-6.43-1.45-9.66
		c-0.03-4.18-1.57-8.35-0.5-12.51c6.34-1.03,12.79,0.07,19.14-0.9C437.16,384.38,444.84,385.66,452.4,384.44z"/>
	<path fill="#1E3711" d="M339.18,392.73c3.22-0.63,5.91-2.69,8.77-4.17c5.62,5.81,7.66,13.94,11.78,20.73
		c3.88,5.75,0.88,12.61,0.48,18.87c-0.95,10-2.82,19.93-3.14,29.98c-4.9,2.91-9.74,5.92-14.81,8.53c-0.11-0.7-0.32-2.1-0.43-2.8
		c-2.6-24.64-4.99-49.33-6.89-74.04C336.33,390.83,337.67,391.91,339.18,392.73z"/>
	<path fill="#1E3711" d="M86.34,432c2.04,0.39,4.07,0.81,6.11,1.22c0.18,5.67,0.68,11.39-0.4,17.01c-1.07-1.28-2.13-2.56-3.14-3.88
		C88.33,441.52,87.24,436.78,86.34,432z"/>
	<path fill="#1E3711" d="M27.08,471.34c9.98-2.83,19.94-5.79,29.77-9.14c3.7,10.66,7.75,21.2,11.19,31.95
		c-6.92-2.89-13.19-7.1-20.04-10.17c-6.69-4.24-14.14-7.1-20.88-11.2C27.11,472.42,27.09,471.7,27.08,471.34z"/>
</g>
<g>
	<path fill="#F8EF24" d="M300.27,261.33c4.67-2.3,9.6-4.26,14.76-5.07c1.6-0.38,2.7,1.02,3.66,2.05c2.99,3.53,5.79,7.29,7.68,11.56
		c-2.07,0.62-4.11,1.29-6.17,1.92c0.11-5.1-5.26-6.55-9.14-7.94c-2.67,2.53-8.56,4.95-6.44,9.44c0.99,3.11,2.78,6.1,6.04,7.19
		c0.05,0.44,0.14,1.32,0.19,1.76c-3.69-0.7-7.36-1.62-10.6-3.57C299.55,272.91,299.54,267.08,300.27,261.33z"/>
</g>
<g>
	<path fill="#325E1D" d="M171.33,259.07c2.23,1,4.45,2.05,6.5,3.41c3.18,2.11,6.46,4.05,9.76,5.98c4.37,2.84,8.8,5.58,13.35,8.12
		c4.63,2.92,9.24,5.86,14,8.54c4.72,3.14,9.76,5.77,14.38,9.05c-6.65,2.12-13.62,2.92-20.35,4.76c-2.2,0.44-4.42,0.76-6.62,1.17
		c-7.03-5.34-14.95-9.32-22.34-14.11c-5.13-3.4-10.86-5.93-15.42-10.15c1.48-3.14,2.56-6.44,3.72-9.71
		C169.2,263.73,170.29,261.41,171.33,259.07z"/>
	<path fill="#325E1D" d="M95.19,267.6c1.83,3.98,2.42,8.36,3.68,12.52c3.56,11.94,6.5,24.05,10.03,36
		c1.39,4.57,2.08,9.39,4.29,13.69l0.12,0.54l0.07,0.3c0.85,5.86,2.7,11.48,4.24,17.18c-3.01,4.35-4.51,9.46-6.41,14.33
		c-2.93,7.26-5.39,14.74-8.82,21.78c-2.93-9.32-4.65-19.01-8.3-28.1c-0.68-9.01,0.09-18.06,0.03-27.08c0.04-2.92,0.05-5.83,0.1-8.74
		c0.06-2.96,0.06-5.92-0.1-8.87c-0.43-4.75,0.04-9.49,0.77-14.17C95.34,287.19,94.62,277.38,95.19,267.6z"/>
	<path fill="#325E1D" d="M156.26,313.31c7.15-2.04,14.48-3.83,21.94-4.16c-0.16,1.72-0.16,3.46-0.19,5.2
		c-3.54,26.91-6.39,53.9-9.66,80.85c-0.08-1.38-0.18-2.76-0.31-4.13c-8.45,8.92-15.72,18.89-24.1,27.89
		c-0.1-5.57,0.76-11.06,1.47-16.56c3.25-28.07,6.77-56.1,9.91-84.18C155.58,316.57,155.93,314.94,156.26,313.31z"/>
	<path fill="#325E1D" d="M16.9,349.66c5.1,5.8,9.45,12.22,13.96,18.48c12.13,16.01,23.77,32.37,35.97,48.32
		c1.21,1.7,2.27,3.5,3.45,5.22c-0.99,12.07,0.33,24.26-1.37,36.28c-9.17-10.01-15.61-22.26-25-32.08
		c-5.5-14.58-10.42-29.37-15.78-44C24.58,371.07,20.15,360.55,16.9,349.66z"/>
	<path fill="#325E1D" d="M208.53,360.84c2.91-2.8,5.8-5.63,8.41-8.72c0.02,2.63,0.01,5.26-0.09,7.88c-0.14,2.88-0.25,5.77-0.41,8.65
		c-0.15,2.45-0.36,4.91-0.53,7.37c-0.37,4.72-0.53,9.45-0.7,14.19c-0.09,1.2-0.18,2.41-0.26,3.63c-0.01,3.04-0.96,6.49,0.97,9.17
		c3.82,5.63,7.91,11.08,11.94,16.58c0.81,1.14,1.59,2.32,2.38,3.5c-5.44,5.44-11.61,10.25-18.16,14.26
		c-5.31-5.95-9.35-12.89-14.19-19.21c-2.27-3.5-5.76-6.68-5.98-11.09c-0.4-8.79,1.21-17.52,1.02-26.31c-0.13-4.06-1.15-8.01-1.81-12
		c1.31,1.41,2.58,2.86,3.72,4.43c0.62,0.86,1.23,1.74,1.85,2.63C200.62,370.82,205.58,366.49,208.53,360.84z"/>
	<path fill="#325E1D" d="M332.07,386.32c0.5-0.3,1.5-0.9,2-1.21c0.32,1.57,0.63,3.14,0.87,4.72c1.9,24.71,4.29,49.4,6.89,74.04
		c-1.26-0.38-2.64-0.68-3.8,0.13c-6.39,3.4-12.43,7.42-18.9,10.68c-1.53-11.49-2.26-23.07-3.46-34.6
		c-0.63-6.13-0.63-12.37-2.38-18.33C319.29,409.8,326.7,398.58,332.07,386.32z"/>
	<path fill="#325E1D" d="M275.2,398.14c1.51-0.8,3.09-1.46,4.68-2.08c-5.52,15.71-12.47,30.9-18.38,46.48
		c-1.83,5.39-5.07,10.4-5.62,16.16c5.06,2.02,10.32,3.45,15.53,5.02c-2.39,4.18-3.81,9.27-7.54,12.48
		c-5.38-0.68-10.35-3.04-15.51-4.58c-5.17-1.9-10.66-2.95-15.56-5.53c0.91-2.78,1.84-5.56,3-8.24c4.4-10.43,8.17-21.11,12.55-31.54
		c1.15-2.76,1.96-5.64,2.58-8.55C258.76,410.89,267.67,405.34,275.2,398.14z"/>
	<path fill="#325E1D" d="M439.41,411.15c4.58-2.46,8.92-5.39,13.69-7.48c-3.23,5.24-7.14,10.01-10.52,15.15
		c-0.21,0.3-0.63,0.89-0.84,1.18c-2.72,3.56-5.35,7.18-7.91,10.85c-7.04,9.75-14.1,19.49-21.1,29.28c-1.87,2.6-3.74,5.21-5.63,7.8
		c-3.19,4.58-7.4,8.61-9.22,14.02c4.19,0.04,8.26-0.9,12.32-1.8c12.1-1.95,24.26-3.66,36.26-6.18c14.66-1.78,29.18-4.75,43.77-7.04
		c-5.83,6.92-13.12,12.48-18.58,19.73c-5.88,6.44-12.38,12.3-18.4,18.61c-1.83,1.78-2.13,4.4-2.83,6.73h-18.81
		c6.76-7.03,13.9-13.71,20.26-21.11c4.81-5.44,10.44-10.09,15.01-15.75c-24,3.7-47.92,7.94-71.89,11.83
		c-6.94,1.03-13.8,2.65-20.82,3.11c12.88-18.65,26.41-36.85,39.59-55.29c3.22-4.55,6.78-8.9,9.27-13.92
		C428.3,417.32,433.97,414.43,439.41,411.15z"/>
</g>
<g>
	<path fill="#DCAC13" d="M320.2,271.79c2.06-0.63,4.1-1.3,6.17-1.92c-2.61,4.99-5.84,9.65-9.7,13.77c-1.92-0.18-3.83-0.35-5.75-0.49
		l-0.07-0.91c-0.05-0.44-0.14-1.32-0.19-1.76l0.09-1.16c2.36-0.25,4.72-0.47,7.09-0.69c0.56-2.18,1.13-4.37,1.51-6.59L320.2,271.79z
		"/>
</g>
<g>
	<path fill="#AF5306" d="M311.36,274.41c2.65-0.81,5.3-1.64,7.99-2.37c-0.38,2.22-0.95,4.41-1.51,6.59
		c-2.37,0.22-4.73,0.44-7.09,0.69C310.93,277.67,311.15,276.04,311.36,274.41z"/>
</g>
<g>
	<path fill="#234114" d="M120.33,287.2c3.28-3.69,6.36-7.55,9.67-11.2c0.33,0.49,0.98,1.47,1.31,1.97
		c-2.46,4.66-5.54,9.11-6.96,14.24c-0.86,5.61,0.04,11.29,0.32,16.91c0.57,7.81,0.12,15.66,0.82,23.47
		c1.12,12.56-0.26,25.33,2.34,37.75c-0.64,1.95-1.49,3.83-2.42,5.66c-2.62-9.38-5.15-18.79-7.79-28.17
		c-1.54-5.7-3.39-11.32-4.24-17.18c-0.02-0.07-0.06-0.22-0.07-0.3l-0.12-0.54c-0.59-6.22,0.24-12.48-0.4-18.69
		c-0.59-4.49-1.52-9.18-0.39-13.64C115.05,294.05,117.83,290.73,120.33,287.2z"/>
	<path fill="#234114" d="M292.13,306.17c1.7-2.9,3.43-5.81,5.81-8.22c-0.72,6.35-2.54,12.52-3.17,18.89
		c-7.03,49.16-13.97,98.33-21.11,147.47c-0.56-0.15-1.69-0.45-2.25-0.59c-5.21-1.57-10.47-3-15.53-5.02
		c0.55-5.76,3.79-10.77,5.62-16.16c5.91-15.58,12.86-30.77,18.38-46.48c-1.59,0.62-3.17,1.28-4.68,2.08
		c0.52-12.38,3.29-24.55,4.26-36.9c0.55-2.49,1.26-4.95,1.58-7.48c1.28-11.2,2.98-22.35,4.3-33.55
		C285.86,314.84,289.49,310.63,292.13,306.17z"/>
	<path fill="#234114" d="M395.35,349.02c2.9-4.85,3.31-11.22,7.87-14.96c-0.99,8.78-3.97,17.46-2.76,26.36
		c0.85,8.32,1.37,16.66,2.06,24.99c0.6,8.63,1.83,17.23,1.53,25.9c-2.96,0.09-5.93,0.26-8.87,0.58c-0.27-8.33-0.1-16.66-0.25-24.99
		c0.15-10.97-1.32-21.91-0.82-32.88C394.25,352.29,394.83,350.65,395.35,349.02z"/>
	<path fill="#234114" d="M347.95,388.56c2.87-1.63,5.8-3.16,8.69-4.75c4.18,5.42,8.18,11.02,12.93,15.97
		c-1.22,16.59-4.33,32.99-6.26,49.5c-0.12,1.74,0.2,3.46,0.48,5.18c-2.23,1.25-4.5,2.42-6.72,3.68c0.32-10.05,2.19-19.98,3.14-29.98
		c0.4-6.26,3.4-13.12-0.48-18.87C355.61,402.5,353.57,394.37,347.95,388.56z"/>
	<path fill="#234114" d="M407.1,467.93c0.89,0.56,1.79,1.14,2.69,1.73c-0.54,3.49-0.24,7.03,0.41,10.49
		c-4.06,0.9-8.13,1.84-12.32,1.8C399.7,476.54,403.91,472.51,407.1,467.93z"/>
</g>
<g>
	<path fill="#488329" d="M164.17,276.88c0.1-0.26,0.32-0.78,0.42-1.04c4.56,4.22,10.29,6.75,15.42,10.15
		c7.39,4.79,15.31,8.77,22.34,14.11c-6.01,1.33-12.04,2.54-18.05,3.85c-1.66,0.41-3.29,0.89-4.94,1.33
		c-0.38,1.29-0.78,2.57-1.16,3.87c-7.46,0.33-14.79,2.12-21.94,4.16c-0.33,1.63-0.68,3.26-0.94,4.91
		c-3.14,28.08-6.66,56.11-9.91,84.18c-0.71,5.5-1.57,10.99-1.47,16.56c8.38-9,15.65-18.97,24.1-27.89c0.13,1.37,0.23,2.75,0.31,4.13
		c-0.69,5.26-1.57,10.52-1.52,15.85c9.18-9.68,16.96-20.59,26.1-30.31c0.19,8.79-1.42,17.52-1.02,26.31
		c0.22,4.41,3.71,7.59,5.98,11.09c4.84,6.32,8.88,13.26,14.19,19.21c6.55-4.01,12.72-8.82,18.16-14.26c0.92,1.4,1.87,2.78,2.9,4.11
		c0.66,0.84,1.34,1.67,2.02,2.51c5.42-3.76,10.35-8.18,15.77-11.95c-0.62,2.91-1.43,5.79-2.58,8.55
		c-4.38,10.43-8.15,21.11-12.55,31.54c-1.16,2.68-2.09,5.46-3,8.24c4.9,2.58,10.39,3.63,15.56,5.53c5.16,1.54,10.13,3.9,15.51,4.58
		c3.73-3.21,5.15-8.3,7.54-12.48c0.56,0.14,1.69,0.44,2.25,0.59c2.86,0.79,5.61,1.95,8.43,2.88c1.79,0.56,3.63,0.98,5.45,1.46
		c8.6-15.62,17.1-31.3,25.75-46.9c1.75,5.96,1.75,12.2,2.38,18.33c1.2,11.53,1.93,23.11,3.46,34.6c6.47-3.26,12.51-7.28,18.9-10.68
		c1.16-0.81,2.54-0.51,3.8-0.13c0.11,0.7,0.32,2.1,0.43,2.8c5.07-2.61,9.91-5.62,14.81-8.53c2.22-1.26,4.49-2.43,6.72-3.68
		c3.1-1.72,6.1-3.61,9.16-5.42c5.11-2.73,10.24-5.46,15.04-8.73c3.67-1.86,7.34-3.73,10.83-5.91c1.81-1.07,3.63-2.12,5.46-3.16
		c6.26-3.44,12.36-7.18,18.75-10.37c-2.49,5.02-6.05,9.37-9.27,13.92c-13.18,18.44-26.71,36.64-39.59,55.29
		c7.02-0.46,13.88-2.08,20.82-3.11c23.97-3.89,47.89-8.13,71.89-11.83c-4.57,5.66-10.2,10.31-15.01,15.75
		c-6.36,7.4-13.5,14.08-20.26,21.11H74.35c-1.6-6.12-4.15-11.92-6.31-17.85c-3.44-10.75-7.49-21.29-11.19-31.95
		c-4.43-12.06-8.74-24.17-12.94-36.32c9.39,9.82,15.83,22.07,25,32.08c1.7-12.02,0.38-24.21,1.37-36.28
		c1.63,2.25,3.57,4.26,5.24,6.49c4.06,6.35,8.77,12.24,13.39,18.18c1.01,1.32,2.07,2.6,3.14,3.88c1.08-5.62,0.58-11.34,0.4-17.01
		c0.06-3.72,0.39-7.43,0.44-11.15c0.06-3.09,0.04-6.19,0.04-9.28c0.12-5.62,0.13-11.24,0.16-16.87l0.01-0.86
		c0.13-2.82-0.12-5.63-0.4-8.44c1.2-6.19,0.52-12.49,0.6-18.75c0.22-4.01,0.47-8.02,0.79-12.03c3.65,9.09,5.37,18.78,8.3,28.1
		c3.43-7.04,5.89-14.52,8.82-21.78c1.9-4.87,3.4-9.98,6.41-14.33c2.64,9.38,5.17,18.79,7.79,28.17c0.93-1.83,1.78-3.71,2.42-5.66
		c7.87-20.27,15.87-40.5,23.75-60.77c2.31-6.02,4.87-11.95,6.72-18.14C160.78,286.8,162.22,281.73,164.17,276.88z"/>
</g>
<g>
	<path fill="#F9F025" d="M216.44,368.65c7.47-0.11,14.84-1.85,22.32-1.52c2.5,3.67,3.94,7.89,5.23,12.11
		c-3.32,0.26-6.59,0.88-9.9,1.25c-2.9-0.18-4.13-3.02-6.32-4.36c-3.92-0.59-7.91-0.15-11.86-0.11
		C216.08,373.56,216.29,371.1,216.44,368.65z"/>
</g>
<g>
	<path fill="#1E3611" d="M74.9,377.36c6.22-2.99,11.9-7.07,18.4-9.49c-0.08,6.26,0.6,12.56-0.6,18.75c-2.31,0.61-4.61,1.27-6.88,2
		c-2.55,0.82-5.11,1.62-7.65,2.46C76.93,386.54,76.02,381.92,74.9,377.36z"/>
</g>
<g>
	<path fill="#C57704" d="M85.82,388.62c2.27-0.73,4.57-1.39,6.88-2c0.28,2.81,0.53,5.62,0.4,8.44
		C90.72,392.86,88.24,390.77,85.82,388.62z"/>
</g>
<g>
	<path fill="#DEB215" d="M87.08,415.05c1.93-0.8,3.83-1.69,5.85-2.26c0,3.09,0.02,6.19-0.04,9.28c-0.36,0.34-1.08,1.02-1.44,1.36
		c-1.49-0.13-2.98-0.23-4.47-0.29l-0.04-0.99C86.85,419.78,86.93,417.41,87.08,415.05z"/>
</g>
<g>
	<path fill="#F8ED20" d="M401.42,422.38c0.94-2.42,3.94-2.09,6.01-2.72c-2.02,3.54-2.86,7.55-3.15,11.58
		c-1.83,1.04-3.65,2.09-5.46,3.16C398.73,430.26,399.6,426.1,401.42,422.38z"/>
</g>
</svg>
