<?xml version="1.0" encoding="utf-8"?>
<!-- Generator: Adobe Illustrator 16.0.4, SVG Export Plug-In . SVG Version: 6.00 Build 0)  -->
<!DOCTYPE svg PUBLIC "-//W3C//DTD SVG 1.1//EN" "http://www.w3.org/Graphics/SVG/1.1/DTD/svg11.dtd">
<svg version="1.1" id="Layer_1" xmlns="http://www.w3.org/2000/svg" xmlns:xlink="http://www.w3.org/1999/xlink" x="0px" y="0px"
	 width="512px" height="512px" viewBox="0 0 512 512" enable-background="new 0 0 512 512" xml:space="preserve">
<g>
	<path fill="#619728" d="M128.47,24.26c4.88-0.76,9.86-0.22,14.7,0.55c7.16,0.65,14.39-0.34,21.54,0.5
		c8.29,1.51,16.76,0.13,25.11,0.88c2.99,0.43,5.99,0.91,9.02,0.86c2.34,2.04,4.66,4.11,7.16,5.95c-14.36,0.66-28.67-0.85-43.02-1.01
		c-9.67-0.16-19.33-1.55-29-0.9c-4.42,0.2-7.14,4.1-9.76,7.14c-10.47,12.89-22.27,24.67-32.29,37.93c10.52-0.46,20.84-2.65,31.26-4
		c6.21-0.8,12.4-2.48,18.71-2.08c2.55,0.08,5.32,1.63,5.74,4.35c0.54,4.03-0.89,7.96-1.75,11.85c-0.41-0.08-1.22-0.22-1.63-0.3
		c-1.92-0.38-3.83-0.81-5.74-1.21c1.17-2.98,2.36-5.95,3.53-8.92c-11,2.1-22.16,3.16-33.19,5.01c-11.76,1.97-23.62,3.22-35.35,5.3
		c9.17-9.43,17.26-19.82,26.13-29.52c5.76-6.89,11.89-13.45,17.66-20.35C121.02,32.29,124.05,27.58,128.47,24.26z"/>
</g>
<g>
	<path fill="#44691C" d="M198.84,27.05c6.48,0.05,13.03-0.51,19.46,0.63c4.02,0.67,8.19-0.18,12.17,0.74
		c13.4,9.96,26.94,19.76,40.24,29.87c6.9,5.34,14.34,9.98,20.93,15.72c-29.09-3.47-58.22-6.55-87.3-10.02
		c11.89,8.76,24.29,16.78,36.28,25.39c14.25,9.5,28.14,19.51,42.34,29.08c0.59,0.9,1.18,1.79,1.78,2.69
		c-1.68-0.23-3.35-0.43-5.03-0.64c-23.21-3.68-46.39-7.56-69.54-11.59c-6.82-1.05-13.7-3.09-20.65-2.08c-2.43,0.56-4.66,1.69-7,2.48
		c-3.83,1.7-7.41,3.89-10.9,6.18c-2.84,0.66-5.61,1.63-8.37,2.57c-3.2,1.23-6.44,2.35-9.67,3.51c-11.69,4.21-22.72,10.14-34.7,13.52
		c2.14-7.04,4.87-13.88,7.59-20.7c2.32-5.41,4.56-10.85,6.53-16.39c0.89-2.37,1.84-4.71,2.84-7.03c0.94-2.05,1.79-4.14,2.68-6.21
		c1.91,0.4,3.82,0.83,5.74,1.21c-3.21,12.83-10.15,24.33-13.4,37.15c4.32-1.28,8.57-2.78,12.74-4.5c13.5-5.53,27.01-11.05,40.5-16.6
		c4.29-1.79,9.02-2.41,13.63-1.76c19.84,3.07,39.54,7.13,59.46,9.57c-3.49-3.24-7.24-6.2-11.2-8.84c-11.77-7.84-23.2-16.18-34.99-24
		c-4.27-2.97-9.1-5.6-11.99-10.07c-2.25-3.62,1.16-8.48,5.1-8.78c7.97-0.78,15.85,1.37,23.77,2.01c12.79,1.16,25.49,3.41,38.35,3.75
		c-8.33-7.89-18.14-13.96-27.2-20.95c-4.47-3.24-8.64-7.48-14.26-8.54c-5.56-0.95-11.2-0.17-16.79-0.3
		c-0.5-0.28-1.48-0.84-1.98-1.12C203.5,31.16,201.18,29.09,198.84,27.05z"/>
</g>
<g>
	<path fill="#79A832" d="M124.22,38.23c2.62-3.04,5.34-6.94,9.76-7.14c9.67-0.65,19.33,0.74,29,0.9
		c14.35,0.16,28.66,1.67,43.02,1.01c0.5,0.28,1.48,0.84,1.98,1.12c7.71,5.86,15.72,11.35,23.11,17.64
		c-28.76-2.82-57.4-6.69-86.16-9.48c7.11,5.56,14.72,10.44,22.11,15.63c19.98,14.01,40.37,27.44,60.08,41.82
		c-27.11-4.26-54.16-8.93-81.23-13.45c0.86-3.89,2.29-7.82,1.75-11.85c-0.42-2.72-3.19-4.27-5.74-4.35
		c-6.31-0.4-12.5,1.28-18.71,2.08c-10.42,1.35-20.74,3.54-31.26,4C101.95,62.9,113.75,51.12,124.22,38.23z"/>
</g>
<g>
	<path fill="#547523" d="M207.98,34.12c5.59,0.13,11.23-0.65,16.79,0.3c5.62,1.06,9.79,5.3,14.26,8.54
		c9.06,6.99,18.87,13.06,27.2,20.95c-12.86-0.34-25.56-2.59-38.35-3.75c-7.92-0.64-15.8-2.79-23.77-2.01
		c-3.94,0.3-7.35,5.16-5.1,8.78c2.89,4.47,7.72,7.1,11.99,10.07c11.79,7.82,23.22,16.16,34.99,24c3.96,2.64,7.71,5.6,11.2,8.84
		c-19.92-2.44-39.62-6.5-59.46-9.57c-4.61-0.65-9.34-0.03-13.63,1.76c-13.49,5.55-27,11.07-40.5,16.6
		c-4.17,1.72-8.42,3.22-12.74,4.5c3.25-12.82,10.19-24.32,13.4-37.15c0.41,0.08,1.22,0.22,1.63,0.3
		c27.07,4.52,54.12,9.19,81.23,13.45c-19.71-14.38-40.1-27.81-60.08-41.82c-7.39-5.19-15-10.07-22.11-15.63
		c28.76,2.79,57.4,6.66,86.16,9.48C223.7,45.47,215.69,39.98,207.98,34.12z"/>
</g>
<g>
	<path fill="#51791D" d="M97.89,94.85c12.64-1.44,25.29-2.73,37.95-3.87c-1,2.32-1.95,4.66-2.84,7.03
		c-12.87,0.9-25.71,2.28-38.53,3.61c-4.27,0.2-6.82,3.87-8.58,7.31c-3.63,7.04-8.52,13.5-10.5,21.29
		c-2.95,4.32-6.31,8.34-9.45,12.52c-6,5.68-9.49,14.07-17.12,17.89c10.1-17.23,19.78-34.7,29.91-51.92
		c2.61-4.07,4.31-8.79,7.65-12.36C90.14,95.37,94.02,95.06,97.89,94.85z"/>
</g>
<g>
	<path fill="#658F24" d="M94.47,101.62c12.82-1.33,25.66-2.71,38.53-3.61c-1.97,5.54-4.21,10.98-6.53,16.39
		c-8.47-1.46-17.04-2.22-25.54-3.47c-2.78-0.27-5.64-0.89-8.39-0.21c-2.98,1.51-4.8,4.49-6.87,6.99c-3.2,4.35-6.79,8.39-10.28,12.51
		c1.98-7.79,6.87-14.25,10.5-21.29C87.65,105.49,90.2,101.82,94.47,101.62z"/>
</g>
<g>
	<path fill="#537A22" d="M282.96,118.46c7.44-7.09,15.58-13.42,22.85-20.7c17.76,5.66,35.8,10.39,53.63,15.82
		c3.7,0.83,7.32,2.85,11.21,2.19c7.79-1.24,15.62-2.28,23.43-3.44c0.83,2.02,1.7,4.03,2.59,6.03l0.29,0.64
		c-8.42,0.3-16.64,2.29-25.01,3.01c-7.75,0.61-15.01-2.56-22.29-4.65c-10.33-3.01-20.73-5.79-30.97-9.1
		c-3.42-0.99-6.91-2.27-10.52-2c-2.64,0.57-4.65,2.55-6.66,4.23c-12.38,11.37-25.23,22.2-37.72,33.45c0.31,0.42,0.92,1.27,1.22,1.69
		c11.19-1.61,22.35-3.44,33.52-5.22c3.19-0.3,6.65-1.03,9.69,0.32c2.55,1.67,4.15,4.37,5.97,6.74c-1.24,0.37-2.47,0.76-3.71,1.11
		c-1.98,0.49-3.97,0.9-5.95,1.34c0.48-1.36,0.96-2.72,1.47-4.07c-21.78,3.71-43.69,6.63-65.49,10.12
		c6.15-6.37,13.26-11.7,19.73-17.73c6.32-6.1,13.63-11.15,19.47-17.73c1.68,0.21,3.35,0.41,5.03,0.64
		C284.14,120.25,283.55,119.36,282.96,118.46z"/>
	<path fill="#537A22" d="M376.32,161.05c0.4,0.49,0.8,0.98,1.2,1.48c3.26,4.3,6.55,8.57,9.98,12.72c-0.51,1.32-1.03,2.64-1.55,3.97
		c-0.95-1.39-1.9-2.77-2.87-4.13c-1.71-2.33-3.47-4.63-5.17-6.96c-6.49,2.35-13.13,4.26-19.57,6.75c-3.01,1.14-6.03,2.24-9.08,3.28
		c-2.7,0.91-5.42,1.78-8.13,2.69c-0.75-2.06-1.5-4.11-2.26-6.16C351.35,170.14,364.18,166.5,376.32,161.05z"/>
</g>
<g>
	<path fill="#79654D" d="M189.52,106.84c6.95-1.01,13.83,1.03,20.65,2.08c-0.05,0.52-0.13,1.54-0.17,2.05
		c-3.79-0.57-7.58-1.16-11.37-1.69c1.03,2.33,2.04,4.69,3.29,6.93C197.63,113.29,193.4,110.28,189.52,106.84z"/>
</g>
<g>
	<path fill="#68902A" d="M301.51,110.49c2.01-1.68,4.02-3.66,6.66-4.23c3.61-0.27,7.1,1.01,10.52,2c10.24,3.31,20.64,6.09,30.97,9.1
		c7.28,2.09,14.54,5.26,22.29,4.65c8.37-0.72,16.59-2.71,25.01-3.01c3.63,8.61,9.19,16.49,11.14,25.74
		c-0.5-0.02-1.49-0.07-1.98-0.09c-5.77-1.11-11.25-3.33-16.89-4.91c-12.87-3.72-25.62-7.85-38.54-11.4
		c8.09,11.25,16.94,21.93,25.63,32.71c-12.14,5.45-24.97,9.09-37.45,13.64l-0.75,0.26c-6.58-9.64-13.16-19.28-20.1-28.66
		c-1.27,0.4-2.55,0.8-3.83,1.18c-1.82-2.37-3.42-5.07-5.97-6.74c-3.04-1.35-6.5-0.62-9.69-0.32c-11.17,1.78-22.33,3.61-33.52,5.22
		c-0.3-0.42-0.91-1.27-1.22-1.69C276.28,132.69,289.13,121.86,301.51,110.49z"/>
</g>
<g>
	<path fill="#3A5518" d="M394.08,112.33c15.26-2.06,30.54-4.03,45.74-6.51c2.85,5.39,5.65,10.8,7.93,16.45
		c4.87,10.68,10.82,20.84,15.31,31.7c2.22,4.83,4.72,9.52,7.1,14.28c-19.81-6.41-39.87-12.03-59.78-18.13
		c8.42,11.33,17.37,22.27,26.17,33.32c3.79,5,7.59,10.01,11.81,14.67c-4.27,4.48-8.9,8.61-13,13.24
		c-4.6,5.92-10.2,10.92-15.49,16.19c-5.85-7.82-11.33-15.9-16.86-23.95c-1.86-2.65-3.77-5.26-5.63-7.9
		c-3.22-4.61-6.46-9.21-9.64-13.85c-0.6-0.88-1.2-1.75-1.79-2.62c0.52-1.33,1.04-2.65,1.55-3.97c-3.43-4.15-6.72-8.42-9.98-12.72
		c3.1,0.18,6.21,1.27,7.83,4.1c11.56,16.68,23.1,33.39,34.93,49.89c5.93-5.13,12.07-10.27,16.56-16.76
		c2.28-3.04-1.11-6.33-2.74-8.83c-8.84-10.56-17.14-21.55-25.85-32.21c-1.6-2.14-3.33-4.35-3.92-7.01
		c-0.15-2.48,1.04-4.77,1.79-7.06c0.49,0.02,1.48,0.07,1.98,0.09c5.89-0.18,11.77,0.7,17.26,2.91c10.26,2.96,20.29,6.91,30.9,8.53
		c-3.89-11.59-10.85-21.8-15.26-33.17c-1.87-3.75-3.62-9.79-8.95-9.01c-11.86,0.75-23.47,3.87-35.38,4.36
		C395.78,116.36,394.91,114.35,394.08,112.33z"/>
	<path fill="#3A5518" d="M304.53,149.92c1.98-0.44,3.97-0.85,5.95-1.34c-0.2,4.96-1.61,9.76-3.57,14.29
		c-3.23,8.36-6.59,16.71-9,25.35c4.01-0.9,7.98-1.98,11.84-3.4c9.4-3.47,18.91-6.59,28.37-9.87l0.75-0.26
		c0.76,2.05,1.51,4.1,2.26,6.16c-3.04,1.01-6.05,2.08-9.07,3.15c-2.65,0.93-5.3,1.85-7.95,2.76c-12.74,4.35-25.42,8.87-38.15,13.25
		C292.21,183.33,298.36,166.63,304.53,149.92z"/>
</g>
<g>
	<path fill="#395414" d="M182.52,109.32c2.34-0.79,4.57-1.92,7-2.48c3.88,3.44,8.11,6.45,12.4,9.37c2.25,1.75,4.54,3.44,6.77,5.21
		c8.85,7.03,18.24,13.36,26.94,20.57c-9.22-1.1-18.42-2.28-27.65-3.24c-2.86-0.32-5.72-0.7-8.58-1.08c-2.7-0.35-5.41-0.67-8.12-0.94
		c-3.76-0.46-7.51-1.07-11.28-1.48c-9.21-0.77-18.36-2.48-27.57-3.04c-4.3,3.66-7.19,8.65-10.87,12.89
		c-1.23,1.49-2.48,2.98-3.72,4.47c-1.79,2.18-3.58,4.36-5.36,6.55c-1.55,1.89-3.08,3.8-4.58,5.72c-5.84,7.3-11.7,14.59-17.78,21.69
		c-3.89-12.38-6.66-25.07-10.2-37.55c-17.03,8.67-34.19,17.09-51.25,25.7c-2.67,1.36-5.37,2.65-8.16,3.76
		c2.56-5.05,5.5-9.89,8.31-14.81c7.63-3.82,11.12-12.21,17.12-17.89c-1.67,4.82-3.79,9.45-5.83,14.12c1.92-0.85,4.14-0.47,5.96-1.66
		c8.15-4.26,16.41-8.31,24.55-12.59c3.4-1.63,7.02-3.76,10.93-3.18c3.61,0.78,5.21,4.57,6.22,7.73c1.96,6.64,3.29,13.47,5.46,20.06
		c3.89-3.8,7.46-7.93,10.75-12.27c5.3-6.99,11.15-13.54,16.45-20.53c2.19-2.75,4.27-5.7,7.17-7.75c2.42-1.68,5.51-1.58,8.32-1.48
		c17.45,1.64,34.77,4.83,52.29,5.77C200.34,122.89,189.38,118.41,182.52,109.32z"/>
</g>
<g>
	<path fill="#476419" d="M171.62,115.5c3.49-2.29,7.07-4.48,10.9-6.18c6.86,9.09,17.82,13.57,25.69,21.64
		c-17.52-0.94-34.84-4.13-52.29-5.77c-2.81-0.1-5.9-0.2-8.32,1.48c-2.9,2.05-4.98,5-7.17,7.75c-5.3,6.99-11.15,13.54-16.45,20.53
		c-3.29,4.34-6.86,8.47-10.75,12.27c-2.17-6.59-3.5-13.42-5.46-20.06c-1.01-3.16-2.61-6.95-6.22-7.73
		c-3.91-0.58-7.53,1.55-10.93,3.18c-8.14,4.28-16.4,8.33-24.55,12.59c-1.82,1.19-4.04,0.81-5.96,1.66c2.04-4.67,4.16-9.3,5.83-14.12
		c3.14-4.18,6.5-8.2,9.45-12.52c3.49-4.12,7.08-8.16,10.28-12.51c2.07-2.5,3.89-5.48,6.87-6.99c2.75-0.68,5.61-0.06,8.39,0.21
		c8.5,1.25,17.07,2.01,25.54,3.47c-2.72,6.82-5.45,13.66-7.59,20.7c11.98-3.38,23.01-9.31,34.7-13.52c3.23-1.16,6.47-2.28,9.67-3.51
		c3.89,0.58,7.76,1.3,11.64,1.95C173.8,118.52,172.7,117.01,171.62,115.5z"/>
</g>
<g>
	<path fill="#584838" d="M198.63,109.28c3.79,0.53,7.58,1.12,11.37,1.69c-0.35,3.5-0.98,6.95-1.31,10.45
		c-2.23-1.77-4.52-3.46-6.77-5.21C200.67,113.97,199.66,111.61,198.63,109.28z"/>
</g>
<g>
	<path fill="#49651D" d="M396.67,118.36c11.91-0.49,23.52-3.61,35.38-4.36c5.33-0.78,7.08,5.26,8.95,9.01
		c4.41,11.37,11.37,21.58,15.26,33.17c-10.61-1.62-20.64-5.57-30.9-8.53c-5.49-2.21-11.37-3.09-17.26-2.91
		c-1.95-9.25-7.51-17.13-11.14-25.74L396.67,118.36z"/>
	<path fill="#49651D" d="M350.69,128.34c12.92,3.55,25.67,7.68,38.54,11.4c5.64,1.58,11.12,3.8,16.89,4.91
		c-0.75,2.29-1.94,4.58-1.79,7.06c0.59,2.66,2.32,4.87,3.92,7.01c8.71,10.66,17.01,21.65,25.85,32.21c1.63,2.5,5.02,5.79,2.74,8.83
		c-4.49,6.49-10.63,11.63-16.56,16.76c-11.83-16.5-23.37-33.21-34.93-49.89c-1.62-2.83-4.73-3.92-7.83-4.1
		c-0.4-0.5-0.8-0.99-1.2-1.48C367.63,150.27,358.78,139.59,350.69,128.34z"/>
	<path fill="#49651D" d="M314.19,147.47c1.28-0.38,2.56-0.78,3.83-1.18c6.94,9.38,13.52,19.02,20.1,28.66
		c-9.46,3.28-18.97,6.4-28.37,9.87c-3.86,1.42-7.83,2.5-11.84,3.4c2.41-8.64,5.77-16.99,9-25.35c1.96-4.53,3.37-9.33,3.57-14.29
		C311.72,148.23,312.95,147.84,314.19,147.47z"/>
</g>
<g>
	<path fill="#648E24" d="M163.25,118.07c2.76-0.94,5.53-1.91,8.37-2.57c1.08,1.51,2.18,3.02,3.27,4.52
		C171.01,119.37,167.14,118.65,163.25,118.07z"/>
</g>
<g>
	<path fill="#7A654E" d="M180,135.25c3.77,0.41,7.52,1.02,11.28,1.48c-1.47-0.02-2.95-0.05-4.42-0.07
		c-0.42,10.23,0.04,20.46-0.46,30.69c-2.13-1.16-4.25-2.32-6.39-3.44C179.99,154.36,180,144.8,180,135.25z"/>
	<path fill="#7A654E" d="M368.29,215.33c5.03-13.37,9.25-27.06,14.79-40.24c0.97,1.36,1.92,2.74,2.87,4.13
		c0.59,0.87,1.19,1.74,1.79,2.62c-5.42,11.46-8.42,23.86-13.48,35.46c-2.16,4.54-5.81,8.12-9.39,11.55l-0.5,0.48
		c-1.21-1.87-2.41-3.73-3.61-5.6C363.32,221,366.55,218.72,368.29,215.33z"/>
	<path fill="#7A654E" d="M324.11,186.76c2.65-0.91,5.3-1.83,7.95-2.76c-3.73,8.87-7.56,17.71-11.7,26.39
		c-1.46,3.25-3.07,6.66-2.85,10.31c0.21,3.52,1.29,6.91,2.22,10.29c-2.04,0.78-4.06,1.58-6.1,2.36c-0.91-5.12-2.63-10.08-3.4-15.22
		c1.62-5.35,4.49-10.21,6.53-15.4C319.26,197.43,321.34,191.94,324.11,186.76z"/>
	<path fill="#7A654E" d="M331.96,207.97c4.23-7.92,8.9-15.63,14.16-22.92c-4.61,12.69-10.47,24.88-16.14,37.12
		C329.82,217.39,329.6,212.32,331.96,207.97z"/>
	<path fill="#7A654E" d="M370.68,237.14c6.53-9.28,12.83-18.78,20.47-27.2c-0.89,2.88-1.55,5.83-2.56,8.68
		c-2.77,8.74-11.65,13.18-16.1,20.89l-0.42-0.48C371.58,238.41,371.12,237.78,370.68,237.14z"/>
</g>
<g>
	<path fill="#997E62" d="M186.86,136.66c1.47,0.02,2.95,0.05,4.42,0.07c2.71,0.27,5.42,0.59,8.12,0.94
		c-0.35,12.15,0.14,24.34-0.91,36.46c-4.16-2.02-8.18-4.31-12.09-6.78C186.9,157.12,186.44,146.89,186.86,136.66z"/>
	<path fill="#997E62" d="M341.13,180.85c2.71-0.91,5.43-1.78,8.13-2.69c-1.03,2.3-2.07,4.6-3.14,6.89
		c-5.26,7.29-9.93,15-14.16,22.92c-2.36,4.35-2.14,9.42-1.98,14.2c0.02,1.79,0.12,3.59,0.32,5.37c0.13,1.23,0.3,2.45,0.49,3.68
		c-0.32-1.22-0.61-2.44-0.86-3.66c-3.42,1.09-6.82,2.24-10.2,3.43c-0.93-3.38-2.01-6.77-2.22-10.29c-0.22-3.65,1.39-7.06,2.85-10.31
		c4.14-8.68,7.97-17.52,11.7-26.39C335.08,182.93,338.09,181.86,341.13,180.85z"/>
	<path fill="#997E62" d="M374.26,217.3c5.06-11.6,8.06-24,13.48-35.46c3.18,4.64,6.42,9.24,9.64,13.85
		c-1.91,4.82-3.94,9.59-6.23,14.25c-7.64,8.42-13.94,17.92-20.47,27.2c-2-2.72-3.89-5.51-5.81-8.29
		C368.45,225.42,372.1,221.84,374.26,217.3z"/>
</g>
<g>
	<path fill="#574838" d="M199.4,137.67c2.86,0.38,5.72,0.76,8.58,1.08c-0.97,3.68-1.01,7.49-1.03,11.27
		c-0.77,9.59-1.74,19.17-2.12,28.8c-2.25-0.24-4.5-0.49-6.75-0.72l0.08-0.8c0.11-1.05,0.22-2.11,0.33-3.17
		C199.54,162.01,199.05,149.82,199.4,137.67z"/>
	<path fill="#574838" d="M146.24,147.83c11.24,6.81,22.57,13.46,33.76,20.34c0-1.42,0-2.84,0.01-4.26c2.14,1.12,4.26,2.28,6.39,3.44
		c-1.08,2.42-2.23,4.81-3.4,7.2c-0.41-0.05-1.24-0.14-1.66-0.18c-4.45-0.93-8.65-2.77-12.46-5.23
		c-8.82-5.57-17.91-10.69-26.74-16.26C143.52,151.21,144.86,149.5,146.24,147.83z"/>
	<path fill="#574838" d="M349.26,178.16c3.05-1.04,6.07-2.14,9.08-3.28c-6.68,12.35-13.87,24.43-20.96,36.55
		c-2.75,3.97-0.06,8.83-0.08,13.2c-2.34,0.96-4.67,1.93-7,2.91c-0.2-1.78-0.3-3.58-0.32-5.37c5.67-12.24,11.53-24.43,16.14-37.12
		C347.19,182.76,348.23,180.46,349.26,178.16z"/>
	<path fill="#574838" d="M397.38,195.69c1.86,2.64,3.77,5.25,5.63,7.9c-9.37,12.89-18.71,25.81-28.13,38.66
		c-0.79-0.93-1.58-1.85-2.39-2.74c4.45-7.71,13.33-12.15,16.1-20.89c1.01-2.85,1.67-5.8,2.56-8.68
		C393.44,205.28,395.47,200.51,397.38,195.69z"/>
</g>
<g>
	<path fill="#6D5A46" d="M137.84,149.57c1.24-1.49,2.49-2.98,3.72-4.47c1.56,0.91,3.14,1.79,4.68,2.73
		c-1.38,1.67-2.72,3.38-4.1,5.05c8.83,5.57,17.92,10.69,26.74,16.26c3.81,2.46,8.01,4.3,12.46,5.23c-3.32,2.52-6.48,5.26-9.78,7.82
		c-1.89-3.24-4.18-6.38-7.57-8.17c-9.23-5.12-18.53-10.12-27.63-15.46l-0.63-0.38c1.95-1.9,3.85-3.83,5.73-5.79
		C140.24,151.46,139.04,150.52,137.84,149.57z"/>
	<path fill="#6D5A46" d="M186.4,167.35c3.91,2.47,7.93,4.76,12.09,6.78c-0.11,1.06-0.22,2.12-0.33,3.17
		c-5.03-1.05-10.09-1.93-15.16-2.75C184.17,172.16,185.32,169.77,186.4,167.35z"/>
</g>
<g>
	<path fill="#987D62" d="M132.48,156.12c1.78-2.19,3.57-4.37,5.36-6.55c1.2,0.95,2.4,1.89,3.62,2.82c-1.88,1.96-3.78,3.89-5.73,5.79
		C134.64,157.5,133.56,156.81,132.48,156.12z"/>
</g>
<g>
	<path fill="#79644E" d="M127.9,161.84c1.5-1.92,3.03-3.83,4.58-5.72c1.08,0.69,2.16,1.38,3.25,2.06l0.63,0.38
		c-0.96,0.86-1.93,1.73-2.88,2.6c4.65,2.85,9.4,5.54,14.19,8.15c7.97,4.29,15.61,9.19,23.89,12.88l-0.62,0.47
		c-1.56,1.16-3.12,2.31-4.75,3.38c-2.74-6.17-9.79-7.83-15-11.22C143.34,170.64,135.78,165.95,127.9,161.84z"/>
</g>
<g>
	<path fill="#594A39" d="M133.48,161.16c0.95-0.87,1.92-1.74,2.88-2.6c9.1,5.34,18.4,10.34,27.63,15.46
		c3.39,1.79,5.68,4.93,7.57,8.17c-8.28-3.69-15.92-8.59-23.89-12.88C142.88,166.7,138.13,164.01,133.48,161.16z"/>
</g>
<g>
	<path fill="#978975" d="M181.34,174.37c0.42,0.04,1.25,0.13,1.66,0.18c5.07,0.82,10.13,1.7,15.16,2.75l-0.08,0.8
		c-1.32,7.77,0.53,15.59,4.36,22.39c8.16,16.86,15,34.39,24.47,50.59c11.09,19.29,21.99,38.69,32.93,58.06
		c1.99,3.2,4.73,7.29,9.06,6.78c5.06-1,8.59-5.14,12.48-8.2l0.52-0.43c1.6,3.27,3.29,6.49,5.05,9.68c1.66-1.03,3.35-2.02,4.96-3.11
		c-5.93,7.09-13.11,12.94-19.99,19.06c-3.71,3.17-6.51,7.3-8.04,11.94c-5.96,17.29-12.07,34.54-18.36,51.71
		c-1.71,4.5-1.95,9.54-0.14,14.05c6.88,17.87,13.57,35.82,20.21,53.78c1.82,4.85,4.35,9.41,7.43,13.58
		c6.41,8.98,13.46,17.54,19.11,27.05c-6.04,0.28-12.09,0.34-18.13,0.29c-10.15-0.16-20.32,0.43-30.44-0.65
		c2.65-4.7,5.45-9.31,8.21-13.95c1.24-2.44,3.12-5.04,2.33-7.92c-0.86-3.83-2.51-7.41-3.86-11.08
		c-6.55-17.55-12.55-35.31-19.28-52.8c-1.48-3.54-1.74-7.53-0.24-11.11c9.09-24.46,17.47-49.18,26.58-73.64
		c0.72-2.25,1.52-4.76,0.54-7.07c-1.81-4.62-4.67-8.71-6.96-13.08c-20.16-37.12-40.3-74.25-60.46-111.37
		c-2.12-3.88-3.92-7.97-6.48-11.59c-2.62-3.71-6.97-5.47-10.9-7.39c-0.52-0.25-1.57-0.76-2.1-1.01l0.62-0.47
		C174.86,179.63,178.02,176.89,181.34,174.37z"/>
	<path fill="#978975" d="M344.49,250.48c4.48-3.69,7.88-8.53,12.58-12c0.58,4.66,1.33,9.31,2.57,13.85
		c-5.78,6.75-12.61,12.46-19.49,18.03c-1.75-6.65-3.5-13.3-5.19-19.96C338.02,251.02,341.71,252.8,344.49,250.48z"/>
</g>
<g>
	<path fill="#82715E" d="M198.08,178.1c2.25,0.23,4.5,0.48,6.75,0.72c-0.4,2.66-1.07,5.33-0.81,8.04c0.39,2.6,1.88,4.86,2.8,7.3
		c5.19,11.45,10.51,22.84,15.73,34.27c3.46,9.03,9.23,16.89,13.53,25.5c10.9,18.61,21.12,37.61,32.13,56.16
		c3.4-2.83,6.86-5.6,10.38-8.28c0.92,1.97,1.86,3.93,2.79,5.91c-3.89,3.06-7.42,7.2-12.48,8.2c-4.33,0.51-7.07-3.58-9.06-6.78
		c-10.94-19.37-21.84-38.77-32.93-58.06c-9.47-16.2-16.31-33.73-24.47-50.59C198.61,193.69,196.76,185.87,198.08,178.1z"/>
	<path fill="#82715E" d="M330.3,227.54c2.33-0.98,4.66-1.95,7-2.91c1.07,6.88,1.43,13.87,2.87,20.69
		c5.27-5.41,11.02-10.41,15.59-16.48c0.38,2.45,0.74,4.9,1.06,7.36c0.06,0.57,0.19,1.71,0.25,2.28c-4.7,3.47-8.1,8.31-12.58,12
		c-2.78,2.32-6.47,0.54-9.53-0.08c-1.55-6.36-2.81-12.79-4.17-19.18C330.6,229.99,330.43,228.77,330.3,227.54z"/>
	<path fill="#82715E" d="M359.64,252.33c3.91-4.64,8.07-9.07,12.43-13.3l0.42,0.48c0.81,0.89,1.6,1.81,2.39,2.74
		c-5.27,6.91-9.66,14.59-16.11,20.52c-5.37,5.67-11.77,10.19-17.05,15.95c-5.51,4.12-9.9,9.48-15.38,13.63
		c-3.22,2.76-5.93,6.09-9.34,8.65c-3.6,2.69-6.41,6.26-9.88,9.1c-5.51,4.12-9.74,9.66-15.31,13.71
		c-6.49,6.86-14.55,12.15-20.35,19.65c-6.77,19.5-13.91,38.89-20.61,58.42c-1.06,2.16,0.05,4.39,0.73,6.48
		c7.49,19.6,14.72,39.31,22.17,58.92c4.28,6.9,9.58,13.12,14.11,19.86c6.34,8.16,11.85,16.97,18.51,24.86h-67.69
		c1.4-1.77,2.55-3.7,3.81-5.56c0.27-0.44,0.81-1.32,1.07-1.77c10.12,1.08,20.29,0.49,30.44,0.65c6.04,0.05,12.09-0.01,18.13-0.29
		c-5.65-9.51-12.7-18.07-19.11-27.05c-3.08-4.17-5.61-8.73-7.43-13.58c-6.64-17.96-13.33-35.91-20.21-53.78
		c-1.81-4.51-1.57-9.55,0.14-14.05c6.29-17.17,12.4-34.42,18.36-51.71c1.53-4.64,4.33-8.77,8.04-11.94
		c6.88-6.12,14.06-11.97,19.99-19.06c8.14-7.21,16.91-13.65,25.14-20.74c7.01-5.01,14.02-10.03,20.7-15.47
		c1.86-1.35,2.65-3.57,2.7-5.79c-0.07-0.38-0.23-1.12-0.3-1.5C347.03,264.79,353.86,259.08,359.64,252.33z"/>
</g>
<g>
	<path fill="#B49E84" d="M166.19,186.04c1.63-1.07,3.19-2.22,4.75-3.38c0.53,0.25,1.58,0.76,2.1,1.01
		c2.98,7.43,7.05,14.34,10.87,21.36c18.45,33.91,36.84,67.86,55.28,101.78c2.23,4.17,4.94,8.15,6.29,12.72
		c0.96,3.3-0.05,6.74-1.09,9.89c-8.65,23.22-16.6,46.69-25.22,69.91c-1.63,4.01-1.89,8.52-0.23,12.57
		c6.35,17.11,12.42,34.33,18.71,51.46c1.52,4.23,3.46,8.36,4.14,12.84c0.64,4.28-1.83,8.13-3.9,11.65
		c-3.53,5.58-6.87,11.28-9.85,17.18c4.82,0.47,9.64,0.85,14.45,1.41c-1.26,1.86-2.41,3.79-3.81,5.56h-23
		c7.28-10.95,13.25-22.7,20.36-33.75c-6.24-17.48-12.52-34.94-18.91-52.36c-1.98-6.74-5.16-13.06-6.83-19.89
		c1.38-5.26,3.3-10.37,5.26-15.43c8.05-22.97,16.42-45.81,24.46-68.78c-7.84-13.58-14.87-27.58-22.58-41.22
		C200.44,249.01,183.24,217.57,166.19,186.04z"/>
	<path fill="#B49E84" d="M355.76,228.84c1.58-1.78,3.31-3.42,5-5.11c1.2,1.87,2.4,3.73,3.61,5.6c-2.47,2.35-4.98,4.64-7.55,6.87
		C356.5,233.74,356.14,231.29,355.76,228.84z"/>
	<path fill="#B49E84" d="M313.63,233.35c2.04-0.78,4.06-1.58,6.1-2.36c2.25,10.09,4.73,20.12,7.25,30.15
		c0.57,3.02,1.54,6.27,0.47,9.29c-1.54,3-4.39,5.01-6.96,7.07c-12.97,9.79-25.66,19.95-38.59,29.79l-0.52,0.43
		c-0.93-1.98-1.87-3.94-2.79-5.91c14.43-11.44,29.33-22.33,43.44-34.14C318.96,256.3,316.61,244.74,313.63,233.35z"/>
</g>
<g>
	<path fill="#C1B8A4" d="M173.04,183.67c3.93,1.92,8.28,3.68,10.9,7.39c2.56,3.62,4.36,7.71,6.48,11.59
		c20.16,37.12,40.3,74.25,60.46,111.37c2.29,4.37,5.15,8.46,6.96,13.08c0.98,2.31,0.18,4.82-0.54,7.07
		c-9.11,24.46-17.49,49.18-26.58,73.64c-1.5,3.58-1.24,7.57,0.24,11.11c6.73,17.49,12.73,35.25,19.28,52.8
		c1.35,3.67,3,7.25,3.86,11.08c0.79,2.88-1.09,5.48-2.33,7.92c-2.76,4.64-5.56,9.25-8.21,13.95c-0.26,0.45-0.8,1.33-1.07,1.77
		c-4.81-0.56-9.63-0.94-14.45-1.41c2.98-5.9,6.32-11.6,9.85-17.18c2.07-3.52,4.54-7.37,3.9-11.65c-0.68-4.48-2.62-8.61-4.14-12.84
		c-6.29-17.13-12.36-34.35-18.71-51.46c-1.66-4.05-1.4-8.56,0.23-12.57c8.62-23.22,16.57-46.69,25.22-69.91
		c1.04-3.15,2.05-6.59,1.09-9.89c-1.35-4.57-4.06-8.55-6.29-12.72c-18.44-33.92-36.83-67.87-55.28-101.78
		C180.09,198.01,176.02,191.1,173.04,183.67z"/>
	<path fill="#C1B8A4" d="M319.73,230.99c3.38-1.19,6.78-2.34,10.2-3.43c0.25,1.22,0.54,2.44,0.86,3.66
		c1.36,6.39,2.62,12.82,4.17,19.18c1.69,6.66,3.44,13.31,5.19,19.96c0.07,0.38,0.23,1.12,0.3,1.5c-8.6,6.14-16.01,13.75-23.4,21.26
		c-8.23,7.09-17,13.53-25.14,20.74c-1.61,1.09-3.3,2.08-4.96,3.11c-1.76-3.19-3.45-6.41-5.05-9.68c12.93-9.84,25.62-20,38.59-29.79
		c2.57-2.06,5.42-4.07,6.96-7.07c1.07-3.02,0.1-6.27-0.47-9.29C324.46,251.11,321.98,241.08,319.73,230.99z"/>
	<path fill="#C1B8A4" d="M364.37,229.33l0.5-0.48c1.92,2.78,3.81,5.57,5.81,8.29c0.44,0.64,0.9,1.27,1.39,1.89
		c-4.36,4.23-8.52,8.66-12.43,13.3c-1.24-4.54-1.99-9.19-2.57-13.85c-0.06-0.57-0.19-1.71-0.25-2.28
		C359.39,233.97,361.9,231.68,364.37,229.33z"/>
</g>
<g>
	<path fill="#B29D83" d="M317.05,293.12c7.39-7.51,14.8-15.12,23.4-21.26c-0.05,2.22-0.84,4.44-2.7,5.79
		C331.07,283.09,324.06,288.11,317.05,293.12z"/>
</g>
</svg>
