<?xml version="1.0" encoding="utf-8"?>
<!-- Generator: Adobe Illustrator 16.0.4, SVG Export Plug-In . SVG Version: 6.00 Build 0)  -->
<!DOCTYPE svg PUBLIC "-//W3C//DTD SVG 1.1//EN" "http://www.w3.org/Graphics/SVG/1.1/DTD/svg11.dtd">
<svg version="1.1" id="Layer_1" xmlns="http://www.w3.org/2000/svg" xmlns:xlink="http://www.w3.org/1999/xlink" x="0px" y="0px"
	 width="512px" height="512px" viewBox="0 0 512 512" enable-background="new 0 0 512 512" xml:space="preserve">
<g>
	<path fill="#3D7019" d="M158.71,0h2.56c7.88,2.41,15.87,4.45,23.82,6.57c2.4,3.04,5.01,5.94,8.07,8.32
		c-9.15-2.09-18.27-4.33-27.34-6.79c-7.01-2.08-13.87,1.23-20.44,3.28c-12.95,4.05-25.87,8.16-38.86,12.07
		c-3.79,1.12-7.54,2.81-10.21,5.83c-4.13,4.55-8.03,9.31-12.32,13.72c-1.67,2.24-4.76,4.27-4.52,7.33c3.34,0.2,6.67-0.31,9.98-0.78
		c11.71-1.83,23.49-3.18,35.21-4.98c3.62-0.45,7.35-1.07,10.96-0.23c2.86,0.66,4.7,3.69,4.28,6.55c-0.58,5.17-3.68,9.56-6.31,13.89
		c-1.53-1.39-3.11-2.72-4.69-4.04c1.5-3.75,3.37-7.33,5.21-10.91c-4.94,0.8-9.88,1.51-14.83,2.2c-0.89-1.34-1.77-2.67-2.66-4.01
		c-5.53,1.15-10.81,3.22-15.51,6.36c-13.6,1.93-27.2,3.82-40.83,5.56c8.53-9.99,17.49-19.61,26.27-29.38
		c3.15-3.8,6.38-7.71,10.48-10.51c7.26-3.23,15.11-4.81,22.59-7.42C132.61,8.29,145.92,4.92,158.71,0z"/>
	<path fill="#3D7019" d="M260.42,38.1c13.79-3.8,27.87-6.48,41.67-10.25c5.29,4.37,10.72,8.57,16.23,12.66
		c-0.11,2.48-0.22,4.96-0.15,7.44c-6.47-3.17-11.18-9.08-17.72-12.01c-6.82-0.53-13.36,2.43-19.8,4.31
		c11.34,7.17,23.93,12.05,35.68,18.47c2.88,1.62,6.05,4.38,5.44,8.06c-0.89,3.57-3.61,6.27-5.83,9.07
		c-3.78-0.06-7.57,0.07-11.34,0.38c3.17-3.98,7.59-6.65,11.05-10.33C297.31,56.49,278.74,47.56,260.42,38.1z"/>
	<path fill="#3D7019" d="M349.1,33.2c7.5,2.93,15.18,5.36,22.81,7.92c2.33,0.47,2.29,3.28,2.85,5.1c1.47,9.24,3.01,18.47,4.56,27.69
		c-2.27,0.68-4.53,1.36-6.83,1.89c-0.32,0.04-0.97,0.13-1.3,0.18c1.55-6.89-0.53-13.77-1.5-20.57c-0.52-2.68-0.76-5.54-2.15-7.95
		c-1.54-1.33-3.5-2-5.35-2.74c-6.3-2.26-12.62-4.48-19.11-6.13C345.15,36.87,347.13,35.03,349.1,33.2z"/>
	<path fill="#3D7019" d="M335.16,44.09c1.94-1.22,3.88-2.46,5.75-3.8c1.03,5.24,2.33,10.87,0.43,16.06
		c-1.06,3.03-4.94,4.47-7.78,3.09c-3.74-1.55-7.02-3.95-10.5-5.97c2.13-1.44,4.2-2.95,6.27-4.47c2.28,1.72,4.57,3.43,6.79,5.23
		C336.04,50.83,335.56,47.46,335.16,44.09z"/>
	<path fill="#3D7019" d="M258.07,77.98c6.65,0.17,13.31,0.13,19.89-0.95c1.66,2.33,3.32,4.67,4.96,7.04
		c-6.23,0.1-12.51-0.53-18.7,0.38c-2.24,0.25-3.66,2.2-4.9,3.86c-2.85,4.07-5.07,8.52-7.47,12.85c6.26,3.62,12.76,6.8,19.34,9.8
		c0.19,1.07,0.39,2.13,0.6,3.19c0.26,1.52,0.56,3.04,0.81,4.56l-0.83,0.27c-2.78-1.24-5.47-2.66-8.19-4.02
		c-2.39-1.22-4.79-2.42-7.17-3.64c-4.76-2.57-9.63-4.88-14.42-7.38C247.44,95.35,252.6,86.57,258.07,77.98z"/>
	<path fill="#3D7019" d="M76.87,87.86c8.25-1.57,16.54-3,24.85-4.27c3.62,1,7.05,2.58,10.33,4.41c-10.1,2.19-20.29,3.92-30.49,5.57
		c-4.48,0.75-9.1,1.11-13.39,2.72c-4.47,1.8-7.53,5.71-10.93,8.94c-3.79,3.83-8.78,6.79-10.8,12.04c-1.42,0.75-2.78,1.6-4.1,2.51
		c-1.83,1.32-3.57,2.75-5.31,4.18c-0.05-3.04-2.32-6.92,0.67-9.2c4.36-4.33,8.54-8.89,13.41-12.66c4.45-3.54,7.8-8.28,12.36-11.67
		C67.8,88.98,72.4,88.7,76.87,87.86z"/>
	<path fill="#3D7019" d="M118.41,130.17c7.11-2.43,14.2-5.21,21.71-6.12c2.53-0.34,5.93,0.01,6.98,2.77
		c1.27,3.32,1.36,6.93,1.74,10.43l-0.81-0.17c-2-0.41-4.01-0.8-6.01-1.18c0-2.01-0.01-4.02-0.02-6.03
		c-4.18,1.16-8.3,2.54-12.57,3.33C125.7,132.39,122.1,131.12,118.41,130.17z"/>
	<path fill="#3D7019" d="M272.65,125.75c0.26,2.71,0.84,5.39,1.48,8.03c0.91,4.75,1.48,9.55,2.12,14.33c-1.5-0.66-2.99-1.33-4.47-2
		c-1.62-0.75-3.23-1.5-4.83-2.26c1.04-3.68,1.97-7.39,3.22-11C270.97,130.47,271.87,128.13,272.65,125.75z"/>
	<path fill="#3D7019" d="M81.31,151.17c6.14-4.8,11.76-10.22,17.94-14.97c-4.98,7.09-10.57,13.75-14.96,21.24
		c-1.37,1.25-2.71,2.53-4.04,3.83c-0.13-2.4-0.26-4.8-0.3-7.2c0.04-3.46,0.46-6.89,0.67-10.34
		C80.76,146.22,81.04,148.69,81.31,151.17z"/>
	<path fill="#3D7019" d="M333.75,151.09c4.75,3.3,9.15,7.27,14.64,9.33c4.4,6.16,8.31,12.64,12.61,18.87
		c-5.51-3.48-10.72-7.38-15.71-11.57c-3.48-2.66-7.03-5.24-10.49-7.92C334.49,156.89,334.13,153.99,333.75,151.09z"/>
	<path fill="#3D7019" d="M311.37,157.63c1.93,1.03,3.86,2.05,5.81,3.03c-2.1,4.28-4.14,8.58-6.24,12.87
		c-1.77,3.56-3.45,7.16-5.13,10.76c-0.62,1.26-1.25,2.52-1.87,3.77c1.9,2.78,3.63,5.68,5.53,8.47c3.07,4.68,5.65,9.67,8.79,14.32
		c-2.94-1.69-6.04-3.07-9.11-4.47c-1.58-0.99-3.09-2.06-4.66-3.05c-0.92-4.48-3.57-8.25-5.58-12.27c-1.79-3.2-0.06-6.78,1.2-9.82
		C303.78,173.33,307.74,165.56,311.37,157.63z"/>
	<path fill="#3D7019" d="M238.78,164.07c2.39-1.27,4.69-2.72,7.08-4.01c-0.47,2.43-0.88,4.89-0.83,7.37
		c1.77,3.12,3.89,6.01,5.74,9.08c1.6,2.78,3.01,5.67,4.33,8.59c-0.61-0.31-1.85-0.95-2.47-1.26c-3.52-2.06-7.1-4.03-10.68-5.97
		c-4.52-2.47-8.97-5.06-13.32-7.8C231.94,167.95,235.31,165.93,238.78,164.07z"/>
	<path fill="#3D7019" d="M355.6,207.62c2.91-8.15,5.21-16.51,8.48-24.53c1.59,2.18,3.16,4.38,4.78,6.55
		c-3.19,7.47-6.02,15.14-8.1,23c-1.14,2.56,1.79,3.87,3.49,5.1c5.04,2.87,10.05,5.81,15.01,8.83c-4.17-0.36-8.35-0.18-12.52-0.26
		c-0.35-0.19-1.06-0.56-1.41-0.75c-1.78-0.95-3.53-1.96-5.28-2.95c-2.3-1.28-4.68-2.38-7.14-3.3
		C352.54,215.21,354.4,211.42,355.6,207.62z"/>
	<path fill="#3D7019" d="M62.46,215.97c13.64-8.44,27.92-15.81,41.6-24.18c1.99,0.7,3.98,1.39,5.98,2.07
		c1.6,2.73,3.16,5.48,5.01,8.05c-4.86-1.51-10.53-3-15.18-0.06c-6.27,3.53-12.59,7.01-18.43,11.23c8.95,3.4,18.64,3.88,27.7,6.81
		c4.5,1.09,4.34,6.41,5.11,10.03c-2.79-0.67-5.57-1.4-8.34-2.14c0.33-0.48,0.99-1.46,1.32-1.95
		C92.31,222.55,77.32,219.54,62.46,215.97z"/>
	<path fill="#3D7019" d="M73.65,251.71c9.81-7.21,19.47-14.63,29.26-21.86c-0.36,4.14-0.96,8.25-1.7,12.34
		c0.01-0.55,0.01-1.65,0.01-2.2c-8.86,4.92-16.47,11.71-24.62,17.66l-0.54,0.48C75.26,255.99,74.45,253.85,73.65,251.71z"/>
</g>
<g>
	<path fill="#4C881F" d="M145.38,11.38c6.57-2.05,13.43-5.36,20.44-3.28c9.07,2.46,18.19,4.7,27.34,6.79
		c0.9,0.42,1.79,0.85,2.69,1.27c6.96,6.09,14.57,11.38,21.38,17.62c-20.36,1.29-40.78,1.27-61.15,2.36
		c8.22,9.59,16.66,18.98,24.74,28.7c-1.79-0.01-3.57-0.01-5.35-0.04c-1.67-0.05-3.35-0.05-5.02-0.06c-6.7-0.91-13.37-2.04-20.1-2.64
		c0.55,3.22,1.09,6.45,1.63,9.68c-2.41,1.2-4.83,2.39-7.25,3.58c-3.83-3.4-7.43-7.05-11.14-10.58c2.63-4.33,5.73-8.72,6.31-13.89
		c0.42-2.86-1.42-5.89-4.28-6.55c-3.61-0.84-7.34-0.22-10.96,0.23c-11.72,1.8-23.5,3.15-35.21,4.98c-3.31,0.47-6.64,0.98-9.98,0.78
		c-0.24-3.06,2.85-5.09,4.52-7.33c4.29-4.41,8.19-9.17,12.32-13.72c2.67-3.02,6.42-4.71,10.21-5.83
		C119.51,19.54,132.43,15.43,145.38,11.38z"/>
	<path fill="#4C881F" d="M280.65,40.25c6.44-1.88,12.98-4.84,19.8-4.31c6.54,2.93,11.25,8.84,17.72,12.01
		c0.74,2.4,1.65,4.74,2.59,7.07c0.58-0.39,1.73-1.16,2.3-1.55c3.48,2.02,6.76,4.42,10.5,5.97c2.84,1.38,6.72-0.06,7.78-3.09
		c1.9-5.19,0.6-10.82-0.43-16.06c0.73-0.55,1.46-1.12,2.17-1.7c6.49,1.65,12.81,3.87,19.11,6.13c1.85,0.74,3.81,1.41,5.35,2.74
		c1.39,2.41,1.63,5.27,2.15,7.95c0.97,6.8,3.05,13.68,1.5,20.57c-5.51,0.28-11.04,0.84-16.34,2.44
		c9.85,6.84,20.17,12.99,30.16,19.61c3.36,2.06,3.76,6.24,4.33,9.76c2.57,18.73,5.97,37.34,8.5,56.08
		c-17.77-2.91-35.36-6.84-53.18-9.5c1.23,2.02,2.45,4.05,3.73,6.05c-5.49-2.06-9.89-6.03-14.64-9.33
		c-1.36-9.61-2.59-19.25-3.68-28.9c12.45,4.65,24.36,10.65,36.91,15.01c-5.02-7.6-10.99-14.5-16.47-21.76
		c-8.07-10.57-16.35-20.99-24.36-31.6c-2.63-3.46-5.27-8-10.21-7.99c2.22-2.8,4.94-5.5,5.83-9.07c0.61-3.68-2.56-6.44-5.44-8.06
		C304.58,52.3,291.99,47.42,280.65,40.25z"/>
	<path fill="#4C881F" d="M259.32,88.31c1.24-1.66,2.66-3.61,4.9-3.86c6.19-0.91,12.47-0.28,18.7-0.38l0.92-0.01
		c7.05,10.82,15.91,20.31,23.11,31.03c-12.58-4.13-24.38-10.24-36.79-14.82c0.24,3.57,0.47,7.15,1.03,10.69
		c-6.58-3-13.08-6.18-19.34-9.8C254.25,96.83,256.47,92.38,259.32,88.31z"/>
	<path fill="#4C881F" d="M81.56,93.57c10.2-1.65,20.39-3.38,30.49-5.57c2.31,1.36,4.86,2.29,7.55,2.48
		c4.21,1.18,8.35,2.74,12.2,4.83c3.88,2.09,5.84,6.25,8.11,9.82c6.94,11.64,14.97,22.62,21.42,34.54
		c-4.18-0.72-8.34-1.55-12.49-2.42c-0.38-3.5-0.47-7.11-1.74-10.43c-1.05-2.76-4.45-3.11-6.98-2.77c-7.51,0.91-14.6,3.69-21.71,6.12
		c-4.06-0.47-8.11-1.03-12.15-1.67c-2.33,2.57-4.66,5.15-7.01,7.7c-6.18,4.75-11.8,10.17-17.94,14.97
		c-0.27-2.48-0.55-4.95-0.69-7.44c0.32-11.88,1.2-23.75,1.32-35.64c-11.87,2.9-23.65,6.2-35.5,9.18c2.02-5.25,7.01-8.21,10.8-12.04
		c3.4-3.23,6.46-7.14,10.93-8.94C72.46,94.68,77.08,94.32,81.56,93.57z"/>
	<path fill="#4C881F" d="M360.76,212.64c2.08-7.86,4.91-15.53,8.1-23c9.23,12.6,18.15,25.42,27.02,38.28
		c-4.73-0.28-9.47-0.4-14.2-0.72c-0.61-0.16-1.82-0.47-2.42-0.63c-4.96-3.02-9.97-5.96-15.01-8.83
		C362.55,216.51,359.62,215.2,360.76,212.64z"/>
	<path fill="#4C881F" d="M99.87,201.85c4.65-2.94,10.32-1.45,15.18,0.06c0.97,0.68,1.94,1.35,2.92,2.03
		c7.95,10.97,17.43,20.72,25.35,31.71c-9.76-1.54-19.45-3.49-29.07-5.73c-0.77-3.62-0.61-8.94-5.11-10.03
		c-9.06-2.93-18.75-3.41-27.7-6.81C87.28,208.86,93.6,205.38,99.87,201.85z"/>
	<path fill="#4C881F" d="M76.6,257.65c8.15-5.95,15.76-12.74,24.62-17.66c0,0.55,0,1.65-0.01,2.2c-1.28,7.97-3.01,15.87-4.48,23.81
		c-0.19,0.98-0.38,1.97-0.54,2.97c-3.55,2.24-6.99,4.65-10.39,7.11C82.26,270.19,79.35,263.95,76.6,257.65z"/>
</g>
<g>
	<path fill="#2B4E11" d="M185.09,6.57c10.48,2.53,20.93,5.11,31.3,8.04c4.88,1.45,10.17,1.85,14.7,4.28
		c9.1,7.24,18.33,14.32,27.35,21.67c6.28,5.2,13.09,9.77,19.06,15.34c-4.11,0.14-8.24-0.07-12.34,0.33
		c-10.55,1.73-21.28,0.03-31.88,1.09c-5.81,1.02-11.72,0.64-17.59,0.68c9.23,9.74,17.43,20.4,26.68,30.13
		c-10.8-1.61-21.69-2.58-32.48-4.29c2.03,7.93,4.44,15.78,5.79,23.88c-3.06-2.44-5.62-5.43-8.58-7.98
		c-0.97-1.03-2.52-0.53-3.74-0.49c-4.46,0.7-8.97,0.83-13.42,1.53c-1.63,0.18-3.25,0.33-4.87,0.49c-5.65,0.51-11.3,1.03-16.95,1.56
		c-3.22,0.28-6.39,0.89-9.57,1.45c3.02,1.17,6.06,2.28,9.12,3.34c5.67,2.24,11.24,4.74,17.02,6.67c1.75,0.63,3.5,1.28,5.23,1.98
		c1.96,0.79,4.02,1.71,5.22,3.56c4.01,6.22,7.89,12.54,11.93,18.75c1.26,1.89,2.52,3.78,3.74,5.69c2.08,3.31,4.08,6.68,6.37,9.86
		c1.05,1.44,2.16,2.85,3.27,4.26c-0.44,1-0.87,2-1.3,3l-0.86-0.12c-7.08-1.08-13.87-3.96-21.08-4.11
		c-3.27,3.38-4.75,7.99-6.97,12.04c-0.14-4.66-0.2-9.33-0.28-13.99c-1.61-0.39-3.23-0.78-4.84-1.16c-3.43-0.79-6.89-1.46-10.35-2.08
		c-1.55-0.29-3.1-0.59-4.65-0.88c-0.11,3.57-0.2,7.14-0.27,10.71c-2.88-1.9-5.77-3.77-8.67-5.63c-3.54,4.42-6.92,8.97-10.08,13.66
		c4.58,2.59,9.63,4.85,12.93,9.12c2.95,3.79,5.17,8.08,7.59,12.21c-9.93,0.89-19.58-2.35-29.33-3.7c0.49-2.34,0.99-4.68,1.52-7.01
		c-1.24,0.45-2.49,0.9-3.73,1.35c-0.15-1.42-0.29-2.83-0.4-4.24c0.44-4.35,1.39-8.68,1.1-13.07c-0.13-7.46,0.51-14.9,1.07-22.33
		c0.12-2.09,0.16-4.18,0.17-6.26c2,0.38,4.01,0.77,6.01,1.18c0.04,8.03-0.28,16.07,0.12,24.11c3.72-3.69,6.86-7.88,9.93-12.11
		c2.17-3.28,5.74-5.85,9.86-5.09c12.92,1.45,25.28,6.27,38.3,7.12c-2.88-7.13-7.75-13.15-11.59-19.74
		c-2.31-3.85-4.95-7.94-9.33-9.64c-8.4-3.36-16.91-6.47-25.37-9.69c-2.44-1.05-5.06-2.17-6.66-4.39c-1.95-2.65-0.9-6.75,1.83-8.44
		c3.07-1.86,6.61-2.7,9.98-3.84c-10.81-2.87-21.91-4.33-32.82-6.73c-4.34-1.16-8.72,0.01-12.68,1.84c-2.69-0.19-5.24-1.12-7.55-2.48
		c-3.28-1.83-6.71-3.41-10.33-4.41c5.63-0.98,11.27-2,16.9-2.99c1.35-1.07,1.93-2.77,2.75-4.22c2.48-5.23,5.29-10.3,7.53-15.64
		c1.58,1.32,3.16,2.65,4.69,4.04c3.71,3.53,7.31,7.18,11.14,10.58c1.48,1.35,2.95,2.71,4.43,4.07c-3.33,1.15-6.58,2.51-9.76,4.02
		c9.21,1.54,18.33,3.57,27.57,4.95c5.95,1.23,11.87,2.6,17.86,3.62c1.71,0.33,3.42,0.66,5.13,1.01c4.14,0.88,8.31,1.59,12.5,2.11
		c-3.65-4.34-8.46-7.44-12.42-11.45c-1.67-1.61-3.29-3.26-4.89-4.92c-2.93-2.82-5.43-6.48-9.32-7.99c-3.54,0.16-6.8,1.75-10.12,2.85
		c-3.91,1.45-7.8,2.97-11.78,4.23c-0.27-2.28-0.55-4.56-0.83-6.83c5.66-2.43,11.42-4.62,17.35-6.29c1.67,0.01,3.35,0.01,5.02,0.06
		c3.84,0.89,7.5,2.6,10.47,5.23c5.55,4.78,10.56,10.16,15.93,15.15c1.94-2.42,3.4-5.67,6.41-6.91c5.25-0.75,10.58,0.15,15.86,0.08
		c-3.3-4.79-7.45-8.88-11.14-13.35c-2.2-2.71-4.15-6.69-2.08-10.02c2.42-3.5,7.18-3.7,11.03-3.96c11.91-0.11,23.85-0.32,35.68-1.71
		c-5.97-6.46-13.47-11.15-20.17-16.77c-4.69-3.78-9.29-8.07-15.23-9.75c-8.73-2.45-17.65-4.18-26.38-6.63
		c-0.9-0.42-1.79-0.85-2.69-1.27C190.1,12.51,187.49,9.61,185.09,6.57z"/>
	<path fill="#2B4E11" d="M333.83,28.07c5.06,1.78,10.18,3.4,15.27,5.13c-1.97,1.83-3.95,3.67-6.02,5.39
		c-0.71,0.58-1.44,1.15-2.17,1.7c-1.87,1.34-3.81,2.58-5.75,3.8C335.11,38.72,334.18,33.42,333.83,28.07z"/>
	<path fill="#2B4E11" d="M401.81,61.5c6.9-5.02,13.23-10.88,20.45-15.41c20.58,1.92,41.22,3.86,61.79,6.03
		c-9.01,13.03-17.6,26.37-26.46,39.5c-1.94,3.24-6.13,3.06-9.4,3.61c-11.22,1.68-22.53,2.84-33.65,5.05
		c10.27,6.85,20.68,13.51,31.1,20.12c3.23,1.94,3.01,6.15,3.59,9.41c2.98,18.79,5.77,37.6,8.87,56.37
		c-18.05-3.76-36.3-6.57-54.34-10.37c17.65,24.66,34.79,49.68,52.46,74.32c-14.41-1.31-28.84-2.04-43.25-3.28
		c-0.68-0.02-2.05-0.06-2.73-0.08c-5.46-0.42-11.11-1.17-15.86-4.09c-5.63-3.35-11.19-6.8-16.98-9.85c-1.76-1-3.5-2.02-5.21-3.09
		c-1.81-1.16-3.6-2.35-5.45-3.43c4.17,0.08,8.35-0.1,12.52,0.26c0.6,0.16,1.81,0.47,2.42,0.63c5.73,3.68,11.31,7.65,17.44,10.67
		c4.48,2.2,9.57,2.32,14.45,2.63c9.24,0.41,18.44,1.78,27.71,1.38c-2.59-5.24-5.97-10.02-9.45-14.7c-9.9-14.1-19.7-28.28-29.8-42.24
		c-1.9-2.9-4.3-6.05-3.92-9.72c0.32-2.95,3.06-5.18,6-5.13c5.87-0.22,11.56,1.55,17.3,2.54c9.5,1.62,18.88,4.2,28.56,4.47
		c-1.9-13.92-4.44-27.75-6.3-41.68c-0.73-4-0.91-8.9-4.65-11.38c-4.74-3.35-9.88-6.1-14.63-9.43c-4.89-3.43-10.64-5.85-14.62-10.42
		c-2.43-2.65-1.8-7.28,1.05-9.35c2.68-1.54,5.85-1.81,8.85-2.29c8.19-1.01,16.35-2.26,24.54-3.25c3.29-0.54,7.13-0.86,9.32-3.73
		c3.79-4.69,6.52-10.11,10.09-14.96c2.97-4.05,5.72-8.29,7.54-12.99c-14.04-2.07-28.22-2.84-42.3-4.47
		c-5.69-0.88-10.07,3.31-14.12,6.59C407.06,66.13,398.6,71.51,391,78c-3.46,2.62-7.1,6.24-11.77,5.89
		c-4.09-0.45-5.32-4.93-6.74-8.09c2.3-0.53,4.56-1.21,6.83-1.89c0.25,1.39,0.53,2.78,0.8,4.17c2.15-1.78,4.39-3.44,6.63-5.11
		c3.14-0.3,6.62-0.03,9.38-1.83C399.19,68.78,400.24,64.85,401.81,61.5z"/>
	<path fill="#2B4E11" d="M277.96,77.03c8.87-0.39,17.84,0.74,26.64-0.8c3.77-0.31,7.56-0.44,11.34-0.38
		c4.94-0.01,7.58,4.53,10.21,7.99c8.01,10.61,16.29,21.03,24.36,31.6c5.48,7.26,11.45,14.16,16.47,21.76
		c-12.55-4.36-24.46-10.36-36.91-15.01c1.09,9.65,2.32,19.29,3.68,28.9c0.38,2.9,0.74,5.8,1.05,8.71c0.25,3.46,0.81,6.88,1.35,10.3
		c-5.45-2.76-10.9-5.52-16.42-8.14c-0.85-0.44-1.7-0.87-2.55-1.3c-1.95-0.98-3.88-2-5.81-3.03c-4.07-2.5-8.83-4-13.6-2.83
		c-10.99,1.74-21.98,3.51-33.05,4.6c-7.29,0.58-12.94,5.79-19.69,8.03c-0.05-2.48,0.36-4.94,0.83-7.37
		c5.84-3.24,11.81-6.25,17.5-9.74c2.34-1.28,2.71-4.21,3.59-6.47c1.6,0.76,3.21,1.51,4.83,2.26c0.18,1.65,0.37,3.31,0.56,4.97
		c10.42,0.18,20.49-3.12,30.86-3.33c8.72,0.81,15.44,7.41,23.8,9.56c0.32-11.57-3.19-22.82-3.09-34.36
		c-0.17-3.19,1.67-6.82,5.22-6.96c5.75-0.03,10.87,3.11,16.23,4.81c-5.71-9.42-13.14-17.64-19.7-26.47
		c-2.49-3.16-4.62-6.64-7.5-9.47c-1.81-1.94-4.65-1.89-7.09-2.02c-9.1-0.1-18.14,1.15-27.23,1.22l-0.92,0.01
		C281.28,81.7,279.62,79.36,277.96,77.03z"/>
	<path fill="#2B4E11" d="M37.03,123.96c1.74-1.43,3.48-2.86,5.31-4.18c1.97,6.96,2.67,14.17,3.53,21.32
		c1.79,12.37,2.82,24.86,5.26,37.13c10.1-7.46,18.15-17.45,28.82-24.16c0.04,2.4,0.17,4.8,0.3,7.2
		c-11.2,10.48-23.19,20.11-34.02,30.99C42.78,169.55,40.19,146.71,37.03,123.96z"/>
	<path fill="#2B4E11" d="M106.26,128.5c4.04,0.64,8.09,1.2,12.15,1.67c3.69,0.95,7.29,2.22,11.02,3.03l-0.73,0.17
		c-4.83,1.31-9.62,2.74-14.5,3.85c-4.73,1.1-9.64,2.39-13.43,5.62c-5.36,5-10.84,9.9-16.48,14.6c4.39-7.49,9.98-14.15,14.96-21.24
		C101.6,133.65,103.93,131.07,106.26,128.5z"/>
	<path fill="#2B4E11" d="M250.77,176.51c6.27,1.49,12.28,4.37,17.21,8.54c2.88,2.48,2.57,6.65,2.39,10.08
		c-0.77,8.72-1.92,17.42-2.12,26.19c9-3.79,15.91-10.99,24.41-15.64c5.14-3.17,11.12-0.27,16.49,0.7c3.07,1.4,6.17,2.78,9.11,4.47
		c1.16,1.53,2.31,3.08,3.41,4.67c1.11,1.67,2.16,3.39,3.13,5.15c0.83,1.55,1.59,3.14,2.35,4.73c-1.8-0.79-3.57-1.63-5.31-2.52
		c-1.32-0.67-2.62-1.36-3.91-2.07c-3.28-1.8-6.55-3.62-9.85-5.37c-2-1.06-3.99-2.14-5.97-3.24c-1.37-0.77-2.74-1.55-4.1-2.34
		c-12.59,8.97-25.47,17.49-38.16,26.3c0.85-7.03,1.19-14.11,2.16-21.12c0.45-4.84,0.45-9.71,0.81-14.55
		c0.39-3.41,1.08-6.78,1.4-10.2c-3.06-1.7-6.02-3.56-9.12-5.19C253.78,182.18,252.37,179.29,250.77,176.51z"/>
	<path fill="#2B4E11" d="M110.04,193.86c17.78,6.13,35.86,11.3,53.59,17.55c2.93,1.11,4.95,3.62,7,5.87c1.97,2.31,3.9,4.67,5.8,7.04
		c1.42,1.78,2.82,3.57,4.23,5.35c2.01,2.52,4.05,5.02,6.09,7.51c1.66,2.01,3.32,4.01,5.13,5.89c6.83,6.55,14.8,11.8,21.56,18.44
		c-9.13,3.85-19.12,4.57-28.67,6.92c-7.13-4.88-13.88-10.28-20.88-15.33c-1.2,4.52-2.72,9-3.12,13.67
		c-0.22,2.02,1.26,3.61,2.19,5.25c-1.31,1.28-2.63,2.56-3.85,3.92c-2.63,11.79-4.38,23.78-7.32,35.51
		c-4.08-7.25-7.05-15.03-10.77-22.45c-3.05-6.83-7.42-12.99-9.96-20.04c-1.92-5-4.42-9.76-7.13-14.38
		c-6.13,3.96-11.49,8.93-17.3,13.32c-3.88,2.67-7.54,5.63-11.25,8.53c0.22-2.49,0.44-4.99,0.81-7.46c0.16-1,0.35-1.99,0.54-2.97
		c7.01-3.83,12.75-9.44,19.07-14.23c2.98-2.1,6.72-4.87,10.52-3.19c3.83,1.9,5.59,6.1,7.42,9.71c4.75,10.48,9.4,21.06,15.26,30.98
		c4.06-12.7,5.02-26.14,8.33-39.03c0.73-2.83,2.49-6.05,5.79-6.19c7.54-0.51,14.7,3.04,22.28,2.63
		c-5.11-7.47-11.48-13.94-16.9-21.17c-3.17-4.25-7.08-8.23-12.32-9.74c-12.69-4.1-25.34-8.34-38.21-11.83
		c-0.98-0.68-1.95-1.35-2.92-2.03C113.2,199.34,111.64,196.59,110.04,193.86z"/>
	<path fill="#2B4E11" d="M67.11,259.09c0.92-3.38,3.85-5.46,6.54-7.38c0.8,2.14,1.61,4.28,2.41,6.42c-4.06,4.81-5,11.21-7,16.98
		c-1.83,5.36-3.63,10.75-4.8,16.31c7.34-4.23,13.18-10.54,20.53-14.77c1.13,1.81,2.26,3.62,3.38,5.43
		c-12.69,9.83-25.07,20.06-38.06,29.5c2.42-8.23,5.42-16.28,7.98-24.46C60.75,277.66,64.06,268.41,67.11,259.09z"/>
</g>
<g>
	<path fill="#355F16" d="M195.85,16.16c8.73,2.45,17.65,4.18,26.38,6.63c5.94,1.68,10.54,5.97,15.23,9.75
		c6.7,5.62,14.2,10.31,20.17,16.77c-11.83,1.39-23.77,1.6-35.68,1.71c-3.85,0.26-8.61,0.46-11.03,3.96
		c-2.07,3.33-0.12,7.31,2.08,10.02c3.69,4.47,7.84,8.56,11.14,13.35c-5.28,0.07-10.61-0.83-15.86-0.08
		c-3.01,1.24-4.47,4.49-6.41,6.91c-5.37-4.99-10.38-10.37-15.93-15.15c-2.97-2.63-6.63-4.34-10.47-5.23
		c1.78,0.03,3.56,0.03,5.35,0.04c-8.08-9.72-16.52-19.11-24.74-28.7c20.37-1.09,40.79-1.07,61.15-2.36
		C210.42,27.54,202.81,22.25,195.85,16.16z"/>
	<path fill="#355F16" d="M414.74,59.74c4.05-3.28,8.43-7.47,14.12-6.59c14.08,1.63,28.26,2.4,42.3,4.47
		c-1.82,4.7-4.57,8.94-7.54,12.99c-3.57,4.85-6.3,10.27-10.09,14.96c-2.19,2.87-6.03,3.19-9.32,3.73
		c-8.19,0.99-16.35,2.24-24.54,3.25c-3,0.48-6.17,0.75-8.85,2.29c-2.85,2.07-3.48,6.7-1.05,9.35c3.98,4.57,9.73,6.99,14.62,10.42
		c4.75,3.33,9.89,6.08,14.63,9.43c3.74,2.48,3.92,7.38,4.65,11.38c1.86,13.93,4.4,27.76,6.3,41.68c-9.68-0.27-19.06-2.85-28.56-4.47
		c-5.74-0.99-11.43-2.76-17.3-2.54c-2.94-0.05-5.68,2.18-6,5.13c-0.38,3.67,2.02,6.82,3.92,9.72c10.1,13.96,19.9,28.14,29.8,42.24
		c3.48,4.68,6.86,9.46,9.45,14.7c-9.27,0.4-18.47-0.97-27.71-1.38c-4.88-0.31-9.97-0.43-14.45-2.63
		c-6.13-3.02-11.71-6.99-17.44-10.67c4.73,0.32,9.47,0.44,14.2,0.72c-8.87-12.86-17.79-25.68-27.02-38.28
		c-1.62-2.17-3.19-4.37-4.78-6.55c-0.83-1.11-1.7-2.18-2.59-3.23l-0.49-0.57c-4.3-6.23-8.21-12.71-12.61-18.87
		c-1.28-2-2.5-4.03-3.73-6.05c17.82,2.66,35.41,6.59,53.18,9.5c-2.53-18.74-5.93-37.35-8.5-56.08c-0.57-3.52-0.97-7.7-4.33-9.76
		c-9.99-6.62-20.31-12.77-30.16-19.61c5.3-1.6,10.83-2.16,16.34-2.44c0.33-0.05,0.98-0.14,1.3-0.18c1.42,3.16,2.65,7.64,6.74,8.09
		c4.67,0.35,8.31-3.27,11.77-5.89C398.6,71.51,407.06,66.13,414.74,59.74z"/>
	<path fill="#355F16" d="M150.35,62.1c6.73,0.6,13.4,1.73,20.1,2.64c-5.93,1.67-11.69,3.86-17.35,6.29
		c0.28,2.27,0.56,4.55,0.83,6.83c-1.59,0.52-3.19,1.03-4.77,1.57c-1.48-1.36-2.95-2.72-4.43-4.07c2.42-1.19,4.84-2.38,7.25-3.58
		C151.44,68.55,150.9,65.32,150.35,62.1z"/>
	<path fill="#355F16" d="M283.84,84.06c9.09-0.07,18.13-1.32,27.23-1.22c2.44,0.13,5.28,0.08,7.09,2.02
		c2.88,2.83,5.01,6.31,7.5,9.47c6.56,8.83,13.99,17.05,19.7,26.47c-5.36-1.7-10.48-4.84-16.23-4.81c-3.55,0.14-5.39,3.77-5.22,6.96
		c-0.1,11.54,3.41,22.79,3.09,34.36c-8.36-2.15-15.08-8.75-23.8-9.56c-10.37,0.21-20.44,3.51-30.86,3.33
		c-0.19-1.66-0.38-3.32-0.56-4.97c1.48,0.67,2.97,1.34,4.47,2c-0.64-4.78-1.21-9.58-2.12-14.33c0.33,0.62,1,1.84,1.34,2.45
		c2.35-5.39,4.94-11.07,4.49-17.09c-0.35-4.09-4.61-5.79-7.91-7.04c-0.06,0.51-0.19,1.54-0.26,2.05c-0.21-1.06-0.41-2.12-0.6-3.19
		c-0.56-3.54-0.79-7.12-1.03-10.69c12.41,4.58,24.21,10.69,36.79,14.82C299.75,104.37,290.89,94.88,283.84,84.06z"/>
	<path fill="#355F16" d="M119.6,90.48c3.96-1.83,8.34-3,12.68-1.84c10.91,2.4,22.01,3.86,32.82,6.73c-3.37,1.14-6.91,1.98-9.98,3.84
		c-2.73,1.69-3.78,5.79-1.83,8.44c1.6,2.22,4.22,3.34,6.66,4.39c8.46,3.22,16.97,6.33,25.37,9.69c4.38,1.7,7.02,5.79,9.33,9.64
		c3.84,6.59,8.71,12.61,11.59,19.74c-13.02-0.85-25.38-5.67-38.3-7.12c-4.12-0.76-7.69,1.81-9.86,5.09
		c-3.07,4.23-6.21,8.42-9.93,12.11c-0.4-8.04-0.08-16.08-0.12-24.11l0.81,0.17c4.15,0.87,8.31,1.7,12.49,2.42
		c-6.45-11.92-14.48-22.9-21.42-34.54c-2.27-3.57-4.23-7.73-8.11-9.82C127.95,93.22,123.81,91.66,119.6,90.48z"/>
	<path fill="#355F16" d="M46.44,117.27c11.85-2.98,23.63-6.28,35.5-9.18c-0.12,11.89-1,23.76-1.32,35.64
		c-0.21,3.45-0.63,6.88-0.67,10.34c-10.67,6.71-18.72,16.7-28.82,24.16c-2.44-12.27-3.47-24.76-5.26-37.13
		c-0.86-7.15-1.56-14.36-3.53-21.32C43.66,118.87,45.02,118.02,46.44,117.27z"/>
	<path fill="#355F16" d="M264.72,159.4c11.07-1.09,22.06-2.86,33.05-4.6c1.97,1.81,3.96,3.59,5.96,5.36
		c-3.61,12-8.08,23.72-11.67,35.73c4.04,2.66,8.26,5.02,12.43,7.44c1.57,0.99,3.08,2.06,4.66,3.05c-5.37-0.97-11.35-3.87-16.49-0.7
		c-8.5,4.65-15.41,11.85-24.41,15.64c0.2-8.77,1.35-17.47,2.12-26.19c0.18-3.43,0.49-7.6-2.39-10.08
		c-4.93-4.17-10.94-7.05-17.21-8.54c-1.85-3.07-3.97-5.96-5.74-9.08C251.78,165.19,257.43,159.98,264.72,159.4z"/>
	<path fill="#355F16" d="M117.97,203.94c12.87,3.49,25.52,7.73,38.21,11.83c5.24,1.51,9.15,5.49,12.32,9.74
		c5.42,7.23,11.79,13.7,16.9,21.17c-7.58,0.41-14.74-3.14-22.28-2.63c-3.3,0.14-5.06,3.36-5.79,6.19
		c-3.31,12.89-4.27,26.33-8.33,39.03c-5.86-9.92-10.51-20.5-15.26-30.98c-1.83-3.61-3.59-7.81-7.42-9.71
		c-3.8-1.68-7.54,1.09-10.52,3.19c-6.32,4.79-12.06,10.4-19.07,14.23c1.47-7.94,3.2-15.84,4.48-23.81c0.74-4.09,1.34-8.2,1.7-12.34
		c0.99-0.71,1.99-1.39,3-2.07c2.77,0.74,5.55,1.47,8.34,2.14c9.62,2.24,19.31,4.19,29.07,5.73
		C135.4,224.66,125.92,214.91,117.97,203.94z"/>
	<path fill="#355F16" d="M76.06,258.13l0.54-0.48c2.75,6.3,5.66,12.54,9.2,18.43c3.4-2.46,6.84-4.87,10.39-7.11
		c-0.37,2.47-0.59,4.97-0.81,7.46c-2.42,1.86-4.85,3.7-7.21,5.65c-1.12-1.81-2.25-3.62-3.38-5.43
		c-7.35,4.23-13.19,10.54-20.53,14.77c1.17-5.56,2.97-10.95,4.8-16.31C71.06,269.34,72,262.94,76.06,258.13z"/>
</g>
<g>
	<path fill="#2B4F11" d="M318.32,40.51c3.77,2.69,7.33,5.67,11.01,8.49c-2.07,1.52-4.14,3.03-6.27,4.47
		c-0.57,0.39-1.72,1.16-2.3,1.55c-0.94-2.33-1.85-4.67-2.59-7.07C318.1,45.47,318.21,42.99,318.32,40.51z"/>
	<path fill="#2B4F11" d="M272.05,112.1c3.3,1.25,7.56,2.95,7.91,7.04c0.45,6.02-2.14,11.7-4.49,17.09
		c-0.34-0.61-1.01-1.83-1.34-2.45c-0.64-2.64-1.22-5.32-1.48-8.03c0.14-2.34,0.24-4.7-0.05-7.04c-0.25-1.52-0.55-3.04-0.81-4.56
		C271.86,113.64,271.99,112.61,272.05,112.1z"/>
</g>
<g>
	<path fill="#2C4F11" d="M101.11,54.38c4.7-3.14,9.98-5.21,15.51-6.36c0.89,1.34,1.77,2.67,2.66,4.01
		C113.24,52.92,107.16,53.55,101.11,54.38z"/>
</g>
<g>
	<path fill="#3D6F19" d="M386.75,72.97c4.93-3.94,9.9-7.83,15.06-11.47c-1.57,3.35-2.62,7.28-5.68,9.64
		C393.37,72.94,389.89,72.67,386.75,72.97z"/>
</g>
<g>
	<path fill="#4D331A" d="M165.71,73.63c3.32-1.1,6.58-2.69,10.12-2.85c3.89,1.51,6.39,5.17,9.32,7.99
		c-0.21,4.41-0.32,8.83-0.32,13.25c-5.99-1.02-11.91-2.39-17.86-3.62C167.24,83.43,166.27,78.54,165.71,73.63z"/>
</g>
<g>
	<path fill="#2F1F0F" d="M185.15,78.77c1.6,1.66,3.22,3.31,4.89,4.92c-0.05,3.11-0.05,6.22-0.08,9.34
		c-1.71-0.35-3.42-0.68-5.13-1.01C184.83,87.6,184.94,83.18,185.15,78.77z"/>
</g>
<g>
	<path fill="#4D341A" d="M168.12,102.83c5.65-0.53,11.3-1.05,16.95-1.56c-0.08,4.34-0.19,8.68-0.38,13.02
		c-5.78-1.93-11.35-4.43-17.02-6.67C167.83,106.02,167.98,104.42,168.12,102.83z"/>
</g>
<g>
	<path fill="#312010" d="M185.07,101.27c1.62-0.16,3.24-0.31,4.87-0.49c0.09,5.16,0.09,10.33-0.02,15.49
		c-1.73-0.7-3.48-1.35-5.23-1.98C184.88,109.95,184.99,105.61,185.07,101.27z"/>
</g>
<g>
	<path fill="#402A15" d="M256.41,111.32c2.38,1.22,4.78,2.42,7.17,3.64c-9.78,4.25-20.38,6.04-30.6,8.96
		c-4.77,1.47-10.83,1.59-13.91,6.11c-3.05,4.57-5.3,9.61-8.26,14.24c-1.22-1.91-2.48-3.8-3.74-5.69c3.07-5.41,5.35-11.36,9.29-16.23
		c3.34-1.66,7.08-2.29,10.64-3.34C236.86,116.65,246.59,113.82,256.41,111.32z"/>
	<path fill="#402A15" d="M294.24,228.1c2.05-5.54,5.1-10.69,7.87-15.9c1.98,1.1,3.97,2.18,5.97,3.24c-2.2,3.76-4.63,7.45-6.03,11.61
		c-1.18,3.34-0.17,6.88,0.63,10.18c2.41,8.8,4.16,17.76,6.55,26.57c1.13,4.67,2.68,9.34,2.7,14.2c0.03,2.6-1.89,4.6-3.56,6.36
		c-4.4,4.3-9.27,8.07-13.94,12.06c-1.57,1.39-3.2,2.83-4.13,4.75c0.53,3.33,2.88,5.97,4.66,8.72c1.32-0.65,2.65-1.29,3.94-2
		c-1.35,1.26-2.67,2.56-4.01,3.85c-4.47-4.54-5.91-10.87-8.84-16.33c6.49-6.1,13.7-11.38,19.94-17.75
		C302.01,261.16,297.76,244.69,294.24,228.1z"/>
</g>
<g>
	<path fill="#4F351B" d="M263.58,114.96c2.72,1.36,5.41,2.78,8.19,4.02c-9.7,4.05-20.07,5.91-30.17,8.61
		c-4.61,1.06-7.76,4.76-11.33,7.56c-2.75,2.26-5.97,4.19-7.66,7.45c-2.02,3.74-3.55,7.72-5.43,11.53c-2.29-3.18-4.29-6.55-6.37-9.86
		c2.96-4.63,5.21-9.67,8.26-14.24c3.08-4.52,9.14-4.64,13.91-6.11C243.2,121,253.8,119.21,263.58,114.96z"/>
	<path fill="#4F351B" d="M348.73,242.74c5.57-5.69,11.47-11.07,16.6-17.18c0.35,0.19,1.06,0.56,1.41,0.75
		c1.85,1.08,3.64,2.27,5.45,3.43c-9.32,10.13-17.82,21.01-27.5,30.81c-0.8-2.77-1.86-5.56-1.76-8.48
		C343.44,248.29,346.26,245.42,348.73,242.74z"/>
</g>
<g>
	<path fill="#322111" d="M271.77,118.98l0.83-0.27c0.29,2.34,0.19,4.7,0.05,7.04c-0.78,2.38-1.68,4.72-2.48,7.1
		c-12.18,2.48-24.28,5.36-36.46,7.82c-2.38,0.64-5.56,0.71-6.69,3.31c-2.23,4.53-3.98,9.27-6.28,13.77l-0.29,0.64
		c-1.11-1.41-2.22-2.82-3.27-4.26c1.88-3.81,3.41-7.79,5.43-11.53c1.69-3.26,4.91-5.19,7.66-7.45c3.57-2.8,6.72-6.5,11.33-7.56
		C251.7,124.89,262.07,123.03,271.77,118.98z"/>
</g>
<g>
	<path fill="#362412" d="M114.2,137.22c4.88-1.11,9.67-2.54,14.5-3.85c4.42,2.87,8.66,6.03,13.15,8.79
		c-0.56,7.43-1.2,14.87-1.07,22.33c-13.41-7.08-26.87-14.1-40.01-21.65C104.56,139.61,109.47,138.32,114.2,137.22z"/>
</g>
<g>
	<g>
		<path fill="#392613" d="M170.12,151.09c1.55,0.29,3.1,0.59,4.65,0.88c0.47,2.78,0.55,5.77,2,8.27c1.86,2.45,4.83,3.65,7.42,5.16
			c0.45-3.77,0.74-7.56,0.93-11.35c1.61,0.38,3.23,0.77,4.84,1.16c0.08,4.66,0.14,9.33,0.28,13.99c2.22-4.05,3.7-8.66,6.97-12.04
			c7.21,0.15,14,3.03,21.08,4.11c-2.99,4.69-5.46,9.69-8.18,14.55c-0.92-1.27-1.84-2.53-2.76-3.78c-2.54,4.99-5.53,9.86-6.99,15.31
			c-1.27,4.27,1.4,8.26,3.48,11.77c21.1,33.11,41.56,66.62,61.65,100.35c2.65,4.12,5.1,9.87,10.59,10.52
			c5.13-0.16,8.3-4.91,11.61-8.21c-0.55-2.12-1.1-4.25-1.64-6.37c2.93,5.46,4.37,11.79,8.84,16.33c1.34-1.29,2.66-2.59,4.01-3.85
			c4.16-3.89,8.38-7.71,12.91-11.17c-5.16,6.81-11.74,12.34-17.21,18.89c-4.26,5.06-9.45,9.23-13.83,14.18
			c-2.81,3.03-3.59,7.22-3.88,11.2c-1.17,16.35-2.63,32.67-3.99,49c-0.66,8.4-2.31,17.19,0.76,25.32
			c5.85,15.23,11.53,30.52,17.25,45.8c2.44,6.5,4.27,13.59,9.31,18.67c8.23,8.41,16.92,16.37,24.83,25.1
			c-24.34,0.51-48.7-0.11-73.03,0.25c-4.85-0.26-7.96,3.69-10.92,6.87h-25.71c5.9-5.01,10.36-11.37,15.82-16.79
			c6.69-7.71,13.59-15.23,20.51-22.71c0.52-2.84-0.51-5.68-0.69-8.51c-2.2-15-3.75-30.08-5.95-45.08
			c-0.8-5.22-1.09-10.48-1.34-15.75c-1.23-6.76-0.23-13.68-1.42-20.45c-0.67-5.12,0.02-10.3-0.65-15.42
			c-1.23-7.18-0.12-14.54-1.58-21.7c-0.2-3.57-1.35-7.15-4.25-9.44c-6.4-5.87-13.07-11.45-19.44-17.37
			c-6.99-6.14-13.83-12.44-20.84-18.56c-4.16-4.09-8.67-7.79-13.16-11.5c-4.33-3.99-8.33-8.32-12.91-12.03
			c2.63-0.31,5.23-0.85,7.83-1.38c-4.21-4.91-9.11-9.15-14.47-12.75c0.52-0.11,1.55-0.34,2.07-0.45
			c20.07,14.52,39.88,29.39,59.59,44.39c2.22,1.49,4.59,3.24,7.38,3.26c3.12-0.35,6.06-3.35,5.83-6.57
			c-1.22-4.25-5.79-5.96-9.17-8.15c-0.16-0.34-0.47-1.02-0.63-1.36c-7.65-17.78-14.46-35.91-22.01-53.73
			c-4.71,0.88-9.39,1.91-14.03,3.12c-1.81-1.88-3.47-3.88-5.13-5.89c6.31-5.2,13.61-9.12,19.47-14.88
			c-5.81-8.72-11.34-17.63-17.18-26.32c-2.96-4.36-5.24-9.28-9.03-13.02c-1.94-1.96-4.75-2.43-7.34-2.93
			c5.57,9.69,11.91,18.9,18.15,28.16c2.07,3.27,4.52,7.8,1.76,11.4c-3.35,4.03-8.07,6.57-11.92,10.08
			c-1.41-1.78-2.81-3.57-4.23-5.35c3.72-2.7,7.38-5.48,10.95-8.37c-2.29-4.26-4.7-8.46-7.44-12.44c-1.07-1.59-2.22-3.11-3.37-4.64
			c-1.78-2.49-3.4-5.08-4.95-7.71c-2.42-4.13-4.64-8.42-7.59-12.21c-3.3-4.27-8.35-6.53-12.93-9.12c3.16-4.69,6.54-9.24,10.08-13.66
			c2.9,1.86,5.79,3.73,8.67,5.63C169.92,158.23,170.01,154.66,170.12,151.09z M216.99,249.8c5.85,15.34,12.38,30.41,18.39,45.69
			c2.19,6.21,7.99,9.95,13.62,12.72c-1.15-4.61-2.93-9.02-4.79-13.37c-5.96-14.13-11.52-28.42-17.31-42.62
			c-1-1.66-1.52-4.54-3.96-4.4C220.83,248.02,218.93,249.03,216.99,249.8z M246.61,345c1.29,21.53,2.45,43.07,3.74,64.6
			c2.31,18.9,4.81,37.78,7.29,56.66c0.21,3.4,1.02,7.31-1.15,10.28c-7.99,9.66-17.38,18.18-24.66,28.41
			c5.6,1.12,12.63,2.4,17.17-1.99c4.77-4.89,9.06-10.22,13.77-15.17c2.24-2.44,4.7-4.74,6.43-7.6c1.53-2.42,0.95-5.41,0.74-8.08
			c-1.62-11.74-2.99-23.52-4.62-35.26c-1.3-10.93-3.11-21.83-3.25-32.86c-1.05-17-1.95-34.02-2.91-51.03
			c-0.25-2.44-0.17-5.22-1.95-7.13c-3.14-3.55-7.06-6.27-10.73-9.22C246.39,339.41,246.47,342.2,246.61,345z"/>
	</g>
	<path fill="#392613" d="M317.18,160.66c0.85,0.43,1.7,0.86,2.55,1.3c5.54,6.55,10.44,13.67,16.6,19.66
		c3.07-4.58,5.68-9.45,8.96-13.9c4.99,4.19,10.2,8.09,15.71,11.57l0.49,0.57c-2.46,2.55-4.93,5.1-7.1,7.9
		c-2.19-1.72-5.29-5.48-7.97-2.38c-6.58,6.45-12.13,13.89-18.16,20.86c0.9-2.3,1.99-4.68,1.92-7.2c-0.55-2.47-2.34-4.41-3.79-6.41
		c-5.18-6.34-9.83-13.12-15.45-19.1C313.04,169.24,315.08,164.94,317.18,160.66z"/>
</g>
<g>
	<path fill="#4E341A" d="M174.77,151.97c3.46,0.62,6.92,1.29,10.35,2.08c-0.19,3.79-0.48,7.58-0.93,11.35
		c-2.59-1.51-5.56-2.71-7.42-5.16C175.32,157.74,175.24,154.75,174.77,151.97z"/>
</g>
<g>
	<path fill="#4B871F" d="M297.77,154.8c4.77-1.17,9.53,0.33,13.6,2.83c-3.63,7.93-7.59,15.7-11.26,23.61
		c-1.26,3.04-2.99,6.62-1.2,9.82c2.01,4.02,4.66,7.79,5.58,12.27c-4.17-2.42-8.39-4.78-12.43-7.44
		c3.59-12.01,8.06-23.73,11.67-35.73C301.73,158.39,299.74,156.61,297.77,154.8z"/>
</g>
<g>
	<path fill="#223B0F" d="M220.45,158.39l0.29-0.64c6.02,2.08,12.17,3.81,18.04,6.32c-3.47,1.86-6.84,3.88-10.15,6
		c4.35,2.74,8.8,5.33,13.32,7.8c3.37,9.48,10.68,16.81,14.32,26.16c-5.21-1.77-9.91-4.99-15.34-6.06c-3.8-0.63-6.64,2.51-8.87,5.1
		c-3.24,4.06-6.63,8.02-10.72,11.26c-3.91-5.71-7.25-11.8-11.27-17.44c-1.38-2.18-3.1-4.31-3.59-6.9c0.19-1.96,1.08-3.76,1.87-5.53
		c3.76-7.61,7.35-15.31,10.8-23.07C219.58,160.39,220.01,159.39,220.45,158.39z"/>
	<path fill="#223B0F" d="M377.4,232.83c5.79,3.05,11.35,6.5,16.98,9.85c4.75,2.92,10.4,3.67,15.86,4.09
		c-0.87,0.1-2.61,0.31-3.47,0.42c1.47,6.36,4.3,12.25,6.83,18.23c3.24,8.35,6.82,16.58,9.81,25.03c-9.88,3.05-20.28,0.85-30.4,1.8
		c-5.79,0.14-11.78,1.83-17.46,0.14c-5.74-3.5-7.85-10.72-13.45-14.41c-2.62-1.18-5.62-0.76-8.42-0.89
		c-2.4-2.99-4.89-5.92-6.99-9.14c1.25-1.43,2.54-2.82,3.81-4.23c2.92,3.9,5.38,8.4,9.43,11.28c4.13,2.09,8.98,0.96,13.42,0.87
		c-2.52-9.07-6.41-17.68-10.29-26.23c2.88-3.09,5.26-6.57,7.79-9.94C373.06,237.43,375.24,235.14,377.4,232.83z"/>
	<path fill="#223B0F" d="M191.88,243.07c4.64-1.21,9.32-2.24,14.03-3.12c7.55,17.82,14.36,35.95,22.01,53.73
		c-2.44,0.49-4.87,1.05-7.3,1.61c-4.74-3.97-10-7.25-14.92-10.98c-7.07-5.17-13.81-10.78-20.93-15.88
		c9.55-2.35,19.54-3.07,28.67-6.92C206.68,254.87,198.71,249.62,191.88,243.07z"/>
	<path fill="#223B0F" d="M214.95,326.88c1.84-0.8,3.73-1.62,5.76-1.8c4.94,4.9,8.86,10.74,13.43,15.99
		c-3.74,4.28-7.77,8.29-12.14,11.93c-3.09,2.54-5.68,5.69-9.03,7.91c-3.02,1.39-6.48,1.19-9.72,1.54
		c-6.74,0.23-13.45,2.07-20.2,0.95c2-7.17,3.69-14.43,5.85-21.54c0.69-2.77,3.42-4.07,5.72-5.28
		C201.34,333.23,208.12,330.01,214.95,326.88z"/>
</g>
<g>
	<path fill="#2E1E0F" d="M218.29,161.27l0.86,0.12c-3.45,7.76-7.04,15.46-10.8,23.07c-0.79,1.77-1.68,3.57-1.87,5.53
		c0.49,2.59,2.21,4.72,3.59,6.9c4.02,5.64,7.36,11.73,11.27,17.44c1.42,2.13,2.83,4.26,4.14,6.45c7.19,12.31,15.08,24.19,22.2,36.54
		c2.32,3.86,4.46,7.86,7.43,11.29c2.93,6,6.21,11.84,9.89,17.43c3.88,5.95,7.24,12.23,11.18,18.15c3.09-3.15,6.51-5.93,9.87-8.78
		c0.54,2.12,1.09,4.25,1.64,6.37c-3.31,3.3-6.48,8.05-11.61,8.21c-5.49-0.65-7.94-6.4-10.59-10.52
		c-20.09-33.73-40.55-67.24-61.65-100.35c-2.08-3.51-4.75-7.5-3.48-11.77c1.46-5.45,4.45-10.32,6.99-15.31
		c0.92,1.25,1.84,2.51,2.76,3.78C212.83,170.96,215.3,165.96,218.29,161.27z"/>
	<path fill="#2E1E0F" d="M346.42,185.38c2.68-3.1,5.78,0.66,7.97,2.38c-9.99,10.86-19.74,21.93-29.59,32.91
		c-0.97-1.76-2.02-3.48-3.13-5.15c2.19-3.09,4.38-6.19,6.59-9.28C334.29,199.27,339.84,191.83,346.42,185.38z"/>
	<path fill="#2E1E0F" d="M317.93,220.81c1.29,0.71,2.59,1.4,3.91,2.07c-0.91,1.75-2.16,3.59-1.46,5.66
		c2.1,9.55,3.37,19.27,5.75,28.76c4.04-3.92,7.98-7.95,11.99-11.91c0.9-0.9,1.82-1.78,2.74-2.67c0.41,3.71,1.66,8.01-0.87,11.27
		c-3.11,4.14-6.74,8.32-11.59,10.4c-4.16,1.59-7.56-2.16-9.53-5.34c-1.19-6.85-3.29-13.51-4.47-20.35
		C313.33,232.5,315.55,226.43,317.93,220.81z"/>
	<path fill="#2E1E0F" d="M349.58,260.69c6.67-7.39,13.26-14.98,21.27-20.99c-2.53,3.37-4.91,6.85-7.79,9.94
		c-4.34,4.56-8.41,9.36-12.56,14.08c-1.27,1.41-2.56,2.8-3.81,4.23c-7.29,8.61-14.83,17-22.23,25.51
		c-6.52,8.1-14.94,14.46-21.37,22.65c-5.79,6.86-13.01,12.41-18.65,19.39c-0.91,4.43-1.34,8.97-1.5,13.5
		c-1.36,15.66-2.62,31.34-3.94,47c0,4.97-2.05,10.1,0.07,14.91c7.36,19.66,14.84,39.29,22.07,59c1.06,3.25,3.74,5.52,6.08,7.87
		c11.56,11.31,22.79,22.98,34.42,34.22H241.1c2.96-3.18,6.07-7.13,10.92-6.87c24.33-0.36,48.69,0.26,73.03-0.25
		c-7.91-8.73-16.6-16.69-24.83-25.1c-5.04-5.08-6.87-12.17-9.31-18.67c-5.72-15.28-11.4-30.57-17.25-45.8
		c-3.07-8.13-1.42-16.92-0.76-25.32c1.36-16.33,2.82-32.65,3.99-49c0.29-3.98,1.07-8.17,3.88-11.2c4.38-4.95,9.57-9.12,13.83-14.18
		c5.47-6.55,12.05-12.08,17.21-18.89c4.06-4,8.65-7.47,12.24-11.92c4.24-7.16,10.1-13.08,15.46-19.38
		C341.94,262.07,346.98,263.78,349.58,260.69z"/>
	<path fill="#2E1E0F" d="M163.89,253.1c7,5.05,13.75,10.45,20.88,15.33c7.12,5.1,13.86,10.71,20.93,15.88
		c4.92,3.73,10.18,7.01,14.92,10.98c3.43,2.85,7.01,5.51,10.73,7.97c-0.8-2.79-1.74-5.53-2.8-8.22c3.38,2.19,7.95,3.9,9.17,8.15
		c0.23,3.22-2.71,6.22-5.83,6.57c-2.79-0.02-5.16-1.77-7.38-3.26c-19.71-15-39.52-29.87-59.59-44.39c-0.52,0.11-1.55,0.34-2.07,0.45
		c5.36,3.6,10.26,7.84,14.47,12.75c-2.6,0.53-5.2,1.07-7.83,1.38c-3.4-0.79-6.91-0.73-10.38-0.75c1.22-1.36,2.54-2.64,3.85-3.92
		c-0.93-1.64-2.41-3.23-2.19-5.25C161.17,262.1,162.69,257.62,163.89,253.1z"/>
</g>
<g>
	<path fill="#4F341A" d="M305.81,184.29c1.68-3.6,3.36-7.2,5.13-10.76c5.62,5.98,10.27,12.76,15.45,19.1c1.45,2,3.24,3.94,3.79,6.41
		c0.07,2.52-1.02,4.9-1.92,7.2c-2.21,3.09-4.4,6.19-6.59,9.28c-1.1-1.59-2.25-3.14-3.41-4.67c-3.14-4.65-5.72-9.64-8.79-14.32
		c0.92-1.54,1.85-3.08,2.77-4.62C310.07,189.39,308.06,186.73,305.81,184.29z"/>
</g>
<g>
	<path fill="#274311" d="M131.99,191.9c2.52-4.8,4.72-9.78,7.69-14.34c0.11,1.41,0.25,2.82,0.4,4.24c1.24-0.45,2.49-0.9,3.73-1.35
		c-0.53,2.33-1.03,4.67-1.52,7.01c9.75,1.35,19.4,4.59,29.33,3.7c1.55,2.63,3.17,5.22,4.95,7.71
		C161.65,197.02,146.83,194.34,131.99,191.9z"/>
	<path fill="#274311" d="M352.91,219.31c2.46,0.92,4.84,2.02,7.14,3.3c-6.84,6.28-12.51,13.68-19.19,20.11
		c-0.92,0.89-1.84,1.77-2.74,2.67c-1.02-4.32-1.49-8.73-2.27-13.08C341.25,227.59,347.53,224.04,352.91,219.31z"/>
</g>
<g>
	<path fill="#1B2F0C" d="M241.95,177.87c3.58,1.94,7.16,3.91,10.68,5.97c3.06,5.75,6.58,11.23,10.19,16.65
		c-0.36,4.84-0.36,9.71-0.81,14.55c-7.23-3.71-14.54-7.24-21.76-10.96c-5.11,5.4-9.91,11.09-14.77,16.7
		c-1.31-2.19-2.72-4.32-4.14-6.45c4.09-3.24,7.48-7.2,10.72-11.26c2.23-2.59,5.07-5.73,8.87-5.1c5.43,1.07,10.13,4.29,15.34,6.06
		C252.63,194.68,245.32,187.35,241.95,177.87z"/>
	<path fill="#1B2F0C" d="M406.77,247.19c0.86-0.11,2.6-0.32,3.47-0.42c0.68,0.02,2.05,0.06,2.73,0.08
		c3.33,6.65,5.75,13.71,8.6,20.58c3.97,10.26,8.48,20.3,12.42,30.58c-4.57,0.01-9.16-0.24-13.7,0.32
		c-11.41,1.75-23.05-0.45-34.45,1.45c-4.46,0.32-8.99,0.59-13.42-0.08c-1.58-1.11-2.82-2.6-4.02-4.09
		c-4.84-6.23-9.81-12.35-14.72-18.52c2.8,0.13,5.8-0.29,8.42,0.89c5.6,3.69,7.71,10.91,13.45,14.41c5.68,1.69,11.67,0,17.46-0.14
		c10.12-0.95,20.52,1.25,30.4-1.8c-2.99-8.45-6.57-16.68-9.81-25.03C411.07,259.44,408.24,253.55,406.77,247.19z"/>
	<path fill="#1B2F0C" d="M255.11,268.61c6.38,4.81,12.62,9.86,18.41,15.38c-2.83,0.75-5.69,1.35-8.52,2.05
		C261.32,280.45,258.04,274.61,255.11,268.61z"/>
	<path fill="#1B2F0C" d="M182.4,288.72c4.49,3.71,9,7.41,13.16,11.5c-5.86,1.5-11.85,2.41-17.73,3.83
		C179.51,298.98,180.91,293.83,182.4,288.72z"/>
	<g>
		<path fill="#1B2F0C" d="M191.42,330.42c8.5-3.5,16.45-8.18,24.98-11.64c6.37,5.92,13.04,11.5,19.44,17.37
			c2.9,2.29,4.05,5.87,4.25,9.44c-3.54,3.29-6.81,6.89-10.65,9.86c-4.26,3.37-7.65,7.68-11.73,11.25c-1.67,1.56-4.15,1.32-6.23,1.79
			c-12.54,1.18-25.11,2.15-37.61,3.67c3.44-11.85,6.22-23.89,9.57-35.77C184.27,332.7,188.51,331.9,191.42,330.42z M214.95,326.88
			c-6.83,3.13-13.61,6.35-20.33,9.7c-2.3,1.21-5.03,2.51-5.72,5.28c-2.16,7.11-3.85,14.37-5.85,21.54
			c6.75,1.12,13.46-0.72,20.2-0.95c3.24-0.35,6.7-0.15,9.72-1.54c3.35-2.22,5.94-5.37,9.03-7.91c4.37-3.64,8.4-7.65,12.14-11.93
			c-4.57-5.25-8.49-11.09-13.43-15.99C218.68,325.26,216.79,326.08,214.95,326.88z"/>
	</g>
</g>
<g>
	<path fill="#50351B" d="M172.67,180.03c2.59,0.5,5.4,0.97,7.34,2.93c3.79,3.74,6.07,8.66,9.03,13.02
		c5.84,8.69,11.37,17.6,17.18,26.32c-5.86,5.76-13.16,9.68-19.47,14.88c-2.04-2.49-4.08-4.99-6.09-7.51
		c3.85-3.51,8.57-6.05,11.92-10.08c2.76-3.6,0.31-8.13-1.76-11.4C184.58,198.93,178.24,189.72,172.67,180.03z"/>
	<path fill="#50351B" d="M302.05,227.05c1.4-4.16,3.83-7.85,6.03-11.61c3.3,1.75,6.57,3.57,9.85,5.37
		c-2.38,5.62-4.6,11.69-3.53,17.89c1.18,6.84,3.28,13.5,4.47,20.35c1.49,8.64,4.56,16.96,5.18,25.75
		c-3.59,4.45-8.18,7.92-12.24,11.92c-4.53,3.46-8.75,7.28-12.91,11.17c-1.29,0.71-2.62,1.35-3.94,2c-1.78-2.75-4.13-5.39-4.66-8.72
		c0.93-1.92,2.56-3.36,4.13-4.75c4.67-3.99,9.54-7.76,13.94-12.06c1.67-1.76,3.59-3.76,3.56-6.36c-0.02-4.86-1.57-9.53-2.7-14.2
		c-2.39-8.81-4.14-17.77-6.55-26.57C301.88,233.93,300.87,230.39,302.05,227.05z"/>
	<path fill="#50351B" d="M216.99,249.8c1.94-0.77,3.84-1.78,5.95-1.98c2.44-0.14,2.96,2.74,3.96,4.4
		c5.79,14.2,11.35,28.49,17.31,42.62c1.86,4.35,3.64,8.76,4.79,13.37c-5.63-2.77-11.43-6.51-13.62-12.72
		C229.37,280.21,222.84,265.14,216.99,249.8z"/>
	<path fill="#50351B" d="M246.61,345c-0.14-2.8-0.22-5.59-0.13-8.39c3.67,2.95,7.59,5.67,10.73,9.22c1.78,1.91,1.7,4.69,1.95,7.13
		c0.96,17.01,1.86,34.03,2.91,51.03c0.14,11.03,1.95,21.93,3.25,32.86c1.63,11.74,3,23.52,4.62,35.26c0.21,2.67,0.79,5.66-0.74,8.08
		c-1.73,2.86-4.19,5.16-6.43,7.6c-4.71,4.95-9,10.28-13.77,15.17c-4.54,4.39-11.57,3.11-17.17,1.99
		c7.28-10.23,16.67-18.75,24.66-28.41c2.17-2.97,1.36-6.88,1.15-10.28c-2.48-18.88-4.98-37.76-7.29-56.66
		C249.06,388.07,247.9,366.53,246.61,345z"/>
</g>
<g>
	<path fill="#1D310C" d="M170.63,217.28c2.94-4.7,5.91-9.39,9.31-13.77c2.74,3.98,5.15,8.18,7.44,12.44
		c-3.57,2.89-7.23,5.67-10.95,8.37C174.53,221.95,172.6,219.59,170.63,217.28z"/>
</g>
<g>
	<path fill="#3A2713" d="M340.86,242.72c6.68-6.43,12.35-13.83,19.19-20.11c1.75,0.99,3.5,2,5.28,2.95
		c-5.13,6.11-11.03,11.49-16.6,17.18c-2.47,2.68-5.29,5.55-5.8,9.33c-0.1,2.92,0.96,5.71,1.76,8.48c9.68-9.8,18.18-20.68,27.5-30.81
		c1.71,1.07,3.45,2.09,5.21,3.09c-2.16,2.31-4.34,4.6-6.55,6.87c-8.01,6.01-14.6,13.6-21.27,20.99c-2.6,3.09-7.64,1.38-10.07,4.73
		c-5.36,6.3-11.22,12.22-15.46,19.38c-0.62-8.79-3.69-17.11-5.18-25.75c1.97,3.18,5.37,6.93,9.53,5.34
		c4.85-2.08,8.48-6.26,11.59-10.4C342.52,250.73,341.27,246.43,340.86,242.72z"/>
</g>
<g>
	<path fill="#315415" d="M350.5,263.72c4.15-4.72,8.22-9.52,12.56-14.08c3.88,8.55,7.77,17.16,10.29,26.23
		c-4.44,0.09-9.29,1.22-13.42-0.87C355.88,272.12,353.42,267.62,350.5,263.72z"/>
</g>
<g>
	<path fill="#302010" d="M106.63,267.9c5.81-4.39,11.17-9.36,17.3-13.32c2.71,4.62,5.21,9.38,7.13,14.38
		C122.93,268.66,114.6,269.99,106.63,267.9z"/>
</g>
</svg>
