<?xml version="1.0" encoding="UTF-8" ?>
<!DOCTYPE svg PUBLIC "-//W3C//DTD SVG 1.1//EN" "http://www.w3.org/Graphics/SVG/1.1/DTD/svg11.dtd">
<svg width="512pt" height="512pt" viewBox="0 0 512 512" version="1.1" xmlns="http://www.w3.org/2000/svg">
<g id="#67625eff">
<path fill="#67625e" opacity="1.00" d=" M 0.00 0.00 L 0.65 0.00 C 12.67 12.34 25.05 24.30 37.42 36.29 C 24.90 44.90 12.16 53.23 0.00 62.34 L 0.00 0.00 Z" />
<path fill="#67625e" opacity="1.00" d=" M 162.65 0.00 L 163.46 0.00 C 175.41 5.65 186.61 12.94 199.04 17.53 C 203.01 18.97 207.09 16.63 211.02 16.17 C 231.44 10.81 251.95 5.81 272.47 0.84 C 272.14 1.10 271.48 1.62 271.15 1.88 C 245.57 18.09 219.33 33.29 193.61 49.29 C 182.93 33.09 173.01 16.40 162.65 0.00 Z" />
<path fill="#67625e" opacity="1.00" d=" M 153.97 13.98 C 156.28 9.42 158.69 4.90 161.49 0.61 C 163.56 13.02 165.78 25.40 168.16 37.75 C 147.54 55.97 128.63 76.04 108.02 94.27 C 122.82 67.21 140.55 41.80 153.97 13.98 Z" />
<path fill="#67625e" opacity="1.00" d=" M 470.09 91.26 C 483.80 72.16 498.25 53.59 512.00 34.51 L 512.00 62.33 C 498.09 72.07 484.13 81.72 470.09 91.26 Z" />
<path fill="#67625e" opacity="1.00" d=" M 375.70 38.61 C 381.88 63.20 385.32 88.37 390.82 113.11 C 375.33 119.16 359.41 124.07 343.79 129.78 C 323.56 136.54 303.70 144.46 283.22 150.44 L 282.81 149.53 C 300.71 136.28 317.91 122.11 335.63 108.62 C 343.45 102.30 353.21 96.68 356.70 86.66 C 362.78 70.55 369.00 54.48 375.70 38.61 Z" />
<path fill="#67625e" opacity="1.00" d=" M 103.84 117.03 C 104.25 116.99 105.07 116.91 105.48 116.86 C 90.60 132.19 75.28 147.07 60.23 162.23 C 39.79 182.91 21.57 205.68 0.97 226.20 C 9.29 203.74 18.82 181.75 27.34 159.36 C 29.44 154.29 30.87 147.67 36.88 145.87 C 59.20 136.26 81.71 127.09 103.84 117.03 Z" />
<path fill="#67625e" opacity="1.00" d=" M 213.11 189.18 C 235.65 177.70 257.75 165.38 280.36 154.05 C 263.08 174.90 245.44 195.47 227.78 216.00 C 192.05 214.84 156.22 215.19 120.55 212.84 C 148.90 205.24 177.63 199.18 206.08 192.02 C 208.53 191.37 210.86 190.34 213.11 189.18 Z" />
<path fill="#67625e" opacity="1.00" d=" M 431.18 205.10 C 419.15 226.66 405.84 247.50 394.18 269.27 C 393.09 270.79 392.01 272.31 390.87 273.79 C 386.95 277.94 383.34 282.35 380.19 287.11 L 379.78 287.65 C 372.08 294.40 364.17 300.92 356.28 307.47 C 360.11 291.44 364.26 275.49 368.44 259.55 C 369.38 255.32 373.33 253.02 376.31 250.31 C 394.77 235.45 412.34 219.49 431.18 205.10 Z" />
<path fill="#67625e" opacity="1.00" d=" M 80.51 269.54 C 90.30 257.03 97.79 242.85 107.97 230.62 C 105.25 249.59 100.12 268.11 95.91 286.78 C 82.82 288.11 69.79 289.99 56.77 291.90 C 64.20 283.93 72.90 277.30 80.51 269.54 Z" />
<path fill="#67625e" opacity="1.00" d=" M 0.00 265.26 C 11.77 280.10 24.05 294.54 35.97 309.27 C 24.14 322.86 11.63 335.84 0.00 349.60 L 0.00 316.60 C 2.76 313.85 5.78 311.39 8.71 308.83 C 6.02 294.96 3.07 281.15 0.00 267.37 L 0.00 265.26 Z" />
<path fill="#67625e" opacity="1.00" d=" M 291.90 280.81 C 307.76 293.76 321.13 309.39 336.04 323.37 C 333.00 332.03 329.29 340.44 326.11 349.05 C 325.00 351.45 324.28 354.52 321.66 355.73 C 314.75 356.21 307.82 355.93 300.95 355.14 C 258.53 350.01 216.01 345.70 173.60 340.52 C 206.28 337.42 239.24 338.40 271.94 335.75 C 284.08 331.63 294.72 324.14 306.22 318.58 C 302.19 305.72 295.99 293.66 291.90 280.81 Z" />
<path fill="#67625e" opacity="1.00" d=" M 345.03 443.02 C 367.81 425.42 389.80 406.80 413.14 389.93 C 412.26 391.14 411.45 392.40 410.65 393.66 C 384.00 426.51 358.37 460.19 332.02 493.29 C 266.23 477.29 200.37 461.55 134.68 445.14 C 156.04 446.03 177.26 448.76 198.56 450.54 C 234.14 454.03 269.77 457.09 305.33 460.77 C 310.40 461.07 315.50 461.71 320.59 461.18 C 329.76 456.67 336.84 449.00 345.03 443.02 Z" />
<path fill="#67625e" opacity="1.00" d=" M 481.11 481.10 C 489.22 478.13 497.10 474.25 505.71 472.90 C 488.84 486.60 470.09 497.83 452.77 510.95 C 452.18 511.21 450.99 511.74 450.40 512.00 L 400.33 512.00 C 427.19 501.53 454.19 491.41 481.11 481.10 Z" />
</g>
<g id="#78726eff">
<path fill="#78726e" opacity="1.00" d=" M 0.65 0.00 L 51.88 0.00 C 52.67 13.66 53.12 27.34 54.23 40.98 C 54.71 45.96 59.12 49.28 62.13 52.85 C 75.54 66.20 89.55 78.93 102.96 92.27 C 94.28 79.30 84.79 66.91 75.74 54.20 C 67.47 44.30 72.21 30.00 70.94 18.30 C 78.64 12.38 85.70 5.63 93.63 0.00 L 162.65 0.00 C 173.01 16.40 182.93 33.09 193.61 49.29 C 219.33 33.29 245.57 18.09 271.15 1.88 C 263.51 10.33 254.78 17.68 246.74 25.74 C 236.43 35.82 226.59 46.38 215.96 56.12 C 232.53 79.23 248.75 102.60 265.15 125.83 C 271.03 134.13 276.51 142.76 283.22 150.44 C 303.70 144.46 323.56 136.54 343.79 129.78 C 359.41 124.07 375.33 119.16 390.82 113.11 C 385.32 88.37 381.88 63.20 375.70 38.61 C 369.00 54.48 362.78 70.55 356.70 86.66 C 353.21 96.68 343.45 102.30 335.63 108.62 C 317.91 122.11 300.71 136.28 282.81 149.53 C 271.64 123.22 259.14 97.49 247.46 71.42 C 245.96 68.27 245.92 64.44 248.99 62.02 C 262.53 43.89 276.86 26.35 290.34 8.16 C 300.28 8.26 310.97 5.03 320.60 8.41 C 341.46 19.89 362.14 31.75 383.06 43.15 C 369.44 28.27 354.64 14.53 340.65 0.00 L 367.61 0.00 C 378.44 11.45 388.30 23.80 398.42 35.89 C 415.69 24.73 432.28 12.56 449.28 0.99 C 434.42 21.63 417.92 41.03 402.76 61.45 C 424.64 69.47 446.22 78.31 468.24 85.95 C 456.84 77.25 445.37 68.64 433.64 60.39 C 444.28 46.87 456.24 34.47 467.45 21.44 C 473.91 14.38 479.82 6.81 486.55 0.00 L 512.00 0.00 L 512.00 34.51 C 498.25 53.59 483.80 72.16 470.09 91.26 C 484.13 81.72 498.09 72.07 512.00 62.33 L 512.00 86.59 C 500.06 90.96 488.03 95.10 475.91 98.93 C 470.28 100.67 464.56 97.97 459.12 96.89 C 441.28 91.87 423.37 87.14 405.32 82.98 C 401.26 101.98 397.39 121.03 393.29 140.02 C 432.83 174.83 472.76 209.22 512.00 244.36 L 512.00 316.75 C 486.83 337.37 461.22 357.51 436.79 379.01 C 460.45 370.17 483.71 360.28 507.31 351.28 C 489.52 365.08 471.31 378.30 453.46 392.01 C 472.55 418.15 491.51 444.38 510.98 470.24 C 503.42 445.41 492.99 421.54 485.72 396.63 C 494.67 389.15 503.45 381.45 512.00 373.52 L 512.00 512.00 L 486.42 512.00 C 494.91 502.85 502.90 493.24 511.11 483.84 C 491.33 492.14 472.33 502.14 452.77 510.95 C 470.09 497.83 488.84 486.60 505.71 472.90 C 497.10 474.25 489.22 478.13 481.11 481.10 C 454.19 491.41 427.19 501.53 400.33 512.00 L 368.08 512.00 C 386.49 483.14 405.45 454.62 423.58 425.58 C 440.20 434.26 455.90 444.57 472.20 453.83 C 483.20 459.95 493.50 467.46 505.12 472.41 C 500.63 467.39 496.00 462.48 490.92 458.06 C 465.22 435.15 439.95 411.76 414.20 388.92 C 413.93 389.17 413.40 389.68 413.14 389.93 C 389.80 406.80 367.81 425.42 345.03 443.02 C 336.84 449.00 329.76 456.67 320.59 461.18 C 315.50 461.71 310.40 461.07 305.33 460.77 C 269.77 457.09 234.14 454.03 198.56 450.54 C 177.26 448.76 156.04 446.03 134.68 445.14 C 200.37 461.55 266.23 477.29 332.02 493.29 C 358.37 460.19 384.00 426.51 410.65 393.66 C 391.42 428.31 369.98 461.73 350.89 496.46 C 356.50 501.53 361.93 506.83 367.47 512.00 L 338.76 512.00 C 298.70 499.35 258.22 488.10 218.00 476.01 C 187.92 467.14 157.85 458.24 127.73 449.50 C 150.97 430.35 175.44 412.75 198.87 393.82 C 203.27 389.72 208.91 387.20 214.93 386.77 C 253.14 381.18 291.31 375.31 329.48 369.51 C 338.27 368.38 347.00 365.86 355.89 366.04 C 374.80 370.83 392.64 379.05 411.19 385.03 C 393.20 367.43 374.59 350.47 355.93 333.60 C 345.21 341.28 336.78 353.26 323.29 356.15 C 284.75 359.61 246.50 365.72 208.03 369.96 C 201.55 370.74 194.53 371.79 189.79 376.77 C 166.60 397.93 144.51 420.31 121.06 441.19 C 137.00 416.39 153.67 392.05 169.10 366.91 C 143.56 387.05 118.04 407.23 93.08 428.09 C 62.61 455.71 31.78 482.94 1.62 510.89 C 40.94 488.53 80.04 465.75 119.16 443.04 C 97.71 466.44 75.08 488.74 53.48 512.00 L 0.00 512.00 L 0.00 374.72 C 29.82 362.55 59.78 350.69 89.56 338.42 C 93.17 336.82 97.31 336.18 101.01 337.89 C 123.63 347.47 146.43 356.63 169.12 366.03 C 145.39 345.93 120.30 327.50 96.08 308.00 C 64.06 322.24 32.05 336.50 0.00 350.66 L 0.00 349.60 C 11.63 335.84 24.14 322.86 35.97 309.27 C 24.05 294.54 11.77 280.10 0.00 265.26 L 0.00 243.65 C 18.55 259.71 37.69 275.13 56.95 290.34 C 46.25 272.22 34.01 255.08 22.84 237.26 C 33.59 230.56 44.15 223.56 54.86 216.80 C 58.21 215.28 61.65 211.42 65.65 213.23 C 79.58 218.59 92.97 225.38 107.16 230.09 C 91.16 216.65 74.01 204.67 57.33 192.12 C 38.05 204.63 19.34 217.99 0.00 230.40 L 0.00 112.39 C 13.43 103.97 27.82 97.18 41.61 89.36 C 62.25 98.82 83.19 107.59 103.84 117.03 C 81.71 127.09 59.20 136.26 36.88 145.87 C 30.87 147.67 29.44 154.29 27.34 159.36 C 18.82 181.75 9.29 203.74 0.97 226.20 C 21.57 205.68 39.79 182.91 60.23 162.23 C 75.28 147.07 90.60 132.19 105.48 116.86 C 82.89 98.59 60.16 80.48 37.16 62.73 C 24.88 70.85 12.27 78.44 0.00 86.57 L 0.00 62.34 C 12.16 53.23 24.90 44.90 37.42 36.29 C 25.05 24.30 12.67 12.34 0.65 0.00 M 153.97 13.98 C 140.55 41.80 122.82 67.21 108.02 94.27 C 128.63 76.04 147.54 55.97 168.16 37.75 C 165.78 25.40 163.56 13.02 161.49 0.61 C 158.69 4.90 156.28 9.42 153.97 13.98 M 170.39 64.23 C 150.26 82.16 129.31 99.18 109.62 117.59 C 95.85 136.49 83.90 156.68 70.79 176.06 C 87.34 187.95 103.31 200.66 120.24 212.02 C 112.94 198.89 104.90 186.21 97.25 173.29 C 106.50 161.52 115.73 149.75 124.83 137.87 C 129.15 131.39 136.04 127.32 142.74 123.71 C 159.94 114.32 176.89 104.49 194.05 95.04 C 196.81 93.27 200.00 94.58 202.05 96.93 C 227.10 115.95 251.93 135.27 277.00 154.26 C 256.46 127.53 234.22 102.15 213.24 75.76 C 210.03 72.57 207.82 67.32 202.46 67.54 C 191.86 65.76 181.09 65.11 170.39 64.23 M 291.02 157.15 C 288.22 157.78 283.78 156.87 281.97 159.94 C 267.47 181.98 251.98 203.35 237.70 225.54 C 275.73 251.59 314.11 277.11 352.05 303.28 C 325.42 272.15 296.67 242.86 269.67 212.04 C 277.22 202.83 285.10 193.89 292.86 184.86 C 295.74 181.69 299.07 178.19 303.91 178.89 C 321.63 177.01 339.45 176.10 357.17 174.15 C 362.09 174.15 367.61 172.07 372.20 174.77 C 390.21 184.51 408.00 194.68 426.17 204.15 C 408.97 185.87 390.84 168.47 373.08 150.75 C 345.75 153.11 318.38 155.05 291.02 157.15 M 213.11 189.18 C 210.86 190.34 208.53 191.37 206.08 192.02 C 177.63 199.18 148.90 205.24 120.55 212.84 C 156.22 215.19 192.05 214.84 227.78 216.00 C 245.44 195.47 263.08 174.90 280.36 154.05 C 257.75 165.38 235.65 177.70 213.11 189.18 M 431.18 205.10 C 412.34 219.49 394.77 235.45 376.31 250.31 C 373.33 253.02 369.38 255.32 368.44 259.55 C 364.26 275.49 360.11 291.44 356.28 307.47 C 364.17 300.92 372.08 294.40 379.78 287.65 C 375.95 298.87 372.15 310.11 367.80 321.16 C 390.58 339.81 413.11 358.77 435.99 377.30 C 423.46 358.60 409.56 340.85 396.44 322.57 C 394.14 319.12 395.49 314.80 395.71 310.94 C 396.75 304.65 396.45 297.29 401.67 292.70 C 416.01 276.72 430.98 261.30 445.21 245.22 C 466.83 252.37 488.55 259.22 510.31 265.93 C 486.83 249.51 462.42 234.39 438.45 218.69 C 423.98 235.80 408.90 252.38 394.18 269.27 C 405.84 247.50 419.15 226.66 431.18 205.10 M 229.40 225.30 C 196.18 226.83 162.96 228.43 129.72 229.03 C 124.62 249.83 120.55 270.87 116.06 291.81 C 133.12 308.19 150.78 323.94 168.09 340.07 C 161.26 324.28 152.91 309.24 144.88 294.05 C 143.65 290.91 140.89 287.72 142.14 284.16 C 145.01 273.36 148.80 262.82 152.20 252.18 C 172.74 250.31 193.38 249.99 213.94 248.50 C 219.23 248.35 224.84 247.38 229.94 249.23 C 250.93 259.14 270.71 271.65 292.27 280.34 C 276.62 263.45 258.39 249.14 241.88 233.11 C 238.07 230.19 234.85 224.69 229.40 225.30 M 80.51 269.54 C 72.90 277.30 64.20 283.93 56.77 291.90 C 69.79 289.99 82.82 288.11 95.91 286.78 C 100.12 268.11 105.25 249.59 107.97 230.62 C 97.79 242.85 90.30 257.03 80.51 269.54 M 291.90 280.81 C 295.99 293.66 302.19 305.72 306.22 318.58 C 294.72 324.14 284.08 331.63 271.94 335.75 C 239.24 338.40 206.28 337.42 173.60 340.52 C 216.01 345.70 258.53 350.01 300.95 355.14 C 307.82 355.93 314.75 356.21 321.66 355.73 C 324.28 354.52 325.00 351.45 326.11 349.05 C 329.29 340.44 333.00 332.03 336.04 323.37 C 321.13 309.39 307.76 293.76 291.90 280.81 Z" />
<path fill="#78726e" opacity="1.00" d=" M 163.46 0.00 L 274.96 0.00 C 274.34 0.21 273.09 0.63 272.47 0.84 C 251.95 5.81 231.44 10.81 211.02 16.17 C 207.09 16.63 203.01 18.97 199.04 17.53 C 186.61 12.94 175.41 5.65 163.46 0.00 Z" />
<path fill="#78726e" opacity="1.00" d=" M 0.00 267.37 C 3.07 281.15 6.02 294.96 8.71 308.83 C 5.78 311.39 2.76 313.85 0.00 316.60 L 0.00 267.37 Z" />
</g>
<g id="#86807dff">
<path fill="#86807d" opacity="1.00" d=" M 51.88 0.00 L 93.63 0.00 C 85.70 5.63 78.64 12.38 70.94 18.30 C 72.21 30.00 67.47 44.30 75.74 54.20 C 84.79 66.91 94.28 79.30 102.96 92.27 C 89.55 78.93 75.54 66.20 62.13 52.85 C 59.12 49.28 54.71 45.96 54.23 40.98 C 53.12 27.34 52.67 13.66 51.88 0.00 Z" />
<path fill="#86807d" opacity="1.00" d=" M 274.96 0.00 L 340.65 0.00 C 354.64 14.53 369.44 28.27 383.06 43.15 C 362.14 31.75 341.46 19.89 320.60 8.41 C 310.97 5.03 300.28 8.26 290.34 8.16 C 276.86 26.35 262.53 43.89 248.99 62.02 C 245.92 64.44 245.96 68.27 247.46 71.42 C 259.14 97.49 271.64 123.22 282.81 149.53 L 283.22 150.44 C 276.51 142.76 271.03 134.13 265.15 125.83 C 248.75 102.60 232.53 79.23 215.96 56.12 C 226.59 46.38 236.43 35.82 246.74 25.74 C 254.78 17.68 263.51 10.33 271.15 1.88 C 271.48 1.62 272.14 1.10 272.47 0.84 C 273.09 0.63 274.34 0.21 274.96 0.00 Z" />
<path fill="#86807d" opacity="1.00" d=" M 450.72 0.00 L 486.55 0.00 C 479.82 6.81 473.91 14.38 467.45 21.44 C 456.24 34.47 444.28 46.87 433.64 60.39 C 445.37 68.64 456.84 77.25 468.24 85.95 C 446.22 78.31 424.64 69.47 402.76 61.45 C 417.92 41.03 434.42 21.63 449.28 0.99 C 449.64 0.74 450.36 0.25 450.72 0.00 Z" />
<path fill="#86807d" opacity="1.00" d=" M 170.39 64.23 C 181.09 65.11 191.86 65.76 202.46 67.54 C 207.82 67.32 210.03 72.57 213.24 75.76 C 234.22 102.15 256.46 127.53 277.00 154.26 C 251.93 135.27 227.10 115.95 202.05 96.93 C 200.00 94.58 196.81 93.27 194.05 95.04 C 176.89 104.49 159.94 114.32 142.74 123.71 C 136.04 127.32 129.15 131.39 124.83 137.87 C 115.73 149.75 106.50 161.52 97.25 173.29 C 104.90 186.21 112.94 198.89 120.24 212.02 C 103.31 200.66 87.34 187.95 70.79 176.06 C 83.90 156.68 95.85 136.49 109.62 117.59 C 129.31 99.18 150.26 82.16 170.39 64.23 Z" />
<path fill="#86807d" opacity="1.00" d=" M 405.32 82.98 C 423.37 87.14 441.28 91.87 459.12 96.89 C 464.56 97.97 470.28 100.67 475.91 98.93 C 488.03 95.10 500.06 90.96 512.00 86.59 L 512.00 111.67 C 497.05 114.31 481.47 119.28 466.38 114.69 C 453.66 111.80 440.89 109.16 428.08 106.75 C 424.59 113.83 421.11 120.90 417.61 127.97 C 447.88 161.78 478.94 194.89 509.55 228.39 C 510.40 229.41 511.21 230.47 512.00 231.55 L 512.00 244.36 C 472.76 209.22 432.83 174.83 393.29 140.02 C 397.39 121.03 401.26 101.98 405.32 82.98 Z" />
<path fill="#86807d" opacity="1.00" d=" M 291.02 157.15 C 318.38 155.05 345.75 153.11 373.08 150.75 C 390.84 168.47 408.97 185.87 426.17 204.15 C 408.00 194.68 390.21 184.51 372.20 174.77 C 367.61 172.07 362.09 174.15 357.17 174.15 C 339.45 176.10 321.63 177.01 303.91 178.89 C 299.07 178.19 295.74 181.69 292.86 184.86 C 285.10 193.89 277.22 202.83 269.67 212.04 C 296.67 242.86 325.42 272.15 352.05 303.28 C 314.11 277.11 275.73 251.59 237.70 225.54 C 251.98 203.35 267.47 181.98 281.97 159.94 C 283.78 156.87 288.22 157.78 291.02 157.15 Z" />
<path fill="#86807d" opacity="1.00" d=" M 57.33 192.12 C 74.01 204.67 91.16 216.65 107.16 230.09 C 92.97 225.38 79.58 218.59 65.65 213.23 C 61.65 211.42 58.21 215.28 54.86 216.80 C 44.15 223.56 33.59 230.56 22.84 237.26 C 34.01 255.08 46.25 272.22 56.95 290.34 C 37.69 275.13 18.55 259.71 0.00 243.65 L 0.00 230.40 C 19.34 217.99 38.05 204.63 57.33 192.12 Z" />
<path fill="#86807d" opacity="1.00" d=" M 438.45 218.69 C 462.42 234.39 486.83 249.51 510.31 265.93 C 488.55 259.22 466.83 252.37 445.21 245.22 C 430.98 261.30 416.01 276.72 401.67 292.70 C 396.45 297.29 396.75 304.65 395.71 310.94 C 395.49 314.80 394.14 319.12 396.44 322.57 C 409.56 340.85 423.46 358.60 435.99 377.30 C 413.11 358.77 390.58 339.81 367.80 321.16 C 372.15 310.11 375.95 298.87 379.78 287.65 L 380.19 287.11 C 383.90 282.80 387.49 278.38 390.87 273.79 C 392.01 272.31 393.09 270.79 394.18 269.27 C 408.90 252.38 423.98 235.80 438.45 218.69 Z" />
<path fill="#86807d" opacity="1.00" d=" M 0.00 350.66 C 32.05 336.50 64.06 322.24 96.08 308.00 C 120.30 327.50 145.39 345.93 169.12 366.03 C 146.43 356.63 123.63 347.47 101.01 337.89 C 97.31 336.18 93.17 336.82 89.56 338.42 C 59.78 350.69 29.82 362.55 0.00 374.72 L 0.00 350.66 Z" />
<path fill="#86807d" opacity="1.00" d=" M 323.29 356.15 C 336.78 353.26 345.21 341.28 355.93 333.60 C 374.59 350.47 393.20 367.43 411.19 385.03 C 392.64 379.05 374.80 370.83 355.89 366.04 C 347.00 365.86 338.27 368.38 329.48 369.51 C 291.31 375.31 253.14 381.18 214.93 386.77 C 208.91 387.20 203.27 389.72 198.87 393.82 C 175.44 412.75 150.97 430.35 127.73 449.50 C 157.85 458.24 187.92 467.14 218.00 476.01 C 258.22 488.10 298.70 499.35 338.76 512.00 L 270.62 512.00 C 222.42 491.22 174.19 470.51 125.89 449.96 C 113.33 469.98 103.84 491.74 91.70 512.00 L 53.48 512.00 C 75.08 488.74 97.71 466.44 119.16 443.04 C 119.80 442.42 120.43 441.81 121.06 441.19 C 144.51 420.31 166.60 397.93 189.79 376.77 C 194.53 371.79 201.55 370.74 208.03 369.96 C 246.50 365.72 284.75 359.61 323.29 356.15 Z" />
<path fill="#86807d" opacity="1.00" d=" M 507.31 351.28 C 508.89 350.39 510.47 349.48 512.00 348.49 L 512.00 373.52 C 503.45 381.45 494.67 389.15 485.72 396.63 C 492.99 421.54 503.42 445.41 510.98 470.24 C 491.51 444.38 472.55 418.15 453.46 392.01 C 471.31 378.30 489.52 365.08 507.31 351.28 Z" />
<path fill="#86807d" opacity="1.00" d=" M 414.20 388.92 C 439.95 411.76 465.22 435.15 490.92 458.06 C 496.00 462.48 500.63 467.39 505.12 472.41 C 493.50 467.46 483.20 459.95 472.20 453.83 C 455.90 444.57 440.20 434.26 423.58 425.58 C 405.45 454.62 386.49 483.14 368.08 512.00 L 367.47 512.00 C 361.93 506.83 356.50 501.53 350.89 496.46 C 369.98 461.73 391.42 428.31 410.65 393.66 C 411.45 392.40 412.26 391.14 413.14 389.93 C 413.40 389.68 413.93 389.17 414.20 388.92 Z" />
<path fill="#86807d" opacity="1.00" d=" M 452.77 510.95 C 472.33 502.14 491.33 492.14 511.11 483.84 C 502.90 493.24 494.91 502.85 486.42 512.00 L 450.40 512.00 C 450.99 511.74 452.18 511.21 452.77 510.95 Z" />
</g>
<g id="#67625efe">
<path fill="#67625e" opacity="1.00" d=" M 367.61 0.00 L 450.72 0.00 C 450.36 0.25 449.64 0.74 449.28 0.99 C 432.28 12.56 415.69 24.73 398.42 35.89 C 388.30 23.80 378.44 11.45 367.61 0.00 Z" />
<path fill="#67625e" opacity="1.00" d=" M 436.79 379.01 C 461.22 357.51 486.83 337.37 512.00 316.75 L 512.00 348.49 C 510.47 349.48 508.89 350.39 507.31 351.28 C 483.71 360.28 460.45 370.17 436.79 379.01 Z" />
<path fill="#67625e" opacity="1.00" d=" M 93.08 428.09 C 118.04 407.23 143.56 387.05 169.10 366.91 C 153.67 392.05 137.00 416.39 121.06 441.19 C 120.43 441.81 119.80 442.42 119.16 443.04 C 80.04 465.75 40.94 488.53 1.62 510.89 C 31.78 482.94 62.61 455.71 93.08 428.09 Z" />
</g>
<g id="#86807dfe">
<path fill="#86807d" opacity="1.00" d=" M 0.00 86.57 C 12.27 78.44 24.88 70.85 37.16 62.73 C 60.16 80.48 82.89 98.59 105.48 116.86 C 105.07 116.91 104.25 116.99 103.84 117.03 C 83.19 107.59 62.25 98.82 41.61 89.36 C 27.82 97.18 13.43 103.97 0.00 112.39 L 0.00 86.57 Z" />
<path fill="#86807d" opacity="1.00" d=" M 229.40 225.30 C 234.85 224.69 238.07 230.19 241.88 233.11 C 258.39 249.14 276.62 263.45 292.27 280.34 C 270.71 271.65 250.93 259.14 229.94 249.23 C 224.84 247.38 219.23 248.35 213.94 248.50 C 193.38 249.99 172.74 250.31 152.20 252.18 C 148.80 262.82 145.01 273.36 142.14 284.16 C 140.89 287.72 143.65 290.91 144.88 294.05 C 152.91 309.24 161.26 324.28 168.09 340.07 C 150.78 323.94 133.12 308.19 116.06 291.81 C 120.55 270.87 124.62 249.83 129.72 229.03 C 162.96 228.43 196.18 226.83 229.40 225.30 Z" />
</g>
<g id="#79736fff">
<path fill="#79736f" opacity="1.00" d=" M 428.08 106.75 C 440.89 109.16 453.66 111.80 466.38 114.69 C 481.47 119.28 497.05 114.31 512.00 111.67 L 512.00 231.55 C 511.21 230.47 510.40 229.41 509.55 228.39 C 478.94 194.89 447.88 161.78 417.61 127.97 C 421.11 120.90 424.59 113.83 428.08 106.75 Z" />
<path fill="#79736f" opacity="1.00" d=" M 125.89 449.96 C 174.19 470.51 222.42 491.22 270.62 512.00 L 91.70 512.00 C 103.84 491.74 113.33 469.98 125.89 449.96 Z" />
</g>
<g id="#76716eff">
<path fill="#76716e" opacity="1.00" d=" M 380.19 287.11 C 383.34 282.35 386.95 277.94 390.87 273.79 C 387.49 278.38 383.90 282.80 380.19 287.11 Z" />
</g>
</svg>
